<svg width="218" height="228" viewBox="0 0 218 228" fill="none" xmlns="http://www.w3.org/2000/svg">
<ellipse cx="78.759" cy="149.594" rx="44.2094" ry="21.0147" transform="rotate(33.9054 78.759 149.594)" fill="#090909" fill-opacity="0.2"/>
<g opacity="0.2">
<path d="M69.3468 151.747C87.2666 166.861 103.395 177.216 105.37 174.875C107.345 172.533 94.419 158.382 76.4992 143.267C58.5794 128.152 42.4515 117.797 40.4764 120.139C38.5013 122.481 51.427 136.632 69.3468 151.747Z" fill="#371A45"/>
</g>
<path d="M139.791 100.717L115.219 79.9913C111.44 76.8037 105.792 77.2833 102.605 81.0624L82.4016 105.015C79.214 108.794 79.6936 114.441 83.4727 117.629L108.045 138.355C111.824 141.543 117.472 141.063 120.66 137.284L140.862 113.332C144.05 109.553 143.57 103.905 139.791 100.717Z" fill="white"/>
<path d="M107.467 139.04L82.8949 118.314C78.7442 114.813 78.2155 108.588 81.7166 104.437L101.919 80.4852C105.421 76.3341 111.646 75.8055 115.797 79.3065L140.369 100.032C144.52 103.534 145.048 109.759 141.547 113.91L121.344 137.862C117.843 142.012 111.618 142.541 107.467 139.04ZM114.641 80.6772C111.245 77.8133 106.153 78.2453 103.289 81.6414L83.0859 105.593C80.222 108.989 80.654 114.081 84.0498 116.945L108.622 137.671C112.018 140.535 117.11 140.103 119.974 136.707L140.177 112.755C143.041 109.359 142.609 104.267 139.213 101.402L114.641 80.6772Z" fill="#371A45"/>
<path d="M130.63 134.907C130.63 134.907 127.876 141.597 121.374 138.046C120.201 137.408 119.316 136.518 118.724 135.485C116.187 131.021 119.195 123.841 128.825 122.24C129.334 122.154 129.861 122.085 130.408 122.031C130.431 122.031 130.454 122.029 130.476 122.025C130.476 122.025 130.576 121.383 130.261 120.091C130.062 119.282 129.698 118.213 129.042 116.888L132.187 109.124L132.193 109.111L132.75 107.734L136.143 99.3485C136.143 99.3485 137.548 101.68 139.105 104.945C139.62 106.024 140.151 107.208 140.653 108.443C140.792 108.782 140.928 109.128 141.063 109.476C141.063 109.476 141.36 110.232 141.768 111.485C143.847 117.902 148.741 137.345 130.63 134.907Z" fill="white"/>
<g opacity="0.2">
<path d="M140.653 108.441C138.383 108.854 135.667 108.599 132.75 107.733L136.142 99.3468C136.142 99.3468 137.548 101.678 139.105 104.944C139.62 106.022 140.149 107.205 140.653 108.441Z" fill="#371A45"/>
</g>
<path d="M122.399 86.0458L109.83 87.6888C108.698 85.0631 108.183 82.557 108.375 80.3898C113.423 81.1695 118.223 83.1052 122.399 86.0458Z" fill="#D8D8D8"/>

<path d="M135.665 108.404C130.793 107.624 125.033 104.863 119.766 100.421C114.105 95.6459 110.261 89.9809 108.893 85.058C109.156 84.9372 109.418 84.8175 109.685 84.6998C109.685 84.6998 116.618 72.8242 128.601 76.9063C131.08 78.2592 133.414 79.8608 135.568 81.6863C137.912 83.6634 139.943 85.7932 141.617 87.9606C146.368 98.0556 136.052 106.94 136.052 106.94C135.927 107.433 135.799 107.922 135.665 108.404Z" fill="#D8D8D8"/>
<g opacity="0.2">
<path d="M132.625 111.433L129.042 116.886C130.746 120.321 130.478 122.024 130.478 122.024C130.455 122.026 130.431 122.028 130.41 122.03C131.633 122.043 133.174 122.179 134.512 122.653C134.512 122.653 133.436 120.044 133.502 118.783C133.706 114.744 134.416 113.823 134.554 112.206C134.596 111.686 132.821 110.667 132.625 111.433Z" fill="#371A45"/>
</g>
<g opacity="0.2">
<path d="M121.373 138.047C127.8 141.555 130.564 135.063 130.631 134.909C130.631 134.909 125.374 139.21 121.597 133.628C119.184 130.057 123.22 125.815 126.443 123.222C126.493 123.054 126.556 122.891 126.63 122.732L126.628 122.731C116.761 125.547 115.553 134.871 121.373 138.047Z" fill="#371A45"/>
</g>

<path d="M119.632 137.941C117.511 136.152 116.548 133.369 117.144 130.48C117.94 126.614 121.628 122.225 129.561 121.226C129.483 120.586 129.244 119.481 128.536 117.919C128.486 117.812 128.457 117.696 128.452 117.577C128.447 117.459 128.466 117.34 128.507 117.229C128.548 117.118 128.611 117.016 128.691 116.929C128.772 116.842 128.869 116.772 128.978 116.723C129.086 116.674 129.202 116.647 129.321 116.644C129.439 116.64 129.558 116.66 129.668 116.703C129.779 116.745 129.88 116.809 129.966 116.891C130.052 116.973 130.121 117.071 130.168 117.18C131.596 120.327 131.39 121.988 131.362 122.167L131.253 122.856L130.559 122.92C123.022 123.621 119.593 127.473 118.897 130.843C118.342 133.526 119.456 135.984 121.799 137.261C123.512 138.196 125.069 138.426 126.429 137.944C128.721 137.132 129.788 134.593 129.799 134.568L130.062 133.929L130.747 134.021C135.592 134.673 139.041 133.735 140.999 131.233C146.053 124.778 140.286 109.956 140.227 109.807C138.205 104.529 135.399 99.8592 135.371 99.8127C135.251 99.6093 135.216 99.3668 135.274 99.1377C135.331 98.9087 135.477 98.7117 135.679 98.5896C135.881 98.4675 136.124 98.4301 136.353 98.4857C136.583 98.5412 136.781 98.6851 136.905 98.8861C137.023 99.0816 139.82 103.734 141.897 109.157C142.149 109.794 148.095 125.073 142.411 132.336C140.126 135.257 136.339 136.446 131.148 135.875C130.596 136.886 129.28 138.838 127.027 139.634C125.167 140.292 123.119 140.024 120.941 138.835C120.476 138.581 120.037 138.282 119.632 137.941Z" fill="#371A45"/>
<path d="M130.272 135.54C128.965 135.072 127.7 134.431 126.648 133.513C127.252 133.568 128.079 133.666 128.684 133.732C129.338 133.807 130.01 133.887 130.651 133.991L130.272 135.54Z" fill="#371A45"/>

<path d="M136.721 135.201C136.654 135.144 136.599 135.074 136.558 134.996C136.518 134.917 136.493 134.831 136.486 134.743C136.479 134.655 136.489 134.567 136.516 134.483C136.543 134.399 136.587 134.321 136.644 134.254C137.665 133.049 137.663 130.831 136.638 128.604C135.405 125.926 132.524 123.058 128.134 123.037C128.045 123.038 127.956 123.021 127.873 122.988C127.79 122.955 127.715 122.905 127.651 122.842C127.588 122.779 127.537 122.704 127.503 122.622C127.469 122.539 127.451 122.451 127.452 122.361C127.452 122.272 127.471 122.183 127.506 122.101C127.541 122.019 127.592 121.944 127.656 121.882C127.72 121.82 127.796 121.771 127.879 121.739C127.963 121.706 128.052 121.69 128.141 121.693C133.162 121.717 136.453 124.989 137.858 128.042C139.101 130.742 139.026 133.521 137.669 135.122C137.553 135.258 137.389 135.342 137.211 135.357C137.034 135.372 136.858 135.316 136.721 135.201Z" fill="#371A45"/>
<path d="M130.347 121.091C131.804 121.437 133.256 121.875 134.565 122.592C133.139 122.397 131.695 122.497 130.286 122.685L130.348 121.092L130.347 121.091Z" fill="#371A45"/>
<path d="M95.5164 127.193C93.9675 128.814 92.4577 130.465 91.0079 132.094C90.6422 132.506 90.2781 132.917 89.9202 133.324C83.6137 140.513 78.6307 146.98 76.756 148.094C74.2007 149.609 72.1054 148.16 72.1054 148.16L65.4765 142.569C65.4765 142.569 60.7011 138.934 60.4278 136.786C60.1545 134.639 61.6165 133.15 63.4338 132.798C64.9914 132.494 66.6895 133.247 66.6895 133.247C66.6895 133.247 71.52 125.652 78.2338 115.78C78.5076 115.38 78.7806 114.975 79.0596 114.568C81.1377 111.521 83.3778 108.288 85.699 105.012L95.5164 127.193Z" fill="white"/>
<g opacity="0.2">
<path d="M95.5163 127.193C93.9674 128.814 92.4576 130.465 91.0078 132.094C90.6421 132.506 90.278 132.917 89.9201 133.324C82.0269 127.423 79.2119 120.511 78.2354 115.779C78.5092 115.38 78.7822 114.975 79.0611 114.568C81.1392 111.521 83.3794 108.288 85.7006 105.012L95.5163 127.193Z" fill="#371A45"/>
</g>
<g opacity="0.2">
<path d="M60.4277 136.786C60.7003 138.929 65.4756 142.567 65.4756 142.567L72.1044 148.158C72.1044 148.158 74.2018 149.606 76.7562 148.093C77.0761 147.903 77.4872 147.558 77.9807 147.077C76.5764 147.019 75.6459 146.376 75.6459 146.376L68.1509 140.054C68.1509 140.054 62.7549 135.944 62.4456 133.518C62.4288 133.391 62.4185 133.264 62.415 133.136C61.1082 133.763 60.2087 135.065 60.4277 136.786Z" fill="#371A45"/>
</g>
<path d="M63.8115 142.38C62.2489 141.062 59.7693 138.712 59.5389 136.901C59.2325 134.493 60.7983 132.398 63.2621 131.92C64.4077 131.697 65.5856 131.945 66.3186 132.166C68.119 129.359 75.9928 117.166 84.9667 104.495C85.1041 104.301 85.313 104.169 85.5472 104.129C85.7815 104.089 86.0221 104.144 86.216 104.281C86.41 104.419 86.5414 104.628 86.5813 104.862C86.6213 105.096 86.5665 105.337 86.4291 105.531C76.2752 119.868 67.5331 133.592 67.4459 133.729C67.3308 133.91 67.1546 134.044 66.9492 134.106C66.7438 134.168 66.523 134.154 66.3269 134.067C66.3145 134.062 64.8588 133.435 63.6039 133.678C62.3076 133.93 61.0981 134.954 61.3166 136.674C61.4723 137.895 64.1597 140.438 66.0176 141.856C66.0286 141.865 66.0401 141.875 66.0515 141.884L72.6383 147.44C72.8609 147.577 74.4095 148.444 76.2977 147.324C77.4112 146.664 80.1727 143.391 83.3707 139.601C86.5782 135.798 90.5703 131.065 94.8689 126.575C95.0332 126.403 95.259 126.303 95.4966 126.298C95.7342 126.293 95.9642 126.382 96.1359 126.547C96.3077 126.711 96.4071 126.937 96.4123 127.174C96.4175 127.412 96.3282 127.642 96.1639 127.814C91.9057 132.264 87.9335 136.974 84.7418 140.758C81.0364 145.151 78.5884 148.053 77.214 148.867C74.1988 150.655 71.6996 148.971 71.5947 148.899C71.5714 148.883 71.5484 148.865 71.5266 148.847L64.9125 143.268C64.7015 143.106 64.3013 142.793 63.8115 142.38Z" fill="#371A45"/>

<path d="M79.2519 132.937C76.5463 130.655 73.7074 127.678 72.0233 124.227C71.9277 124.015 71.9184 123.774 71.9974 123.555C72.0764 123.336 72.2375 123.157 72.4466 123.055C72.6556 122.952 72.8962 122.936 73.1174 123.008C73.3387 123.08 73.5231 123.235 73.6318 123.441C77.2548 130.861 87.0454 136.191 87.1446 136.243C87.2482 136.299 87.3399 136.375 87.4143 136.466C87.4887 136.557 87.5445 136.662 87.5783 136.775C87.6122 136.888 87.6235 137.006 87.6116 137.123C87.5998 137.24 87.565 137.354 87.5092 137.457C87.4535 137.561 87.3778 137.653 87.2866 137.727C87.1955 137.801 87.0905 137.857 86.9778 137.891C86.8651 137.925 86.7468 137.936 86.6297 137.924C86.5126 137.913 86.399 137.878 86.2953 137.822C86.0593 137.692 82.767 135.902 79.2519 132.937Z" fill="#371A45"/>

<path d="M67.0903 132.448C69.1427 133.668 70.7869 135.308 72.305 137.089C72.378 137.176 72.4149 137.288 72.4085 137.402C72.402 137.515 72.3527 137.622 72.2703 137.701C72.188 137.779 72.0788 137.824 71.965 137.825C71.8511 137.826 71.741 137.784 71.657 137.707C70.0563 136.262 68.2535 134.885 66.2886 134.051C65.1358 133.52 65.9708 131.846 67.0907 132.448L67.0903 132.448Z" fill="#371A45"/>
<path d="M96.5563 128.07C95.2198 129.871 93.8471 131.637 92.4878 133.342C92.1424 133.772 91.7989 134.2 91.4583 134.622C85.4362 142.05 79.9015 148.052 79.1191 150.088C78.0571 152.862 79.8385 154.683 79.8385 154.683L86.4673 160.274C86.4673 160.274 90.854 164.368 93.0161 164.275C95.1782 164.182 96.4004 162.49 96.4402 160.639C96.4771 159.053 95.4493 157.506 95.4493 157.506C95.4493 157.506 102.121 151.464 110.72 143.182C111.067 142.844 111.421 142.507 111.775 142.163C114.428 139.601 117.237 136.848 120.075 134.008L96.5563 128.07Z" fill="white"/>
<g opacity="0.2">
<path d="M96.5562 128.07C95.2198 129.871 93.847 131.637 92.4878 133.342C92.1424 133.772 91.7989 134.2 91.4583 134.622C98.606 141.407 105.894 143.016 110.722 143.181C111.07 142.844 111.423 142.506 111.777 142.163C114.43 139.601 117.239 136.848 120.077 134.007L96.5562 128.07Z" fill="#371A45"/>
</g>
<g opacity="0.2">
<path d="M93.0168 164.274C90.8588 164.367 86.4683 160.274 86.4683 160.274L79.8395 154.683C79.8395 154.683 78.0583 152.859 79.1197 150.086C79.2522 149.739 79.5237 149.276 79.9141 148.708C80.2083 150.082 80.9986 150.891 80.9986 150.891L88.4936 157.213C88.4936 157.213 93.4552 161.839 95.8987 161.734C96.0262 161.73 96.1534 161.718 96.2797 161.7C95.8818 163.094 94.7504 164.2 93.0168 164.274Z" fill="#371A45"/>
</g>
<path d="M86.9324 161.882C86.4422 161.469 86.0672 161.127 85.872 160.946L79.2597 155.368C79.238 155.35 79.2159 155.331 79.1967 155.31C79.1079 155.219 77.027 153.039 78.2814 149.766C78.8526 148.275 81.3003 145.372 85.005 140.979C88.1966 137.195 92.1689 132.485 95.8378 127.538C95.9794 127.347 96.191 127.22 96.4261 127.185C96.6612 127.15 96.9005 127.21 97.0914 127.351C97.2824 127.493 97.4092 127.705 97.4441 127.94C97.479 128.175 97.4191 128.414 97.2775 128.605C93.5748 133.598 89.5835 138.332 86.3767 142.135C83.1795 145.926 80.4183 149.199 79.9559 150.409C79.1748 152.448 80.2739 153.824 80.4605 154.037L87.0459 159.591C87.0573 159.601 87.0687 159.61 87.0798 159.62C88.7901 161.212 91.7497 163.433 92.9798 163.38C94.7123 163.305 95.5175 161.94 95.5469 160.62C95.5755 159.342 94.7119 158.013 94.7029 158C94.5853 157.821 94.5355 157.606 94.5623 157.394C94.589 157.182 94.6907 156.986 94.849 156.842C94.9693 156.733 107.023 145.802 119.443 133.376C119.611 133.208 119.839 133.113 120.077 133.113C120.314 133.113 120.542 133.207 120.71 133.375C120.879 133.543 120.973 133.771 120.973 134.009C120.973 134.247 120.879 134.475 120.711 134.643C109.734 145.625 99.0421 155.442 96.5802 157.689C96.9221 158.374 97.3645 159.494 97.3381 160.661C97.2821 163.17 95.4814 165.066 93.0559 165.17C91.2293 165.248 88.495 163.2 86.9324 161.882Z" fill="#371A45"/>
<path d="M93.6377 145.071C90.1218 142.105 87.8016 139.164 87.6347 138.95C87.5623 138.858 87.5088 138.751 87.4774 138.638C87.446 138.525 87.4372 138.406 87.4515 138.289C87.4659 138.172 87.5031 138.06 87.5611 137.957C87.6191 137.855 87.6967 137.765 87.7894 137.692C87.8822 137.62 87.9883 137.566 88.1017 137.535C88.2152 137.504 88.3337 137.495 88.4505 137.509C88.5673 137.524 88.6801 137.561 88.7825 137.619C88.885 137.677 88.975 137.754 89.0474 137.847C89.1161 137.935 96.0311 146.692 103.945 149.008C104.062 149.036 104.173 149.089 104.27 149.161C104.367 149.234 104.448 149.326 104.508 149.431C104.569 149.535 104.607 149.652 104.621 149.772C104.636 149.892 104.626 150.014 104.592 150.13C104.558 150.246 104.5 150.354 104.423 150.448C104.346 150.541 104.251 150.618 104.144 150.674C104.036 150.73 103.918 150.763 103.798 150.772C103.677 150.781 103.555 150.765 103.441 150.726C99.7581 149.647 96.343 147.352 93.6377 145.071Z" fill="#371A45"/>
<path d="M94.7261 158.036C93.5722 156.239 91.9114 154.695 90.2169 153.361C89.7806 153.019 90.2373 152.341 90.7176 152.618C92.7289 153.814 94.6235 155.156 96.1708 156.975C96.9521 157.975 95.4489 159.083 94.7265 158.036L94.7261 158.036Z" fill="#371A45"/>
<path d="M86.9324 161.882C86.4422 161.469 86.0672 161.127 85.872 160.946L79.2597 155.368C79.238 155.35 79.2159 155.331 79.1967 155.31C79.1079 155.219 77.027 153.039 78.2814 149.766C78.8526 148.275 81.3003 145.372 85.005 140.979C88.1966 137.195 92.1689 132.485 95.8378 127.538C95.9794 127.347 96.191 127.22 96.4261 127.185C96.6612 127.15 96.9005 127.21 97.0914 127.351C97.2824 127.493 97.4092 127.705 97.4441 127.94C97.479 128.175 97.4191 128.414 97.2775 128.605C93.5748 133.598 89.5835 138.332 86.3767 142.135C83.1795 145.926 80.4183 149.199 79.9563 150.409C79.1748 152.448 80.2743 153.824 80.4609 154.037L87.0459 159.591C87.0573 159.601 87.0687 159.61 87.0798 159.62C88.7901 161.212 91.7497 163.433 92.9798 163.38C94.7123 163.305 95.5175 161.94 95.5469 160.62C95.5755 159.342 94.7119 158.013 94.7029 158C94.5853 157.821 94.5355 157.606 94.5623 157.394C94.589 157.182 94.6907 156.986 94.849 156.842C94.9693 156.733 107.023 145.802 119.443 133.376C119.611 133.208 119.839 133.113 120.077 133.113C120.314 133.113 120.542 133.207 120.71 133.375C120.879 133.543 120.973 133.771 120.973 134.009C120.973 134.247 120.879 134.475 120.711 134.643C109.734 145.625 99.0421 155.442 96.5802 157.689C96.9221 158.374 97.3645 159.494 97.3381 160.661C97.2821 163.17 95.4814 165.066 93.0563 165.171C91.2293 165.248 88.495 163.2 86.9324 161.882Z" fill="#371A45"/>
<path d="M136.053 106.941C132.843 119.49 127.9 129.284 121.235 134.517C118.857 136.384 116.504 137.585 114.211 138.271C109.265 139.745 104.587 138.804 100.502 136.889C97.5161 135.49 94.8462 133.569 92.6175 131.689C90.9017 130.242 89.1179 128.54 87.5283 126.598C87.0827 126.054 86.6523 125.49 86.2433 124.909C83.9328 121.623 82.2933 117.744 82.3644 113.327C82.4121 110.431 83.1936 107.301 85.0044 103.957C89.0389 96.5052 97.8586 89.9814 109.687 84.701" fill="white"/>

<path d="M125.352 130.456C124.063 132.016 122.691 133.375 121.234 134.516C120.902 134.779 120.569 135.027 120.237 135.261C118.2 136.711 116.184 137.683 114.209 138.27C109.264 139.744 104.587 138.803 100.5 136.888C97.5133 135.489 94.8437 133.567 92.6161 131.688C90.9003 130.241 89.1154 128.539 87.5263 126.598C87.0809 126.052 86.6499 125.489 86.2415 124.908C83.9296 121.621 82.2915 117.743 82.3618 113.324C82.4053 110.732 83.0372 107.951 84.4666 104.995C84.6328 104.648 84.8117 104.304 85.0015 103.954C85.8822 102.327 86.9909 100.744 88.3096 99.2102C93.0287 93.7133 100.438 88.8239 109.685 84.6988C109.685 84.6988 119.333 68.1791 135.531 80.8073C151.729 93.4356 136.053 106.939 136.053 106.939C133.547 116.751 129.975 124.878 125.352 130.456Z" fill="white"/>

<g opacity="0.2">
<path d="M135.665 108.404C130.793 107.624 125.033 104.863 119.766 100.421C114.105 95.6459 110.261 89.9809 108.893 85.058C109.156 84.9372 109.418 84.8175 109.685 84.6998C109.685 84.6998 116.618 72.8242 128.601 76.9063C131.08 78.2592 133.414 79.8608 135.568 81.6863C137.912 83.6634 139.943 85.7932 141.617 87.9606C146.368 98.0556 136.052 106.94 136.052 106.94C135.927 107.433 135.799 107.922 135.665 108.404Z" fill="#371A45"/>
</g>
<g opacity="0.2">
<path d="M121.235 134.517C118.857 136.384 116.506 137.587 114.209 138.271C109.265 139.745 104.588 138.803 100.501 136.889C97.5141 135.489 94.8445 133.568 92.6169 131.689C90.9011 130.242 89.1162 128.539 87.5271 126.598C87.0817 126.052 86.6507 125.49 86.2423 124.908C83.9303 121.621 82.2923 117.743 82.3626 113.325C82.4103 110.428 83.1925 107.299 85.0026 103.954C86.1156 101.898 87.5928 99.9121 89.3998 98.0044C88.6577 98.9907 87.9888 100.03 87.3985 101.114C85.5859 104.458 84.8072 107.588 84.7584 110.484C84.6874 114.902 86.3259 118.781 88.6382 122.068C89.0469 122.65 89.4776 123.213 89.9229 123.758C91.512 125.699 93.297 127.401 95.0127 128.848C97.2404 130.727 99.9103 132.648 102.897 134.048C106.983 135.965 111.662 136.904 116.605 135.431C118.901 134.748 121.253 133.543 123.63 131.677C124.599 130.913 125.511 130.078 126.358 129.18C124.782 131.282 123.074 133.073 121.235 134.517Z" fill="#371A45"/>
</g>
<path d="M81.9131 113.318C81.5003 111.134 81.9562 108.89 82.6888 106.827C84.8432 100.616 89.6331 95.6947 94.9353 92.0088C95.1274 91.8727 95.3653 91.8176 95.5976 91.8555C95.8299 91.8933 96.038 92.021 96.1769 92.2111C96.3158 92.4011 96.3744 92.6381 96.3399 92.871C96.3055 93.1038 96.1809 93.3138 95.9929 93.4554C95.1768 94.0957 94.3677 94.7412 93.5803 95.4094C90.4917 98.0803 87.6326 101.102 85.6976 104.71C84.1741 107.396 83.486 110.341 82.8089 113.335C82.7073 113.81 81.9991 113.803 81.9129 113.32L81.9131 113.318Z" fill="#371A45"/>
<path d="M100.31 137.294C95.2505 135.521 90.3309 131.49 87.1566 127.199C86.7036 126.535 86.2757 125.852 85.8741 125.165C85.8443 125.114 85.8248 125.058 85.8167 124.999C85.8086 124.941 85.8122 124.882 85.8271 124.825C85.842 124.768 85.868 124.714 85.9036 124.667C85.9392 124.62 85.9837 124.581 86.0346 124.551C86.1265 124.498 86.234 124.479 86.3386 124.497C86.4432 124.515 86.5382 124.569 86.6071 124.649C87.1594 125.203 87.6576 125.788 88.1856 126.344C90.8495 129.109 93.7768 131.618 96.8601 133.903C98.0999 134.809 99.376 135.661 100.692 136.484C101.136 136.761 100.812 137.463 100.309 137.295L100.31 137.294Z" fill="#371A45"/>

<path d="M134.978 112.345C132.471 122.318 127.019 133.752 117.082 138.058C115.63 138.653 114.088 139.058 112.527 139.14C112.012 139.161 111.863 138.426 112.361 138.259C124.224 134.598 129.917 122.84 134.124 112.074C134.325 111.572 135.104 111.795 134.978 112.345Z" fill="#371A45"/>

<g opacity="0.2">
<path d="M117.732 124.028L121.188 119.932C121.681 119.343 121.922 118.583 121.857 117.817C121.792 117.051 121.427 116.342 120.841 115.845L103.335 101.079C102.746 100.585 101.985 100.345 101.22 100.41C100.454 100.475 99.7449 100.84 99.2476 101.426L95.7923 105.523L88.3095 99.2113L84.4657 104.995C86.8405 106.505 89.481 108.205 92.0822 109.921L89.8277 112.594C89.334 113.183 89.0933 113.944 89.1584 114.709C89.2234 115.475 89.5888 116.184 90.1747 116.681L107.681 131.447C108.27 131.941 109.03 132.181 109.796 132.116C110.561 132.051 111.27 131.686 111.768 131.1L114.053 128.391C116.225 130.747 118.374 133.149 120.238 135.262C120.57 135.027 120.903 134.779 121.235 134.517C122.691 133.375 124.064 132.015 125.353 130.456L117.732 124.028Z" fill="#371A45"/>
</g>
<path d="M118.122 121.23C118.122 121.23 124.359 125.726 125.327 129.583C126.357 133.681 121.874 133.637 121.874 133.637C121.874 133.637 118.024 128.625 113.937 125.429L118.122 121.23Z" fill="white"/>
<g opacity="0.2">
<path d="M121.874 133.638C121.874 133.638 118.023 128.625 113.936 125.43L115.525 123.834C118.351 126.074 121.042 129.147 122.401 130.786C123.123 131.657 124.348 131.957 125.368 131.466C125.378 131.461 125.388 131.456 125.397 131.452C124.857 133.666 121.874 133.638 121.874 133.638Z" fill="#371A45"/>
</g>
<path d="M99.1117 105.196C99.1117 105.196 93.6286 99.8065 89.6641 99.5017C85.4508 99.1781 86.25 103.589 86.25 103.589C86.25 103.589 91.8395 106.539 95.6785 110.029L99.1117 105.196Z" fill="white"/>
<path d="M121.429 134.529L121.164 134.183C121.126 134.134 117.33 129.222 113.384 126.136L112.587 125.512L118.027 120.057L118.646 120.504C118.912 120.695 125.161 125.238 126.197 129.365C126.561 130.815 126.378 132.017 125.652 132.939C124.39 134.54 121.967 134.535 121.864 134.534L121.429 134.529ZM115.334 125.411C118.526 128.104 121.379 131.571 122.288 132.714C122.879 132.645 123.787 132.415 124.248 131.825C124.609 131.363 124.679 130.682 124.458 129.801C123.806 127.203 120.157 123.933 118.208 122.416L115.273 125.361L115.334 125.411Z" fill="#371944"/>

<path d="M85.444 104.176L85.3652 103.747C85.347 103.646 84.9334 101.258 86.2992 99.7443C87.0845 98.8739 88.2387 98.4911 89.7305 98.6048C93.9723 98.9304 99.5042 104.323 99.7377 104.553L100.282 105.089L95.8209 111.369L95.0718 110.688C91.3627 107.318 85.8827 104.406 85.8279 104.376L85.444 104.176ZM97.0074 104.504C95.0036 102.814 91.8703 100.568 89.5931 100.394C88.688 100.323 88.0284 100.508 87.6341 100.942C87.1307 101.496 87.0587 102.427 87.0885 103.024C88.3697 103.726 92.2672 105.955 95.4586 108.647L95.5204 108.699L97.9281 105.31C97.661 105.067 97.3506 104.794 97.0074 104.504Z" fill="#371944"/>
<path d="M119.973 119.804L112.935 128.148C111.629 129.697 109.341 129.935 107.851 128.678L93.0552 116.198C91.5641 114.941 91.4148 112.647 92.721 111.098L99.759 102.754C101.064 101.207 103.35 100.967 104.841 102.225L119.637 114.705C120.827 115.709 121.163 117.379 120.584 118.796C120.434 119.161 120.228 119.502 119.973 119.804Z" fill="white"/>
<g opacity="0.2">
<path d="M119.973 119.804L112.935 128.148C111.629 129.697 109.341 129.935 107.851 128.678L93.0552 116.198C91.5641 114.941 91.4148 112.647 92.721 111.098L95.0895 108.29C96.4048 111.91 99.6034 118.379 106.213 120.842C109.442 122.045 114.854 121.397 114.854 121.397C114.854 121.397 112.269 124.686 112.767 125.02C114.155 125.95 119.6 119.476 120.584 118.796C120.434 119.162 120.228 119.502 119.973 119.804Z" fill="#371A45"/>

</g>
<path d="M107.375 129.447L92.3766 116.797C91.5043 116.059 90.9602 115.006 90.8635 113.868C90.7669 112.73 91.1257 111.6 91.8611 110.726L99.2465 101.97C99.9838 101.098 101.037 100.554 102.175 100.457C103.313 100.36 104.443 100.719 105.317 101.455L120.316 114.105C121.188 114.843 121.732 115.896 121.829 117.034C121.925 118.172 121.566 119.302 120.831 120.176L113.446 128.932C112.708 129.804 111.655 130.348 110.517 130.445C109.379 130.542 108.249 130.183 107.375 129.447ZM104.162 102.825C103.651 102.395 102.991 102.185 102.327 102.242C101.662 102.298 101.047 102.616 100.616 103.125L93.2307 111.881C92.8013 112.392 92.5919 113.052 92.6484 113.716C92.7049 114.381 93.0227 114.996 93.5321 115.427L108.531 128.077C109.041 128.507 109.701 128.716 110.365 128.66C111.03 128.604 111.645 128.286 112.076 127.777L119.461 119.021C119.891 118.51 120.1 117.85 120.044 117.186C119.987 116.521 119.669 115.906 119.16 115.475L104.162 102.825Z" fill="#371944"/>
<path d="M109.541 122.299C110.832 123.387 112.794 123.183 113.925 121.843C115.055 120.503 114.925 118.534 113.635 117.446C112.344 116.357 110.382 116.561 109.251 117.901C108.121 119.241 108.251 121.21 109.541 122.299Z" fill="#22A7F0"/>
<path d="M113.924 121.844C113.788 122.006 113.637 122.155 113.472 122.287C114.193 120.994 113.954 119.361 112.823 118.407C111.692 117.453 110.042 117.493 108.89 118.423C108.993 118.238 109.114 118.064 109.251 117.903C110.381 116.562 112.344 116.357 113.634 117.445C114.925 118.534 115.055 120.504 113.924 121.844Z" fill="white"/>
<path d="M113.923 121.844C112.792 123.185 110.83 123.387 109.54 122.3C108.251 121.212 108.119 119.244 109.251 117.903C109.436 117.683 109.648 117.489 109.884 117.324C109.295 118.579 109.565 120.093 110.638 120.998C111.711 121.903 113.249 121.914 114.387 121.122C114.264 121.382 114.108 121.624 113.923 121.844Z" fill="#1C7AEA"/>
<path d="M109.108 122.812C107.536 121.487 107.37 119.089 108.738 117.468C110.105 115.846 112.496 115.606 114.068 116.932C115.64 118.258 115.806 120.655 114.438 122.276C113.071 123.897 110.678 124.137 109.108 122.812ZM113.201 117.959C112.196 117.112 110.655 117.28 109.765 118.334C108.875 119.389 108.97 120.937 109.975 121.785C110.98 122.633 112.521 122.464 113.411 121.41C114.3 120.355 114.207 118.806 113.202 117.958L113.201 117.959Z" fill="#371944"/>

<path d="M97.7224 121.306C97.5407 121.152 97.4274 120.933 97.4073 120.696C97.3871 120.46 97.4619 120.225 97.6152 120.043L101.218 115.771C101.929 114.929 102.222 113.801 102.003 112.754L101.876 112.142C101.544 110.56 101.981 108.862 103.044 107.602L106.441 103.575C106.594 103.393 106.814 103.28 107.05 103.26C107.287 103.24 107.522 103.314 107.704 103.468C107.886 103.621 107.999 103.84 108.019 104.077C108.039 104.314 107.964 104.549 107.811 104.73L104.412 108.76C103.702 109.603 103.408 110.73 103.628 111.777L103.755 112.389C104.086 113.971 103.649 115.668 102.586 116.929L98.9833 121.201C98.8298 121.381 98.6109 121.494 98.3745 121.514C98.1382 121.533 97.9037 121.458 97.7224 121.306Z" fill="#371944"/>
<path d="M112.973 107.884C111.554 110.292 110.183 111.358 108.938 111.834C108.117 112.15 107.346 112.209 106.657 112.228C103.972 112.301 98.8438 108.6 98.8438 108.6C98.8438 108.6 86.1627 104.731 82.7632 97.08C80.4992 91.9787 84.095 85.787 89.3331 82.9924C89.7361 82.7784 90.1747 82.5678 90.6511 82.3608C90.6529 82.3594 90.6543 82.3576 90.6555 82.3557C97.3065 79.4671 110.593 77.768 122.398 86.0449L104.605 88.3701L99.8234 91.1058C103.694 94.3031 106.467 96.4697 107.537 96.7683C108.607 97.0669 110.644 94.1868 112.26 93.7887C113.168 93.5639 114.766 94.9623 114.336 96.5185C113.824 98.3556 111.663 99.1729 111.967 100.452C112.193 101.404 114.969 102.498 115.259 104.717C115.423 105.969 113.978 107.297 112.973 107.884Z" fill="white"/>
<g opacity="0.2">
<path d="M122.399 86.0458L109.83 87.6888C108.698 85.0631 108.183 82.557 108.375 80.3898C113.423 81.1695 118.223 83.1052 122.399 86.0458Z" fill="#371A45"/>
</g>
<g opacity="0.2">
<path d="M108.938 111.834C108.117 112.15 107.346 112.209 106.657 112.228C103.971 112.301 98.8437 108.6 98.8437 108.6C98.8437 108.6 86.1626 104.731 82.7631 97.0802C80.4991 91.9789 84.0949 85.7872 89.333 82.9926C89.736 82.7785 90.1746 82.568 90.651 82.361C90.3721 82.5594 79.9499 90.0415 85.1751 97.5957C89.8658 104.38 97.965 104.586 100.095 106.027C101.86 107.221 104.098 111.901 108.938 111.834Z" fill="#371A45"/>
</g>
<path d="M121.883 86.7803C114.704 81.6923 105.454 79.8061 96.8265 81.4536C94.0032 82.0017 91.171 82.8391 88.7369 84.3874C85.3177 86.6395 82.5154 90.6195 83.0436 94.8151C83.7145 98.9836 87.6798 102.057 91.1072 104.133C93.6368 105.619 96.3187 106.829 99.1066 107.742C99.2002 107.773 99.2889 107.817 99.3696 107.873C100.479 108.658 101.636 109.374 102.833 110.016C103.931 110.588 105.219 111.209 106.402 111.325C109.151 111.496 110.872 109.699 112.201 107.429C112.279 107.297 112.39 107.187 112.522 107.11C113.223 106.685 113.96 106.05 114.288 105.309C114.361 105.103 114.399 104.977 114.36 104.768C114.287 104.294 114.015 103.831 113.618 103.386C112.563 102.155 110.214 101.236 111.325 99.1732C112.051 97.8207 114.564 96.5293 113.01 94.9589C112.826 94.7879 112.602 94.6712 112.467 94.6607C112.347 94.694 112.231 94.7408 112.121 94.8002C110.738 95.5248 109.717 97.1272 108.116 97.6338C107.393 97.8565 106.542 97.3284 105.992 96.9918C104.738 96.1944 103.642 95.3243 102.525 94.4523C101.389 93.5391 100.246 92.6423 99.1484 91.6944C98.7251 91.2996 98.8519 90.5619 99.3783 90.3265L104.381 87.982C104.881 87.7573 105.272 88.4479 104.826 88.7603L100.267 91.8818L100.393 90.4126C101.471 91.302 102.549 92.1845 103.637 93.046C104.984 94.0561 106.291 95.2279 107.767 95.8995C107.786 95.9061 107.764 95.8971 107.753 95.897C107.741 95.8969 107.663 95.893 107.691 95.8906C108.01 95.7811 108.336 95.5001 108.655 95.2446C109.694 94.4128 110.629 93.33 112.036 92.9181C112.826 92.713 113.708 93.1522 114.22 93.637C115.802 95.0922 115.5 97.1261 114.152 98.5961C113.735 99.1369 113.046 99.6207 112.834 100.19C112.829 100.209 112.846 100.26 112.827 100.205C112.876 100.315 113.173 100.575 113.315 100.699C114.547 101.694 116.117 103.063 116.165 104.859C116.142 106.563 114.751 107.826 113.421 108.658L113.742 108.339C112.633 110.235 110.957 112.272 108.651 112.868C107.876 113.068 107.074 113.151 106.274 113.112C105.409 113.045 104.688 112.795 103.985 112.531C101.945 111.705 100.116 110.576 98.3176 109.326L98.5807 109.457C95.6565 108.502 92.8443 107.233 90.1931 105.673C86.2655 103.293 82.0304 99.8825 81.2697 95.0628C80.6325 90.1229 83.7882 85.5013 87.7594 82.8854C95.3371 78.275 106.513 78.1021 114.72 81.0785C117.633 82.0989 120.382 83.5568 122.913 85.3119C123.011 85.3789 123.094 85.4646 123.159 85.5641C123.223 85.6635 123.267 85.7748 123.289 85.8914C123.31 86.0081 123.308 86.1278 123.282 86.2435C123.257 86.3593 123.209 86.4689 123.141 86.566C123.073 86.663 122.986 86.7456 122.886 86.809C122.785 86.8723 122.674 86.9151 122.557 86.9349C122.44 86.9548 122.32 86.9512 122.205 86.9245C122.089 86.8977 121.98 86.8484 121.884 86.7792L121.883 86.7803Z" fill="#371A45"/>

<path d="M92.1659 87.3573C92.1659 87.3573 94.8735 87.4351 99.824 91.1065L92.1659 87.3573Z" fill="white"/>
<path d="M92.1791 86.9082C93.7095 87.0015 95.1396 87.5724 96.5129 88.1964C97.818 88.7929 99.1575 89.5982 100.358 90.3862C101.379 91.0985 100.316 92.5847 99.3111 91.8423C97.7014 90.528 95.9464 89.2633 94.0455 88.4182C93.4241 88.1462 92.7689 87.8985 92.1009 87.7952C91.56 87.7065 91.6308 86.9008 92.1788 86.9079L92.1791 86.9082Z" fill="#371A45"/>
<path d="M83.3628 99.4275C83.2805 99.3584 83.2161 99.2704 83.1749 99.1711C83.1337 99.0717 83.1171 98.9639 83.1263 98.8568C83.4277 95.3036 84.9455 92.6957 87.6372 91.1057C92.0877 88.4768 98.0589 89.5848 100.098 90.4921C100.186 90.5228 100.267 90.5714 100.335 90.6349C100.404 90.6984 100.458 90.7755 100.495 90.8612C100.532 90.9468 100.551 91.0393 100.551 91.1326C100.55 91.226 100.53 91.3182 100.492 91.4035C100.454 91.4888 100.399 91.5652 100.33 91.6281C100.261 91.6909 100.18 91.7387 100.091 91.7685C100.003 91.7982 99.909 91.8093 99.8161 91.801C99.7231 91.7927 99.6328 91.7651 99.551 91.7201C97.4996 90.8091 92.1026 90.0291 88.3205 92.2631C86.0253 93.619 84.7283 95.8756 84.4655 98.9698C84.4552 99.0925 84.4113 99.21 84.3386 99.3095C84.266 99.4089 84.1673 99.4865 84.0536 99.5337C83.9398 99.5809 83.8152 99.5959 83.6935 99.577C83.5718 99.5582 83.4576 99.5062 83.3634 99.4268L83.3628 99.4275Z" fill="#371A45"/>

<path d="M180.404 82.4521C180.404 82.4521 184.645 90.0741 184.312 91.7688C183.695 94.9105 172.866 107.301 166.813 107.807C164.444 108.006 153.978 101.232 153.978 101.232L180.404 82.4521Z" fill="white"/>
<g opacity="0.2">
<path d="M153.979 101.233C153.979 101.233 164.445 108.007 166.815 107.807C169.184 107.608 172.268 105.601 175.194 103.036C175.01 103.042 169.241 103.107 167.52 91.6313L167.517 91.6107L153.979 101.233Z" fill="#371A45"/>
</g>
<path d="M142.305 72.7819L142.215 72.8891L142.19 72.7786L142.305 72.7819Z" fill="#D8D8D8"/>
<path d="M142.191 72.7787L142.078 72.7739L142.168 72.6667L142.191 72.7787Z" fill="#D8D8D8"/>
<path d="M112.477 66.2268C112.477 66.2268 104.035 57.0526 103.832 54.6838C103.629 52.315 105.088 48.936 107.123 45.6198C110.297 40.4427 114.868 35.4306 116.692 34.7368C118.306 34.1228 126.536 37.0163 126.536 37.0163L119.679 51.2636L112.477 66.2268Z" fill="white"/>
<g opacity="0.2">
<path d="M112.477 66.2267C112.477 66.2267 104.035 57.0525 103.832 54.6837C103.629 52.3148 105.088 48.9358 107.123 45.6197C107.148 45.8022 108.056 51.5 119.658 51.2608C119.664 51.2603 119.672 51.261 119.679 51.2605L112.477 66.2267Z" fill="#371A45"/>
</g>

<path d="M152.384 101.268L180.7 81.1417L181.187 82.016C182.511 84.3929 185.549 90.1214 185.191 91.9413C184.507 95.4234 173.488 108.148 166.89 108.702C164.344 108.915 155.283 103.144 153.492 101.985L152.384 101.268ZM180.102 83.7659L155.581 101.194C160.333 104.193 165.543 107.017 166.74 106.916C172.329 106.447 182.88 94.4108 183.433 91.5962C183.557 90.8004 181.883 87.0835 180.102 83.7659Z" fill="#371A45"/>

<path d="M112.712 67.8059L111.818 66.8343C110.374 65.2645 103.158 57.3063 102.939 54.7614C102.372 48.1635 113.057 35.1567 116.374 33.8955C118.107 33.2365 124.265 35.2662 126.832 36.169L127.776 36.5012L112.712 67.8059ZM125.29 37.5345C121.721 36.3353 117.772 35.3136 117.008 35.5713C114.33 36.5895 104.244 49.0197 104.725 54.6078C104.827 55.8049 108.489 60.4638 112.246 64.6416L125.29 37.5345Z" fill="#371A45"/>
<path d="M122.437 96.5193C138.402 109.985 162.259 107.959 175.725 91.9945C189.191 76.03 187.165 52.172 171.2 38.7064C155.236 25.2407 131.378 27.2665 117.912 43.2311C104.447 59.1957 106.472 83.0536 122.437 96.5193Z" fill="white"/>
<g opacity="0.2">
<path d="M175.726 91.9943C162.261 107.959 138.403 109.985 122.438 96.5191C106.474 83.0532 104.445 59.1935 117.911 43.2287C119.307 41.5708 120.844 40.0361 122.504 38.6417C113.37 54.2283 116.5 74.5853 130.779 86.6293C145.058 98.6734 165.649 98.324 179.473 86.6935C178.378 88.5646 177.125 90.3381 175.726 91.9943Z" fill="#371A45"/>
</g>
<path d="M121.86 97.2052C105.544 83.4424 103.466 58.9711 117.228 42.6543C130.991 26.3374 155.461 24.2586 171.779 38.0223C188.097 51.786 190.174 76.2564 176.411 92.5732C162.648 108.89 138.175 110.966 121.86 97.2052ZM170.624 39.3923C155.062 26.2666 131.724 28.2479 118.598 43.8095C105.472 59.371 107.454 82.7099 123.016 95.8356C138.577 108.961 161.916 106.979 175.041 91.4177C188.167 75.8562 186.184 52.517 170.624 39.3923Z" fill="#371A45"/>
<path d="M121.86 97.2052C105.544 83.4424 103.466 58.9711 117.228 42.6543C130.991 26.3374 155.461 24.2586 171.779 38.0223C188.097 51.786 190.174 76.2564 176.411 92.5732C162.648 108.89 138.175 110.966 121.86 97.2052ZM170.624 39.3923C155.062 26.2666 131.724 28.2479 118.598 43.8095C105.472 59.371 107.454 82.7099 123.016 95.8356C138.577 108.961 161.916 106.979 175.041 91.4177C188.167 75.8562 186.184 52.517 170.624 39.3923Z" fill="#371A45"/>
<path d="M121.86 97.2052C105.544 83.4424 103.466 58.9711 117.228 42.6543C130.991 26.3374 155.461 24.2586 171.779 38.0223C188.097 51.786 190.174 76.2564 176.411 92.5732C162.648 108.89 138.175 110.966 121.86 97.2052ZM170.624 39.3923C155.062 26.2666 131.724 28.2479 118.598 43.8095C105.472 59.371 107.454 82.7099 123.016 95.8356C138.577 108.961 161.916 106.979 175.041 91.4177C188.167 75.8562 186.184 52.517 170.624 39.3923Z" fill="#371A45"/>
<path d="M121.861 97.2049C108.377 85.8321 104.28 66.8087 111.884 50.9259C111.892 50.9054 111.9 50.8855 111.91 50.8655C113.962 46.6024 116.775 42.7499 120.211 39.4978C134.51 25.9229 156.68 25.2873 171.779 38.0228C186.878 50.7583 189.991 72.7249 179.014 89.1139C176.386 93.0416 173.067 96.4596 169.218 99.2017C169.199 99.215 169.18 99.2279 169.161 99.2394C154.782 109.408 135.339 108.574 121.861 97.2049ZM113.521 51.6553C106.24 66.8125 110.144 84.9778 123.016 95.835C135.888 106.692 154.453 107.477 168.169 97.7472C168.189 97.7321 168.21 97.7187 168.232 97.7052C171.882 95.0956 175.03 91.8478 177.525 88.1183C187.991 72.4858 185.023 51.5377 170.624 39.3924C156.224 27.247 135.083 27.8531 121.443 40.7993C120.439 41.7482 119.489 42.7533 118.599 43.8098C116.597 46.1793 114.902 48.7917 113.553 51.5852C113.541 51.6071 113.531 51.6305 113.519 51.6537L113.521 51.6553Z" fill="#371A45"/>

<path d="M180.535 84.2495C180.401 84.1365 180.303 83.9868 180.253 83.8189C180.203 83.6509 180.204 83.472 180.255 83.3044C184.633 68.8484 179.706 52.967 167.708 42.8469C155.717 32.733 139.241 30.5517 125.732 37.2901C125.529 37.3886 125.297 37.4073 125.082 37.3425C124.866 37.2776 124.683 37.134 124.568 36.9402C124.454 36.7463 124.416 36.5165 124.464 36.2964C124.511 36.0762 124.639 35.882 124.823 35.7522C139.142 25.8468 158.451 26.78 171.78 38.022C185.116 49.2706 189.288 68.1546 181.925 83.9438C181.867 84.0683 181.781 84.1778 181.673 84.2638C181.566 84.3498 181.44 84.4099 181.306 84.4396C181.172 84.4693 181.032 84.4677 180.899 84.435C180.765 84.4022 180.641 84.3392 180.535 84.2508L180.535 84.2495ZM168.865 41.4775C175.091 46.7292 179.6 53.5578 181.904 61.2265C182.875 64.4439 183.437 67.7707 183.577 71.1285C184.693 59.3267 180.063 47.3542 170.624 39.3924C161.221 31.4615 148.697 28.9101 137.288 31.9422C148.309 30.5349 159.813 33.8424 168.865 41.4775Z" fill="#371A45"/>
<path d="M175.723 91.9937C173.662 94.4398 171.301 96.6154 168.695 98.469C168.694 98.4684 168.693 98.4681 168.692 98.4682C168.691 98.4683 168.691 98.4687 168.69 98.4694C155.504 103.928 137.823 103.281 125.499 92.8862C113.175 82.4915 109.558 65.1737 112.716 51.2569C112.716 51.2562 112.717 51.2553 112.717 51.2544C112.717 51.2535 112.716 51.2527 112.715 51.2521C114.101 48.3693 115.847 45.6742 117.911 43.2315C118.823 42.15 119.796 41.1214 120.825 40.1505C133.826 32.6495 151.795 34.4438 165.236 45.7816C178.678 57.1193 183.477 74.5371 178.269 88.615C177.484 89.7878 176.634 90.9158 175.723 91.9937Z" fill="#371A45"/>
<g opacity="0.35">
<path d="M175.723 91.9954C173.663 94.4418 171.302 96.6179 168.696 98.4716C168.696 98.471 168.695 98.4707 168.694 98.4708C168.693 98.4709 168.692 98.4713 168.692 98.472C155.506 103.931 137.825 103.283 125.501 92.8884C113.177 82.4934 109.559 65.1757 112.715 51.2576C112.716 51.2569 112.716 51.2561 112.716 51.2552C112.716 51.2543 112.716 51.2534 112.715 51.2529C113.532 49.553 114.475 47.9168 115.537 46.358C115.877 59.106 120.832 72.3518 131.323 81.2008C144.689 92.4745 163.58 93.6949 178.332 88.4305C178.31 88.4936 178.291 88.554 178.267 88.6152C177.482 89.7883 176.633 90.9168 175.723 91.9954Z" fill="#111A28"/>
</g>
<path d="M125.188 93.2544C119.324 88.3077 115.052 81.4838 112.839 73.5227C110.829 66.2982 110.617 58.3666 112.24 51.1841C112.247 51.1356 112.261 51.0885 112.283 51.0444C113.685 48.1247 115.452 45.3948 117.542 42.9199C118.465 41.8242 119.449 40.7818 120.491 39.7977C120.518 39.7717 120.548 39.7493 120.58 39.7309C127.131 35.9513 134.856 34.4625 142.918 35.4211C151.13 36.3988 158.953 39.853 165.541 45.4103C172.13 50.9677 176.856 58.0997 179.203 66.0313C181.508 73.8198 181.34 81.6863 178.716 88.7807C178.704 88.8162 178.686 88.85 178.665 88.8812C176.065 92.7674 172.781 96.1493 168.973 98.8624C168.933 98.8906 168.889 98.9128 168.843 98.9282C162.037 101.739 154.182 102.866 146.721 102.103C138.5 101.261 131.053 98.2014 125.188 93.2544ZM113.175 51.4048C110.3 64.1479 113.09 81.7893 125.81 92.5179C138.529 103.246 156.391 103.025 168.467 98.0414C172.142 95.4134 175.315 92.1457 177.833 88.3945C183.099 74.0778 177.915 57.1079 164.921 46.1481C151.927 35.1884 134.333 32.9404 121.111 40.5385C117.832 43.6526 115.143 47.3344 113.174 51.4059L113.175 51.4048Z" fill="#371A45"/>

<g opacity="0.5">
<path d="M171.358 87.1959C174.106 84.8287 174.943 81.2954 173.228 79.3041C171.512 77.3128 167.894 77.6175 165.146 79.9847C162.398 82.3518 161.562 85.8851 163.277 87.8764C164.992 89.8677 168.611 89.563 171.358 87.1959Z" fill="white"/>
</g>
<g opacity="0.5">
<path d="M157.331 91.6028C158.731 90.6924 159.232 88.9808 158.451 87.7799C157.669 86.579 155.902 86.3435 154.502 87.2539C153.103 88.1643 152.601 89.8759 153.383 91.0768C154.164 92.2777 155.932 92.5132 157.331 91.6028Z" fill="white"/>
</g>
<g opacity="0.5">
<path d="M117.361 57.5977C117.361 57.5977 124.645 39.1608 137.31 39.7149C149.975 40.269 161.354 49.5195 160.497 50.0351C160.497 50.0351 145.404 42.8762 132.392 48.8562C122.357 53.4667 117.361 57.5977 117.361 57.5977Z" fill="white"/>
</g>
<path d="M52.4904 131.569C60.6866 138.482 72.9352 137.442 79.8484 129.246C86.7616 121.05 85.7215 108.801 77.5254 101.888C69.3292 94.9748 57.0807 96.0149 50.1675 104.211C43.2542 112.407 44.2943 124.656 52.4904 131.569Z" fill="#FFD62C"/>

<path d="M79.8471 129.246C72.9351 137.441 60.688 138.482 52.4897 131.567C46.7646 126.738 44.5301 119.307 46.0628 112.469C45.3727 118.689 47.6985 125.126 52.8421 129.464C61.0386 136.378 73.2875 135.338 80.2014 127.141C82.2129 124.764 83.6195 121.936 84.3009 118.898C83.8779 122.713 82.3273 126.316 79.8471 129.246Z" fill="#FFB42E"/>

<g opacity="0.7">
<path d="M82.9577 124.134C84.9286 117.666 83.4136 110.442 78.6526 105.298L78.6458 105.306C78.2 105.883 76.6834 105.457 75.2595 104.358C73.8355 103.259 73.043 101.898 73.4887 101.321L73.4927 101.316C65.588 97.1066 55.551 98.8252 49.5433 105.948C48.2537 107.473 47.2081 109.189 46.4438 111.034C47.2107 108.532 48.4775 106.211 50.1676 104.212C57.0811 96.0159 69.3303 94.9758 77.5269 101.889C84.1451 107.472 86.0961 116.538 82.9577 124.134Z" fill="white"/>
</g>
<path d="M51.8894 132.282C43.3135 125.048 42.221 112.186 49.4548 103.61C56.6886 95.0338 69.5506 93.942 78.1264 101.175C86.7023 108.409 87.7944 121.271 80.5609 129.847C73.3275 138.423 60.4652 139.515 51.8894 132.282ZM76.924 102.601C69.134 96.0304 57.451 97.0224 50.8804 104.812C44.3098 112.602 45.3018 124.285 53.0918 130.856C60.8817 137.427 72.5648 136.435 79.1354 128.645C85.706 120.855 84.714 109.172 76.924 102.601Z" fill="#371A45"/>
<path d="M55.5989 127.884C61.7597 133.08 70.9667 132.298 76.1632 126.138C81.3597 119.977 80.5779 110.77 74.417 105.573C68.2562 100.377 59.0493 101.159 53.8528 107.319C48.6563 113.48 49.438 122.687 55.5989 127.884Z" fill="#FF9C43"/>
<path d="M55.5989 127.884C61.7597 133.08 70.9667 132.298 76.1632 126.138C81.3597 119.977 80.5779 110.77 74.417 105.573C68.2562 100.377 59.0493 101.159 53.8528 107.319C48.6563 113.48 49.438 122.687 55.5989 127.884Z" fill="#FF9C43"/>

<path d="M76.1628 126.139C70.967 132.299 61.7592 133.08 55.5989 127.884C50.5569 123.632 49.1188 116.696 51.6092 110.94C49.8705 116.397 51.4547 122.605 56.1074 126.53C62.2693 131.727 71.4756 130.944 76.6717 124.784C77.593 123.695 78.3489 122.476 78.9151 121.167C78.3342 122.989 77.3988 124.679 76.1628 126.139Z" fill="#FF7A45"/>

<path d="M53.8526 107.319C59.0484 101.159 68.2562 100.378 74.4166 105.574C79.4585 109.826 80.8967 116.762 78.4062 122.518C80.145 117.061 78.5607 110.853 73.908 106.928C67.7461 101.731 58.5398 102.514 53.3437 108.675C52.4225 109.764 51.6666 110.982 51.1003 112.291C51.6813 110.469 52.6166 108.779 53.8526 107.319Z" fill="#FF7A45"/>
<path d="M66.3902 121.722C65.2596 123.063 63.3546 123.224 61.6934 122.376L60.3317 123.99L58.5224 122.464L59.9115 120.817C58.82 119.261 58.6603 117.22 58.6452 117.013L61.0264 116.811C61.0279 117.006 61.1439 118.9 62.3065 119.88C63.1786 120.616 64.1102 120.656 64.5193 120.171C65.7451 118.718 61.197 114.412 63.5397 111.634C64.6701 110.294 66.5589 110.119 68.2064 110.983L69.5684 109.368L71.377 110.894L69.9879 112.541C71.0794 114.097 71.2527 116.122 71.2669 116.33L68.9016 116.546C68.8975 116.321 68.7247 114.462 67.5782 113.495C66.7062 112.76 65.8003 112.689 65.3928 113.172C64.1677 114.624 68.733 118.945 66.3902 121.722Z" fill="#FFD62C"/>
</svg>
