<svg width="183" height="208" viewBox="0 0 183 208" fill="none" xmlns="http://www.w3.org/2000/svg">
<ellipse cx="44.2094" cy="21.0147" rx="44.2094" ry="21.0147" transform="matrix(-0.942718 0.33359 0.33359 0.942718 141.354 100)" fill="#090909" fill-opacity="0.2"/>
<path d="M83.7031 71.1611L86.5151 74.2857L87.9461 75.8777L112.638 103.327C112.638 103.327 114.414 101.537 116.603 98.9455C117.031 98.4384 117.475 97.9014 117.925 97.3402C121.277 93.1636 124.938 87.699 124.667 84.0254C124.261 78.534 110.26 64.2103 102.264 61.0711C98.6003 59.6318 92.1614 64.037 87.9123 67.4789C87.4377 67.8646 86.9897 68.2372 86.5765 68.587C84.8342 70.0654 83.7031 71.1611 83.7031 71.1611Z" fill="white"/>
<g opacity="0.35">
<path d="M86.5151 74.2857L87.946 75.8777L107.552 97.6728L112.638 103.327L112.745 103.218L112.814 103.147L112.877 103.081C112.895 103.064 112.91 103.046 112.929 103.028C112.935 103.021 112.944 103.014 112.95 103.006C112.984 102.973 113.016 102.938 113.053 102.898C113.062 102.89 113.071 102.882 113.078 102.873C113.108 102.841 113.139 102.808 113.174 102.775C113.22 102.728 113.267 102.679 113.316 102.626C113.35 102.587 113.389 102.549 113.426 102.509L113.544 102.383C113.595 102.33 113.647 102.272 113.702 102.215C113.811 102.097 113.928 101.973 114.049 101.84C114.158 101.724 114.27 101.601 114.387 101.472C114.522 101.323 114.664 101.168 114.81 101.006C115.348 100.406 115.958 99.7118 116.603 98.9471C116.73 98.7982 116.855 98.6468 116.985 98.4928C117.075 98.3857 117.165 98.275 117.256 98.1643C117.475 97.8984 117.702 97.6217 117.926 97.3418C121.28 93.1644 124.938 87.7006 124.666 84.0279C124.333 79.5054 114.782 68.9934 106.953 63.6708C112.99 69.0997 118.476 75.9066 118.726 79.3151C118.851 81.0004 112.522 80.9316 110.742 79.0362C106.152 74.1479 99.3065 68.7872 91.3091 69.5058C91.101 69.5228 88.8659 72.3936 86.5151 74.2857Z" fill="#371A45"/>
</g>
<path d="M112.611 104.439L82.6446 71.1249L83.1725 70.6126C83.304 70.4847 86.4476 67.4484 90.3635 64.6407C95.7832 60.7535 99.8808 59.3133 102.543 60.3586C110.887 63.6356 125.002 78.1975 125.428 83.9693C125.941 90.9188 113.7 103.34 113.179 103.865L112.611 104.439ZM84.7675 71.2018L112.657 102.207C115.057 99.6805 124.309 89.5588 123.905 84.081C123.733 81.7499 120.537 77.0836 115.765 72.1979C110.875 67.1872 105.593 63.1957 101.985 61.7793C97.8113 60.1404 88.6139 67.6004 84.7679 71.2026L84.7675 71.2018Z" fill="#371A45"/>
<path d="M114.946 72.3416L110.174 77.8119C109.966 78.0491 109.844 78.3483 109.825 78.6627C109.806 78.9771 109.892 79.2889 110.069 79.5491C111.409 81.5088 114.736 85.8738 117.616 85.5586C120.007 85.2973 122.063 83.0227 122.274 80.6822C122.51 78.0639 118.9 74.1242 117.021 72.2652C116.882 72.1283 116.718 72.0212 116.536 71.9506C116.355 71.8799 116.161 71.8472 115.967 71.8543C115.773 71.8615 115.582 71.9084 115.406 71.9922C115.231 72.0761 115.074 72.195 114.946 72.3416Z" fill="white"/>
<g opacity="0.35">
<path d="M110.07 79.5496C111.408 81.5092 114.737 85.874 117.616 85.558C120.007 85.2969 122.063 83.0225 122.275 80.681C122.419 79.0709 121.109 76.9604 119.642 75.1427C120.225 76.1986 120.523 77.2293 120.504 78.1171C120.396 83.2034 115.522 82.1414 115.522 82.1414C115.522 82.1414 115.898 83.1961 115.67 83.5019C114.718 84.7791 111.487 81.0391 109.86 79.0649C109.898 79.2386 109.97 79.4032 110.07 79.5496Z" fill="#371A45"/>
</g>
<path d="M119.509 85.7772C118.942 86.0624 118.33 86.2453 117.699 86.3175C114.519 86.6656 111.159 82.4968 109.439 79.9799C109.166 79.58 109.034 79.1008 109.063 78.6176C109.092 78.1344 109.28 77.6744 109.599 77.3098L114.371 71.8398C114.567 71.6144 114.808 71.4317 115.078 71.303C115.347 71.1742 115.64 71.1021 115.939 71.0911C116.238 71.08 116.535 71.1304 116.814 71.239C117.092 71.3475 117.345 71.512 117.558 71.7223C120.192 74.329 123.282 78.0108 123.035 80.751C122.843 82.879 121.39 84.8442 119.509 85.7772ZM115.727 72.6846C115.649 72.7235 115.579 72.7774 115.522 72.8433L110.749 78.314C110.653 78.4235 110.595 78.562 110.586 78.7078C110.576 78.8535 110.616 78.9983 110.698 79.1192C113.257 82.8651 115.813 84.9882 117.531 84.7988C119.503 84.5831 121.326 82.6656 121.511 80.6123C121.657 78.9868 119.778 76.0675 116.481 72.8062C116.384 72.7091 116.258 72.6449 116.122 72.6225C115.986 72.6001 115.847 72.6207 115.723 72.6814L115.727 72.6846Z" fill="#371A45"/>
<path d="M121.097 84.4021C120.965 84.4372 120.83 84.4628 120.693 84.4787C120.572 84.4933 120.451 84.5046 120.333 84.5072C120.099 84.518 119.864 84.5126 119.63 84.4909C119.175 84.4521 118.725 84.3619 118.289 84.2221C117.444 83.9528 116.651 83.5397 115.946 83.0009C115.603 82.7393 115.275 82.4575 114.966 82.1569C114.646 81.8644 114.372 81.5554 114.085 81.2438C113.799 80.9321 113.532 80.6065 113.276 80.2682C113.15 80.0976 113.025 79.9257 112.909 79.7461C112.786 79.5622 112.677 79.3692 112.583 79.1688C112.561 79.1218 112.558 79.0682 112.575 79.0191C112.592 78.9701 112.627 78.9294 112.673 78.9056C112.719 78.8817 112.772 78.8766 112.822 78.8911C112.871 78.9057 112.914 78.9389 112.939 78.9838L112.949 79.0035C113.05 79.1686 113.162 79.3265 113.284 79.4763C113.408 79.6335 113.542 79.7851 113.678 79.9353C113.951 80.234 114.241 80.5196 114.541 80.7954C114.841 81.0711 115.148 81.3497 115.466 81.589C115.776 81.8376 116.101 82.0676 116.438 82.2778C117.095 82.6891 117.817 82.9839 118.574 83.149C118.938 83.2291 119.31 83.2675 119.683 83.2634C119.863 83.2631 120.043 83.25 120.221 83.2244C120.309 83.2136 120.394 83.1968 120.477 83.1786C120.545 83.1639 120.613 83.1448 120.679 83.1214C120.841 83.0511 121.025 83.0469 121.19 83.1099C121.356 83.1729 121.49 83.298 121.564 83.4585C121.639 83.6191 121.647 83.8023 121.588 83.9692C121.53 84.1361 121.408 84.2734 121.249 84.3518C121.215 84.3676 121.179 84.3806 121.142 84.3908L121.097 84.4021Z" fill="#371A45"/>
<path d="M93.7756 68.1095C94.3259 67.3946 94.8881 66.7029 95.4638 66.014C96.0395 65.3251 96.6272 64.6483 97.2348 63.9832C97.8423 63.3181 98.4645 62.6643 99.1259 62.0381C99.7873 61.4119 100.472 60.7992 101.254 60.2493C101.42 60.1328 101.625 60.0869 101.825 60.1217C102.025 60.1566 102.202 60.2693 102.319 60.4351C102.435 60.6009 102.481 60.8061 102.446 61.0057C102.412 61.2054 102.299 61.383 102.133 61.4995C102.119 61.5097 102.104 61.5189 102.09 61.528L102.083 61.5314C101.376 61.9573 100.688 62.4875 100.018 63.0394C99.3492 63.5913 98.6993 64.1862 98.0608 64.792C97.4224 65.3978 96.7987 66.0243 96.1852 66.6613C95.5717 67.2983 94.9662 67.9473 94.384 68.6069L94.3804 68.6087C94.3123 68.6836 94.218 68.7294 94.1171 68.7366C94.0161 68.7439 93.9163 68.7119 93.8382 68.6474C93.7602 68.583 93.71 68.4909 93.6981 68.3904C93.6861 68.2899 93.7134 68.1887 93.7742 68.1077L93.7756 68.1095Z" fill="#371A45"/>
<path d="M60.3932 87.3311C61.994 88.6585 63.915 89.808 64.705 90.535L64.4816 94.5464L64.227 99.0909C63.2711 99.7106 62.3391 100.281 61.4309 100.802C45.1769 110.156 36.2319 104.501 33.7591 100.9C28.8645 93.7722 30.8222 86.739 31.8601 83.7576C32.0311 83.2749 32.2275 82.8017 32.4486 82.3399C36.5112 73.7782 51.5258 60.204 60.0452 64.7024C64.8431 67.2328 66.2298 74.9579 58.7178 82.0049C56.8762 83.7315 58.3845 85.6684 60.3932 87.3311Z" fill="white"/>
<g opacity="0.35">
<path d="M62.6981 89.0518C63.5417 89.6414 64.2851 90.148 64.705 90.535L64.2264 99.0896C46.1986 110.792 36.3693 104.702 33.7591 100.9C32.9954 99.7946 32.3546 98.6094 31.8481 97.3652C31.9853 97.5863 33.9071 100.428 34.0801 100.635C37.3309 104.511 50.2092 104.98 52.4022 102.056C52.9416 101.338 53.2731 100.632 53.5494 100.354C54.0531 99.8468 54.7907 100.56 55.7019 100.035C56.5365 99.5535 55.9037 98.0586 56.6592 97.9148C57.2662 97.7992 58.5654 98.7731 59.3254 98.3405L62.6981 89.0518Z" fill="#371A45"/>
</g>
<path d="M58.9118 103.023C53.1508 105.881 47.8614 107.072 43.1304 106.569C38.0357 106.029 34.6244 103.51 33.1294 101.333C29.5223 96.0813 28.8526 90.0844 31.1399 83.5076C33.2927 77.3161 42.3521 67.5351 50.8065 64.2044C54.5786 62.7182 57.8063 62.6594 60.401 64.0279C62.7407 65.2629 64.2974 67.5701 64.6733 70.3583C65.2131 74.3689 63.2323 78.8172 59.2381 82.563C54.952 86.5829 50.3312 92.0249 50.3399 93.8073C50.3404 93.8902 50.3557 93.9402 50.3675 93.9529C50.4413 94.0208 50.501 94.1025 50.5432 94.1934C50.5855 94.2843 50.6093 94.3827 50.6135 94.4828C50.6177 94.583 50.6022 94.683 50.5677 94.7771C50.5333 94.8713 50.4806 94.9577 50.4128 95.0315C50.3449 95.1053 50.2632 95.165 50.1723 95.2072C50.0814 95.2494 49.983 95.2733 49.8828 95.2775C49.7827 95.2817 49.6827 95.2661 49.5885 95.2317C49.4944 95.1972 49.408 95.1446 49.3342 95.0767C49.0984 94.86 48.8166 94.4646 48.8133 93.8144C48.7962 90.3041 57.8101 81.8093 58.1939 81.4496C61.8236 78.0458 63.6335 74.0772 63.1601 70.5622C62.8515 68.2693 61.5865 66.3795 59.6873 65.379C57.505 64.2268 54.7046 64.3096 51.3646 65.6256C43.4125 68.7578 34.5851 78.2449 32.5816 84.011C30.4638 90.1014 31.0712 95.6393 34.3876 100.468C37.1937 104.554 46.9547 109.391 63.8115 98.4492C63.8956 98.3946 63.9896 98.3571 64.0882 98.3389C64.1868 98.3207 64.288 98.322 64.3861 98.3429C64.4841 98.3638 64.5771 98.4037 64.6597 98.4605C64.7423 98.5174 64.8129 98.5899 64.8675 98.674C64.9221 98.7581 64.9595 98.8521 64.9778 98.9507C64.996 99.0492 64.9947 99.1505 64.9738 99.2485C64.9529 99.3466 64.9129 99.4396 64.8561 99.5222C64.7993 99.6048 64.7268 99.6754 64.6427 99.7299C62.7971 100.937 60.8837 102.036 58.9118 103.023Z" fill="#371A45"/>
<path d="M112.795 36.0338C113.174 37.3858 113.342 38.9729 113.26 40.7633C112.66 53.8449 96.7387 71.8892 96.7387 71.8892C96.7387 71.8892 99.6353 74.8826 105.225 79.9897C105.356 80.1094 105.488 80.2284 105.621 80.3505C107.342 81.9165 109.307 83.6726 111.509 85.5941C114.087 87.8435 116.994 90.3215 120.219 92.9855C127.968 99.3923 136.506 108.675 136.506 108.675C136.506 108.675 146.749 107.305 149.31 112.782C149.451 113.084 149.565 113.397 149.651 113.718C151.203 119.435 130.582 128.305 127.674 126.676C124.193 124.725 122.113 122.573 117.897 119.071C114.775 116.478 111.514 113.82 106.703 112.737C101.409 111.81 95.0157 114.941 91.0819 117.367C85.4271 120.854 86.2651 125.003 86.8364 128.026C87.7841 133.06 93.043 141.79 90.1137 146.477C88.5125 149.04 70.6046 160.659 66.2649 154.687C65.3827 153.471 65.0687 152.246 65.1053 151.082C65.2229 147.249 69.1346 144.067 69.1346 144.067C69.1346 144.067 65.1512 137.147 63.6399 133.004C59.8982 122.768 69.7606 112.332 69.7606 112.332C69.7606 112.332 69.254 111.412 67.2882 108.598C64.8617 105.12 62.832 102.516 61.4317 100.802C60.0946 99.168 59.3254 98.3395 59.3254 98.3395L56.5896 95.626L55.0443 94.0923L60.3938 87.3303L80.6315 61.7399C81.2257 60.7803 81.8658 59.6747 82.5487 58.4696C87.7378 49.282 95.3664 34.1526 103.943 31.3107C108.314 29.8635 111.607 31.7951 112.795 36.0338Z" fill="white"/>
<g opacity="0.35">
<path d="M112.795 36.0338C113.174 37.3858 113.342 38.973 113.26 40.7633C112.66 53.8449 96.7386 71.8892 96.7386 71.8892C96.7386 71.8892 99.6353 74.8826 105.225 79.9897L104.237 81.2083C100.504 77.383 96.8205 82.2992 95.5816 80.6185C94.9566 79.7706 97.4084 77.4226 95.6232 76.1236C93.838 74.8245 89.9284 78.1276 89.3021 76.6751C88.8231 75.5599 91.3183 74.5317 92.7612 73.2688C94.2041 72.006 90.4747 70.9037 89.9139 70.2174C89.0351 69.1456 92.2291 68.8606 95.3191 67.0233C107.999 59.49 111.774 42.6629 112.795 36.0338Z" fill="#371A45"/>
</g>
<g opacity="0.35">
<path d="M149.309 112.781C149.45 113.082 149.564 113.396 149.65 113.717C151.202 119.434 130.581 128.304 127.674 126.675C124.193 124.724 122.112 122.572 117.897 119.07C114.775 116.477 111.513 113.818 106.702 112.736C101.409 111.809 95.015 114.94 91.0813 117.365C85.4264 120.853 86.2645 125.001 86.8358 128.025C87.7834 133.059 93.0423 141.788 90.113 146.476C88.5118 149.039 70.6039 160.658 66.2642 154.686C65.3821 153.47 65.068 152.245 65.1047 151.08C65.9313 152.218 67.5715 153.104 70.7925 152.608C78.0304 151.49 88.7465 146.635 87.9108 141.39C87.075 136.144 84.0792 132.434 82.2082 128.53C80.72 125.429 78.3619 121.611 79.7512 119.405C80.4796 118.247 82.4783 119.054 84.0056 118.043C85.5328 117.032 83.7139 113.314 84.8364 112.692C86.2202 111.923 87.2404 114.525 90.6974 114.051C93.8184 113.623 100.607 110.074 101.846 106.46C103.03 103.009 104.291 107.476 105.492 108.355C107.804 110.05 110.617 103.928 112.146 105.33C112.849 105.975 113.155 109.485 115.419 112.649C118.247 116.607 124.573 122.638 131.256 122.741C136.003 122.816 146.89 117.942 149.309 112.781Z" fill="#371A45"/>
</g>
<path d="M80.2738 154.125C76.9765 155.761 73.4636 157.029 70.614 157.129C68.3354 157.207 66.6632 156.538 65.645 155.134C62.529 150.845 65.696 146.146 68.1595 143.899C67.1825 142.167 64.2077 136.788 62.9206 133.265C59.4547 123.78 66.9511 114.376 68.8129 112.243C68.4876 111.723 67.8378 110.722 66.6604 109.035C62.008 102.369 58.7979 98.8973 58.7657 98.8627C58.6278 98.7144 58.5545 98.5174 58.5619 98.3151C58.5692 98.1127 58.6567 97.9216 58.805 97.7837C58.9532 97.6459 59.1502 97.5725 59.3526 97.5799C59.5549 97.5873 59.746 97.6747 59.8839 97.823C60.0167 97.9655 63.1914 101.397 67.9124 108.161C69.8767 110.976 70.4058 111.924 70.4271 111.963L70.6974 112.451L70.3145 112.857C70.2192 112.958 60.8231 123.076 64.3547 132.741C65.8269 136.771 69.7553 143.617 69.7948 143.686L70.1182 144.249L69.6147 144.659C69.3667 144.861 63.5701 149.681 66.8803 154.237C67.583 155.204 68.8211 155.664 70.5607 155.603C77.36 155.365 88.4525 147.693 89.465 146.073C91.3008 143.134 89.4614 138.133 87.8387 133.72C87.0909 131.686 86.3856 129.768 86.0858 128.166L86.071 128.088C85.4971 125.046 84.6292 120.449 90.6827 116.715C94.249 114.516 101.09 110.976 106.836 111.984L106.871 111.991C111.941 113.13 115.365 115.973 118.385 118.482C119.479 119.389 120.443 120.22 121.294 120.952C123.755 123.069 125.532 124.598 128.047 126.009C129.487 126.816 139.557 123.506 145.649 118.758C148.087 116.857 149.247 115.138 148.916 113.917C147.331 108.076 136.713 109.416 136.607 109.429L136.214 109.482L135.945 109.189C135.86 109.097 127.353 99.8727 119.732 93.5736C104.539 81.0151 96.2719 72.503 96.1899 72.4184L95.6993 71.9102L96.1655 71.3813C96.3231 71.203 111.916 53.3875 112.495 40.7257C112.669 36.9348 111.708 34.0461 109.789 32.5925C108.338 31.493 106.4 31.2999 104.184 32.0344C96.7487 34.4991 89.8706 46.8768 84.8482 55.9156C83.5575 58.2388 82.3381 60.433 81.2808 62.1409C81.1742 62.313 81.0036 62.4357 80.8065 62.4821C80.6094 62.5284 80.402 62.4946 80.2299 62.388C80.0578 62.2815 79.935 62.1109 79.8887 61.9138C79.8423 61.7167 79.8762 61.5093 79.9827 61.3372C81.0211 59.6597 82.2321 57.4808 83.5139 55.174C88.6585 45.9158 95.7043 33.235 103.703 30.5851C106.418 29.6857 108.841 29.9588 110.709 31.3759C113.039 33.1434 114.216 36.488 114.019 40.7966C113.465 52.8794 100.474 68.6928 97.7747 71.8518C99.751 73.8372 107.657 81.612 120.702 92.3959C127.642 98.1329 135.293 106.252 136.8 107.87C138.931 107.654 148.628 107.043 150.385 113.516C150.903 115.423 149.624 117.591 146.585 119.961C141.226 124.14 129.947 128.826 127.297 127.339C124.647 125.853 122.822 124.283 120.293 122.109C119.447 121.381 118.488 120.556 117.405 119.656C114.52 117.261 111.251 114.546 106.55 113.485C101.304 112.575 94.8577 115.931 91.4791 118.015C86.3192 121.197 87.0091 124.862 87.5668 127.805L87.5814 127.883C87.8597 129.359 88.5441 131.221 89.2692 133.192C91.0125 137.934 92.9889 143.308 90.7569 146.88C89.9315 148.207 85.3593 151.603 80.2738 154.125Z" fill="#371A45"/>
<g opacity="0.35">
<path d="M82.2489 57.8673C85.8058 67.8273 83.5624 78.3251 77.2468 85.6304C76.8982 86.0327 76.537 86.4265 76.1632 86.8116C74.2546 88.7674 72.0592 90.421 69.6526 91.7155C68.3432 92.4229 66.9782 93.0219 65.5711 93.5065C65.1085 93.6628 64.6459 93.81 64.1846 93.9437C64.1725 93.9496 64.1597 93.95 64.1468 93.9544C61.5936 94.6855 58.9486 95.0463 56.2928 95.0257C53.1211 94.9993 49.9759 94.4445 46.9865 93.3843C40.8995 91.2299 35.6873 87.1382 32.1494 81.7367C36.2119 73.175 51.2266 59.6009 59.7459 64.0993C64.5439 66.6296 65.9306 74.3548 58.4186 81.4017C56.5778 83.127 58.0861 85.0639 60.0948 86.7266L80.3325 61.1362C80.9259 60.1779 81.5668 59.0739 82.2489 57.8673Z" fill="#371A45"/>
</g>
<path d="M42.3913 90.6606C47.3271 92.34 52.6121 92.7209 57.7377 91.7667C58.8153 91.5662 59.8814 91.3083 60.9315 90.9943C61.4478 90.8414 61.9647 90.6702 62.4838 90.4874C65.3056 89.4781 67.9647 88.0618 70.3767 86.2833C71.682 85.3197 72.9077 84.2526 74.0419 83.0924C74.4514 82.6715 74.8482 82.2409 75.2324 81.8005C82.2526 73.7309 84.8295 62.2094 80.9687 51.4195C75.2861 35.5264 57.7949 27.2515 41.9035 32.9328C38.9229 33.9956 36.1258 35.5157 33.6126 37.4385C33.3244 37.6556 33.0413 37.8817 32.7633 38.1133C32.0158 38.7275 31.3024 39.3734 30.6229 40.0508C27.5055 43.1664 25.095 46.9163 23.5552 51.046C23.3122 51.6976 23.0914 52.3583 22.8928 53.0279C21.0484 59.2478 21.2327 65.8934 23.419 72.0014C26.6856 81.1449 33.8613 87.7649 42.3913 90.6606Z" fill="white"/>
<path d="M65.8291 89.1547C64.751 89.6893 63.6427 90.1604 62.5096 90.5657C61.9409 90.7657 61.4323 90.9313 60.9569 91.0719C59.904 91.3866 58.8352 91.6453 57.7549 91.8469C52.6152 92.798 47.3174 92.4156 42.3676 90.736C33.4446 87.7065 26.5102 80.8883 23.3428 72.0287C21.1503 65.9048 20.9649 59.2419 22.8136 53.0056C23.0085 52.3478 23.2324 51.6801 23.4792 51.0221C25.0233 46.8816 27.4401 43.1217 30.5655 39.9976C31.2435 39.3221 31.9655 38.6684 32.7119 38.0551C33.0078 37.8082 33.2863 37.5868 33.5638 37.3785C36.0832 35.4497 38.8874 33.9249 41.8759 32.8588C57.7859 27.1718 75.3565 35.4865 81.0445 51.3945C84.7746 61.8198 82.5706 73.491 75.2929 81.8547C74.91 82.2951 74.507 82.73 74.0984 83.1486C71.9992 85.2942 69.5945 87.1177 66.9622 88.5602C66.5885 88.7672 66.2108 88.9654 65.8291 89.1547ZM42.4175 90.584C47.3411 92.255 52.611 92.6353 57.7235 91.6886C58.7982 91.4884 59.8614 91.2313 60.9088 90.9183C61.384 90.7773 61.8898 90.6121 62.4555 90.4132C66.8084 88.8626 70.7507 86.3403 73.9829 83.0381C74.3887 82.6208 74.7885 82.1875 75.1697 81.7479C82.409 73.4278 84.6012 61.8177 80.8906 51.4478C75.2326 35.6236 57.7543 27.3524 41.9288 33.01C38.9556 34.0704 36.1656 35.5873 33.6592 37.5061C33.3837 37.7134 33.1068 37.9329 32.8119 38.1769C32.0691 38.7874 31.3513 39.4375 30.6767 40.1098C27.5679 43.2174 25.1638 46.9573 23.6276 51.0757C23.383 51.7322 23.1603 52.3963 22.9663 53.0507C21.1269 59.2541 21.3107 65.8822 23.4911 71.9741C26.6414 80.7871 33.5395 87.5697 42.4155 90.583L42.4175 90.584Z" fill="#371A45"/>
<g opacity="0.35">
<path d="M80.9669 51.4219C84.8283 62.21 82.2518 73.7323 75.2306 81.8029C74.8476 82.243 74.4511 82.6735 74.0409 83.0944C70.7975 86.4028 66.8454 88.9319 62.4826 90.491C61.9651 90.671 61.449 90.8428 60.9329 90.9971C59.8821 91.3098 58.8156 91.5672 57.7379 91.7681C52.6123 92.7227 47.3273 92.3418 42.3915 90.662C39.7305 89.7591 37.2057 88.4956 34.8878 86.907C40.6996 88.7284 46.9236 88.7686 52.7585 87.0225C53.2737 86.8702 53.7896 86.698 54.3082 86.5164C58.6727 84.9621 62.6253 82.4332 65.8656 79.1218C66.2755 78.6997 66.6724 78.269 67.0564 77.8297C74.0773 69.7613 76.6536 58.2386 72.7932 47.4486C70.6386 41.3939 66.6213 36.1774 61.3178 32.5478C70.1443 35.314 77.6135 42.0409 80.9669 51.4219Z" fill="#371A45"/>
</g>
<path d="M66.0696 89.6397C64.9726 90.1836 63.8447 90.6629 62.6917 91.0752C62.1115 91.2793 61.5949 91.4478 61.1086 91.5918C60.0379 91.9118 58.951 92.1748 57.8524 92.3797C52.6213 93.3481 47.2294 92.959 42.1916 91.2497C33.1113 88.1669 26.0545 81.228 22.8316 72.2121C20.6013 65.9802 20.4136 59.2 22.2956 52.8542C22.4941 52.1846 22.7219 51.5044 22.9725 50.8329C24.5438 46.6193 27.0035 42.7932 30.1845 39.6144C30.8744 38.9264 31.6096 38.2611 32.3688 37.6371C32.6699 37.3875 32.9547 37.1596 33.2394 36.9457C35.8023 34.9849 38.6547 33.4349 41.6942 32.3512C57.8852 26.5629 75.7665 35.025 81.5548 51.214C85.3507 61.8226 83.1079 73.7004 75.7022 82.2123C75.311 82.6599 74.9029 83.1028 74.4882 83.5295C72.3506 85.7134 69.9021 87.5694 67.222 89.0375C66.8431 89.2455 66.459 89.4462 66.0696 89.6397ZM42.5914 90.0719C47.4273 91.7127 52.6031 92.0862 57.6244 91.1565C58.6809 90.9597 59.7262 90.7066 60.7557 90.3985C61.2237 90.2601 61.7208 90.0977 62.2781 89.9019C65.041 88.9134 67.6445 87.5264 70.0064 85.7851C71.2846 84.8408 72.4851 83.7957 73.5963 82.6596C73.9944 82.2502 74.3876 81.8237 74.7634 81.3933C81.8733 73.2216 84.0269 61.8174 80.3825 51.6316C74.8269 36.0874 57.6568 27.9639 42.1121 33.5208C39.192 34.5615 36.4518 36.0507 33.99 37.9347C33.7174 38.1396 33.4467 38.3545 33.1603 38.5933C32.4283 39.1954 31.7217 39.8345 31.0607 40.494C28.0072 43.5466 25.6457 47.2202 24.1366 51.2656C23.8963 51.9104 23.6778 52.5629 23.4875 53.2055C21.6798 59.2987 21.8603 65.8093 24.0026 71.7931C27.0974 80.4497 33.8726 87.1119 42.5914 90.0719Z" fill="#371A45"/>
<path d="M66.1498 89.8013C65.0465 90.3484 63.912 90.8304 62.7524 91.245C62.1684 91.4505 61.6491 91.6199 61.1603 91.7646C60.0833 92.0864 58.9901 92.3509 57.8851 92.5569C52.6237 93.5308 47.2005 93.1395 42.1334 91.4204C33.0008 88.3199 25.9036 81.341 22.6617 72.2728C20.4174 66.004 20.2283 59.1832 22.1218 52.7996C22.3214 52.1254 22.5505 51.4416 22.8027 50.7664C24.3833 46.5295 26.8569 42.6822 30.0554 39.4855C30.7498 38.7934 31.4886 38.1232 32.2518 37.4942C32.5541 37.244 32.8415 37.0143 33.1283 36.7984C35.7058 34.8271 38.5745 33.269 41.6313 32.1799C57.916 26.3572 75.9013 34.8695 81.723 51.1522C85.5408 61.822 83.2849 73.7685 75.8369 82.3304C75.4434 82.7805 75.0331 83.2261 74.6164 83.6547C72.4668 85.8523 70.004 87.7198 67.308 89.1968C66.9274 89.4053 66.5413 89.6068 66.1498 89.8013ZM42.6501 89.9005C47.4567 91.5314 52.6011 91.9028 57.5921 90.9792C58.6416 90.7833 59.68 90.532 60.7029 90.2263C61.168 90.0883 61.6628 89.9271 62.217 89.7323C63.7063 89.2001 65.151 88.5506 66.5374 87.7898C69.0944 86.3894 71.43 84.6183 73.4684 82.5342C73.8639 82.1275 74.2549 81.7036 74.6285 81.2758C81.6956 73.1533 83.836 61.8174 80.2137 51.6933C74.6902 36.2453 57.6228 28.1691 42.1741 33.6914C39.272 34.7262 36.5485 36.2063 34.1014 38.0784C33.8303 38.2825 33.5633 38.4956 33.2774 38.7326C32.5491 39.3319 31.8481 39.9661 31.189 40.6203C28.1536 43.6543 25.8064 47.3058 24.3069 51.327C24.0673 51.9684 23.8503 52.6167 23.6601 53.2556C21.8635 59.3122 22.0431 65.7836 24.1728 71.7312C27.2487 80.3356 33.9827 86.9571 42.6493 89.8999L42.6501 89.9005Z" fill="#371A45"/>
<path d="M50.069 92.2066C71.7055 89.2187 83.5123 66.1246 69.7819 49.4102C60.4397 38.0373 42.0914 38.4036 31.7427 48.0762C24.2113 55.1152 19.9356 65.2837 27.6662 79.9601C27.6662 79.9601 32.0913 85.9287 36.9019 88.1757C41.7126 90.4226 46.7706 91.7984 46.7706 91.7984L50.069 92.2066Z" fill="#371A45"/>
<path d="M69.7799 49.4092C83.5115 66.125 71.704 89.2189 50.069 92.2076L49.4002 92.1229C66.2416 81.3143 72.6294 59.3228 59.0605 42.1631C63.158 43.5086 66.8965 45.9001 69.7799 49.4092Z" fill="#220F2D"/>
<path d="M66.1498 89.8013C65.0464 90.3484 63.912 90.8304 62.7523 91.245C62.1684 91.4505 61.6491 91.6198 61.1603 91.7646C60.0833 92.0864 58.9901 92.3509 57.8851 92.5569C52.6237 93.5308 47.2005 93.1395 42.1334 91.4204C33.0008 88.3199 25.9035 81.341 22.6615 72.2724C20.7858 67.0387 20.3383 61.3998 21.365 55.9357L21.3805 55.8539L21.4125 55.7769C22.9624 52.046 25.5024 48.5149 28.9624 45.281C35.1233 39.5195 44.0736 36.4289 52.8995 37.0099C61.0111 37.5459 68.108 41.0403 72.8864 46.8587C78.0767 53.1812 80.3704 60.5682 79.5143 68.2223C78.6202 76.225 74.2099 83.8433 67.4144 89.1245L67.3086 89.194C66.9285 89.4045 66.5415 89.607 66.1498 89.8013ZM42.6501 89.9005C47.4567 91.5314 52.6011 91.9028 57.5921 90.9792C58.6416 90.7833 59.6799 90.532 60.7029 90.2263C61.168 90.0883 61.6627 89.9271 62.217 89.7323C63.6853 89.2066 65.1102 88.5669 66.4787 87.8189C72.9061 82.8036 77.0737 75.5992 77.9182 68.045C78.725 60.8307 76.555 53.8558 71.6442 47.8767C67.1542 42.4063 60.4577 39.1161 52.7956 38.6107C44.4044 38.0575 35.9051 40.9896 30.0597 46.4528C26.7917 49.5072 24.3928 52.8246 22.9267 56.3155C21.9729 61.4738 22.4028 66.7926 24.1726 71.7308C27.2485 80.3351 33.9825 86.9567 42.6491 89.8994L42.6501 89.9005Z" fill="#371A45"/>
<path d="M60.28 89.907C57.1018 91.477 53.6904 92.5221 50.1783 93.0016L50.0736 93.0159L46.559 92.5677C46.35 92.511 41.3795 91.15 36.562 88.8994C31.6246 86.593 27.2072 80.6853 27.0215 80.4352L26.9562 80.3308C20.1923 67.4882 21.6185 56.4378 31.1939 47.4881C36.6945 42.3467 44.68 39.5868 52.5558 40.105C59.7964 40.582 66.1339 43.705 70.4004 48.8995C76.5607 56.3988 78.1268 65.727 74.6973 74.4922C72.0715 81.2038 66.8798 86.6334 60.28 89.907ZM50.0629 91.3974C60.7076 89.8923 69.568 83.1982 73.2035 73.9069C76.4158 65.6998 74.9414 56.9545 69.1606 49.9172C65.1783 45.0694 59.244 42.1532 52.4505 41.7059C45.0092 41.2162 37.4723 43.8158 32.2896 48.6596C23.3202 57.0422 21.9955 67.4265 28.3465 79.5255C28.7703 80.0839 32.895 85.4148 37.2415 87.445C41.6704 89.5141 46.378 90.8512 46.9273 91.0041L50.0629 91.3974Z" fill="#371A45"/>
<path d="M83.0146 47.357C83.2011 49.4189 82.713 51.339 81.4785 52.7585C78.5934 56.0745 72.7215 55.387 68.3629 51.2243C68.0039 50.8813 67.6654 50.5251 67.3506 50.1592C63.8331 46.0788 63.0457 40.7205 65.6929 37.6783C68.5778 34.362 74.4506 35.047 78.8099 39.2113C81.3045 41.594 82.7632 44.5997 83.0146 47.357Z" fill="white"/>
<g opacity="0.35">
<path d="M83.0146 47.357C83.2011 49.4189 82.713 51.339 81.4786 52.7585C78.5934 56.0745 72.7215 55.387 68.363 51.2243C68.0039 50.8813 67.6654 50.5251 67.3506 50.1592C68.588 50.4819 70.8902 50.6081 71.2954 47.2591L75.4165 45.0622C75.4165 45.0622 79.5524 45.3114 83.0146 47.357Z" fill="#371A45"/>
</g>
<path d="M80.012 54.8858C79.0988 55.3388 78.0608 55.5986 76.9301 55.6504C73.8413 55.7931 70.5166 54.3914 67.8073 51.8041C63.1499 47.3551 61.9294 40.7821 65.0867 37.1523C66.3484 35.7018 68.1305 34.8834 70.2412 34.786C73.3298 34.6429 76.6547 36.045 79.3638 38.6319C84.0213 43.0813 85.2418 49.6543 82.0845 53.2841C81.5069 53.9503 80.8023 54.4948 80.012 54.8858ZM67.8747 36.99C67.2741 37.2863 66.7385 37.6991 66.299 38.2044C63.6968 41.1987 64.8713 46.7789 68.9174 50.6431C71.2755 52.8951 74.2435 54.1676 76.8573 54.0471C78.519 53.9699 79.9079 53.3416 80.875 52.2306C83.4773 49.2363 82.3028 43.6561 78.2566 39.7919C75.8977 37.5403 72.9281 36.2686 70.3155 36.3885C69.4133 36.4302 68.5912 36.6345 67.8747 36.99Z" fill="#371A45"/>
<path d="M81.7444 50.5172C84.4275 48.1566 84.0373 43.3274 80.8731 39.7309C77.7088 36.1343 72.9686 35.1324 70.2855 37.493C67.6025 39.8537 67.9926 44.6829 71.1569 48.2794C74.3212 51.8759 79.0614 52.8778 81.7444 50.5172Z" fill="white"/>
<path d="M80.7365 51.2867C80.5175 51.3952 80.2913 51.4886 80.0596 51.5664C76.5232 52.7573 71.8281 50.3383 69.593 46.1735C68.3414 43.8412 68.0709 41.3724 68.8514 39.3995C69.4259 37.9476 70.503 36.9188 71.9659 36.4267C75.5023 35.2358 80.1974 37.6548 82.4325 41.8196C83.6839 44.1515 83.9546 46.6207 83.1739 48.5932C82.6922 49.8111 81.8556 50.7316 80.7365 51.2867ZM71.3655 36.8558C70.2822 37.3931 69.4738 38.2826 69.0078 39.4612C68.2459 41.3879 68.5129 43.8052 69.7422 46.0935C71.9404 50.1889 76.5453 52.5725 80.0073 51.4064C81.4236 50.9284 82.4646 49.9371 83.0197 48.5309C83.7816 46.6042 83.5143 44.1865 82.2853 41.8986C80.0869 37.8028 75.482 35.4192 72.02 36.5853C71.796 36.6606 71.5774 36.751 71.3655 36.8558Z" fill="#371A45"/>
<g opacity="0.35">
<path d="M74.4473 50.9541C73.0181 50.1433 71.8065 48.9371 70.9122 47.5493C74.3269 49.1244 77.6108 47.7871 78.4345 44.3588C78.9671 42.1435 78.3481 39.5641 76.963 37.4172C77.1791 37.5155 77.3966 37.6286 77.6132 37.7511C81.2519 39.8183 83.4914 44.4504 82.6178 48.0954C81.7442 51.7404 78.0841 53.0202 74.4473 50.9541Z" fill="#371A45"/>
</g>
<path d="M81.3423 51.7172C80.6636 52.0539 79.8895 52.248 79.0429 52.2886C76.5514 52.4091 73.6967 51.1651 71.4075 48.9611C67.5065 45.2057 66.3842 40.0055 68.8522 37.1223C69.7829 36.0349 71.1143 35.4201 72.7032 35.3435C75.1947 35.223 78.049 36.4672 80.3386 38.671C84.2391 42.4266 85.3619 47.6266 82.8939 50.5097C82.4637 51.0131 81.9359 51.4239 81.3423 51.7172ZM71.1176 37.356C70.7175 37.5527 70.3615 37.8284 70.0711 38.1667C68.1872 40.3677 69.2859 44.6919 72.5206 47.8062C74.4974 49.7097 76.9054 50.7875 78.9657 50.6875C80.1022 50.6323 81.0388 50.2103 81.6751 49.4678C83.5588 47.2664 82.4602 42.9422 79.2256 39.8283C77.2484 37.925 74.8408 36.847 72.7806 36.947C72.161 36.9757 71.6017 37.1159 71.1176 37.356Z" fill="#371A45"/>
<g opacity="0.5">
<path d="M41.4952 47.3929C41.4952 47.3929 32.3922 57.0578 32.2764 67.6065C32.276 67.6177 32.2759 67.6288 32.2759 67.6398C32.2569 69.8609 32.8297 72.0471 33.9354 73.9735C35.3941 76.5223 36.7728 78.0645 38.0385 79.3758C41.8903 83.3615 44.442 84.5078 44.442 84.5078C40.1402 84.5928 36.5523 83.4363 33.3111 80.1484C32.9926 79.8234 32.6762 79.4772 32.3621 79.1099C32.2893 79.0258 32.2195 78.9407 32.1502 78.8543C32.1502 78.8543 32.1488 78.8515 32.1472 78.8483C31.4085 77.8509 30.7303 76.8102 30.1162 75.7316C27.9412 71.9113 25.8207 66.2381 27.8697 60.6708C31.7005 50.2651 41.421 46.6596 41.4952 47.3929Z" fill="white"/>
</g>
<g opacity="0.5">
<path d="M62.1442 52.5904C63.3065 50.6567 62.422 47.9912 60.1688 46.6369C57.9155 45.2826 55.1467 45.7522 53.9845 47.6859C52.8222 49.6196 53.7066 52.2851 55.9599 53.6394C58.2132 54.9938 60.982 54.5241 62.1442 52.5904Z" fill="white"/>
</g>
<g opacity="0.5">
<path d="M67.2346 55.4478C67.6453 54.6116 67.1884 53.5458 66.214 53.0673C65.2397 52.5887 64.1168 52.8786 63.7061 53.7148C63.2955 54.551 63.7524 55.6168 64.7268 56.0954C65.7011 56.5739 66.8239 56.284 67.2346 55.4478Z" fill="white"/>
</g>
<path d="M68.9095 110.721C70.9109 109.729 71.7286 107.301 70.7359 105.3C69.7432 103.299 67.316 102.481 65.3146 103.474C63.3132 104.466 62.4955 106.893 63.4883 108.895C64.481 110.896 66.9081 111.714 68.9095 110.721Z" fill="white"/>
<g opacity="0.35">
<path d="M63.9287 109.592C64.2528 110.02 64.6588 110.379 65.1232 110.649C65.5876 110.918 66.101 111.093 66.6335 111.162C67.166 111.231 67.7069 111.193 68.2247 111.051C68.7425 110.909 69.2268 110.666 69.6495 110.334C70.0721 110.003 70.4246 109.591 70.6864 109.122C70.9482 108.654 71.114 108.137 71.1743 107.604C71.2345 107.07 71.1879 106.53 71.0372 106.015C70.8865 105.499 70.6347 105.019 70.2965 104.602C69.9285 104.13 69.4591 103.746 68.923 103.48C69.0921 104.227 69.0456 105.007 68.7889 105.728C68.5322 106.45 68.0758 107.084 67.4729 107.557C66.87 108.029 66.1453 108.321 65.3831 108.398C64.6209 108.475 63.8526 108.334 63.1674 107.991C63.2981 108.575 63.5583 109.122 63.9287 109.592Z" fill="#371A45"/>
</g>
<path d="M69.2482 111.406C68.2571 111.896 67.1279 112.029 66.0498 111.785C64.9718 111.541 64.0106 110.933 63.3276 110.064C62.7159 109.283 62.361 108.331 62.3117 107.34C62.2623 106.349 62.5209 105.367 63.0519 104.529C63.583 103.691 64.3604 103.038 65.2775 102.659C66.1946 102.28 67.2065 102.195 68.1741 102.414C69.1418 102.634 70.0179 103.147 70.682 103.884C71.3462 104.621 71.7659 105.546 71.8836 106.531C72.0013 107.516 71.8112 108.514 71.3393 109.387C70.8674 110.26 70.137 110.965 69.2482 111.406ZM64.529 109.122C64.9975 109.72 65.6588 110.136 66.4001 110.301C67.1414 110.466 67.9169 110.368 68.5945 110.025C69.272 109.682 69.8096 109.115 70.1158 108.42C70.422 107.725 70.4778 106.946 70.2737 106.214C70.0695 105.483 69.6181 104.845 68.9963 104.409C68.3745 103.973 67.6208 103.766 66.8636 103.824C66.1064 103.881 65.3925 104.199 64.8437 104.724C64.2948 105.249 63.9448 105.948 63.8534 106.702C63.7489 107.566 63.9919 108.437 64.529 109.122Z" fill="#371A45"/>
<path d="M76.1271 113.912L93.7264 103.408C95.8102 102.165 96.4986 99.4417 95.2541 97.3559L89.6642 87.9903C88.574 86.1642 86.3513 85.4113 84.4154 86.0874C84.1355 86.1847 83.8663 86.3105 83.6121 86.4629L66.0149 96.9659C63.9269 98.2111 63.2405 100.933 64.4877 103.017L68.9135 110.436L70.0753 112.385C71.3194 114.471 74.0433 115.155 76.1271 113.912Z" fill="white"/>
<path d="M103.447 77.9574C103.447 77.9574 105.852 76.7033 107.976 79.1432C109.33 80.6986 109.333 83.2341 109.333 83.2341C109.333 83.2341 104.508 90.3218 93.0602 96.0712C93.0602 96.0712 87.8328 94.6742 89.5683 89.7515C89.5683 89.7515 99.5923 83.6832 103.447 77.9574Z" fill="white"/>
<path d="M76.1271 113.912L93.7264 103.408C95.8102 102.165 96.4986 99.4417 95.2541 97.3559L89.6642 87.9903C88.574 86.1642 86.3513 85.4113 84.4154 86.0874C84.1355 86.1847 83.8663 86.3105 83.6121 86.4629L66.0149 96.9659C63.9269 98.2111 63.2405 100.933 64.4877 103.017L68.9135 110.436L70.0753 112.385C71.3194 114.471 74.0433 115.155 76.1271 113.912Z" fill="white"/>
<path d="M103.447 77.9574C103.447 77.9574 105.852 76.7033 107.976 79.1432C109.33 80.6986 109.333 83.2341 109.333 83.2341C109.333 83.2341 104.508 90.3218 93.0602 96.0712C93.0602 96.0712 87.8328 94.6742 89.5683 89.7515C89.5683 89.7515 99.5923 83.6832 103.447 77.9574Z" fill="white"/>
<g opacity="0.35">
<path d="M97.8874 99.1011C99.1309 101.187 98.4427 103.91 96.3593 105.154L78.7599 115.658C76.6759 116.901 73.9531 116.217 72.707 114.13L71.5468 112.181L67.1201 104.762C65.873 102.678 66.5616 99.9551 68.6474 98.7115L86.2452 88.2086C86.4988 88.0559 86.7677 87.93 87.0473 87.8328C88.9836 87.1575 91.2065 87.9097 92.2953 89.7361L93.0341 90.973C95.4064 89.4556 102.237 84.8727 105.619 80.3489C107.34 81.9149 107.832 82.3786 110.034 84.2998C108.776 87.2685 106.434 91.7658 96.783 97.2514L97.8874 99.1011Z" fill="#371A45"/>
</g>
<path d="M76.1271 113.912L93.7264 103.408C95.8102 102.165 96.4986 99.4417 95.2541 97.3559L89.6642 87.9903C88.574 86.1642 86.3513 85.4113 84.4154 86.0874C84.1355 86.1847 83.8663 86.3105 83.6121 86.4629L66.0149 96.9659C63.9269 98.2111 63.2405 100.933 64.4877 103.017L68.9135 110.436L70.0753 112.385C71.3194 114.471 74.0433 115.155 76.1271 113.912Z" fill="white"/>
<g opacity="0.35">
<path d="M76.127 113.912L93.7264 103.408C95.8102 102.165 96.4986 99.4417 95.2541 97.3559L89.6642 87.9903C88.574 86.1642 86.3513 85.4113 84.4154 86.0874C83.812 87.3477 83.431 88.1515 83.431 88.1515C87.0626 96.1801 90.7181 101.557 78.5917 107.746C74.4112 109.879 71.0109 110.303 68.9134 110.436L70.0753 112.385C71.3194 114.471 74.0432 115.155 76.127 113.912Z" fill="#371A45"/>
</g>
<path d="M76.1628 114.762C74.9949 115.339 73.6527 115.455 72.4033 115.086C71.1539 114.718 70.0888 113.893 69.42 112.776L63.8298 103.408C63.1277 102.229 62.9219 100.82 63.2576 99.4896C63.5934 98.1591 64.4431 97.0161 65.6205 96.3113L83.2201 85.807C84.3996 85.1068 85.8084 84.9021 87.1384 85.2377C88.4684 85.5732 89.6114 86.4217 90.3176 87.5976L95.9083 96.9647C96.6103 98.1438 96.816 99.5531 96.4804 100.884C96.1447 102.214 95.295 103.357 94.1178 104.062L76.519 114.566C76.4017 114.638 76.2827 114.703 76.1628 114.762ZM84.2536 86.9814C84.1687 87.0235 84.0849 87.0686 84.0026 87.1179L66.4038 97.6218C65.5734 98.1186 64.974 98.9246 64.7371 99.8629C64.5003 100.801 64.6453 101.795 65.1405 102.627L70.7307 111.994C71.2295 112.822 72.0355 113.42 72.9731 113.657C73.9107 113.894 74.9039 113.75 75.7361 113.257L93.3344 102.754C94.1649 102.257 94.7643 101.451 95.0013 100.513C95.2382 99.5743 95.0932 98.5804 94.5982 97.7488L89.0067 88.3821C88.5353 87.5942 87.7845 87.0127 86.9038 86.7532C86.0231 86.4936 85.0769 86.5751 84.2536 86.9814Z" fill="#371A45"/>
<path d="M75.379 114.265C75.64 114.174 75.8908 114.056 76.127 113.912L93.7264 103.408C94.4531 102.972 95.0392 102.336 95.4148 101.576C95.7905 100.816 95.9399 99.9646 95.8452 99.1224C95.7774 98.4981 95.5748 97.896 95.2515 97.3577L92.7698 93.1959L91.9508 91.8225L89.6638 87.9905C88.4183 85.9027 85.6953 85.2201 83.6117 86.4631L79.8093 88.7339C81.7587 88.0175 84.0166 88.7664 85.1184 90.6099L88.1394 95.668L90.7105 99.9778C91.9532 102.061 91.2664 104.787 89.1832 106.029L75.379 114.265Z" fill="white"/>
<g opacity="0.35">
<path d="M75.379 114.265C75.64 114.174 75.8908 114.056 76.127 113.912L93.7264 103.408C95.8102 102.165 96.4986 99.4417 95.2515 97.3577L91.9508 91.8225C92.092 93.0647 92.0127 94.7394 90.8155 95.6248C90.1596 96.1125 89.1726 96.0198 88.1396 95.6684L90.7107 99.9782C91.9534 102.061 91.2666 104.787 89.1834 106.03L75.379 114.265Z" fill="#371A45"/>
</g>
<path d="M76.1705 114.759C75.9958 114.845 75.816 114.921 75.6322 114.986L74.9862 113.611L88.7904 105.374C89.6189 104.876 90.2167 104.07 90.4531 103.133C90.6896 102.195 90.5456 101.202 90.0526 100.371L84.4617 91.0032C84.0251 90.2737 83.3476 89.7194 82.5461 89.4357C81.7446 89.1521 80.8693 89.1569 80.071 89.4494L79.4169 88.0772L83.2179 85.8076C84.3979 85.1075 85.8072 84.9031 87.1375 85.2392C88.4678 85.5752 89.6109 86.4244 90.3168 87.601L95.9069 96.9669C96.6077 98.1463 96.8128 99.5553 96.4772 100.886C96.1417 102.216 95.2929 103.359 94.1165 104.065L76.5162 114.569C76.4051 114.636 76.2891 114.7 76.1705 114.759ZM82.7124 87.8876C83.9952 88.2421 85.0917 89.0778 85.7736 90.2207L91.3641 99.5875C91.7137 100.171 91.9441 100.817 92.0418 101.49C92.1396 102.163 92.1029 102.848 91.9337 103.507C91.9256 103.54 91.9162 103.572 91.9081 103.605L93.3352 102.753C94.1635 102.255 94.761 101.449 94.9974 100.511C95.2338 99.574 95.0898 98.5812 94.597 97.7494L89.0067 88.3821C88.5082 87.5533 87.7022 86.9552 86.7645 86.7184C85.8267 86.4816 84.8334 86.6253 84.0012 87.1181L82.7124 87.8876Z" fill="#371A45"/>
<path d="M81.0204 99.5123C81.2301 99.8592 83.3991 102.35 83.3991 102.35L85.3649 101.162C86.7189 100.343 86.969 98.2773 85.9231 96.5474C84.8771 94.8176 82.9319 94.0799 81.578 94.8987L79.6122 96.0873C79.6122 96.0873 80.6806 98.9504 81.0204 99.5123Z" fill="#22A7F0"/>
<g opacity="0.35">
<path d="M81.0204 99.5123C81.2301 99.8592 83.3991 102.35 83.3991 102.35L85.3649 101.162C86.7189 100.343 86.969 98.2773 85.9231 96.5474C84.8771 94.8176 82.9319 94.0799 81.578 94.8987L79.6122 96.0873C79.6122 96.0873 80.6806 98.9504 81.0204 99.5123Z" fill="#371A45"/>
</g>
<path d="M83.2835 103.089L82.9673 102.726C82.4501 102.131 80.7473 100.17 80.5305 99.8084C80.1731 99.2171 79.187 96.5857 79.0758 96.2877L78.9098 95.8429L81.2826 94.4084C82.092 93.9188 83.0812 93.8565 84.07 94.2318C85.0099 94.5883 85.8427 95.3066 86.4138 96.2509C87.6213 98.2478 87.2841 100.67 85.6622 101.651L83.2835 103.089ZM81.512 99.2143C81.6312 99.4032 82.5745 100.52 83.5175 101.61L85.0716 100.67C86.153 100.016 86.3169 98.2991 85.4361 96.8425C84.996 96.1149 84.3679 95.5687 83.6659 95.301C83.0131 95.0537 82.3767 95.0847 81.8771 95.3867L80.3176 96.3296C80.7308 97.4223 81.3107 98.8853 81.51 99.2153L81.512 99.2143Z" fill="#371A45"/>
<path d="M83.4016 102.345C84.7556 101.526 85.0054 99.4604 83.9596 97.731C82.9137 96.0015 80.9683 95.2632 79.6142 96.082C78.2602 96.9008 78.0104 98.9666 79.0563 100.696C80.1021 102.426 82.0476 103.164 83.4016 102.345Z" fill="#22A7F0"/>
<g opacity="0.35">
<path d="M83.9576 97.7367C85.0038 99.465 84.7539 101.532 83.4003 102.351C82.0467 103.169 80.0989 102.431 79.0532 100.699C78.9142 100.471 78.7961 100.231 78.7002 99.9812C79.767 100.958 81.1756 101.263 82.2263 100.625C83.3956 99.9179 83.7431 98.28 83.1378 96.7314C83.4574 97.026 83.7334 97.3645 83.9576 97.7367Z" fill="#371A45"/>
</g>
<path d="M83.9576 97.7367C84.0284 97.8527 84.0931 97.9723 84.1514 98.0951C83.0634 96.9026 81.4974 96.4819 80.3516 97.174C79.0907 97.9382 78.7857 99.785 79.6013 101.431C79.3952 101.206 79.2119 100.962 79.054 100.701C78.0081 98.9727 78.258 96.9057 79.6115 96.087C80.9651 95.2683 82.9107 96.0068 83.9576 97.7367Z" fill="white"/>
<path d="M83.4893 102.953C81.8833 103.75 79.7212 102.911 78.5641 100.998C77.9944 100.051 77.7441 98.9819 77.8649 97.984C77.9919 96.934 78.5073 96.0861 79.316 95.5973C80.9397 94.6151 83.2403 95.443 84.4472 97.4398C85.0191 98.3857 85.2672 99.4556 85.1464 100.453C85.0199 101.504 84.5044 102.351 83.6952 102.84C83.6279 102.881 83.5589 102.919 83.4893 102.953ZM79.5438 100.405C80.4246 101.862 82.0214 102.51 83.103 101.86C83.604 101.557 83.9263 101.009 84.01 100.316C84.0995 99.5703 83.9076 98.7601 83.4675 98.0324C82.5869 96.5763 80.9867 95.925 79.9083 96.5772C79.4073 96.8803 79.0854 97.4283 79.0014 98.1218C78.9119 98.8676 79.1039 99.6778 79.5438 100.405Z" fill="#371A45"/>
<path d="M81.8114 111.092C81.6845 111.155 81.5386 111.169 81.4022 111.13C81.2658 111.092 81.1485 111.004 81.073 110.884L77.5287 105.254C77.4295 105.096 77.2926 104.965 77.1303 104.873C76.9679 104.781 76.7853 104.731 76.5988 104.727L74.3046 104.673C73.9207 104.666 73.5451 104.561 73.2129 104.369C72.8808 104.176 72.6031 103.902 72.4059 103.573L67.7972 95.9116C67.7584 95.8472 67.7327 95.7758 67.7216 95.7014C67.7104 95.6271 67.714 95.5513 67.7322 95.4784C67.7503 95.4054 67.7826 95.3367 67.8273 95.2763C67.872 95.2158 67.9281 95.1648 67.9925 95.126C68.0569 95.0873 68.1283 95.0616 68.2027 95.0504C68.277 95.0393 68.3528 95.0429 68.4257 95.061C68.4987 95.0791 68.5673 95.1115 68.6278 95.1561C68.6882 95.2008 68.7393 95.2569 68.7781 95.3213L73.3868 102.983C73.4847 103.146 73.6225 103.282 73.7873 103.378C73.9521 103.473 74.1385 103.526 74.3291 103.53L76.6231 103.583C76.9989 103.591 77.3667 103.692 77.6936 103.878C78.0205 104.063 78.2962 104.327 78.496 104.645L82.0401 110.275C82.1211 110.404 82.1477 110.559 82.1141 110.708C82.0805 110.856 81.9894 110.985 81.8609 111.066C81.8456 111.074 81.8287 111.084 81.8114 111.092Z" fill="#371A45"/>
<path d="M103.447 77.9574C103.447 77.9574 105.852 76.7033 107.976 79.1432C109.33 80.6986 109.333 83.2341 109.333 83.2341C109.333 83.2341 104.508 90.3218 93.0602 96.0712C93.0602 96.0712 87.8328 94.6742 89.5683 89.7515C89.5683 89.7515 99.5923 83.6832 103.447 77.9574Z" fill="white"/>
<g opacity="0.35">
<path d="M109.334 83.2347C109.334 83.2347 104.509 90.3212 93.0605 96.072C93.0605 96.072 89.6525 95.161 89.2522 92.2185C89.2634 92.23 89.2748 92.2409 89.2858 92.252C90.4329 93.3625 92.1846 93.5799 93.5864 92.8159C103.79 87.2536 108.127 80.8855 108.127 80.8855C108.109 80.2549 108.02 79.6283 107.862 79.0178C107.9 79.0584 107.939 79.1003 107.975 79.1442C109.329 80.6986 109.334 83.2347 109.334 83.2347Z" fill="#371A45"/>
</g>
<path d="M94.3303 96.2764C93.8857 96.4976 93.3947 96.6094 92.8981 96.6023C92.4016 96.5953 91.9139 96.4696 91.4758 96.2358C89.2115 95.0265 88.1604 93.0873 88.5211 90.7739C88.5896 90.336 88.7505 89.9176 88.9932 89.5467C89.2359 89.1758 89.5548 88.8608 89.9287 88.6227C91.9987 87.3019 99.0131 82.6417 102.378 78.1415C102.931 77.401 103.758 76.9413 104.646 76.8809C105.668 76.8107 107.174 77.0594 108.55 78.6406C109.464 79.6904 109.838 81.0859 109.991 82.0722C110.055 82.499 110.03 82.9345 109.917 83.3511C109.804 83.7677 109.606 84.1563 109.335 84.4924C107.714 86.5142 103.015 91.7065 94.3967 96.2405L94.3303 96.2764ZM104.194 78.5574C103.96 78.6749 103.757 78.8459 103.601 79.0564C100.178 83.6353 93.4742 88.1724 90.7508 89.9105C90.5596 90.0316 90.3963 90.192 90.2719 90.3812C90.1475 90.5703 90.0648 90.7838 90.0293 91.0074C89.77 92.6767 90.4984 93.9814 92.1949 94.8885C92.4245 95.0104 92.6805 95.0742 92.9404 95.0745C93.2004 95.0748 93.4565 95.0116 93.6864 94.8903C102.051 90.4906 106.584 85.4866 108.144 83.5385C108.283 83.3676 108.385 83.1699 108.443 82.9576C108.502 82.7454 108.516 82.5233 108.484 82.3054C108.362 81.5188 108.076 80.4178 107.401 79.6426C106.627 78.7535 105.736 78.3367 104.752 78.404C104.558 78.4182 104.368 78.4706 104.194 78.5582L104.194 78.5574Z" fill="#371A45"/>
<path d="M49.851 94.5147C48.0713 92.8783 55.4071 85.1095 58.716 82.0063C66.2297 74.959 64.843 67.2358 60.0449 64.7031C51.0362 59.9483 34.7688 75.394 31.8609 83.7582C30.824 86.7406 28.863 93.7754 33.7589 100.901" fill="white"/>
<g opacity="0.35">
<path d="M58.717 82.0063C55.6258 84.9018 49.0295 91.8644 49.6125 94.1094C40.689 94.2166 51.7126 83.9188 54.9514 81.0481C61.3351 75.3881 63.4602 69.956 62.3636 66.6574C65.049 70.1329 64.8091 76.2919 58.717 82.0063Z" fill="#371A45"/>
</g>
<g opacity="0.35">
<path d="M50.7464 94.0571L49.6735 94.2741C49.6473 94.2224 49.6271 94.1678 49.6134 94.1115C49.9919 94.1173 50.3702 94.0991 50.7464 94.0571Z" fill="#371A45"/>
</g>
<path d="M50.1903 95.1987C50.052 95.2674 49.8962 95.2925 49.7433 95.2707C49.5904 95.2489 49.4478 95.1813 49.3342 95.0767C49.0984 94.86 48.8166 94.4646 48.8133 93.8144C48.7962 90.3041 57.8101 81.8092 58.1938 81.4496C61.8236 78.0458 63.6335 74.0772 63.1601 70.5622C62.8515 68.2692 61.5865 66.3795 59.6873 65.379C57.5049 64.2268 54.7046 64.3096 51.3646 65.6256C43.4124 68.7578 34.5851 78.2448 32.5816 84.011C30.4638 90.1014 31.0712 95.6392 34.3876 100.468C34.4443 100.55 34.4843 100.643 34.5051 100.741C34.5259 100.84 34.5272 100.941 34.5088 101.039C34.4905 101.138 34.453 101.232 34.3983 101.316C34.3437 101.4 34.273 101.473 34.1904 101.529C34.1077 101.586 34.0147 101.626 33.9166 101.647C33.8186 101.668 33.7173 101.669 33.6188 101.651C33.5202 101.632 33.4262 101.595 33.3421 101.54C33.2581 101.485 33.1856 101.415 33.1288 101.332C29.5217 96.0801 28.852 90.0832 31.1393 83.5064C33.2921 77.3149 42.3514 67.5339 50.8059 64.2032C54.578 62.7169 57.8056 62.6582 60.4004 64.0267C62.74 65.2617 64.2968 67.5689 64.6727 70.3571C65.2125 74.3677 63.2317 78.8159 59.2375 82.5618C54.9514 86.5816 50.3305 92.0237 50.3393 93.8061C50.3398 93.889 50.3551 93.939 50.3669 93.9517C50.4582 94.0355 50.5277 94.1402 50.5694 94.2569C50.6111 94.3735 50.6238 94.4986 50.6063 94.6212C50.5889 94.7439 50.5418 94.8605 50.4693 94.9609C50.3967 95.0613 50.3007 95.1425 50.1897 95.1975L50.1903 95.1987Z" fill="#371A45"/>
<path d="M108.321 56.5115C108.211 56.5661 108.088 56.5893 107.965 56.5784C98.312 55.7474 90.0532 46.0227 89.7061 45.6076C89.596 45.4703 89.544 45.2954 89.5612 45.1202C89.5785 44.9451 89.6637 44.7836 89.7985 44.6705C89.9334 44.5574 90.1071 44.5016 90.2826 44.515C90.4581 44.5284 90.6214 44.61 90.7374 44.7423C90.8192 44.8396 98.9894 54.4544 108.081 55.237C108.227 55.2496 108.365 55.3097 108.475 55.4083C108.584 55.5068 108.657 55.6384 108.685 55.7829C108.712 55.9273 108.691 56.0767 108.626 56.2083C108.56 56.3399 108.453 56.4464 108.321 56.5115Z" fill="#371A45"/>
<path d="M50.9194 91.8423L50.915 91.8445C47.001 93.7518 42.5041 93.4952 38.5824 91.1384C34.8202 88.878 32.4031 85.1452 32.2693 81.3986C32.2662 81.3103 32.2805 81.2221 32.3115 81.1393C32.3424 81.0565 32.3894 80.9805 32.4497 80.9159C32.51 80.8512 32.5824 80.799 32.6629 80.7623C32.7433 80.7256 32.8302 80.7051 32.9186 80.702C33.007 80.6989 33.0951 80.7133 33.1779 80.7442C33.2608 80.7752 33.3367 80.8221 33.4014 80.8824C33.466 80.9427 33.5182 81.0152 33.5549 81.0956C33.5916 81.1761 33.6121 81.263 33.6152 81.3513C33.7311 84.6478 35.9001 87.956 39.2757 89.9844C42.7996 92.102 46.8271 92.3385 50.3251 90.634C50.4853 90.5552 50.6703 90.5432 50.8394 90.6008C51.0084 90.6584 51.1476 90.7807 51.2264 90.941C51.3053 91.1012 51.3172 91.2862 51.2596 91.4552C51.202 91.6243 51.0797 91.7635 50.9194 91.8423Z" fill="#371A45"/>
<path d="M86.9018 127.33C86.7671 127.397 86.6139 127.416 86.4666 127.386C86.3194 127.355 86.1866 127.276 86.0894 127.162C82.2749 122.664 68.1528 126.783 63.033 128.747C62.9505 128.779 62.8625 128.794 62.7741 128.792C62.6857 128.79 62.5986 128.77 62.5178 128.734C62.437 128.698 62.3641 128.647 62.3032 128.583C62.2423 128.519 62.1947 128.443 62.1629 128.361C62.1312 128.278 62.116 128.19 62.1183 128.102C62.1206 128.013 62.1403 127.926 62.1762 127.845C62.2121 127.765 62.2636 127.692 62.3277 127.631C62.3918 127.57 62.4673 127.522 62.5498 127.49C63.3377 127.188 81.9042 120.145 87.1159 126.289C87.1821 126.367 87.2296 126.459 87.2549 126.558C87.2802 126.657 87.2826 126.76 87.2619 126.86C87.2412 126.961 87.1979 127.055 87.1355 127.136C87.073 127.217 86.9929 127.282 86.9012 127.328L86.9018 127.33Z" fill="#371A45"/>
<path d="M114.343 115.522C113.952 115.716 113.582 115.88 113.237 116.01C113.07 116.073 112.885 116.067 112.722 115.994C112.559 115.92 112.433 115.785 112.37 115.618C112.307 115.451 112.313 115.265 112.386 115.103C112.46 114.94 112.595 114.813 112.762 114.75C117.673 112.896 127.768 104.043 126.784 99.6212C126.765 99.5349 126.763 99.4456 126.778 99.3585C126.794 99.2714 126.826 99.1882 126.873 99.1136C126.921 99.039 126.983 98.9745 127.055 98.9237C127.127 98.873 127.209 98.8369 127.295 98.8178C127.382 98.7986 127.471 98.7966 127.558 98.8119C127.645 98.8272 127.728 98.8595 127.803 98.9069C127.878 98.9544 127.942 99.0161 127.993 99.0885C128.044 99.1609 128.08 99.2426 128.099 99.3289C128.843 102.675 125.147 106.922 122.877 109.157C120.18 111.811 116.85 114.279 114.343 115.522Z" fill="#371A45"/>
<path d="M68.6326 143.49C68.7516 143.385 68.8353 143.317 68.9349 143.24C69.0345 143.163 69.1265 143.095 69.2238 143.025C69.4178 142.887 69.6141 142.756 69.8144 142.637C70.2107 142.394 70.619 142.172 71.0378 141.972C71.8687 141.581 72.7279 141.253 73.608 140.991C74.4828 140.735 75.3663 140.52 76.2674 140.406C76.4897 140.368 76.7164 140.35 76.9427 140.332C77.169 140.315 77.3939 140.294 77.6202 140.284C78.0748 140.268 78.53 140.275 78.9839 140.306C78.5669 140.501 78.1489 140.662 77.7347 140.818C77.32 140.992 76.906 141.136 76.4962 141.296L75.2736 141.771C75.0722 141.852 74.8668 141.922 74.6668 142.006L74.0683 142.258C73.2759 142.601 72.4968 142.963 71.7478 143.366C71.3718 143.563 71.0034 143.773 70.6452 143.988C70.464 144.095 70.291 144.208 70.1164 144.318L69.8629 144.487C69.7833 144.539 69.6905 144.606 69.6396 144.643L69.5905 144.678C69.4317 144.788 69.237 144.834 69.0457 144.806C68.8544 144.778 68.6809 144.679 68.56 144.528C68.4392 144.377 68.3801 144.186 68.3948 143.993C68.4094 143.801 68.4966 143.621 68.6388 143.49L68.6326 143.49Z" fill="#371A45"/>
<path d="M128.979 117.586C128.812 116.543 128.998 115.456 129.348 114.443C129.696 113.418 130.272 112.481 130.948 111.628C131.31 111.224 131.666 110.806 132.08 110.455C132.284 110.276 132.478 110.08 132.699 109.924L133.356 109.444C133.574 109.277 133.81 109.147 134.044 109.012C134.277 108.877 134.511 108.742 134.747 108.613C135.23 108.373 135.726 108.172 136.22 107.966C136.4 107.899 136.599 107.901 136.777 107.974C136.955 108.046 137.099 108.183 137.18 108.357C137.262 108.531 137.275 108.729 137.216 108.912C137.158 109.096 137.032 109.25 136.865 109.344L136.793 109.38C136.357 109.605 135.912 109.806 135.475 110.02C135.266 110.142 135.054 110.261 134.842 110.377C134.626 110.487 134.419 110.611 134.22 110.749L133.615 111.145C133.513 111.21 133.416 111.282 133.325 111.36L133.041 111.581C132.643 111.859 132.317 112.211 131.952 112.528C131.277 113.223 130.684 113.994 130.186 114.826C129.664 115.689 129.258 116.617 128.979 117.586Z" fill="#371A45"/>
</svg>
