<svg width="1728" height="1117" viewBox="0 0 1728 1117" fill="none" xmlns="http://www.w3.org/2000/svg">
<g clip-path="url(#clip0_89_2033)">
<rect width="1728" height="1117" fill="white"/>
<path d="M2488 -20H-218V1198H2488V-20Z" fill="url(#paint0_linear_89_2033)"/>
<g opacity="0.71">
<path d="M237.2 168.601C236.279 199.756 228.168 230.277 213.502 257.778C212.926 258.9 212.294 260.022 211.661 261.144C199.114 283.858 182.251 303.9 162.02 320.145C155.939 325.029 149.572 329.544 142.952 333.666C128.899 342.491 113.81 349.544 98.0274 354.666V354.666C96.877 355.04 95.8128 355.414 94.6912 355.73C65.9808 364.431 35.6894 366.604 6.03133 362.091C-23.6267 357.578 -51.9015 346.493 -76.7259 329.646C-101.55 312.798 -122.297 290.615 -137.448 264.718C-152.6 238.82 -161.774 209.863 -164.299 179.964C-164.299 178.727 -164.471 177.49 -164.586 176.253C-166.427 147.632 -162.112 118.949 -151.932 92.138C-150.983 89.6065 -149.947 87.1037 -148.912 84.5722C-143.46 71.7415 -136.714 59.5002 -128.779 48.0381C-125.019 42.6325 -120.977 37.4281 -116.671 32.4464C-115.981 31.5834 -115.291 30.7492 -114.543 29.9437C-102.109 15.811 -87.7284 3.51947 -71.8332 -6.56162C-70.7115 -7.30956 -69.6186 -7.99997 -68.4969 -8.63284C-65.4195 -10.5315 -62.2846 -12.315 -59.1209 -14.041C-58.1143 -14.5588 -57.1365 -15.1054 -56.2449 -15.5945C-15.9239 -36.4113 30.2507 -42.9767 74.7743 -34.2235C119.298 -25.4704 159.553 -1.91333 188.997 32.619C190.119 33.9135 191.212 35.2368 192.247 36.5601C197.728 43.271 202.762 50.3341 207.318 57.7039C208.181 59.0847 209.015 60.5806 209.82 61.9038C218.234 76.3733 224.814 91.8347 229.406 107.931C229.723 109.024 230.01 110.117 230.298 111.182C234.049 125.082 236.287 139.347 236.97 153.728C237.258 158.59 237.315 163.566 237.2 168.601Z" fill="url(#paint1_radial_89_2033)"/>
<g style="mix-blend-mode:multiply" opacity="0.5">
<path d="M232.685 205.653C232.685 205.653 140.248 212.787 121.295 179.187C102.341 145.587 83.0717 137.043 52.9305 140.61C22.7893 144.178 -15.146 168.428 -51.7871 158.619C-88.4282 148.809 -157.943 110.491 -157.943 110.491C-163.925 128.989 -164.989 163.595 -164.989 163.595C-164.989 163.595 -148.711 221.59 -102.837 225.214C-56.964 228.839 46.4018 244.776 114.335 264.711C182.267 284.647 200.789 278.721 200.789 278.721C216.463 256.892 227.334 231.989 232.685 205.653V205.653ZM-97.8617 207.407C-102.636 195.555 -71.9771 194.146 -66.225 202.718C-60.4728 211.291 -87.7667 232.55 -97.8617 207.407ZM31.5613 153.239C60.1494 141.732 110.394 162.473 105.62 181.229C100.846 199.985 9.35809 162.214 31.4751 153.297L31.5613 153.239ZM89.0827 249.292C88.2774 232.607 108.582 243.539 113.328 252.169C118.073 260.799 89.6579 262.784 89.0252 249.292H89.0827ZM177.896 248.918C177.865 248.02 178.018 247.125 178.346 246.288C178.674 245.451 179.169 244.691 179.802 244.052C180.435 243.414 181.191 242.912 182.025 242.578C182.859 242.243 183.753 242.083 184.651 242.106C185.549 242.13 186.433 242.337 187.248 242.715C188.063 243.093 188.793 243.634 189.391 244.304C189.989 244.975 190.444 245.76 190.728 246.613C191.011 247.466 191.117 248.368 191.039 249.263C190.752 258.987 177.579 253.521 177.838 248.918H177.896Z" fill="#974D8B"/>
</g>
<g style="mix-blend-mode:soft-light" opacity="0.51">
<path d="M237.172 168.601C237.172 168.601 171.022 127.061 118.505 116.446C65.9879 105.831 8.15019 138.741 -58.891 127.205C-93.6051 121.25 -125.932 101.804 -148.969 84.4572C-143.553 71.609 -136.806 59.3641 -128.837 47.9231C-116.614 60.1778 -82.8199 92.0804 -51.1831 103.587C-11.6947 117.971 24.7164 102.321 91.211 106.148C148.157 109.427 218.046 143.832 236.913 153.613C237.258 158.59 237.315 163.566 237.172 168.601Z" fill="#5FCCCC"/>
</g>
<g style="mix-blend-mode:soft-light" opacity="0.51">
<path d="M-84.1141 269.371C-91.7644 274.665 -110.516 268.882 -108.906 265.171C-105.8 258.152 -76.4925 264.05 -84.1141 269.371ZM-69.7337 258.411C-66.8576 254.326 -49.8889 257.318 -50.8667 259.965C-51.8446 262.611 -72.2071 262.151 -69.6186 258.411H-69.7337ZM121.036 312.177C126.788 305.819 156.9 317.93 155.319 325.122C153.737 332.314 115.456 318.505 121.036 312.177ZM-18.9423 263.762C-94.7555 248.774 -136.861 234.477 -154.376 227.63C-147.695 247.317 -137.992 265.844 -125.616 282.547C-93.4037 283.065 -62.1409 254.499 24.4 281.252C65.7981 294.148 105.606 311.682 143.067 333.522C149.682 329.393 156.049 324.878 162.135 320.001C130.182 306.682 58.884 279.123 -18.9423 263.762Z" fill="#5FCCCC"/>
</g>
<g style="mix-blend-mode:multiply" opacity="0.1">
<path d="M121.036 161.179C129.175 152.951 132.914 157.612 134.812 161.927C136.71 166.242 118.505 163.768 121.036 161.179Z" fill="#190024"/>
</g>
<g style="mix-blend-mode:multiply" opacity="0.1">
<path d="M124.257 93.5188C132.396 85.2626 136.135 89.9517 138.005 94.238C139.874 98.5242 121.726 96.079 124.257 93.5188Z" fill="#190024"/>
</g>
<g style="mix-blend-mode:multiply" opacity="0.1">
<path d="M13.097 311.141C21.2363 302.885 24.9752 307.545 26.8734 311.86C28.7716 316.175 10.5661 313.701 13.097 311.141Z" fill="#190024"/>
</g>
<g style="mix-blend-mode:multiply" opacity="0.1">
<path d="M159.834 188.392C160.812 192.564 168.088 193.34 167.628 188.594C167.168 183.847 158.194 181.287 159.834 188.392Z" fill="#190024"/>
</g>
<g style="mix-blend-mode:multiply" opacity="0.1">
<path d="M8.63905 16.1643C9.61692 20.3356 16.9222 21.1123 16.4332 16.3657C15.9443 11.6192 6.9997 9.05889 8.63905 16.1643Z" fill="#190024"/>
</g>
<g style="mix-blend-mode:soft-light" opacity="0.51">
<path d="M149.25 289.365C152.414 290.228 163.63 297.995 163.17 304.554C162.71 311.112 134.611 305.417 135.617 299.318C136.624 293.219 144.85 288.128 149.25 289.365Z" fill="#5FCCCC"/>
</g>
<g style="mix-blend-mode:soft-light" opacity="0.51">
<path d="M156.296 93.2887C159.489 94.1517 170.677 101.919 170.245 108.478C169.814 115.037 141.686 109.341 142.693 103.242C143.699 97.1435 151.925 92.0517 156.296 93.2887Z" fill="#5FCCCC"/>
</g>
<g style="mix-blend-mode:soft-light" opacity="0.51">
<path d="M78.0386 11.9931C78.8151 15.1862 77.6935 28.793 71.5674 31.5834C65.4414 34.3738 56.8707 7.07392 62.6804 4.97393C68.4901 2.87394 76.9457 7.56296 78.0386 11.9931Z" fill="#5FCCCC"/>
</g>
<g style="mix-blend-mode:soft-light">
<path d="M122.071 61.6449C122.909 58.5084 123.017 55.2216 122.388 52.0367C122.31 51.5239 122.123 51.0336 121.841 50.5984C121.522 50.2021 121.104 49.8975 120.629 49.7155C120.154 49.5336 119.64 49.4809 119.138 49.5628C117.909 49.6994 116.75 50.1994 115.807 50.9988C114.864 51.7983 114.181 52.8607 113.846 54.0504C113.549 55.2532 113.542 56.5094 113.827 57.7151C114.112 58.9208 114.681 60.0411 115.485 60.9833C116.328 62.0565 117.556 62.7584 118.908 62.9394C119.587 63.0202 120.273 62.856 120.842 62.4764C121.412 62.0968 121.827 61.5266 122.014 60.8682C121.941 60.7938 121.85 60.7386 121.75 60.7076C121.65 60.6767 121.545 60.671 121.442 60.6909C121.34 60.7108 121.244 60.7559 121.163 60.8219C121.082 60.888 121.018 60.9731 120.978 61.0696L122.071 61.6449Z" fill="#E9E9A8"/>
<path d="M169.296 80.0846C169.459 79.1705 169.389 78.23 169.093 77.3501C168.796 76.4701 168.283 75.6792 167.599 75.0504C166.713 75.3117 165.903 75.7828 165.237 76.4237C164.571 77.0647 164.069 77.8566 163.774 78.7326C163.647 79.1727 163.608 79.6336 163.659 80.0889C163.71 80.5443 163.85 80.985 164.072 81.3859C164.294 81.7868 164.592 82.1399 164.951 82.4251C165.31 82.7103 165.721 82.9218 166.161 83.0476C167.973 83.3641 169.814 81.0915 168.779 79.5668L169.296 80.0846Z" fill="#E9E9A8"/>
<path d="M163.803 63.4573C163.628 62.8477 163.367 62.2664 163.026 61.7313L162.883 61.5875C162.809 61.5586 162.726 61.5586 162.653 61.5875C162.077 61.9039 161.991 62.9395 161.358 62.9683C161.358 62.9683 161.099 62.9683 161.013 62.9683C160.927 62.9683 161.013 63.3422 161.013 63.4861C161.192 63.6615 161.408 63.7944 161.645 63.8749C161.883 63.9554 162.135 63.9814 162.384 63.951C162.632 63.9206 162.871 63.8346 163.082 63.6993C163.293 63.564 163.47 63.383 163.602 63.1696V63.4573H163.803Z" fill="#E9E9A8"/>
<path d="M150.717 47.7792C150.376 46.6436 149.883 45.5597 149.25 44.5573C149.174 44.4337 149.064 44.334 148.934 44.2696C148.867 44.2366 148.793 44.2195 148.718 44.2195C148.643 44.2195 148.569 44.2366 148.502 44.2696C147.438 44.845 147.294 46.7724 146.058 46.8299C145.856 46.8299 145.598 46.8299 145.425 46.8299C145.252 46.8299 145.425 47.5203 145.425 47.7792C145.769 48.1035 146.181 48.348 146.63 48.4953C147.08 48.6425 147.556 48.689 148.026 48.6313C148.495 48.5736 148.946 48.4133 149.347 48.1616C149.747 47.9099 150.087 47.5731 150.343 47.1751V47.7217L150.717 47.7792Z" fill="#E9E9A8"/>
<path d="M182.584 39.9834C182.273 38.8419 181.788 37.7551 181.146 36.7615C181.146 36.7615 180.973 36.5026 180.829 36.4738C180.761 36.4445 180.688 36.4294 180.614 36.4294C180.539 36.4294 180.466 36.4445 180.398 36.4738C179.334 37.0779 179.19 39.0053 177.953 39.0341C177.752 39.0341 177.493 39.0341 177.32 39.0341C177.148 39.0341 177.32 39.7245 177.464 40.0122C177.811 40.3317 178.223 40.5721 178.672 40.7165C179.12 40.8609 179.595 40.9059 180.063 40.8484C180.531 40.7909 180.981 40.6323 181.381 40.3836C181.782 40.1349 182.123 39.802 182.382 39.4081V39.9259L182.584 39.9834Z" fill="#E9E9A8"/>
<path d="M167.398 52.871C167.457 52.4469 167.42 52.0151 167.291 51.607C167.161 51.1989 166.942 50.8248 166.65 50.5121C166.335 50.7318 166.07 51.0162 165.874 51.3463C165.768 51.5092 165.712 51.699 165.712 51.8929C165.712 52.0868 165.768 52.2766 165.874 52.4395C166.219 52.8422 166.823 52.7271 167.341 52.6121L167.11 52.986L167.398 52.871Z" fill="#E9E9A8"/>
<path d="M161.703 50.4258C161.645 50.1589 161.504 49.9173 161.301 49.7354C161.103 49.6147 160.87 49.564 160.639 49.5916C160.003 49.5912 159.367 49.5335 158.741 49.4189L160.754 51.8929C160.779 51.9578 160.779 52.0293 160.754 52.0943C160.754 52.3819 160.524 52.6121 160.438 52.8998C160.352 53.1874 160.697 53.6765 161.099 53.9066C163.918 55.4888 162.077 51.6628 161.703 50.4258Z" fill="#E9E9A8"/>
<path d="M131.39 39.0628C131.35 38.8269 131.228 38.6127 131.045 38.4587C130.83 38.3864 130.598 38.3864 130.383 38.4587C129.747 38.4584 129.111 38.4007 128.485 38.2861L130.498 40.7601C130.513 40.8264 130.513 40.8952 130.498 40.9615C130.498 41.2491 130.268 41.4793 130.182 41.7669C130.096 42.0546 130.441 42.5436 130.815 42.745C133.633 43.982 131.792 40.3286 131.39 39.0628Z" fill="#E9E9A8"/>
<path d="M170.418 31.7848L169.929 31.0369C169.685 31.2237 169.504 31.4815 169.411 31.7749C169.318 32.0683 169.319 32.3832 169.411 32.6766C169.474 32.8137 169.57 32.9328 169.691 33.0226C169.812 33.1125 169.954 33.1701 170.104 33.1902C170.253 33.2103 170.405 33.1923 170.545 33.1376C170.686 33.083 170.81 32.9937 170.907 32.878C171.108 32.5615 171.252 31.9574 171.597 32.1588L170.418 31.7848Z" fill="#E9E9A8"/>
<path d="M123.912 31.0944C123.888 31.305 123.813 31.5066 123.695 31.6824C123.576 31.8581 123.417 32.0028 123.231 32.1043C123.045 32.2058 122.838 32.2611 122.626 32.2656C122.414 32.2701 122.204 32.2236 122.014 32.13C121.824 32.0199 121.665 31.8622 121.555 31.6723C121.444 31.4825 121.385 31.2671 121.382 31.0473C121.38 30.8275 121.435 30.611 121.542 30.4189C121.649 30.2269 121.804 30.066 121.992 29.9521C122.18 29.8382 122.394 29.7752 122.614 29.7693C122.833 29.7634 123.051 29.8148 123.245 29.9184C123.438 30.0221 123.602 30.1744 123.719 30.3604C123.836 30.5465 123.902 30.7598 123.912 30.9793V31.0944Z" fill="#E9E9A8"/>
<path d="M134.927 40.2711C135.474 40.7026 136.078 41.393 135.733 41.9971C135.387 42.6012 134.553 42.4574 133.921 42.256C133.288 42.0546 133.345 42.0259 133.288 41.7382C133.23 41.4505 134.553 40.9327 134.525 40.2423C134.697 40.2423 134.927 40.4437 134.783 40.5587L134.927 40.2711Z" fill="#E9E9A8"/>
<path d="M179.248 89.2613C179.19 88.7521 179.012 88.264 178.726 87.8384C178.441 87.4129 178.058 87.0622 177.608 86.8161C177.385 86.7051 177.139 86.6474 176.889 86.6477C176.64 86.648 176.394 86.7062 176.171 86.8178C175.948 86.9293 175.754 87.0912 175.604 87.2906C175.454 87.49 175.352 87.7215 175.307 87.9668C175.292 88.1161 175.308 88.2668 175.352 88.4101C175.397 88.5534 175.469 88.6864 175.566 88.801L175.94 89.175C176.48 89.6233 177.166 89.8586 177.867 89.8366C178.213 89.8073 178.534 89.643 178.76 89.3793C178.986 89.1156 179.099 88.7736 179.075 88.4271L179.248 89.2613Z" fill="#E9E9A8"/>
<path d="M200.645 100.826C200.344 100.86 200.061 100.991 199.84 101.2C199.687 101.454 199.561 101.724 199.466 102.005C199.179 102.667 198.402 102.926 197.942 103.472C197.65 104.016 197.497 104.624 197.497 105.241C197.497 105.859 197.65 106.467 197.942 107.011C197.942 107.269 198.172 107.586 198.46 107.643C198.671 107.665 198.884 107.614 199.064 107.5C200.444 106.982 201.307 108.276 202.601 108.132C203.57 107.877 204.398 107.247 204.902 106.381C205.406 105.515 205.546 104.484 205.29 103.515C205.035 102.546 204.405 101.719 203.539 101.214C202.674 100.71 201.643 100.57 200.674 100.826H200.645Z" fill="#E9E9A8"/>
<path d="M167.973 63.3134C168.152 63.4989 168.28 63.7265 168.347 63.9751C168.017 63.9381 167.7 63.8254 167.421 63.6458C167.141 63.4661 166.907 63.2244 166.737 62.9394C166.507 62.6518 166.276 62.249 166.449 61.9326C166.622 61.6162 166.88 61.6162 167.082 61.4723C167.283 61.3285 167.686 60.4079 168.203 60.4655C168.345 60.4985 168.471 60.5796 168.56 60.6949C168.65 60.8102 168.696 60.9527 168.692 61.0984C168.688 61.4006 168.609 61.6969 168.462 61.9614L167.628 63.6874L167.973 63.3134Z" fill="#E9E9A8"/>
<path d="M160.783 70.5052C160.783 69.9586 159.892 69.901 159.575 70.3326C159.467 70.5822 159.411 70.8515 159.411 71.1236C159.411 71.3958 159.467 71.6651 159.575 71.9147C159.95 71.8714 160.304 71.7207 160.595 71.4808C160.885 71.2409 161.101 70.9221 161.215 70.5627L160.783 70.5052Z" fill="#E9E9A8"/>
<path d="M159.173 62.6231C159.115 62.3651 159.007 62.1209 158.856 61.9039C158.779 61.7972 158.673 61.714 158.551 61.6632C158.43 61.6125 158.296 61.5962 158.166 61.6162C157.763 61.76 157.706 62.3354 157.389 62.6518C157.073 62.9683 156.527 62.9683 156.325 63.371C156.124 63.7737 156.527 64.234 156.958 64.3203C157.388 64.3457 157.814 64.224 158.166 63.9751C158.526 63.8236 158.828 63.5617 159.029 63.2272C159.151 63.0821 159.217 62.8988 159.217 62.7094C159.217 62.52 159.151 62.3366 159.029 62.1916L159.173 62.6231Z" fill="#E9E9A8"/>
<path d="M157.993 59.3149C157.96 59.4312 157.887 59.5323 157.788 59.6007C157.688 59.669 157.567 59.7002 157.447 59.6888C157.196 59.6149 156.981 59.4511 156.843 59.2286C156.753 59.1023 156.703 58.952 156.699 58.7971C156.706 58.6266 156.779 58.4656 156.903 58.3477C157.026 58.2298 157.19 58.164 157.361 58.1642C157.533 58.1857 157.692 58.2718 157.804 58.4052C157.916 58.5386 157.973 58.7094 157.965 58.8834C157.94 59.0549 157.858 59.2131 157.733 59.333C157.608 59.4529 157.447 59.5275 157.274 59.545L157.993 59.3149Z" fill="#E9E9A8"/>
<path d="M122.157 66.3052C122.124 66.4216 122.052 66.5227 121.952 66.591C121.852 66.6593 121.731 66.6905 121.611 66.6792C121.36 66.6053 121.145 66.4414 121.007 66.2189C120.914 66.0944 120.863 65.943 120.863 65.7874C120.871 65.617 120.944 65.456 121.067 65.338C121.19 65.2201 121.354 65.1544 121.525 65.1545C121.698 65.1761 121.856 65.2622 121.968 65.3956C122.08 65.5289 122.137 65.6997 122.129 65.8737C122.104 66.0452 122.022 66.2035 121.897 66.3234C121.772 66.4433 121.611 66.5179 121.438 66.5354L122.157 66.3052Z" fill="#E9E9A8"/>
<path d="M161.301 58.0491C161.428 58.0188 161.545 57.9556 161.64 57.8659C161.735 57.7763 161.805 57.6632 161.843 57.5381C161.881 57.4129 161.885 57.28 161.856 57.1526C161.826 57.0253 161.764 56.9079 161.675 56.8121C161.39 56.8462 161.125 56.9784 160.927 57.1861C160.843 57.2927 160.797 57.4244 160.797 57.5601C160.797 57.6958 160.843 57.8275 160.927 57.9341C160.963 57.9936 161.013 58.0429 161.074 58.0771C161.134 58.1114 161.203 58.1293 161.272 58.1293C161.341 58.1293 161.41 58.1114 161.47 58.0771C161.531 58.0429 161.581 57.9936 161.617 57.9341L161.301 58.0491Z" fill="#E9E9A8"/>
<path d="M124.804 18.7245C124.931 18.6942 125.048 18.631 125.143 18.5413C125.238 18.4517 125.308 18.3386 125.346 18.2135C125.384 18.0883 125.388 17.9554 125.358 17.8281C125.329 17.7007 125.267 17.5833 125.177 17.4875C124.897 17.5354 124.636 17.6655 124.43 17.8615C124.348 17.9745 124.304 18.1104 124.304 18.2499C124.304 18.3894 124.348 18.5253 124.43 18.6382C124.465 18.6978 124.516 18.7471 124.577 18.7813C124.637 18.8155 124.705 18.8335 124.775 18.8335C124.844 18.8335 124.913 18.8155 124.973 18.7813C125.034 18.7471 125.084 18.6978 125.12 18.6382L124.804 18.7245Z" fill="#E9E9A8"/>
<path d="M113.472 43.982C113.621 43.6929 113.698 43.3723 113.698 43.0471C113.698 42.7219 113.621 42.4013 113.472 42.1122L112.091 42.8889C111.857 42.994 111.657 43.1636 111.516 43.3779C111.471 43.4889 111.449 43.6081 111.453 43.7279C111.456 43.8477 111.484 43.9655 111.536 44.0737C111.587 44.182 111.661 44.2783 111.751 44.3566C111.842 44.4349 111.948 44.4935 112.063 44.5286C112.301 44.5803 112.55 44.5585 112.776 44.466C113.001 44.3736 113.194 44.2149 113.328 44.0108L113.472 43.982Z" fill="#E9E9A8"/>
<path d="M128.197 49.4189L129.837 51.7778C129.578 52.2093 128.945 51.9216 128.571 51.5764C128.174 51.2894 127.873 50.888 127.708 50.4257C127.674 50.3086 127.664 50.1856 127.679 50.0644C127.694 49.9432 127.734 49.8264 127.796 49.7213C127.858 49.6161 127.941 49.5247 128.04 49.4529C128.138 49.3811 128.251 49.3304 128.37 49.3038L128.197 49.4189Z" fill="#E9E9A8"/>
<path d="M195.181 72.749C195.295 72.6208 195.374 72.4658 195.411 72.2985C195.448 72.1312 195.441 71.9573 195.393 71.7931C195.344 71.6289 195.254 71.48 195.131 71.3603C195.008 71.2406 194.857 71.1542 194.692 71.1093C194.343 71.0484 193.984 71.1133 193.679 71.2924C193.373 71.4715 193.141 71.7532 193.024 72.0874C192.91 72.3738 192.91 72.6928 193.024 72.9791C193.152 73.1802 193.342 73.3339 193.565 73.417C193.788 73.5001 194.032 73.508 194.261 73.4394C194.698 73.2947 195.1 73.0594 195.44 72.749H195.181Z" fill="#E9E9A8"/>
<path d="M132.051 37.3369C132.289 37.1075 132.452 36.8119 132.518 36.4885C132.585 36.1651 132.553 35.8292 132.425 35.5245C131.948 35.5574 131.498 35.7618 131.16 36.0999C130.931 36.3127 130.784 36.598 130.742 36.9074C130.7 37.2168 130.766 37.5312 130.93 37.7971C131.332 38.2862 132.339 38.056 132.31 37.4232L132.051 37.3369Z" fill="#E9E9A8"/>
<path d="M130.211 43.8094C130.202 44.0275 130.121 44.2366 129.981 44.4034C129.84 44.5702 129.648 44.6852 129.434 44.7299L128.6 43.5217C128.705 43.3899 128.838 43.2834 128.99 43.2102C129.142 43.137 129.309 43.099 129.477 43.099C129.646 43.099 129.812 43.137 129.964 43.2102C130.116 43.2834 130.249 43.3899 130.354 43.5217L130.211 43.8094Z" fill="#E9E9A8"/>
<path d="M183.619 79.8833L182.267 81.7244C182.132 81.894 182.034 82.09 181.98 82.2997C181.97 82.529 182.019 82.757 182.124 82.9614C182.411 83.7093 182.929 84.6298 183.763 84.5723C184.597 84.5148 184.971 83.4216 185.373 82.6162C186.064 81.1203 189.918 78.7038 188.48 76.8628C187.042 75.0217 184.453 78.7614 183.619 79.8833Z" fill="#E9E9A8"/>
<path d="M191.212 69.412L191.643 69.8148C191.241 70.0254 190.801 70.1526 190.349 70.1887C190.122 70.1987 189.897 70.1375 189.707 70.0137C189.516 69.89 189.368 69.7098 189.285 69.4983C189.285 69.0668 189.63 68.5202 190.061 68.6928C190.493 68.8248 190.875 69.0858 191.154 69.4408L191.212 69.412Z" fill="#E9E9A8"/>
<path d="M155.549 66.4491C155.52 66.6353 155.436 66.8087 155.308 66.947C155.179 67.0853 155.013 67.1824 154.83 67.2258C154.646 67.2681 154.455 67.2581 154.277 67.1971C154.099 67.1361 153.942 67.0265 153.823 66.8806C153.679 66.6792 153.65 66.3053 153.823 66.1902H154.139H155.577V66.4203L155.549 66.4491Z" fill="#E9E9A8"/>
<path d="M148.387 68.549C147.927 68.4052 147.496 68.7504 147.179 69.1244C146.863 69.4983 146.518 69.8723 146.058 69.8148C145.994 69.8216 145.929 69.8088 145.873 69.7779C145.816 69.7471 145.77 69.6997 145.741 69.6422C145.741 69.3257 145.971 69.0668 146.173 68.8079C146.298 68.581 146.395 68.3394 146.46 68.0887C146.596 67.8024 146.813 67.5624 147.084 67.3986C147.355 67.2349 147.668 67.1547 147.985 67.1682C148.122 67.2638 148.231 67.394 148.302 67.5456C148.373 67.6971 148.402 67.8646 148.387 68.0312C148.361 68.1989 148.288 68.3556 148.176 68.483C148.064 68.6104 147.918 68.7032 147.755 68.7504L148.387 68.549Z" fill="#E9E9A8"/>
<path d="M147.122 64.1189L146.921 63.6299C146.773 63.6117 146.624 63.6486 146.502 63.7336C146.38 63.8185 146.293 63.9455 146.259 64.0902C146.242 64.162 146.24 64.2366 146.253 64.3093C146.266 64.382 146.293 64.4513 146.333 64.5132C146.374 64.575 146.426 64.628 146.488 64.669C146.549 64.7101 146.618 64.7382 146.691 64.7518C146.978 64.7518 147.266 64.4354 147.179 64.1765L147.122 64.1189Z" fill="#E9E9A8"/>
<path d="M134.553 63.0258L134.352 62.5368C134.204 62.5186 134.055 62.5555 133.933 62.6404C133.811 62.7253 133.725 62.8523 133.691 62.997C133.674 63.0689 133.672 63.1434 133.684 63.2161C133.697 63.2888 133.725 63.3582 133.765 63.42C133.805 63.4819 133.858 63.5349 133.919 63.5759C133.98 63.6169 134.049 63.6451 134.122 63.6587C134.194 63.6598 134.266 63.6449 134.331 63.6152C134.397 63.5854 134.455 63.5414 134.502 63.4864C134.549 63.4314 134.583 63.3667 134.602 63.2971C134.621 63.2274 134.624 63.1544 134.611 63.0833L134.553 63.0258Z" fill="#E9E9A8"/>
<path d="M164.695 56.2943C164.695 56.6395 165.126 56.8409 165.471 56.7546C165.816 56.6683 166.046 56.3806 166.363 56.2368C166.529 56.1576 166.711 56.1165 166.895 56.1165C167.079 56.1165 167.261 56.1576 167.427 56.2368C167.527 56.2694 167.615 56.3302 167.682 56.4118C167.748 56.4934 167.789 56.5925 167.801 56.6971C167.797 56.8432 167.746 56.9842 167.657 57.0998C167.348 57.7192 166.869 58.238 166.277 58.5957C165.989 58.7936 165.648 58.8996 165.299 58.8996C164.949 58.8996 164.608 58.7936 164.321 58.5957C164.134 58.4403 163.992 58.2374 163.911 58.0083C163.83 57.7792 163.811 57.5324 163.859 57.2939C163.906 57.0554 164.016 56.834 164.179 56.653C164.341 56.472 164.549 56.3382 164.781 56.2656L164.695 56.2943Z" fill="#E9E9A8"/>
<path d="M117.642 -0.721912C117.642 -0.376708 118.073 -0.175339 118.419 -0.290407C118.728 -0.441271 119.026 -0.614326 119.31 -0.808214C119.478 -0.880227 119.659 -0.917358 119.842 -0.917358C120.025 -0.917358 120.206 -0.880227 120.374 -0.808214C120.473 -0.765269 120.559 -0.697811 120.625 -0.612231C120.69 -0.52665 120.733 -0.425781 120.748 -0.319174C120.739 -0.174114 120.689 -0.0345787 120.604 0.0835634C120.287 0.696917 119.81 1.21356 119.224 1.57945C118.933 1.77003 118.593 1.87155 118.246 1.87155C117.899 1.87155 117.559 1.77003 117.268 1.57945C117.087 1.42086 116.95 1.21865 116.87 0.992064C116.789 0.76548 116.768 0.522051 116.808 0.284933C116.864 0.0498357 116.978 -0.16772 117.138 -0.348393C117.299 -0.529066 117.502 -0.667257 117.728 -0.75068L117.642 -0.721912Z" fill="#E9E9A8"/>
<path d="M168.261 47.6354C168.302 47.5337 168.322 47.4247 168.319 47.315C168.316 47.2054 168.292 47.0975 168.246 46.9978C168.2 46.8981 168.134 46.8089 168.053 46.7355C167.971 46.6621 167.876 46.6062 167.772 46.571C167.566 46.4982 167.345 46.4839 167.131 46.5296C166.918 46.5753 166.722 46.6793 166.564 46.8299C166.42 46.8299 166.305 47.1751 166.391 47.319C166.483 47.4145 166.605 47.4755 166.737 47.4916L168.318 47.7792L168.261 47.6354Z" fill="#E9E9A8"/>
<path d="M117.297 17.1137C117.847 16.9746 118.365 16.7276 118.819 16.3868C119.273 16.0461 119.655 15.6184 119.943 15.1287C120.009 14.9526 120.009 14.7583 119.943 14.5822C119.943 14.1794 119.224 14.2657 118.793 14.2657C118.361 14.2657 117.441 13.6041 116.693 13.5753C116.091 13.6485 115.527 13.9103 115.082 14.3233C114.392 14.8411 113.644 15.7328 114.105 16.4808C114.257 16.651 114.443 16.7875 114.651 16.8817C114.859 16.9758 115.084 17.0254 115.312 17.0274C116.272 17.1442 117.245 17.0956 118.189 16.8835L117.297 17.1137Z" fill="#E9E9A8"/>
<path d="M149.106 29.5985C149.797 29.5985 150.084 28.7642 150.142 28.1026C150.183 27.8904 150.176 27.6715 150.121 27.4624C150.067 27.2532 149.965 27.059 149.825 26.8944C149.365 26.5204 148.704 26.8944 148.243 27.1533L146.978 27.9875C146.805 27.9875 146.604 28.2752 146.575 28.5053C146.573 28.6033 146.592 28.7006 146.632 28.7901C146.672 28.8797 146.731 28.9593 146.805 29.0232C147.448 29.7819 148.242 30.399 149.135 30.8355L149.106 29.5985Z" fill="#E9E9A8"/>
<path d="M141.657 50.6559C147.553 52.2381 148.761 45.1902 144.188 42.6874C139.615 40.1847 136.538 49.3038 141.657 50.6559Z" fill="#E9E9A8"/>
<path d="M168.29 71.8284C168.155 72.0017 167.983 72.1419 167.786 72.2383C167.589 72.3348 167.373 72.3849 167.154 72.3849C166.934 72.3849 166.718 72.3348 166.521 72.2383C166.324 72.1419 166.152 72.0017 166.018 71.8284C166.4 71.2388 166.951 70.7778 167.599 70.5052C167.76 70.4475 167.93 70.4236 168.1 70.4348C168.27 70.4461 168.436 70.4924 168.587 70.5707C168.738 70.649 168.871 70.7577 168.979 70.89C169.086 71.0223 169.165 71.1753 169.21 71.3394L168.548 72.3462L168.29 71.8284Z" fill="#E9E9A8"/>
<path d="M151.896 83.0764L151.321 82.2997C150.428 83.0569 149.391 83.6246 148.272 83.9682C147.712 84.1069 147.164 84.2897 146.633 84.5148C146.369 84.6431 146.143 84.8378 145.976 85.0798C145.81 85.3219 145.709 85.603 145.684 85.8956C145.684 86.9887 147.036 87.5353 148.129 87.4778C148.819 87.4555 149.497 87.2817 150.113 86.9685C150.73 86.6553 151.269 86.2105 151.695 85.6654C152.102 85.1052 152.321 84.4305 152.321 83.7381C152.321 83.0456 152.102 82.3709 151.695 81.8107L150.573 82.5874L151.896 83.0764Z" fill="#E9E9A8"/>
<path d="M145.425 75.6257C145.684 75.2517 145.425 75.0791 144.907 75.1942C144.422 75.3868 143.966 75.6484 143.555 75.9709L140.679 78.0421C140.104 78.4449 139.471 78.9339 139.356 79.3366C139.241 79.7394 139.702 79.7969 140.162 79.6531C140.701 79.4851 141.214 79.243 141.686 78.9339C143.354 77.927 145.281 76.5462 145.655 75.338L144.706 75.5394L145.425 75.6257Z" fill="#E9E9A8"/>
<path d="M142.232 69.8723C142.233 69.9229 142.223 69.9731 142.202 70.0192C142.181 70.0653 142.15 70.1063 142.112 70.1393C142.074 70.1722 142.028 70.1963 141.98 70.2098C141.931 70.2233 141.88 70.226 141.83 70.2175C141.63 70.1813 141.448 70.0802 141.312 69.9299C141.19 69.8111 141.1 69.6623 141.053 69.4984C141.016 69.3416 141.033 69.1771 141.101 69.031C141.169 68.885 141.284 68.7659 141.427 68.6929C141.568 68.6148 141.726 68.5739 141.887 68.5739C142.048 68.5739 142.207 68.6148 142.348 68.6929C142.474 68.7847 142.565 68.9165 142.606 69.0669C142.624 69.1469 142.61 69.2305 142.567 69.3003C142.524 69.37 142.456 69.4204 142.376 69.4408L142.232 69.8723Z" fill="#E9E9A8"/>
<path d="M153.852 40.5587C154.485 39.9237 155.045 39.2193 155.52 38.4587C155.445 38.3612 155.35 38.2821 155.24 38.2272C155.131 38.1724 155.01 38.1433 154.887 38.1422C154.56 38.1227 154.233 38.1698 153.925 38.2807C153.617 38.3916 153.335 38.5639 153.096 38.7872C152.856 39.0105 152.665 39.2801 152.533 39.5797C152.401 39.8792 152.331 40.2025 152.328 40.5299C152.323 40.7173 152.384 40.9004 152.5 41.0477C152.607 41.1317 152.738 41.1774 152.874 41.1774C153.01 41.1774 153.141 41.1317 153.248 41.0477C153.472 40.9151 153.668 40.7391 153.823 40.5299L153.852 40.5587Z" fill="#E9E9A8"/>
<path d="M157.591 54.6545L157.332 54.1367C157.062 54.2205 156.823 54.3803 156.642 54.597C156.498 54.8559 156.641 55.2874 156.958 55.2299C157.068 55.2006 157.168 55.1408 157.245 55.0573L158.022 54.3669L157.591 54.6545Z" fill="#E9E9A8"/>
<path d="M115.744 33.5684C115.747 33.1051 115.659 32.6457 115.485 32.2163C115.393 32.005 115.24 31.8262 115.045 31.7031C114.85 31.58 114.622 31.5182 114.392 31.5259C114.166 31.5563 113.954 31.6569 113.788 31.8136C113.547 32.0652 113.413 32.4001 113.413 32.7485C113.413 33.0969 113.547 33.4318 113.788 33.6834C114.057 33.9007 114.4 34.0043 114.744 33.9721C115.088 33.9398 115.405 33.7743 115.629 33.5108L115.744 33.5684Z" fill="#E9E9A8"/>
<path d="M131.677 16.1068C131.781 16.2307 131.85 16.3795 131.877 16.5384C131.905 16.6973 131.89 16.8607 131.835 17.0122C131.78 17.1637 131.685 17.2979 131.562 17.4016C131.438 17.5052 131.29 17.5746 131.131 17.6027C130.812 17.4268 130.536 17.1809 130.326 16.8835C130.584 16.5608 130.953 16.3455 131.361 16.2794L131.677 16.1068Z" fill="#E9E9A8"/>
<path d="M137.286 26.3478C137.487 26.0026 136.797 25.6862 136.567 26.0314C136.337 26.3766 136.567 26.8368 136.854 27.0958C137.017 27.0028 137.146 26.8611 137.223 26.6907C137.301 26.5204 137.322 26.3299 137.286 26.1464V26.3478Z" fill="#E9E9A8"/>
<path d="M171.281 84.2559L170.734 83.5079C170.511 83.5904 170.313 83.7291 170.159 83.9107C170.189 84.0204 170.24 84.1231 170.31 84.2129C170.38 84.3027 170.467 84.3779 170.566 84.434C170.664 84.4902 170.773 84.5262 170.886 84.5401C170.999 84.5539 171.114 84.5453 171.223 84.5148L171.281 84.2559Z" fill="#E9E9A8"/>
<path d="M250.89 77.9271L250.344 77.1792C250.116 77.2691 249.91 77.4064 249.74 77.5819C249.818 77.7963 249.974 77.9739 250.176 78.0802C250.378 78.1865 250.612 78.214 250.833 78.1573L250.89 77.9271Z" fill="#E9E9A8"/>
<path d="M210.194 71.4546C210.605 71.8035 210.922 72.249 211.118 72.7512C211.314 73.2534 211.382 73.7963 211.316 74.3313C211.306 74.4729 211.245 74.6061 211.143 74.7052C211.053 74.7485 210.955 74.771 210.856 74.771C210.756 74.771 210.658 74.7485 210.568 74.7052C209.36 74.4751 207.922 73.9861 207.692 72.7778C207.676 72.5226 207.722 72.2674 207.827 72.0339C207.931 71.8005 208.09 71.5958 208.291 71.4374C208.492 71.2791 208.728 71.1717 208.979 71.1246C209.23 71.0775 209.489 71.092 209.734 71.1669L209.993 72.145L210.194 71.4546Z" fill="#E9E9A8"/>
<path d="M191.988 169.521C192.16 168.607 192.094 167.664 191.797 166.783C191.499 165.901 190.981 165.111 190.292 164.487C189.405 164.748 188.595 165.219 187.929 165.86C187.263 166.501 186.761 167.293 186.466 168.169C186.217 169.058 186.328 170.009 186.775 170.817C187.221 171.624 187.968 172.223 188.853 172.484C190.694 172.801 192.506 170.528 191.499 169.003L191.988 169.521Z" fill="#E9E9A8"/>
<path d="M186.524 152.894C186.349 152.284 186.088 151.703 185.747 151.168C185.747 151.168 185.747 151.168 185.575 151.168C185.5 151.141 185.419 151.141 185.345 151.168C184.769 151.484 184.712 152.52 184.05 152.549C183.937 152.521 183.819 152.521 183.705 152.549C183.562 152.549 183.705 152.923 183.705 153.066C183.889 153.237 184.108 153.366 184.347 153.444C184.585 153.521 184.838 153.546 185.087 153.516C185.337 153.486 185.576 153.402 185.789 153.269C186.003 153.137 186.185 152.96 186.323 152.75V153.009L186.524 152.894Z" fill="#E9E9A8"/>
<path d="M205.305 129.42C204.982 128.278 204.488 127.191 203.838 126.198C203.838 126.198 203.665 125.939 203.521 125.91C203.383 125.854 203.228 125.854 203.09 125.91C202.026 126.515 201.882 128.442 200.674 128.471C200.444 128.471 200.185 128.471 200.013 128.471C199.84 128.471 200.013 129.161 200.157 129.449C200.503 129.768 200.915 130.009 201.364 130.153C201.813 130.297 202.287 130.342 202.755 130.285C203.223 130.228 203.673 130.069 204.073 129.82C204.474 129.571 204.816 129.239 205.075 128.845V129.362L205.305 129.42Z" fill="#E9E9A8"/>
<path d="M190.061 142.308C190.124 141.886 190.092 141.455 189.967 141.047C189.843 140.639 189.63 140.264 189.342 139.949C189.012 140.159 188.736 140.445 188.537 140.783C188.432 140.946 188.376 141.136 188.376 141.33C188.376 141.523 188.432 141.713 188.537 141.876C188.882 142.25 189.515 142.164 190.033 142.049L189.803 142.423L190.061 142.308Z" fill="#E9E9A8"/>
<path d="M184.309 139.834C184.296 139.714 184.258 139.599 184.197 139.495C184.136 139.391 184.055 139.301 183.957 139.231C183.86 139.16 183.748 139.111 183.631 139.086C183.513 139.061 183.392 139.061 183.274 139.086C182.657 139.082 182.041 139.024 181.433 138.913C182.123 139.719 182.785 140.553 183.447 141.387C183.51 141.442 183.559 141.511 183.59 141.588C183.59 141.876 183.331 142.106 183.274 142.394C183.216 142.682 183.533 143.171 183.907 143.372C186.61 144.868 184.769 141.099 184.309 139.834Z" fill="#E9E9A8"/>
<path d="M193.139 121.221L192.592 120.474C192.343 120.657 192.156 120.913 192.058 121.206C191.961 121.5 191.956 121.817 192.046 122.113C192.305 122.689 193.254 122.861 193.542 122.315C193.829 121.768 193.915 121.394 194.232 121.595L193.139 121.221Z" fill="#E9E9A8"/>
<path d="M201.94 178.698C201.888 178.191 201.715 177.703 201.434 177.278C201.154 176.852 200.775 176.5 200.329 176.253C199.38 175.821 198.028 176.253 198 177.403C197.984 177.703 198.076 177.999 198.258 178.238C198.371 178.375 198.508 178.492 198.661 178.583C199.189 179.035 199.864 179.28 200.559 179.273C200.902 179.237 201.219 179.071 201.443 178.809C201.668 178.546 201.784 178.208 201.767 177.864L201.94 178.698Z" fill="#E9E9A8"/>
<path d="M190.665 152.75C190.86 152.923 190.991 153.156 191.039 153.412C190.709 153.375 190.392 153.262 190.113 153.082C189.834 152.903 189.599 152.661 189.429 152.376C189.199 152.088 188.969 151.686 189.17 151.369C189.371 151.053 189.573 151.053 189.774 150.88C189.975 150.708 190.378 149.845 190.896 149.902C191.038 149.939 191.165 150.02 191.258 150.134C191.351 150.248 191.406 150.388 191.413 150.535C191.397 150.83 191.309 151.117 191.154 151.369L190.349 153.124L190.665 152.75Z" fill="#E9E9A8"/>
<path d="M183.878 147.543C184.005 147.508 184.122 147.441 184.216 147.349C184.31 147.256 184.379 147.141 184.417 147.014C184.454 146.888 184.459 146.753 184.43 146.624C184.401 146.496 184.34 146.376 184.252 146.277C183.98 146.326 183.729 146.456 183.533 146.651C183.446 146.762 183.4 146.899 183.4 147.04C183.4 147.18 183.446 147.317 183.533 147.428C183.569 147.488 183.619 147.537 183.68 147.571C183.74 147.605 183.808 147.623 183.878 147.623C183.947 147.623 184.016 147.605 184.076 147.571C184.137 147.537 184.187 147.488 184.223 147.428L183.878 147.543Z" fill="#E9E9A8"/>
<path d="M217.902 162.272C218.008 162.139 218.08 161.982 218.111 161.815C218.142 161.648 218.131 161.476 218.08 161.314C218.029 161.152 217.939 161.005 217.817 160.886C217.696 160.767 217.547 160.68 217.384 160.632C217.035 160.571 216.676 160.636 216.371 160.815C216.065 160.994 215.833 161.276 215.716 161.61C215.652 161.75 215.618 161.902 215.618 162.056C215.618 162.21 215.652 162.362 215.716 162.502C215.835 162.704 216.02 162.86 216.239 162.944C216.459 163.028 216.7 163.034 216.924 162.962C217.37 162.818 217.781 162.583 218.132 162.272H217.902Z" fill="#E9E9A8"/>
<path d="M206.34 169.32L204.96 171.161C204.825 171.331 204.727 171.527 204.672 171.736C204.662 171.966 204.711 172.194 204.816 172.398C205.132 173.146 205.621 174.038 206.455 174.009C207.289 173.98 207.692 172.858 208.066 172.053C208.785 170.557 212.61 168.14 211.201 166.299C209.791 164.458 207.318 168.198 206.34 169.32Z" fill="#E9E9A8"/>
<path d="M213.904 158.849L214.335 159.251C213.934 159.462 213.493 159.589 213.041 159.625C212.818 159.633 212.598 159.571 212.412 159.447C212.226 159.323 212.084 159.144 212.006 158.935C212.006 158.475 212.322 157.957 212.754 158.129C213.189 158.254 213.572 158.517 213.846 158.877L213.904 158.849Z" fill="#E9E9A8"/>
<path d="M187.387 145.731C187.387 146.076 187.818 146.277 188.163 146.191C188.479 146.036 188.787 145.863 189.084 145.673C189.245 145.595 189.422 145.554 189.601 145.554C189.781 145.554 189.958 145.595 190.119 145.673C190.219 145.706 190.307 145.767 190.374 145.848C190.44 145.93 190.481 146.029 190.493 146.134C190.535 146.265 190.535 146.405 190.493 146.536C190.173 147.158 189.685 147.676 189.084 148.032C188.793 148.223 188.453 148.324 188.106 148.324C187.758 148.324 187.418 148.223 187.128 148.032C186.943 147.871 186.805 147.663 186.729 147.43C186.653 147.197 186.642 146.948 186.696 146.709C186.747 146.475 186.859 146.258 187.02 146.081C187.182 145.904 187.388 145.773 187.617 145.702L187.387 145.731Z" fill="#E9E9A8"/>
<path d="M190.982 137.072C191.057 136.866 191.047 136.639 190.956 136.44C190.864 136.24 190.698 136.085 190.493 136.008C190.283 135.936 190.057 135.922 189.839 135.967C189.621 136.013 189.42 136.116 189.256 136.267C189.178 136.318 189.119 136.394 189.088 136.482C189.057 136.57 189.056 136.666 189.084 136.756C189.175 136.851 189.297 136.912 189.429 136.928L191.039 137.216L190.982 137.072Z" fill="#E9E9A8"/>
<path d="M190.982 161.265C190.85 161.438 190.681 161.578 190.486 161.675C190.291 161.771 190.077 161.821 189.86 161.821C189.643 161.821 189.429 161.771 189.234 161.675C189.04 161.578 188.87 161.438 188.738 161.265C189.111 160.677 189.652 160.216 190.291 159.942C190.953 159.74 191.845 159.942 191.902 160.776L191.241 161.783L190.982 161.265Z" fill="#E9E9A8"/>
<path d="M194.002 173.635C193.8 173.405 193.628 173.146 193.427 172.887C193.211 172.984 193.016 173.121 192.851 173.29C192.918 173.513 193.07 173.702 193.274 173.815C193.479 173.928 193.719 173.956 193.944 173.894L194.002 173.635Z" fill="#E9E9A8"/>
<path d="M233.03 160.891C233.438 161.241 233.751 161.688 233.942 162.191C234.133 162.693 234.195 163.235 234.123 163.768C234.111 163.904 234.061 164.033 233.979 164.142C233.886 164.192 233.783 164.219 233.677 164.219C233.572 164.219 233.468 164.192 233.375 164.142C232.167 163.94 230.729 163.451 230.499 162.243C230.483 161.988 230.529 161.733 230.634 161.499C230.738 161.266 230.897 161.061 231.098 160.903C231.299 160.744 231.535 160.637 231.786 160.59C232.038 160.543 232.297 160.557 232.541 160.632L232.829 161.61L233.03 160.891Z" fill="#E9E9A8"/>
<path d="M170.245 129.535C170.653 129.885 170.967 130.332 171.157 130.834C171.348 131.337 171.41 131.879 171.338 132.412C171.346 132.481 171.338 132.551 171.312 132.616C171.287 132.682 171.247 132.74 171.195 132.786C171.051 132.786 170.792 132.786 170.591 132.786C169.411 132.556 167.945 132.066 167.715 130.858C167.693 130.604 167.735 130.349 167.836 130.115C167.936 129.881 168.093 129.675 168.292 129.516C168.491 129.357 168.726 129.249 168.976 129.202C169.227 129.156 169.485 129.171 169.728 129.247L170.015 130.225L170.245 129.535Z" fill="#E9E9A8"/>
</g>
<g style="mix-blend-mode:soft-light" opacity="0.51">
<path d="M-64.3555 -3.31092L-71.8332 -6.56159C-70.7115 -7.30953 -69.6186 -7.99994 -68.497 -8.63281L-63.0612 -6.27392L-59.121 -4.51913C-2.95147 20.0469 56.5158 36.2424 117.383 43.5505C124.027 44.356 130.728 45.0464 137.516 45.7368C153.679 47.4053 170.418 49.1601 186.639 52.4395C193.62 53.8275 200.523 55.5847 207.318 57.7039C208.181 59.0847 209.015 60.5806 209.82 61.9039C201.984 59.2729 193.992 57.1305 185.891 55.4888C169.814 52.2382 153.19 50.5121 136.998 48.8437C130.297 48.1533 123.596 47.4628 116.866 46.6574C55.7342 39.3201 -3.99332 23.0668 -60.4152 -1.5849L-64.3555 -3.31092Z" fill="#5FCCCC"/>
<path d="M230.327 111.067C214.393 110.146 199.064 104.393 184.31 99.1284L175.365 95.964C135.1 81.9832 96.0717 75.5394 59.2005 76.7764C51.1763 77.0641 43.037 77.6969 35.1566 78.3298C22.733 79.5595 10.2513 80.1069 -2.23228 79.9695C-39.6642 78.8151 -75.7447 65.7104 -105.196 42.5724C-109.284 39.4345 -113.13 35.9918 -116.7 32.2738C-116.01 31.4108 -115.319 30.5766 -114.571 29.7711C-111.081 33.4856 -107.312 36.9285 -103.297 40.0697C-74.3872 62.7732 -38.9713 75.6261 -2.23228 76.7476C10.117 76.866 22.4636 76.3186 34.754 75.1079C42.6632 74.475 50.86 73.8134 58.9417 73.5545C96.3306 72.2888 135.675 78.8189 176.314 92.8859C179.19 93.9215 182.239 95.0147 185.259 96.1078C199.639 101.228 214.336 106.55 229.435 107.816C229.751 108.909 230.039 110.146 230.327 111.067Z" fill="#5FCCCC"/>
</g>
<g style="mix-blend-mode:soft-light" opacity="0.51">
<path d="M213.501 257.865C212.926 258.987 212.293 260.108 211.661 261.23C209.504 261.23 207.318 261.547 205.19 261.633C189.515 262.324 168.577 259.965 157.648 244.804C155.462 241.599 153.539 238.222 151.896 234.707C149.02 228.609 146.144 222.855 140.794 219.748C136.744 217.681 132.147 216.937 127.651 217.62C119.023 218.626 111.142 222.74 102.917 227.113C96.3658 230.974 89.3619 234.008 82.0651 236.146C70.9634 239.022 59.0565 237.44 48.6452 236.146L47.466 235.973C23.6521 233.096 -0.161691 230.22 -24.0043 227.026C-28.5966 226.743 -33.0764 225.488 -37.1479 223.344C-39.3704 222.122 -41.1507 220.229 -42.2351 217.936C-43.3195 215.643 -43.6529 213.066 -43.1877 210.572C-42.2674 207.906 -40.6954 205.513 -38.6147 203.61C-37.4321 202.465 -36.3806 201.191 -35.4798 199.813C-32.6038 194.894 -34.7033 188.306 -38.1833 184.681C-42.4907 180.639 -47.9886 178.096 -53.8579 177.432C-68.7272 174.901 -84.0566 178.295 -98.8396 181.575C-111.811 184.451 -125.213 187.328 -138.702 186.58C-147.68 185.984 -156.463 183.69 -164.587 179.82C-164.587 178.583 -164.759 177.346 -164.874 176.109C-156.672 180.253 -147.725 182.718 -138.558 183.358C-125.558 184.192 -112.386 181.258 -99.6161 178.439C-84.5168 175.073 -68.8997 171.621 -53.4265 174.268C-46.8669 175.025 -40.7304 177.892 -35.94 182.438C-31.5109 187.069 -29.0374 195.095 -32.7763 201.453C-33.8064 203.033 -35.002 204.498 -36.3426 205.825C-37.9873 207.362 -39.2482 209.264 -40.024 211.377C-40.2935 213.198 -39.9966 215.058 -39.1734 216.705C-38.3502 218.352 -37.0406 219.705 -35.4223 220.583C-31.7324 222.482 -27.6867 223.589 -23.5442 223.833C0.269685 226.883 24.0931 229.865 47.9261 232.78L49.1053 232.924C59.7756 234.276 70.8196 235.628 81.346 232.924C88.3805 230.87 95.1405 227.972 101.479 224.294C109.589 219.978 118.016 215.663 127.363 214.455C132.547 213.639 137.855 214.528 142.491 216.987C148.732 220.583 151.867 227.055 154.916 233.326C156.404 236.674 158.174 239.888 160.208 242.935C170.303 256.944 190.148 259.073 204.988 258.44C207.836 258.267 210.683 258.095 213.501 257.865Z" fill="#5FCCCC"/>
</g>
<g style="mix-blend-mode:soft-light" opacity="0.51">
<path d="M98.0273 354.666C96.8768 355.04 95.8127 355.414 94.691 355.73C91.6344 351.697 88.9214 347.415 86.5805 342.929L84.7111 339.62C72.2864 318.074 56.4106 302.223 38.694 293.852C18.3602 284.215 -5.02224 283.611 -27.2542 284.359C-53.4552 285.251 -83.2226 288.444 -105.426 305.244L-107.353 302.684C-84.488 285.423 -54.0592 282.058 -27.3405 281.108C-4.70587 280.332 19.1367 281.108 40.0745 290.947C58.3088 299.577 74.5873 315.888 87.4146 338.009C88.0473 339.103 88.6801 340.253 89.284 341.346C91.7831 346.045 94.7099 350.504 98.0273 354.666V354.666Z" fill="#5FCCCC"/>
</g>
<g style="mix-blend-mode:soft-light" opacity="0.51">
<path d="M192.362 36.5601L187.013 35.4957C163.852 30.7435 140.248 28.4868 116.607 28.7642C113.787 28.9809 110.953 28.6387 108.266 27.7574C102.514 25.456 100.242 19.5876 98.1999 13.8917C97.369 11.4293 96.3497 9.03457 95.1512 6.72871C90.0031 -2.33289 78.9014 -5.43973 70.2445 -5.2959C61.5868 -4.7476 53.0532 -2.95525 44.9063 0.0260003L40.8511 1.29175C18.0438 8.19583 -0.334217 10.2671 -17.0154 7.82186C-33.178 5.69347 -48.0802 -2.04432 -59.121 -14.0411C-58.1144 -14.5589 -57.1366 -15.1054 -56.245 -15.5945C-45.7509 -4.52781 -31.7646 2.58371 -16.6415 4.54242C-0.478007 6.93008 17.4687 4.88762 39.7582 -1.87262L43.8134 -3.13837C52.2576 -6.21973 61.101 -8.07018 70.0719 -8.63287C79.6205 -8.63287 91.9875 -5.23836 97.826 5.00269C99.1066 7.47863 100.203 10.0459 101.105 12.6835C103.003 17.9478 104.844 22.8958 109.359 24.6793C111.608 25.38 113.971 25.6436 116.319 25.456C140.278 25.2126 164.193 27.566 187.646 32.4752L189.112 32.7628C190.234 33.9135 191.327 35.3519 192.362 36.5601Z" fill="#5FCCCC"/>
</g>
</g>
<g opacity="0.2">
<path d="M1656.34 210.157C1659.38 226.648 1658.58 243.617 1654.01 259.751C1653.84 260.413 1653.64 261.074 1653.44 261.736C1649.39 275.051 1642.78 287.45 1633.99 298.241C1631.32 301.509 1628.44 304.603 1625.37 307.504C1618.98 313.747 1611.84 319.168 1604.11 323.643C1603.57 323.988 1603.02 324.276 1602.47 324.592C1588.38 332.379 1572.73 336.924 1556.66 337.895C1540.59 338.867 1524.51 336.24 1509.59 330.207C1494.66 324.175 1481.27 314.887 1470.38 303.022C1459.5 291.157 1451.4 277.013 1446.68 261.621C1446.48 260.988 1446.3 260.326 1446.1 259.694C1441.89 244.867 1440.91 229.308 1443.23 214.069C1443.46 212.631 1443.71 211.192 1443.97 209.754C1445.38 202.386 1447.55 195.184 1450.44 188.265C1451.81 184.996 1453.35 181.799 1455.05 178.686C1455.3 178.168 1455.56 177.65 1455.88 177.132C1460.82 168.334 1466.98 160.277 1474.17 153.198C1474.69 152.68 1475.21 152.191 1475.72 151.731C1477.11 150.379 1478.6 149.084 1480.04 147.819C1480.5 147.445 1480.93 147.042 1481.42 146.668C1500.24 131.16 1523.76 122.473 1548.14 122.019C1572.52 121.564 1596.34 129.369 1615.73 144.165C1616.48 144.712 1617.2 145.287 1617.89 145.863C1621.51 148.771 1624.94 151.913 1628.16 155.269C1628.76 155.902 1629.36 156.535 1629.94 157.197C1636 163.82 1641.21 171.174 1645.44 179.088C1645.76 179.635 1646.02 180.182 1646.3 180.699C1649.84 187.582 1652.63 194.825 1654.62 202.303C1655.25 204.892 1655.82 207.51 1656.34 210.157Z" fill="url(#paint2_radial_89_2033)"/>
<g style="mix-blend-mode:multiply" opacity="0.1">
<path d="M1489.65 188.783C1489.65 192.782 1506.59 196.608 1508.6 191.66C1510.61 186.712 1489.56 180.585 1489.65 188.783Z" fill="#190024"/>
</g>
<g style="mix-blend-mode:multiply" opacity="0.1">
<path d="M1497.61 200.232C1498.91 203.109 1502.44 202.419 1502.59 200.98C1502.73 199.542 1496.32 197.327 1497.61 200.232Z" fill="#190024"/>
</g>
<g style="mix-blend-mode:multiply" opacity="0.1">
<path d="M1594.48 219.449C1597.81 214.184 1600.23 216.227 1601.78 218.269C1603.34 220.312 1593.36 221.088 1594.48 219.449Z" fill="#190024"/>
</g>
<g style="mix-blend-mode:multiply" opacity="0.1">
<path d="M1588.5 183.461C1591.83 178.197 1594.25 180.239 1595.8 182.282C1597.35 184.324 1587.43 185.158 1588.5 183.461Z" fill="#190024"/>
</g>
<g style="mix-blend-mode:multiply" opacity="0.1">
<path d="M1554.76 310.467C1558.1 305.203 1560.51 307.246 1562.06 309.288C1563.62 311.33 1553.72 312.107 1554.76 310.467Z" fill="#190024"/>
</g>
<g style="mix-blend-mode:multiply" opacity="0.1">
<path d="M1617.95 229.488C1618.92 231.56 1622.84 231.157 1622.06 228.683C1621.28 226.209 1616.36 225.777 1617.95 229.488Z" fill="#190024"/>
</g>
<g style="mix-blend-mode:multiply" opacity="0.1">
<path d="M1518.95 155.989C1519.96 158.089 1523.87 157.657 1523.09 155.212C1522.32 152.767 1517.31 152.45 1518.95 155.989Z" fill="#190024"/>
</g>
<g style="mix-blend-mode:soft-light" opacity="0.51">
<path d="M1623.81 283.57C1625.6 283.57 1632.44 286.447 1632.87 289.985C1633.3 293.524 1617.95 293.696 1617.8 290.359C1617.88 288.713 1618.52 287.143 1619.62 285.909C1620.71 284.674 1622.19 283.85 1623.81 283.57V283.57Z" fill="#5FCCCC"/>
</g>
<g style="mix-blend-mode:soft-light" opacity="0.51">
<path d="M1605.29 179.75C1607.07 179.75 1613.92 182.627 1614.35 186.165C1614.78 189.704 1599.42 189.876 1599.25 186.539C1599.34 184.892 1599.99 183.324 1601.09 182.091C1602.18 180.859 1603.67 180.033 1605.29 179.75Z" fill="#5FCCCC"/>
</g>
<g style="mix-blend-mode:soft-light" opacity="0.51">
<path d="M1554.93 146.064C1555.71 147.646 1556.69 154.924 1553.78 157.082C1550.88 159.239 1543.25 145.863 1546.07 144.108C1547.55 143.372 1549.24 143.164 1550.85 143.52C1552.46 143.876 1553.9 144.774 1554.93 146.064Z" fill="#5FCCCC"/>
</g>
<g style="mix-blend-mode:soft-light">
<path d="M1583.72 167.035C1583.81 165.29 1583.49 163.549 1582.8 161.943C1582.7 161.683 1582.54 161.447 1582.34 161.253C1582.13 161.083 1581.88 160.971 1581.61 160.931C1581.34 160.891 1581.07 160.922 1580.82 161.023C1580.2 161.231 1579.66 161.614 1579.25 162.125C1578.85 162.635 1578.6 163.252 1578.54 163.9C1578.52 164.56 1578.66 165.216 1578.95 165.812C1579.23 166.408 1579.66 166.926 1580.18 167.323C1580.46 167.568 1580.78 167.754 1581.14 167.868C1581.49 167.981 1581.86 168.021 1582.23 167.985C1582.59 167.94 1582.92 167.772 1583.17 167.51C1583.42 167.248 1583.58 166.908 1583.61 166.546C1583.56 166.511 1583.5 166.488 1583.44 166.481C1583.38 166.474 1583.32 166.483 1583.27 166.506C1583.21 166.529 1583.16 166.566 1583.13 166.614C1583.09 166.661 1583.07 166.717 1583.06 166.776L1583.72 167.035Z" fill="#E9E9A8"/>
<path d="M1610.61 171.379C1610.61 170.877 1610.48 170.384 1610.22 169.95C1609.97 169.516 1609.61 169.156 1609.17 168.905C1608.73 169.143 1608.36 169.485 1608.08 169.901C1607.8 170.317 1607.62 170.794 1607.56 171.293C1607.55 171.538 1607.58 171.785 1607.66 172.017C1607.74 172.25 1607.87 172.465 1608.03 172.65C1608.19 172.834 1608.39 172.984 1608.61 173.092C1608.83 173.2 1609.07 173.263 1609.32 173.278C1610.3 173.278 1611.02 171.839 1610.3 171.149L1610.61 171.379Z" fill="#E9E9A8"/>
<path d="M1605.87 163.324C1605.7 163.033 1605.5 162.762 1605.26 162.519C1605.26 162.519 1605.09 163.296 1604.75 163.382H1604.57C1604.57 163.382 1604.57 163.583 1604.57 163.641C1604.69 163.713 1604.82 163.759 1604.96 163.775C1605.09 163.791 1605.23 163.776 1605.36 163.732C1605.49 163.688 1605.61 163.616 1605.7 163.52C1605.8 163.425 1605.88 163.309 1605.92 163.18V163.18L1605.87 163.324Z" fill="#E9E9A8"/>
<path d="M1597.18 156.478C1596.89 155.921 1596.51 155.416 1596.06 154.982C1595.99 154.969 1595.92 154.969 1595.86 154.982C1595.79 154.958 1595.72 154.958 1595.66 154.982C1595.14 155.413 1595.28 156.42 1594.65 156.593C1594.55 156.565 1594.44 156.565 1594.33 156.593C1594.19 156.593 1594.33 156.967 1594.51 157.082C1594.73 157.212 1594.97 157.293 1595.22 157.32C1595.48 157.347 1595.73 157.318 1595.97 157.236C1596.21 157.154 1596.43 157.02 1596.62 156.845C1596.8 156.669 1596.94 156.455 1597.04 156.219V156.478H1597.18Z" fill="#E9E9A8"/>
<path d="M1613.06 148.768C1612.75 148.213 1612.37 147.7 1611.94 147.244C1611.87 147.219 1611.8 147.219 1611.73 147.244C1611.66 147.219 1611.58 147.219 1611.5 147.244C1611.02 147.675 1611.16 148.711 1610.53 148.883C1610.53 148.883 1610.27 148.883 1610.21 148.883C1610.15 148.883 1610.21 149.257 1610.38 149.372C1610.6 149.502 1610.84 149.582 1611.1 149.606C1611.35 149.631 1611.6 149.599 1611.84 149.514C1612.08 149.429 1612.3 149.292 1612.48 149.114C1612.66 148.935 1612.8 148.719 1612.88 148.48V148.768H1613.06Z" fill="#E9E9A8"/>
<path d="M1606.53 157.283C1606.52 157.047 1606.46 156.817 1606.34 156.611C1606.23 156.405 1606.07 156.231 1605.87 156.104C1605.73 156.269 1605.63 156.453 1605.55 156.65C1605.52 156.748 1605.52 156.853 1605.55 156.952C1605.58 157.05 1605.64 157.136 1605.72 157.197C1605.95 157.37 1606.27 157.197 1606.53 157.197V157.427V157.283Z" fill="#E9E9A8"/>
<path d="M1603.25 156.622C1603.21 156.503 1603.13 156.402 1603.02 156.334C1602.9 156.306 1602.77 156.306 1602.65 156.334H1601.61L1602.96 157.398C1602.96 157.398 1602.96 157.715 1602.96 157.859C1602.96 158.002 1603.19 158.232 1603.42 158.319C1605 159.009 1603.6 157.254 1603.25 156.622Z" fill="#E9E9A8"/>
<path d="M1586.05 154.119C1586.01 154 1585.93 153.899 1585.82 153.831C1585.7 153.787 1585.57 153.787 1585.45 153.831C1585.1 153.859 1584.76 153.859 1584.41 153.831L1585.76 154.895C1585.76 154.895 1585.76 155.183 1585.76 155.327C1585.76 155.471 1585.99 155.73 1586.22 155.787C1587.81 156.478 1586.4 154.694 1586.05 154.119Z" fill="#E9E9A8"/>
<path d="M1605.75 145.863L1605.38 145.517C1605.28 145.651 1605.23 145.812 1605.23 145.978C1605.23 146.143 1605.28 146.305 1605.38 146.438C1605.42 146.51 1605.48 146.57 1605.55 146.612C1605.62 146.653 1605.7 146.675 1605.78 146.675C1605.86 146.675 1605.94 146.653 1606.01 146.612C1606.09 146.57 1606.14 146.51 1606.18 146.438C1606.18 146.237 1606.18 145.92 1606.44 145.978L1605.75 145.863Z" fill="#E9E9A8"/>
<path d="M1581.19 150.782C1581.2 150.895 1581.18 151.009 1581.13 151.113C1581.09 151.218 1581.02 151.31 1580.94 151.383C1580.85 151.456 1580.75 151.507 1580.63 151.533C1580.52 151.558 1580.41 151.557 1580.3 151.53C1580.19 151.491 1580.1 151.425 1580.02 151.34C1579.95 151.254 1579.9 151.151 1579.88 151.04C1579.86 150.929 1579.86 150.814 1579.9 150.707C1579.93 150.599 1579.99 150.502 1580.07 150.425C1580.16 150.348 1580.26 150.293 1580.37 150.266C1580.48 150.239 1580.59 150.241 1580.7 150.271C1580.81 150.301 1580.91 150.358 1580.99 150.438C1581.07 150.517 1581.13 150.616 1581.16 150.724L1581.19 150.782Z" fill="#E9E9A8"/>
<path d="M1588.06 154.349C1588.38 154.521 1588.78 154.809 1588.67 155.154C1588.55 155.5 1588.09 155.528 1587.75 155.5C1587.4 155.471 1587.4 155.5 1587.35 155.298C1587.29 155.097 1587.92 154.723 1587.83 154.378C1587.75 154.032 1588.06 154.378 1588.01 154.378L1588.06 154.349Z" fill="#E9E9A8"/>
<path d="M1616.88 175.061C1616.8 174.797 1616.66 174.557 1616.46 174.361C1616.27 174.165 1616.02 174.021 1615.76 173.939C1615.63 173.908 1615.49 173.908 1615.36 173.939C1615.22 173.97 1615.1 174.031 1615 174.117C1614.89 174.203 1614.81 174.312 1614.75 174.436C1614.69 174.56 1614.66 174.695 1614.67 174.831C1614.7 174.984 1614.78 175.124 1614.9 175.234L1615.16 175.378C1615.33 175.448 1615.51 175.484 1615.69 175.484C1615.87 175.484 1616.05 175.448 1616.22 175.378C1616.4 175.324 1616.55 175.205 1616.64 175.044C1616.73 174.883 1616.75 174.694 1616.71 174.515L1616.88 175.061Z" fill="#E9E9A8"/>
<path d="M1629.45 178.686C1629.45 178.686 1629.13 178.686 1629.08 178.973C1629.05 179.135 1629.05 179.301 1629.08 179.462C1629.08 179.836 1628.62 180.067 1628.44 180.383C1628.34 180.701 1628.33 181.039 1628.39 181.366C1628.46 181.693 1628.6 181.998 1628.82 182.253C1628.82 182.253 1629.02 182.541 1629.16 182.541C1629.31 182.541 1629.36 182.541 1629.48 182.397C1630.14 181.965 1630.74 182.541 1631.41 182.397C1631.7 182.254 1631.96 182.045 1632.16 181.785C1632.36 181.526 1632.5 181.223 1632.56 180.901C1632.6 180.514 1632.54 180.124 1632.38 179.769C1632.22 179.414 1631.97 179.108 1631.65 178.883C1631.34 178.657 1630.97 178.52 1630.58 178.485C1630.19 178.451 1629.8 178.52 1629.45 178.686Z" fill="#E9E9A8"/>
<path d="M1608.02 162.691C1608.14 162.775 1608.24 162.883 1608.31 163.008C1608.13 163.027 1607.95 163.004 1607.78 162.939C1607.61 162.874 1607.46 162.769 1607.33 162.634C1607.16 162.634 1607.02 162.317 1607.08 162.145C1607.13 161.972 1607.25 161.943 1607.33 161.828C1607.42 161.713 1607.54 161.196 1607.82 161.167C1607.9 161.178 1607.97 161.211 1608.04 161.262C1608.1 161.313 1608.14 161.379 1608.17 161.454C1608.2 161.607 1608.2 161.763 1608.17 161.915L1607.94 162.922L1608.02 162.691Z" fill="#E9E9A8"/>
<path d="M1605.06 167.294C1605.06 167.006 1604.52 167.064 1604.4 167.294C1604.34 167.426 1604.32 167.568 1604.32 167.711C1604.32 167.855 1604.34 167.996 1604.4 168.128C1604.59 168.069 1604.76 167.952 1604.89 167.792C1605.01 167.632 1605.08 167.438 1605.09 167.237L1605.06 167.294Z" fill="#E9E9A8"/>
<path d="M1603.31 163.324C1603.26 163.193 1603.18 163.075 1603.08 162.979C1603.02 162.944 1602.95 162.925 1602.88 162.925C1602.81 162.925 1602.74 162.944 1602.67 162.979C1602.47 162.979 1602.67 163.411 1602.39 163.612C1602.1 163.813 1601.98 163.871 1601.93 164.101C1601.87 164.331 1602.1 164.532 1602.36 164.532C1602.59 164.498 1602.8 164.387 1602.96 164.216C1603.12 164.085 1603.24 163.917 1603.31 163.727C1603.34 163.629 1603.34 163.524 1603.31 163.426C1603.28 163.328 1603.22 163.242 1603.13 163.18L1603.31 163.324Z" fill="#E9E9A8"/>
<path d="M1602.33 161.713C1602.33 161.857 1602.33 161.972 1602.07 161.972C1602 161.975 1601.94 161.96 1601.88 161.93C1601.82 161.9 1601.76 161.855 1601.73 161.8C1601.71 161.733 1601.71 161.665 1601.73 161.598C1601.72 161.532 1601.74 161.465 1601.77 161.407C1601.8 161.348 1601.85 161.301 1601.91 161.269C1601.97 161.238 1602.03 161.225 1602.1 161.231C1602.17 161.237 1602.23 161.262 1602.28 161.303C1602.34 161.344 1602.37 161.4 1602.4 161.463C1602.42 161.526 1602.42 161.594 1602.4 161.659C1602.39 161.724 1602.35 161.783 1602.3 161.828C1602.26 161.873 1602.19 161.903 1602.13 161.915L1602.33 161.713Z" fill="#E9E9A8"/>
<path d="M1584.3 169.452C1584.3 169.595 1584.3 169.711 1584.04 169.711C1583.97 169.719 1583.9 169.708 1583.84 169.677C1583.78 169.646 1583.73 169.598 1583.69 169.538C1583.68 169.471 1583.68 169.403 1583.69 169.337C1583.69 169.27 1583.7 169.203 1583.74 169.145C1583.77 169.087 1583.82 169.039 1583.88 169.008C1583.93 168.976 1584 168.963 1584.07 168.969C1584.13 168.975 1584.2 169 1584.25 169.041C1584.3 169.083 1584.34 169.138 1584.36 169.201C1584.38 169.265 1584.39 169.333 1584.37 169.398C1584.35 169.462 1584.32 169.521 1584.27 169.566C1584.22 169.612 1584.16 169.642 1584.1 169.653L1584.3 169.452Z" fill="#E9E9A8"/>
<path d="M1603.85 160.706C1603.91 160.667 1603.96 160.614 1604 160.551C1604.03 160.488 1604.05 160.418 1604.05 160.347C1604.05 160.276 1604.03 160.206 1604 160.143C1603.96 160.08 1603.91 160.027 1603.85 159.987C1603.72 160.06 1603.6 160.157 1603.51 160.275C1603.47 160.34 1603.45 160.414 1603.45 160.491C1603.45 160.567 1603.47 160.642 1603.51 160.706C1603.53 160.731 1603.56 160.751 1603.59 160.764C1603.62 160.777 1603.65 160.784 1603.68 160.784C1603.71 160.784 1603.75 160.777 1603.78 160.764C1603.81 160.751 1603.83 160.731 1603.85 160.706V160.706Z" fill="#E9E9A8"/>
<path d="M1580.3 144.165C1580.35 144.125 1580.4 144.073 1580.43 144.013C1580.46 143.953 1580.47 143.887 1580.47 143.82C1580.47 143.753 1580.46 143.687 1580.43 143.627C1580.4 143.567 1580.35 143.515 1580.3 143.475C1580.22 143.497 1580.16 143.534 1580.1 143.584C1580.04 143.633 1579.99 143.694 1579.95 143.763C1579.91 143.819 1579.88 143.891 1579.88 143.964C1579.88 144.037 1579.91 144.109 1579.95 144.165C1579.97 144.195 1580 144.219 1580.04 144.236C1580.07 144.253 1580.1 144.261 1580.14 144.261C1580.18 144.261 1580.21 144.253 1580.25 144.236C1580.28 144.219 1580.31 144.195 1580.33 144.165H1580.3Z" fill="#E9E9A8"/>
<path d="M1577.19 158.722C1577.24 158.552 1577.25 158.373 1577.22 158.198C1577.19 158.023 1577.12 157.858 1577.02 157.715L1576.39 158.29C1576.28 158.374 1576.19 158.482 1576.13 158.606C1576.11 158.67 1576.11 158.736 1576.12 158.8C1576.13 158.864 1576.16 158.925 1576.2 158.978C1576.24 159.03 1576.29 159.074 1576.34 159.104C1576.4 159.134 1576.47 159.151 1576.53 159.153C1576.67 159.158 1576.8 159.122 1576.91 159.05C1577.02 158.978 1577.11 158.874 1577.16 158.75L1577.19 158.722Z" fill="#E9E9A8"/>
<path d="M1585.56 159.901L1586.68 160.965C1586.68 161.224 1586.22 161.138 1585.99 160.965C1585.74 160.86 1585.53 160.679 1585.39 160.448C1585.36 160.392 1585.34 160.33 1585.33 160.266C1585.32 160.202 1585.33 160.137 1585.35 160.076C1585.37 160.015 1585.41 159.96 1585.46 159.915C1585.5 159.87 1585.56 159.835 1585.62 159.815L1585.56 159.901Z" fill="#E9E9A8"/>
<path d="M1623.41 164.619C1623.46 164.537 1623.48 164.445 1623.48 164.353C1623.48 164.26 1623.45 164.169 1623.4 164.088C1623.36 164.008 1623.29 163.94 1623.21 163.892C1623.13 163.844 1623.04 163.817 1622.95 163.813C1622.76 163.819 1622.59 163.892 1622.45 164.019C1622.31 164.146 1622.22 164.318 1622.2 164.504C1622.17 164.58 1622.15 164.664 1622.15 164.748C1622.15 164.833 1622.17 164.916 1622.2 164.993C1622.3 165.063 1622.42 165.101 1622.55 165.101C1622.67 165.101 1622.79 165.063 1622.89 164.993C1623.1 164.861 1623.29 164.696 1623.44 164.504L1623.41 164.619Z" fill="#E9E9A8"/>
<path d="M1586.19 153.112C1586.29 152.968 1586.35 152.798 1586.35 152.623C1586.35 152.448 1586.29 152.278 1586.19 152.134C1585.95 152.205 1585.74 152.357 1585.59 152.565C1585.48 152.695 1585.42 152.857 1585.42 153.026C1585.42 153.194 1585.48 153.357 1585.59 153.486C1585.85 153.687 1586.34 153.486 1586.28 153.141L1586.19 153.112Z" fill="#E9E9A8"/>
<path d="M1585.96 156.737C1585.99 156.851 1585.97 156.97 1585.92 157.074C1585.87 157.179 1585.78 157.263 1585.68 157.312L1585.1 156.765C1585.14 156.684 1585.19 156.612 1585.26 156.553C1585.32 156.495 1585.4 156.452 1585.49 156.427C1585.57 156.402 1585.66 156.397 1585.75 156.41C1585.84 156.424 1585.92 156.457 1585.99 156.506L1585.96 156.737Z" fill="#E9E9A8"/>
<path d="M1618.12 169.624C1617.98 169.998 1617.8 170.372 1617.63 170.746C1617.59 170.858 1617.59 170.98 1617.63 171.091C1617.65 171.208 1617.7 171.318 1617.77 171.408C1618.03 171.782 1618.38 172.184 1618.81 172.069C1619.24 171.954 1619.33 171.321 1619.44 170.861C1619.56 170.401 1621.4 168.272 1620.42 167.438C1619.44 166.604 1618.44 169.078 1618.12 169.624Z" fill="#E9E9A8"/>
<path d="M1620.94 163.324L1621.2 163.468C1621.02 163.632 1620.8 163.751 1620.56 163.813C1620.45 163.846 1620.32 163.842 1620.21 163.801C1620.1 163.759 1620 163.683 1619.93 163.583C1619.9 163.529 1619.88 163.468 1619.88 163.406C1619.89 163.344 1619.9 163.283 1619.94 163.23C1619.97 163.177 1620.01 163.134 1620.07 163.105C1620.12 163.076 1620.19 163.062 1620.25 163.065C1620.49 163.093 1620.72 163.194 1620.91 163.353L1620.94 163.324Z" fill="#E9E9A8"/>
<path d="M1601.81 165.769C1601.81 165.869 1601.79 165.968 1601.74 166.054C1601.69 166.14 1601.61 166.211 1601.52 166.258C1601.44 166.315 1601.34 166.346 1601.24 166.346C1601.13 166.346 1601.03 166.315 1600.95 166.258C1600.95 166.258 1600.78 166 1600.95 165.913H1601.12H1601.87V166.057L1601.81 165.769Z" fill="#E9E9A8"/>
<path d="M1598.33 167.668C1598.07 167.668 1597.87 167.87 1597.76 168.1C1597.64 168.33 1597.5 168.589 1597.24 168.617C1597.21 168.63 1597.18 168.637 1597.15 168.637C1597.12 168.637 1597.09 168.63 1597.07 168.617C1597.07 168.474 1597.07 168.301 1597.07 168.157C1597.08 168.014 1597.08 167.869 1597.07 167.726C1597.1 167.561 1597.19 167.412 1597.31 167.299C1597.43 167.185 1597.59 167.113 1597.76 167.093C1597.84 167.13 1597.9 167.189 1597.95 167.263C1598 167.336 1598.02 167.422 1598.02 167.51C1598.02 167.598 1598 167.683 1597.95 167.757C1597.9 167.831 1597.84 167.89 1597.76 167.927L1598.33 167.668Z" fill="#E9E9A8"/>
<path d="M1597.15 165.453L1596.98 165.223C1596.9 165.236 1596.83 165.274 1596.78 165.331C1596.73 165.389 1596.7 165.462 1596.69 165.539C1596.69 165.58 1596.7 165.62 1596.72 165.656C1596.73 165.693 1596.76 165.727 1596.79 165.754C1596.82 165.781 1596.85 165.801 1596.89 165.814C1596.93 165.827 1596.97 165.831 1597.01 165.827C1597.15 165.827 1597.27 165.597 1597.18 165.482L1597.15 165.453Z" fill="#E9E9A8"/>
<path d="M1590.48 166.345L1590.34 166.115C1590.25 166.115 1590.17 166.148 1590.11 166.207C1590.05 166.267 1590.02 166.347 1590.02 166.431C1590.03 166.51 1590.06 166.583 1590.12 166.636C1590.18 166.69 1590.26 166.719 1590.34 166.719C1590.38 166.71 1590.41 166.693 1590.44 166.668C1590.47 166.643 1590.5 166.611 1590.52 166.574C1590.53 166.538 1590.54 166.499 1590.54 166.459C1590.54 166.419 1590.53 166.38 1590.51 166.345H1590.48Z" fill="#E9E9A8"/>
<path d="M1605.52 159.383C1605.52 159.556 1605.81 159.613 1605.95 159.527C1606.11 159.418 1606.25 159.293 1606.38 159.153C1606.47 159.11 1606.56 159.088 1606.66 159.088C1606.75 159.088 1606.85 159.11 1606.93 159.153C1606.99 159.156 1607.05 159.177 1607.09 159.213C1607.14 159.249 1607.17 159.298 1607.19 159.354C1607.2 159.386 1607.21 159.42 1607.21 159.455C1607.21 159.49 1607.2 159.524 1607.19 159.556C1607.1 159.915 1606.91 160.243 1606.64 160.505C1606.5 160.635 1606.33 160.721 1606.14 160.751C1605.95 160.782 1605.75 160.756 1605.58 160.678C1605.47 160.611 1605.38 160.519 1605.31 160.408C1605.25 160.298 1605.21 160.173 1605.21 160.045C1605.21 159.915 1605.24 159.788 1605.31 159.677C1605.37 159.566 1605.47 159.474 1605.58 159.412L1605.52 159.383Z" fill="#E9E9A8"/>
<path d="M1574.32 134.759C1574.32 134.931 1574.6 134.989 1574.78 134.902C1574.92 134.786 1575.05 134.661 1575.18 134.528C1575.36 134.458 1575.57 134.458 1575.75 134.528C1575.81 134.541 1575.87 134.568 1575.92 134.609C1575.96 134.649 1575.99 134.701 1576.01 134.759C1576.01 134.759 1576.01 134.759 1576.01 134.96C1575.92 135.327 1575.72 135.657 1575.44 135.909C1575.3 136.04 1575.13 136.127 1574.95 136.158C1574.76 136.189 1574.57 136.162 1574.4 136.082C1574.29 136.02 1574.19 135.928 1574.13 135.817C1574.06 135.705 1574.03 135.578 1574.03 135.449C1574.03 135.323 1574.06 135.199 1574.12 135.088C1574.18 134.978 1574.27 134.884 1574.37 134.816L1574.32 134.759Z" fill="#E9E9A8"/>
<path d="M1606.41 154.406C1606.42 154.293 1606.39 154.181 1606.32 154.09C1606.25 154 1606.15 153.938 1606.04 153.917C1605.92 153.905 1605.8 153.922 1605.69 153.967C1605.58 154.012 1605.48 154.084 1605.41 154.176C1605.41 154.176 1605.41 154.406 1605.41 154.464C1605.47 154.488 1605.54 154.488 1605.61 154.464H1606.47L1606.41 154.406Z" fill="#E9E9A8"/>
<path d="M1576.1 144.165C1576.37 144.036 1576.62 143.852 1576.81 143.624C1577.01 143.396 1577.16 143.13 1577.25 142.842C1577.27 142.792 1577.28 142.738 1577.28 142.684C1577.28 142.629 1577.27 142.576 1577.25 142.526C1577.25 142.324 1576.82 142.526 1576.59 142.526C1576.36 142.526 1575.81 142.324 1575.41 142.526C1575.11 142.618 1574.84 142.811 1574.66 143.072C1574.35 143.446 1574.06 143.993 1574.4 144.338C1574.6 144.471 1574.83 144.523 1575.06 144.482C1575.58 144.433 1576.09 144.296 1576.56 144.079L1576.1 144.165Z" fill="#E9E9A8"/>
<path d="M1594.31 147.157C1594.68 147.157 1594.74 146.611 1594.68 146.265C1594.66 146.03 1594.54 145.813 1594.36 145.661C1594.1 145.661 1593.79 145.661 1593.56 145.978L1593.01 146.553C1592.92 146.633 1592.85 146.746 1592.84 146.869C1592.84 146.924 1592.86 146.976 1592.89 147.022C1592.92 147.067 1592.96 147.104 1593.01 147.128C1593.44 147.444 1593.93 147.678 1594.45 147.819L1594.31 147.157Z" fill="#E9E9A8"/>
<path d="M1592.78 159.038C1596.06 159.182 1595.89 155.356 1593.18 154.55C1590.48 153.745 1589.9 158.894 1592.78 159.038Z" fill="#E9E9A8"/>
<path d="M1609.15 167.121C1609.1 167.23 1609.03 167.326 1608.94 167.403C1608.85 167.48 1608.75 167.536 1608.63 167.566C1608.52 167.597 1608.4 167.601 1608.28 167.579C1608.17 167.557 1608.06 167.508 1607.97 167.438C1608.12 167.097 1608.36 166.8 1608.66 166.575C1608.74 166.529 1608.82 166.499 1608.91 166.487C1609 166.475 1609.1 166.481 1609.19 166.506C1609.27 166.53 1609.36 166.571 1609.43 166.627C1609.5 166.684 1609.56 166.754 1609.61 166.834L1609.35 167.438L1609.15 167.121Z" fill="#E9E9A8"/>
<path d="M1601.81 174.831L1601.44 174.457C1601.05 174.958 1600.58 175.378 1600.03 175.694C1599.74 175.823 1599.47 175.987 1599.22 176.183C1599.1 176.283 1599.01 176.411 1598.95 176.557C1598.88 176.702 1598.86 176.861 1598.88 177.017C1598.88 177.593 1599.77 177.708 1600.34 177.564C1600.7 177.464 1601.03 177.293 1601.32 177.061C1601.61 176.828 1601.84 176.539 1602.01 176.212C1602.16 175.868 1602.2 175.488 1602.12 175.122C1602.04 174.757 1601.86 174.424 1601.58 174.169L1601.09 174.687L1601.81 174.831Z" fill="#E9E9A8"/>
<path d="M1597.58 171.753C1597.58 171.523 1597.58 171.465 1597.27 171.58C1597.03 171.731 1596.82 171.915 1596.63 172.127L1595.31 173.565C1595.08 173.824 1594.79 174.169 1594.79 174.4C1594.79 174.63 1595.02 174.572 1595.25 174.4C1595.5 174.245 1595.74 174.061 1595.94 173.853C1596.73 173.252 1597.32 172.431 1597.64 171.494L1597.15 171.724L1597.58 171.753Z" fill="#E9E9A8"/>
<path d="M1595.25 169.078C1595.25 169.078 1595.25 169.279 1595.05 169.279C1595.01 169.298 1594.96 169.308 1594.91 169.308C1594.86 169.308 1594.81 169.298 1594.77 169.279L1594.56 169.078C1594.51 169.012 1594.48 168.931 1594.48 168.848C1594.48 168.764 1594.51 168.683 1594.56 168.617C1594.64 168.574 1594.72 168.552 1594.81 168.552C1594.89 168.552 1594.98 168.574 1595.05 168.617C1595.09 168.63 1595.13 168.652 1595.16 168.682C1595.19 168.712 1595.21 168.749 1595.23 168.79C1595.25 168.825 1595.26 168.865 1595.26 168.905C1595.26 168.945 1595.25 168.985 1595.23 169.02L1595.25 169.078Z" fill="#E9E9A8"/>
<path d="M1598.02 152.335C1598.28 151.928 1598.5 151.495 1598.68 151.041C1598.56 151.001 1598.42 151.001 1598.3 151.041C1598.13 151.065 1597.96 151.125 1597.8 151.217C1597.65 151.31 1597.52 151.433 1597.42 151.579C1597.31 151.725 1597.24 151.89 1597.21 152.065C1597.17 152.24 1597.17 152.42 1597.21 152.594C1597.24 152.696 1597.3 152.787 1597.38 152.853C1597.44 152.889 1597.5 152.908 1597.57 152.908C1597.64 152.908 1597.7 152.889 1597.76 152.853C1597.87 152.759 1597.96 152.641 1598.02 152.508V152.335Z" fill="#E9E9A8"/>
<path d="M1601.58 159.326L1601.41 159.095C1601.33 159.119 1601.27 159.16 1601.21 159.215C1601.16 159.27 1601.12 159.338 1601.09 159.412C1601.09 159.556 1601.09 159.757 1601.32 159.7L1601.67 159.239L1601.58 159.326Z" fill="#E9E9A8"/>
<path d="M1577.22 152.997C1577.16 152.748 1577.06 152.513 1576.91 152.306C1576.84 152.203 1576.74 152.124 1576.63 152.082C1576.51 152.041 1576.39 152.039 1576.27 152.076C1576.21 152.093 1576.15 152.122 1576.1 152.161C1576.06 152.201 1576.01 152.25 1575.98 152.306C1575.94 152.384 1575.91 152.47 1575.89 152.56C1575.88 152.649 1575.88 152.741 1575.9 152.829C1575.92 152.917 1575.96 153 1576.02 153.073C1576.07 153.147 1576.14 153.209 1576.21 153.256C1576.29 153.305 1576.38 153.337 1576.48 153.349C1576.57 153.361 1576.66 153.353 1576.75 153.326C1576.84 153.299 1576.93 153.253 1577 153.191C1577.07 153.129 1577.12 153.053 1577.16 152.968L1577.22 152.997Z" fill="#E9E9A8"/>
<path d="M1583.61 142.008C1583.68 142.052 1583.74 142.113 1583.78 142.186C1583.82 142.259 1583.84 142.341 1583.84 142.425C1583.84 142.509 1583.82 142.591 1583.78 142.664C1583.74 142.737 1583.68 142.798 1583.61 142.842C1583.41 142.793 1583.23 142.694 1583.09 142.555C1583.2 142.37 1583.36 142.22 1583.55 142.123L1583.61 142.008Z" fill="#E9E9A8"/>
<path d="M1587.6 146.754C1587.6 146.553 1587.26 146.467 1587.17 146.754C1587.09 147.042 1587.17 147.186 1587.46 147.272C1587.52 147.193 1587.55 147.097 1587.55 146.999C1587.55 146.901 1587.52 146.805 1587.46 146.726L1587.6 146.754Z" fill="#E9E9A8"/>
<path d="M1612.14 173.306L1611.76 172.961C1611.65 173.035 1611.57 173.133 1611.5 173.249C1611.53 173.305 1611.57 173.355 1611.62 173.395C1611.66 173.435 1611.72 173.465 1611.78 173.481C1611.84 173.497 1611.9 173.501 1611.97 173.49C1612.03 173.48 1612.09 173.456 1612.14 173.421V173.306Z" fill="#E9E9A8"/>
<path d="M1653.26 160.965L1652.86 160.62L1652.6 160.908C1652.66 161.015 1652.76 161.095 1652.88 161.132C1653 161.17 1653.12 161.161 1653.24 161.109L1653.26 160.965Z" fill="#E9E9A8"/>
<path d="M1631.21 162.174C1631.46 162.315 1631.68 162.517 1631.84 162.763C1632 163.009 1632.1 163.291 1632.13 163.583C1632.15 163.658 1632.15 163.739 1632.13 163.813C1632.13 163.813 1631.92 163.813 1631.81 163.813C1631.18 163.813 1630.34 163.813 1630.11 163.152C1630.08 163.019 1630.07 162.878 1630.1 162.743C1630.13 162.608 1630.19 162.481 1630.27 162.374C1630.36 162.267 1630.47 162.182 1630.6 162.127C1630.73 162.072 1630.87 162.049 1631 162.059L1631.26 162.548L1631.21 162.174Z" fill="#E9E9A8"/>
<path d="M1632.7 215.766C1632.69 215.267 1632.55 214.778 1632.29 214.349C1632.03 213.921 1631.67 213.566 1631.23 213.321C1630.8 213.565 1630.42 213.908 1630.14 214.323C1629.86 214.738 1629.69 215.213 1629.62 215.709C1629.6 216.203 1629.77 216.687 1630.1 217.058C1630.42 217.429 1630.88 217.657 1631.38 217.694C1632.38 217.694 1633.07 216.256 1632.36 215.565L1632.7 215.766Z" fill="#E9E9A8"/>
<path d="M1627.87 207.654C1627.71 207.356 1627.51 207.085 1627.26 206.849V206.849C1627.26 206.849 1627.09 207.625 1626.75 207.712H1626.57C1626.57 207.712 1626.57 207.913 1626.57 207.971C1626.69 208.038 1626.82 208.08 1626.95 208.093C1627.08 208.106 1627.22 208.09 1627.34 208.046C1627.47 208.002 1627.58 207.932 1627.68 207.839C1627.77 207.747 1627.85 207.635 1627.9 207.51V207.51L1627.87 207.654Z" fill="#E9E9A8"/>
<path d="M1635.15 193.184C1634.83 192.628 1634.44 192.116 1633.99 191.66C1633.99 191.66 1633.99 191.66 1633.82 191.66C1633.75 191.631 1633.67 191.631 1633.59 191.66C1633.1 192.091 1633.25 193.127 1632.59 193.299C1632.59 193.299 1632.36 193.299 1632.27 193.299C1632.18 193.299 1632.27 193.673 1632.44 193.788C1632.66 193.918 1632.91 193.998 1633.16 194.023C1633.42 194.047 1633.67 194.016 1633.91 193.931C1634.16 193.846 1634.38 193.71 1634.56 193.531C1634.74 193.352 1634.88 193.136 1634.97 192.897V193.156L1635.15 193.184Z" fill="#E9E9A8"/>
<path d="M1628.62 201.699C1628.6 201.467 1628.53 201.241 1628.42 201.037C1628.3 200.833 1628.14 200.657 1627.96 200.52C1627.81 200.678 1627.7 200.864 1627.64 201.067C1627.6 201.161 1627.6 201.265 1627.62 201.363C1627.65 201.461 1627.71 201.548 1627.78 201.613C1628.01 201.786 1628.33 201.613 1628.59 201.613V201.843L1628.62 201.699Z" fill="#E9E9A8"/>
<path d="M1625.34 201.038C1625.28 200.917 1625.19 200.817 1625.08 200.75C1624.96 200.722 1624.83 200.722 1624.71 200.75H1623.7L1625.02 201.815C1625.02 201.815 1625.02 202.102 1625.02 202.275C1625.02 202.447 1625.25 202.649 1625.45 202.735C1627.06 203.425 1625.68 201.671 1625.34 201.038Z" fill="#E9E9A8"/>
<path d="M1627.87 190.25L1627.49 189.934C1627.4 190.067 1627.34 190.228 1627.34 190.394C1627.34 190.56 1627.4 190.721 1627.49 190.854C1627.7 191.142 1628.21 191.113 1628.3 190.854C1628.39 190.595 1628.3 190.336 1628.59 190.394L1627.87 190.25Z" fill="#E9E9A8"/>
<path d="M1638.97 219.478C1638.88 219.214 1638.73 218.974 1638.53 218.78C1638.33 218.585 1638.09 218.44 1637.82 218.356C1637.3 218.356 1636.64 218.701 1636.73 219.247C1636.76 219.408 1636.85 219.551 1636.99 219.65H1637.22C1637.57 219.794 1637.96 219.794 1638.31 219.65C1638.4 219.624 1638.48 219.581 1638.55 219.523C1638.62 219.465 1638.68 219.394 1638.72 219.314C1638.76 219.234 1638.79 219.146 1638.8 219.056C1638.8 218.965 1638.8 218.874 1638.77 218.787L1638.97 219.478Z" fill="#E9E9A8"/>
<path d="M1630.08 207.108C1630.21 207.175 1630.32 207.287 1630.37 207.424C1630.19 207.439 1630.01 207.413 1629.84 207.349C1629.67 207.284 1629.52 207.182 1629.39 207.05C1629.39 207.05 1629.08 206.734 1629.13 206.561C1629.19 206.388 1629.34 206.36 1629.42 206.245C1629.51 206.13 1629.62 205.612 1629.88 205.583C1629.96 205.587 1630.04 205.617 1630.1 205.669C1630.16 205.721 1630.21 205.792 1630.23 205.871C1630.26 206.023 1630.26 206.179 1630.23 206.331L1630 207.338L1630.08 207.108Z" fill="#E9E9A8"/>
<path d="M1625.94 205.123C1626 205.08 1626.04 205.025 1626.07 204.963C1626.1 204.9 1626.12 204.832 1626.12 204.763C1626.12 204.694 1626.1 204.626 1626.07 204.564C1626.04 204.501 1626 204.447 1625.94 204.404C1625.8 204.458 1625.68 204.56 1625.6 204.691C1625.55 204.752 1625.52 204.829 1625.52 204.907C1625.52 204.985 1625.55 205.062 1625.6 205.123C1625.62 205.148 1625.65 205.168 1625.68 205.182C1625.71 205.195 1625.75 205.203 1625.78 205.203C1625.82 205.203 1625.85 205.195 1625.89 205.182C1625.92 205.168 1625.95 205.148 1625.97 205.123H1625.94Z" fill="#E9E9A8"/>
<path d="M1645.47 209.035C1645.51 208.953 1645.54 208.862 1645.54 208.769C1645.53 208.676 1645.51 208.585 1645.46 208.504C1645.42 208.424 1645.35 208.356 1645.27 208.308C1645.19 208.26 1645.1 208.233 1645.01 208.229C1644.82 208.235 1644.64 208.308 1644.51 208.435C1644.37 208.562 1644.28 208.734 1644.26 208.92C1644.2 209.067 1644.2 209.233 1644.26 209.38C1644.36 209.455 1644.48 209.495 1644.61 209.495C1644.73 209.495 1644.85 209.455 1644.95 209.38C1645.17 209.256 1645.35 209.09 1645.5 208.891L1645.47 209.035Z" fill="#E9E9A8"/>
<path d="M1640.21 214.041L1639.69 215.162C1639.68 215.277 1639.68 215.393 1639.69 215.508C1639.67 215.613 1639.67 215.719 1639.69 215.824C1639.95 216.198 1640.32 216.601 1640.72 216.486C1641.13 216.371 1641.24 215.738 1641.36 215.277C1641.47 214.817 1643.31 212.688 1642.34 211.854C1641.36 211.02 1640.52 213.35 1640.21 214.041Z" fill="#E9E9A8"/>
<path d="M1643 207.683L1643.26 207.827C1643.08 208.002 1642.86 208.122 1642.62 208.172C1642.51 208.205 1642.38 208.201 1642.27 208.159C1642.16 208.118 1642.06 208.042 1641.99 207.942C1641.99 207.712 1641.99 207.395 1642.31 207.424C1642.55 207.447 1642.78 207.547 1642.97 207.712L1643 207.683Z" fill="#E9E9A8"/>
<path d="M1627.58 203.799C1627.58 203.972 1627.87 204.03 1628.04 203.943C1628.18 203.826 1628.32 203.702 1628.44 203.569C1628.63 203.499 1628.83 203.499 1629.02 203.569C1629.07 203.588 1629.12 203.618 1629.16 203.658C1629.2 203.698 1629.23 203.746 1629.25 203.799C1629.26 203.831 1629.27 203.866 1629.27 203.9C1629.27 203.935 1629.26 203.969 1629.25 204.001C1629.17 204.365 1628.98 204.697 1628.7 204.95C1628.57 205.081 1628.4 205.168 1628.21 205.199C1628.03 205.229 1627.84 205.203 1627.67 205.123C1627.55 205.058 1627.46 204.966 1627.39 204.856C1627.32 204.746 1627.28 204.62 1627.26 204.49C1627.26 204.361 1627.3 204.233 1627.36 204.122C1627.43 204.011 1627.53 203.919 1627.64 203.857L1627.58 203.799Z" fill="#E9E9A8"/>
<path d="M1628.47 198.823C1628.48 198.766 1628.48 198.708 1628.46 198.653C1628.45 198.597 1628.42 198.545 1628.39 198.5C1628.35 198.454 1628.31 198.416 1628.26 198.388C1628.21 198.359 1628.16 198.341 1628.1 198.334C1627.98 198.317 1627.87 198.333 1627.76 198.379C1627.65 198.424 1627.56 198.498 1627.49 198.593C1627.49 198.593 1627.49 198.823 1627.49 198.88C1627.49 198.938 1627.49 198.88 1627.7 198.88H1628.56L1628.47 198.823Z" fill="#E9E9A8"/>
<path d="M1631.23 211.538C1631.19 211.646 1631.12 211.742 1631.03 211.819C1630.94 211.896 1630.83 211.952 1630.72 211.982C1630.61 212.013 1630.49 212.017 1630.37 211.995C1630.26 211.973 1630.15 211.925 1630.05 211.854C1630.2 211.515 1630.43 211.219 1630.72 210.991C1630.8 210.945 1630.88 210.915 1630.97 210.903C1631.06 210.891 1631.16 210.898 1631.24 210.922C1631.33 210.946 1631.42 210.987 1631.49 211.044C1631.56 211.1 1631.62 211.17 1631.67 211.25L1631.44 211.854L1631.23 211.538Z" fill="#E9E9A8"/>
<path d="M1634.2 217.723L1633.82 217.377C1633.72 217.459 1633.63 217.556 1633.56 217.665C1633.59 217.722 1633.63 217.771 1633.68 217.812C1633.72 217.852 1633.78 217.881 1633.84 217.897C1633.9 217.914 1633.96 217.917 1634.02 217.907C1634.09 217.896 1634.14 217.873 1634.2 217.838V217.723Z" fill="#E9E9A8"/>
<path d="M1653.26 206.475C1653.53 206.612 1653.75 206.813 1653.91 207.06C1654.07 207.306 1654.16 207.59 1654.19 207.884C1654.2 207.951 1654.2 208.02 1654.19 208.086C1654.14 208.111 1654.08 208.124 1654.03 208.124C1653.97 208.124 1653.92 208.111 1653.87 208.086C1653.21 208.086 1652.4 208.086 1652.17 207.424C1652.13 207.293 1652.12 207.153 1652.14 207.017C1652.17 206.881 1652.22 206.754 1652.31 206.645C1652.39 206.537 1652.51 206.451 1652.63 206.397C1652.76 206.342 1652.9 206.319 1653.03 206.331L1653.29 206.82L1653.26 206.475Z" fill="#E9E9A8"/>
<path d="M1616.74 197.212C1616.99 197.359 1617.21 197.567 1617.37 197.818C1617.52 198.069 1617.61 198.355 1617.63 198.65C1617.65 198.679 1617.66 198.715 1617.66 198.751C1617.66 198.787 1617.65 198.822 1617.63 198.851C1617.63 198.851 1617.43 198.851 1617.31 198.851C1616.68 198.851 1615.85 198.851 1615.62 198.161C1615.58 198.029 1615.57 197.89 1615.6 197.755C1615.63 197.621 1615.69 197.495 1615.78 197.39C1615.87 197.285 1615.98 197.203 1616.11 197.152C1616.23 197.101 1616.37 197.082 1616.51 197.097L1616.77 197.557L1616.74 197.212Z" fill="#E9E9A8"/>
</g>
</g>
</g>
<defs>
<linearGradient id="paint0_linear_89_2033" x1="1135" y1="1197.96" x2="1135" y2="-20" gradientUnits="userSpaceOnUse">
<stop stop-color="#009BBD"/>
<stop offset="0.53" stop-color="#4C009F"/>
<stop offset="0.99" stop-color="#19002A"/>
</linearGradient>
<radialGradient id="paint1_radial_89_2033" cx="0" cy="0" r="1" gradientUnits="userSpaceOnUse" gradientTransform="translate(0.528733 350.149) scale(393.043 393.13)">
<stop offset="0.59" stop-color="#42218E"/>
<stop offset="1" stop-color="#8657E8"/>
</radialGradient>
<radialGradient id="paint2_radial_89_2033" cx="0" cy="0" r="1" gradientUnits="userSpaceOnUse" gradientTransform="translate(1556.93 335.909) rotate(-12.0973) scale(211.753 211.795)">
<stop offset="0.59" stop-color="#5102AE"/>
<stop offset="1" stop-color="#798DF1"/>
</radialGradient>
<clipPath id="clip0_89_2033">
<rect width="1728" height="1117" fill="white"/>
</clipPath>
</defs>
</svg>
