<svg width="130" height="95" viewBox="0 0 130 95" fill="none" xmlns="http://www.w3.org/2000/svg">
<g filter="url(#filter0_d_1_8839)">
<path d="M5.85938 5.84961H96.815C112.279 5.84961 124.815 18.3856 124.815 33.8496V89.0444H33.8594C18.3954 89.0444 5.85938 76.5084 5.85938 61.0444V5.84961Z" fill="black" fill-opacity="0.3" stroke="#CEB7FF" stroke-width="2"/>
<path d="M47.9823 53.0732L47.0786 52.6451L47.9823 53.0732ZM46.5743 54.9612L45.946 54.1832L45.9385 54.1893L45.9311 54.1955L46.5743 54.9612ZM44.7503 56.0492L44.3739 55.1227L44.361 55.128L44.3481 55.1336L44.7503 56.0492ZM38.3503 55.9852L37.8807 56.868L37.8842 56.8699L38.3503 55.9852ZM36.0463 54.0972L35.2325 54.6785L35.2407 54.6896L36.0463 54.0972ZM34.7663 51.4412L35.7208 51.1429L35.7189 51.1369L34.7663 51.4412ZM34.5103 41.8732L33.5331 41.6607L34.5103 41.8732ZM35.9823 37.6812L36.8768 38.1284L36.8796 38.1227L35.9823 37.6812ZM38.7983 34.4492L39.353 35.2812L38.7983 34.4492ZM45.1343 33.5852L44.8265 34.5366L44.8429 34.5419L44.8596 34.5467L45.1343 33.5852ZM46.9583 34.4172L46.3701 35.2259L46.3824 35.2348L46.395 35.2434L46.9583 34.4172ZM48.2063 35.9212L49.0894 35.452H49.0894L48.2063 35.9212ZM48.0463 40.9772L47.1868 40.4661L47.1844 40.4701L48.0463 40.9772ZM47.0223 41.9692L47.531 42.8301L47.5452 42.8217L47.5592 42.8128L47.0223 41.9692ZM43.2783 41.0732L44.1856 40.6527L44.1794 40.6392L44.1727 40.6259L43.2783 41.0732ZM43.4383 39.2492L43.6632 40.2236L43.6883 40.2178L43.713 40.2107L43.4383 39.2492ZM44.2703 38.5452L43.4383 37.9905V37.9905L44.2703 38.5452ZM44.3343 36.1452L45.148 35.5639L45.1394 35.5519L45.1305 35.5401L44.3343 36.1452ZM40.4623 36.4012L39.7224 35.7285L39.7167 35.7347L39.7111 35.741L40.4623 36.4012ZM39.0543 39.0572L38.0965 38.7698L39.0543 39.0572ZM38.8303 49.2652L39.7441 48.859L39.7419 48.8541L38.8303 49.2652ZM41.1023 51.9532L40.6635 52.8517L40.6685 52.8542L41.1023 51.9532ZM46.4783 50.6732L45.7542 49.9835L45.7419 49.9964L45.7301 50.0097L46.4783 50.6732ZM47.5343 49.0732L46.6601 48.5875L46.6393 48.625L46.6218 48.6641L47.5343 49.0732ZM47.9503 49.7852C47.8211 49.7852 47.6803 49.7372 47.5722 49.6461C47.4822 49.5703 47.4645 49.5068 47.4765 49.5372C47.4875 49.5651 47.5103 49.6391 47.5289 49.78C47.547 49.9174 47.5583 50.0959 47.5583 50.3212H49.5583C49.5583 49.7725 49.5081 49.2357 49.3361 48.8011C49.2468 48.5755 49.1024 48.32 48.8604 48.1162C48.6003 47.8972 48.2822 47.7852 47.9503 47.7852V49.7852ZM47.5583 50.3212C47.5583 51.2181 47.3908 51.986 47.0786 52.6451L48.886 53.5012C49.3418 52.539 49.5583 51.4722 49.5583 50.3212H47.5583ZM47.0786 52.6451C46.7428 53.354 46.3575 53.8508 45.946 54.1832L47.2026 55.7391C47.9004 55.1755 48.4538 54.4137 48.886 53.5012L47.0786 52.6451ZM45.9311 54.1955C45.4823 54.5725 44.9654 54.8824 44.3739 55.1227L45.1267 56.9756C45.9005 56.6613 46.5997 56.2459 47.2175 55.7269L45.9311 54.1955ZM44.3481 55.1336C42.309 56.0293 40.4983 55.9866 38.8164 55.1004L37.8842 56.8699C40.1703 58.0744 42.6263 58.0744 45.1525 56.9647L44.3481 55.1336ZM38.8199 55.1023C37.916 54.6215 37.2764 54.082 36.852 53.5048L35.2407 54.6896C35.8829 55.563 36.7793 56.2822 37.8807 56.868L38.8199 55.1023ZM36.86 53.5159C36.3977 52.8687 36.0144 52.0824 35.7208 51.1429L33.8118 51.7394C34.1582 52.8479 34.6282 53.8323 35.2326 54.6784L36.86 53.5159ZM35.7189 51.1369C35.261 49.7036 35.0303 48.1959 35.0303 46.6092H33.0303C33.0303 48.3931 33.2902 50.1067 33.8137 51.7455L35.7189 51.1369ZM35.0303 46.6092C35.0303 44.9869 35.1843 43.4801 35.4875 42.0856L33.5331 41.6607C33.1963 43.2102 33.0303 44.8607 33.0303 46.6092H35.0303ZM35.4875 42.0856C35.7901 40.6935 36.2533 39.3751 36.8767 38.1284L35.0879 37.2339C34.3886 38.6325 33.8705 40.1089 33.5331 41.6607L35.4875 42.0856ZM36.8796 38.1227C37.4651 36.9326 38.2874 35.9916 39.353 35.2812L38.2436 33.6171C36.8772 34.528 35.8221 35.7417 35.085 37.2397L36.8796 38.1227ZM39.353 35.2812C40.3892 34.5904 41.6002 34.2332 43.0223 34.2332V32.2332C41.2444 32.2332 39.6394 32.6866 38.2436 33.6171L39.353 35.2812ZM43.0223 34.2332C43.589 34.2332 44.1891 34.3304 44.8265 34.5366L45.4421 32.6337C44.6288 32.3706 43.8209 32.2332 43.0223 32.2332V34.2332ZM44.8596 34.5467C45.5294 34.738 46.0215 34.9724 46.3701 35.2259L47.5465 33.6084C46.9564 33.1793 46.2326 32.8589 45.409 32.6236L44.8596 34.5467ZM46.395 35.2434C46.6908 35.4451 47.0104 35.8016 47.3232 36.3903L49.0894 35.452C48.6768 34.6754 48.1645 34.0292 47.5216 33.5909L46.395 35.2434ZM47.3232 36.3903C47.596 36.9038 47.7503 37.5369 47.7503 38.3212H49.7503C49.7503 37.2707 49.542 36.3038 49.0894 35.452L47.3232 36.3903ZM47.7503 38.3212C47.7503 39.1354 47.5578 39.842 47.1868 40.4661L48.9058 41.4882C49.4734 40.5336 49.7503 39.4696 49.7503 38.3212H47.7503ZM47.1844 40.4701C47.0728 40.6598 46.8626 40.8855 46.4854 41.1255L47.5592 42.8128C48.1207 42.4555 48.5931 42.0199 48.9082 41.4842L47.1844 40.4701ZM46.5136 41.1082C46.2233 41.2798 45.8508 41.3852 45.3583 41.3852V43.3852C46.1458 43.3852 46.8826 43.2132 47.531 42.8301L46.5136 41.1082ZM45.3583 41.3852C45.0189 41.3852 44.7937 41.311 44.6358 41.2114C44.4791 41.1125 44.3218 40.9465 44.1856 40.6527L42.371 41.4936C42.6402 42.0745 43.0322 42.5645 43.5688 42.903C44.1042 43.2407 44.7164 43.3852 45.3583 43.3852V41.3852ZM44.1727 40.6259C44.0758 40.4321 44.0223 40.2131 44.0223 39.9532H42.0223C42.0223 40.5038 42.1395 41.0316 42.3839 41.5204L44.1727 40.6259ZM44.0223 39.9532C44.0223 39.8483 44.0429 39.8877 43.9872 39.9819C43.956 40.0347 43.9073 40.0928 43.8395 40.1415C43.7726 40.1895 43.7084 40.2131 43.6632 40.2236L43.2134 38.2748C42.8212 38.3653 42.4808 38.5999 42.2654 38.9644C42.0711 39.2932 42.0223 39.6527 42.0223 39.9532H44.0223ZM43.713 40.2107C44.3282 40.0349 44.7767 39.5883 45.1024 39.0999L43.4383 37.9905C43.2519 38.27 43.1458 38.2927 43.1636 38.2876L43.713 40.2107ZM45.1024 39.0999C45.4797 38.5339 45.6543 37.8881 45.6543 37.2012H43.6543C43.6543 37.5382 43.5729 37.7885 43.4383 37.9905L45.1024 39.0999ZM45.6543 37.2012C45.6543 36.6102 45.4951 36.0498 45.148 35.5639L43.5206 36.7264C43.6002 36.8378 43.6543 36.9815 43.6543 37.2012H45.6543ZM45.1305 35.5401C44.5066 34.7192 43.6028 34.3452 42.5743 34.3452V36.3452C43.0819 36.3452 43.3513 36.5044 43.5381 36.7502L45.1305 35.5401ZM42.5743 34.3452C41.4595 34.3452 40.5032 34.8696 39.7224 35.7285L41.2022 37.0738C41.7014 36.5247 42.1531 36.3452 42.5743 36.3452V34.3452ZM39.7111 35.741C38.9814 36.5714 38.4501 37.5911 38.0965 38.7698L40.0121 39.3445C40.2985 38.3899 40.7059 37.6389 41.2135 37.0613L39.7111 35.741ZM38.0965 38.7698C37.435 40.9747 37.0943 43.0356 37.0943 44.9452H39.0943C39.0943 43.2707 39.3936 41.4062 40.0121 39.3445L38.0965 38.7698ZM37.0943 44.9452C37.0943 46.8143 37.348 48.4109 37.9187 49.6763L39.7419 48.8541C39.3312 47.9435 39.0943 46.66 39.0943 44.9452H37.0943ZM37.9165 49.6713C38.5681 51.1375 39.4588 52.2634 40.6635 52.8517L41.5411 51.0546C40.9112 50.7469 40.2872 50.0809 39.7441 48.859L37.9165 49.6713ZM40.6685 52.8542C41.4008 53.2067 42.2145 53.3692 43.0863 53.3692V51.3692C42.4647 51.3692 41.9558 51.2542 41.5361 51.0522L40.6685 52.8542ZM43.0863 53.3692C44.6882 53.3692 46.0756 52.6345 47.2265 51.3366L45.7301 50.0097C44.8757 50.9732 44.0018 51.3692 43.0863 51.3692V53.3692ZM47.2024 51.3628C47.7145 50.8251 48.1275 50.1945 48.4468 49.4822L46.6218 48.6641C46.3864 49.1891 46.0954 49.6252 45.7542 49.9835L47.2024 51.3628ZM48.4085 49.5588C48.408 49.5597 48.4 49.5739 48.3815 49.5956C48.3627 49.6177 48.3322 49.6484 48.2875 49.6793C48.1875 49.7486 48.0658 49.7852 47.9503 49.7852V47.7852C47.3097 47.7852 46.8844 48.1839 46.6601 48.5875L48.4085 49.5588ZM54.6338 37.8092L55.6337 37.8255L55.6338 37.8173V37.8092H54.6338ZM54.4418 49.5532L53.4419 49.5368L53.4418 49.545V49.5532H54.4418ZM54.7938 56.1452L53.8424 56.453L53.8656 56.5248L53.8994 56.5924L54.7938 56.1452ZM51.8818 56.4332L52.2664 55.5101L52.2598 55.5073L52.2532 55.5047L51.8818 56.4332ZM50.7618 55.2492L49.7719 55.1077L49.7618 55.1781V55.2492H50.7618ZM51.4018 43.2812H52.4018V43.2681L52.4015 43.255L51.4018 43.2812ZM51.2738 38.3852L52.2735 38.359L52.2729 38.3364L52.2713 38.3139L51.2738 38.3852ZM50.8898 36.8492L49.9779 37.2595L49.9863 37.2781L49.9954 37.2964L50.8898 36.8492ZM50.3138 36.0172L50.8685 35.1851L50.8563 35.177L50.8438 35.1692L50.3138 36.0172ZM50.0578 35.8572L50.5878 35.0092L50.5711 34.9987L50.5539 34.9889L50.0578 35.8572ZM51.2098 34.4812L51.6316 35.3879L51.6405 35.3836L51.2098 34.4812ZM54.5058 34.1612L55.4942 34.0091L55.4921 33.9957L55.4897 33.9823L54.5058 34.1612ZM53.6339 37.7928L53.4419 49.5368L55.4417 49.5695L55.6337 37.8255L53.6339 37.7928ZM53.4418 49.5532C53.4418 51.3956 53.4712 52.8823 53.5312 54.0065C53.5889 55.0862 53.6785 55.9466 53.8424 56.453L55.7453 55.8373C55.6744 55.6184 55.5881 55.0175 55.5284 53.8998C55.4711 52.8267 55.4418 51.3801 55.4418 49.5532H53.4418ZM53.8994 56.5924C53.9015 56.5966 53.8988 56.5922 53.8957 56.5797C53.8924 56.5668 53.8898 56.5494 53.8898 56.5292H55.8898C55.8898 56.2284 55.8134 55.9482 55.6882 55.6979L53.8994 56.5924ZM53.8898 56.5292C53.8898 56.3744 53.9427 56.2068 54.0531 56.0698C54.1505 55.9489 54.2509 55.9033 54.2755 55.8931C54.3012 55.8825 54.2936 55.8899 54.2312 55.8985C54.1721 55.9067 54.0843 55.9132 53.9618 55.9132V57.9132C54.3101 57.9132 54.7011 57.8815 55.0402 57.7412C55.2194 57.667 55.4358 57.5414 55.6106 57.3245C55.7982 57.0915 55.8898 56.8119 55.8898 56.5292H53.8898ZM53.9618 55.9132C53.5122 55.9132 52.9522 55.7958 52.2664 55.5101L51.4972 57.3562C52.3474 57.7105 53.1741 57.9132 53.9618 57.9132V55.9132ZM52.2532 55.5047C51.9552 55.3855 51.8194 55.28 51.7683 55.226C51.7466 55.2031 51.7477 55.1974 51.7532 55.2106C51.7595 55.2256 51.7618 55.2413 51.7618 55.2492H49.7618C49.7618 56.3779 50.655 57.0195 51.5104 57.3616L52.2532 55.5047ZM51.7518 55.3906C52.188 52.3367 52.4018 48.2942 52.4018 43.2812H50.4018C50.4018 48.2521 50.1889 52.1882 49.7719 55.1077L51.7518 55.3906ZM52.4015 43.255L52.2735 38.359L50.2741 38.4113L50.4021 43.3073L52.4015 43.255ZM52.2713 38.3139C52.2216 37.6179 52.0691 36.9718 51.7842 36.4019L49.9954 37.2964C50.1371 37.5799 50.2407 37.9577 50.2763 38.4564L52.2713 38.3139ZM51.8017 36.4388C51.5973 35.9845 51.31 35.4794 50.8685 35.1851L49.7591 36.8492C49.7135 36.8188 49.7252 36.8117 49.7796 36.8904C49.8305 36.9639 49.8981 37.0822 49.9779 37.2595L51.8017 36.4388ZM50.8438 35.1692L50.5878 35.0092L49.5278 36.7052L49.7838 36.8652L50.8438 35.1692ZM50.5539 34.9889C50.5547 34.9893 50.5681 34.997 50.589 35.0139C50.6099 35.0308 50.6432 35.061 50.6792 35.1072C50.7583 35.2089 50.8338 35.3695 50.8338 35.5692H48.8338C48.8338 36.2182 49.3022 36.5772 49.5617 36.7254L50.5539 34.9889ZM50.8338 35.5692C50.8338 35.758 50.7607 35.8754 50.7415 35.9031C50.7235 35.9291 50.729 35.9121 50.798 35.8576C50.9376 35.7472 51.2003 35.5885 51.6315 35.3879L50.7881 33.5744C50.302 33.8005 49.8767 34.0364 49.5576 34.2887C49.2973 34.4945 48.8338 34.9215 48.8338 35.5692H50.8338ZM51.6405 35.3836C52.4699 34.9878 53.2298 34.8092 53.9298 34.8092V32.8092C52.8805 32.8092 51.8271 33.0785 50.7791 33.5787L51.6405 35.3836ZM53.9298 34.8092C54.0046 34.8092 53.9306 34.8251 53.8084 34.7504C53.7404 34.7089 53.6701 34.6464 53.6138 34.5619C53.5583 34.4786 53.5326 34.3986 53.5219 34.34L55.4897 33.9823C55.4208 33.6035 55.2065 33.261 54.8513 33.0439C54.5371 32.8519 54.1964 32.8092 53.9298 32.8092V34.8092ZM53.5174 34.3132C53.5889 34.7778 53.6338 35.9127 53.6338 37.8092H55.6338C55.6338 35.9509 55.5934 34.6539 55.4942 34.0091L53.5174 34.3132ZM59.8538 47.9852H58.8538V48.0052L58.8546 48.0251L59.8538 47.9852ZM59.8858 48.7852H60.8858V48.7652L60.885 48.7452L59.8858 48.7852ZM60.1418 48.9772V49.9772H60.1886L60.2351 49.9728L60.1418 48.9772ZM61.9338 48.4652L62.4101 49.3445L62.424 49.3369L62.4377 49.3289L61.9338 48.4652ZM63.0858 47.4732L63.9028 48.0498L63.9141 48.0338L63.9248 48.0173L63.0858 47.4732ZM63.9178 45.4252L62.9212 45.3421L62.9205 45.3513L63.9178 45.4252ZM63.9498 45.0412L64.9464 45.1242L64.9498 45.0828V45.0412H63.9498ZM60.9098 44.2092L61.7098 44.8092L61.7168 44.7999L61.7235 44.7904L60.9098 44.2092ZM66.3178 54.3852L65.4422 53.902L65.4363 53.9129L66.3178 54.3852ZM65.1978 55.7292L65.7625 56.5545L65.7713 56.5484L65.1978 55.7292ZM63.7578 56.4012L64.0478 57.3582L64.0519 57.3569L63.7578 56.4012ZM57.7738 54.7052L58.618 54.1692L57.7738 54.7052ZM58.0618 44.0172L57.2264 43.4675L57.2213 43.4753L58.0618 44.0172ZM66.7338 43.6012L65.8422 44.054L65.8482 44.0658L65.8545 44.0774L66.7338 43.6012ZM67.0858 46.1612L68.0723 46.3256L68.0742 46.3132L67.0858 46.1612ZM65.6138 48.7852L64.9067 48.0781L65.6138 48.7852ZM63.5978 50.0012L63.2117 49.0787H63.2117L63.5978 50.0012ZM60.3658 50.7692V51.7692H60.4174L60.4687 51.7639L60.3658 50.7692ZM60.3018 51.8572L59.3531 52.1734L59.364 52.2061L59.3771 52.2379L60.3018 51.8572ZM60.7818 52.7852L59.9498 53.3399L59.9714 53.3723L59.9955 53.403L60.7818 52.7852ZM65.1978 52.7852L65.8801 53.5162L65.8817 53.5147L65.1978 52.7852ZM66.0298 51.6012L65.1354 51.1539L65.1271 51.1705L65.1194 51.1874L66.0298 51.6012ZM66.7018 51.6972L67.6416 51.3554L66.7018 51.6972ZM58.8546 48.0251L58.8866 48.8251L60.885 48.7452L60.853 47.9452L58.8546 48.0251ZM58.8858 48.7852C58.8858 49.0932 59.0036 49.4695 59.3498 49.7292C59.6419 49.9482 59.9603 49.9772 60.1418 49.9772V47.9772C60.1526 47.9772 60.3431 47.9741 60.5498 48.1292C60.6628 48.2139 60.7559 48.3286 60.8156 48.463C60.8728 48.5916 60.8858 48.7071 60.8858 48.7852H58.8858ZM60.2351 49.9728C61.0285 49.8984 61.7605 49.6963 62.4101 49.3445L61.4575 47.5859C61.0831 47.7887 60.6204 47.9279 60.0485 47.9815L60.2351 49.9728ZM62.4377 49.3289C63.034 48.9811 63.5414 48.5618 63.9028 48.0498L62.2688 46.8965C62.1182 47.1099 61.8576 47.3519 61.4299 47.6014L62.4377 49.3289ZM63.9248 48.0173C64.4769 47.1661 64.8545 46.3165 64.9151 45.499L62.9205 45.3513C62.8958 45.6858 62.7187 46.2015 62.2468 46.929L63.9248 48.0173ZM64.9144 45.5082L64.9464 45.1242L62.9533 44.9581L62.9213 45.3421L64.9144 45.5082ZM64.9498 45.0412C64.9498 44.3591 64.8185 43.6627 64.3881 43.1222C63.9231 42.5383 63.2548 42.3132 62.5738 42.3132V44.3132C62.7002 44.3132 62.7646 44.3331 62.7897 44.3436C62.8086 44.3515 62.815 44.3574 62.8235 44.3681C62.8518 44.4036 62.9498 44.5712 62.9498 45.0412H64.9498ZM62.5738 42.3132C61.5407 42.3132 60.6939 42.791 60.0961 43.6279L61.7235 44.7904C61.9791 44.4327 62.2416 44.3132 62.5738 44.3132V42.3132ZM60.1098 43.6092C59.2377 44.772 58.8538 46.2641 58.8538 47.9852H60.8538C60.8538 46.5489 61.1739 45.5237 61.7098 44.8092L60.1098 43.6092ZM65.8298 52.2412C65.8298 52.908 65.6906 53.4519 65.4422 53.9021L67.1934 54.8682C67.6277 54.0811 67.8298 53.1956 67.8298 52.2412H65.8298ZM65.4363 53.9129C65.1689 54.4122 64.8898 54.7241 64.6243 54.9099L65.7713 56.5484C66.3591 56.1369 66.8268 55.5528 67.1993 54.8574L65.4363 53.9129ZM64.6331 54.9039C64.3244 55.1151 63.9391 55.2991 63.4637 55.4454L64.0519 57.3569C64.6858 57.1619 65.2606 56.8979 65.7625 56.5545L64.6331 54.9039ZM63.4678 55.4441C62.8441 55.6331 62.2701 55.7212 61.7418 55.7212V57.7212C62.4935 57.7212 63.2635 57.5958 64.0478 57.3582L63.4678 55.4441ZM61.7418 55.7212C60.2412 55.7212 59.2622 55.1837 58.618 54.1692L56.9296 55.2412C57.9921 56.9146 59.6584 57.7212 61.7418 57.7212V55.7212ZM58.618 54.1692C57.8928 53.0269 57.4938 51.5207 57.4938 49.5852H55.4938C55.4938 51.7883 55.9482 53.6954 56.9296 55.2412L58.618 54.1692ZM57.4938 49.5852C57.4938 47.6699 57.9698 46.0053 58.9023 44.559L57.2213 43.4753C56.0631 45.2717 55.4938 47.3191 55.4938 49.5852H57.4938ZM58.8972 44.5668C59.7604 43.2548 61.0191 42.5852 62.8298 42.5852V40.5852C60.4165 40.5852 58.4966 41.5369 57.2264 43.4675L58.8972 44.5668ZM62.8298 42.5852C64.4955 42.5852 65.3791 43.1423 65.8422 44.054L67.6254 43.1483C66.7232 41.372 65.0041 40.5852 62.8298 40.5852V42.5852ZM65.8545 44.0774C66.0714 44.4779 66.1498 44.8056 66.1498 45.0732H68.1498C68.1498 44.4021 67.9509 43.7484 67.6131 43.1249L65.8545 44.0774ZM66.1498 45.0732C66.1498 45.4964 66.1292 45.8026 66.0974 46.0091L68.0742 46.3132C68.1277 45.965 68.1498 45.5459 68.1498 45.0732H66.1498ZM66.0994 45.9968C66.0821 46.1005 65.99 46.3838 65.7363 46.9124L67.5393 47.7779C67.7976 47.2399 68.0042 46.7338 68.0722 46.3256L66.0994 45.9968ZM65.7363 46.9124C65.5301 47.3419 65.2552 47.7296 64.9067 48.0781L66.3209 49.4923C66.8258 48.9874 67.2335 48.415 67.5393 47.7779L65.7363 46.9124ZM64.9067 48.0781C64.6126 48.3721 64.0768 48.7166 63.2117 49.0787L63.9839 50.9236C64.9535 50.5177 65.7617 50.0515 66.3209 49.4923L64.9067 48.0781ZM63.2117 49.0787C62.404 49.4168 61.4261 49.6541 60.2629 49.7745L60.4687 51.7639C61.7802 51.6282 62.9569 51.3535 63.9839 50.9236L63.2117 49.0787ZM60.3658 49.7692C60.1567 49.7692 59.8131 49.812 59.5153 50.0726C59.192 50.3555 59.1098 50.7271 59.1098 50.9932H61.1098C61.1098 51.1099 61.0703 51.3695 60.8323 51.5777C60.6199 51.7636 60.4043 51.7692 60.3658 51.7692V49.7692ZM59.1098 50.9932C59.1098 51.3568 59.2202 51.7746 59.3531 52.1734L61.2505 51.5409C61.1937 51.3705 61.1564 51.237 61.134 51.1362C61.1104 51.0298 61.1098 50.9883 61.1098 50.9932H59.1098ZM59.3771 52.2379C59.5451 52.6458 59.7342 53.0165 59.9498 53.3399L61.6139 52.2305C61.4881 52.0418 61.3572 51.7939 61.2265 51.4764L59.3771 52.2379ZM59.9955 53.403C60.6943 54.2923 61.7085 54.6812 62.8618 54.6812V52.6812C62.1805 52.6812 61.808 52.4727 61.5681 52.1673L59.9955 53.403ZM62.8618 54.6812C64.0191 54.6812 65.0454 54.2953 65.8801 53.5162L64.5155 52.0541C64.0702 52.4697 63.5392 52.6812 62.8618 52.6812V54.6812ZM65.8817 53.5147C66.3278 53.0966 66.6783 52.5912 66.9402 52.015L65.1194 51.1874C64.9547 51.5498 64.7505 51.8338 64.5139 52.0556L65.8817 53.5147ZM66.9242 52.0484C66.9237 52.0495 66.9159 52.0651 66.8978 52.0892C66.8796 52.1134 66.8478 52.1506 66.7985 52.19C66.6873 52.279 66.5287 52.3452 66.3498 52.3452V50.3452C65.6722 50.3452 65.2971 50.8306 65.1354 51.1539L66.9242 52.0484ZM66.3498 52.3452C66.2521 52.3452 66.1499 52.3251 66.0531 52.2825C65.9583 52.2408 65.889 52.1865 65.8427 52.1403C65.7593 52.0568 65.7463 51.9958 65.762 52.0389L67.6416 51.3554C67.5211 51.0241 67.1668 50.3452 66.3498 50.3452V52.3452ZM65.762 52.0389C65.7955 52.1309 65.8145 52.1961 65.8244 52.2382C65.8353 52.2845 65.8298 52.2805 65.8298 52.2412H67.8298C67.8298 51.9322 67.7363 51.6159 67.6416 51.3554L65.762 52.0389ZM78.8456 46.5132L79.8454 46.5288L79.8456 46.521V46.5132H78.8456ZM78.7816 50.6092L77.7817 50.5935L77.7816 50.6013V50.6092H78.7816ZM79.7096 55.7292L80.4167 55.0221L80.404 55.0094L80.391 54.9973L79.7096 55.7292ZM75.5816 55.2812L76.5761 55.1765L76.5754 55.1707L75.5816 55.2812ZM75.5496 54.0972L74.5499 54.0722L74.5496 54.0847V54.0972H75.5496ZM75.6776 48.9772L76.6772 49.0022L76.6776 48.9897V48.9772H75.6776ZM72.5416 49.6172L73.0823 50.4583L72.5416 49.6172ZM71.5816 53.0092L72.3624 52.3845L71.5816 53.0092ZM73.4376 53.2652L72.9337 52.4014L72.917 52.4111L72.9007 52.4215L73.4376 53.2652ZM73.8856 53.0092L74.0024 52.016L73.7056 51.9811L73.4383 52.1147L73.8856 53.0092ZM73.4376 55.8892L73.9797 56.7295L73.9891 56.7234L73.9984 56.7171L73.4376 55.8892ZM69.4696 56.1452L69.0223 57.0396L69.0296 57.0432L69.0368 57.0467L69.4696 56.1452ZM68.3496 55.2812L69.156 54.6898L68.3496 55.2812ZM67.7736 54.1932L66.8169 54.4843L66.8253 54.5119L66.8352 54.5389L67.7736 54.1932ZM68.9576 49.3292L68.2671 48.6058L68.9576 49.3292ZM72.5736 47.4092L72.3795 46.4282L72.3501 46.434L72.3211 46.4415L72.5736 47.4092ZM75.6136 46.3532L74.6488 46.09L74.6473 46.0955L75.6136 46.3532ZM72.6696 43.9532L73.2835 44.7425L73.2968 44.7322L73.3097 44.7214L72.6696 43.9532ZM72.0936 45.1052H71.0936V45.2283L71.1234 45.3477L72.0936 45.1052ZM72.2856 45.8732L73.2787 45.99L73.3001 45.8082L73.2557 45.6306L72.2856 45.8732ZM71.1336 46.5132L71.0457 45.517L71.043 45.5173L71.1336 46.5132ZM70.7816 46.5452V47.5452H70.8269L70.8721 47.5411L70.7816 46.5452ZM69.2456 46.0652L68.5839 46.815L68.5945 46.8243L68.6054 46.8334L69.2456 46.0652ZM69.0216 43.6652L68.1453 43.1832L68.1409 43.1913L68.1366 43.1994L69.0216 43.6652ZM69.8856 42.6412L69.2856 41.8412V41.8412L69.8856 42.6412ZM71.4536 41.9692L71.7167 42.9339L71.7262 42.9313L71.7357 42.9285L71.4536 41.9692ZM75.0696 41.7132L74.9527 42.7063L75.0696 41.7132ZM76.5416 42.0332L76.2756 42.9972L76.2949 43.0025L76.3143 43.007L76.5416 42.0332ZM78.1096 42.9292L77.368 43.6001L77.3766 43.6096L77.3854 43.6188L78.1096 42.9292ZM78.7816 44.3692L77.7824 44.4108L77.7834 44.4333L77.7853 44.4558L78.7816 44.3692ZM77.8457 46.4975L77.7817 50.5935L79.7814 50.6248L79.8454 46.5288L77.8457 46.4975ZM77.7816 50.6092C77.7816 52.0551 77.8597 53.2582 78.0296 54.1955C78.1893 55.0768 78.4639 55.9358 79.0281 56.4611L80.391 54.9973C80.3365 54.9466 80.1471 54.6642 79.9975 53.8388C79.8581 53.0694 79.7816 52.0005 79.7816 50.6092H77.7816ZM79.0024 56.4363C78.9711 56.4049 78.9271 56.3508 78.8917 56.2713C78.8554 56.1894 78.8376 56.1015 78.8376 56.0172H80.8376C80.8376 55.6096 80.6627 55.2681 80.4167 55.0221L79.0024 56.4363ZM78.8376 56.0172C78.8376 55.6686 79.0499 55.4662 79.1383 55.405C79.2035 55.3599 79.2157 55.3744 79.0927 55.4028C78.86 55.4565 78.4323 55.4972 77.7576 55.4972V57.4972C78.4695 57.4972 79.0818 57.4578 79.5424 57.3516C79.7661 57.2999 80.0383 57.2144 80.2768 57.0494C80.5385 56.8681 80.8376 56.5257 80.8376 56.0172H78.8376ZM77.7576 55.4972C77.1479 55.4972 76.8241 55.4022 76.6774 55.3202C76.6153 55.2855 76.5996 55.2615 76.5976 55.2585C76.596 55.2561 76.5824 55.2371 76.5761 55.1765L74.5871 55.3858C74.6645 56.1218 75.0619 56.7086 75.7017 57.0661C76.2803 57.3894 77.0018 57.4972 77.7576 57.4972V55.4972ZM76.5754 55.1707C76.5613 55.0434 76.5496 54.7051 76.5496 54.0972H74.5496C74.5496 54.6839 74.5592 55.135 74.5877 55.3916L76.5754 55.1707ZM76.5492 54.1222L76.6772 49.0022L74.6779 48.9522L74.5499 54.0722L76.5492 54.1222ZM76.6776 48.9772C76.6776 48.7111 76.5954 48.3395 76.2721 48.0566C75.9743 47.796 75.6307 47.7532 75.4216 47.7532V49.7532C75.3831 49.7532 75.1675 49.7476 74.9551 49.5617C74.7171 49.3535 74.6776 49.0939 74.6776 48.9772H76.6776ZM75.4216 47.7532C74.1978 47.7532 73.0513 48.1007 72.0008 48.776L73.0823 50.4583C73.8238 49.9816 74.5973 49.7532 75.4216 49.7532V47.7532ZM72.0008 48.776C70.8813 49.4957 70.1976 50.5205 70.1976 51.8252H72.1976C72.1976 51.3378 72.4098 50.8906 73.0823 50.4583L72.0008 48.776ZM70.1976 51.8252C70.1976 52.4869 70.3826 53.1112 70.8007 53.6339L72.3624 52.3845C72.2685 52.2671 72.1976 52.1021 72.1976 51.8252H70.1976ZM70.8007 53.6339C71.2185 54.1562 71.8011 54.4892 72.5096 54.4892V52.4892C72.4813 52.4892 72.4717 52.4844 72.465 52.4809C72.4548 52.4757 72.4182 52.4542 72.3624 52.3845L70.8007 53.6339ZM72.5096 54.4892C73.014 54.4892 73.5292 54.3922 73.9744 54.1088L72.9007 52.4215C72.8766 52.4368 72.7731 52.4892 72.5096 52.4892V54.4892ZM73.9414 54.1289C74.0684 54.0549 74.1668 53.9979 74.2377 53.9574C74.2733 53.9371 74.3001 53.9219 74.3192 53.9113C74.3425 53.8984 74.3433 53.8983 74.3328 53.9036L73.4383 52.1147C73.3587 52.1545 73.1717 52.2625 72.9337 52.4014L73.9414 54.1289ZM73.7687 54.0023C73.6876 53.9928 73.5913 53.9586 73.5064 53.892C73.4272 53.8299 73.3955 53.7692 73.3893 53.7562C73.3844 53.7457 73.3965 53.768 73.4087 53.8425C73.4205 53.9151 73.4296 54.0192 73.4296 54.1612H75.4296C75.4296 53.7413 75.3812 53.2905 75.1978 52.9022C74.9881 52.458 74.5871 52.0848 74.0024 52.016L73.7687 54.0023ZM73.4296 54.1612C73.4296 54.4846 73.3065 54.7701 72.8767 55.0612L73.9984 56.7171C74.8913 56.1122 75.4296 55.2458 75.4296 54.1612H73.4296ZM72.8954 55.0489C72.3814 55.3805 71.8742 55.5292 71.3576 55.5292V57.5292C72.2916 57.5292 73.1711 57.2511 73.9797 56.7295L72.8954 55.0489ZM71.3576 55.5292C70.7488 55.5292 70.2735 55.4218 69.9023 55.2436L69.0368 57.0467C69.7322 57.3805 70.5156 57.5292 71.3576 57.5292V55.5292ZM69.9168 55.2507C69.4883 55.0365 69.2644 54.8377 69.156 54.6898L67.5432 55.8725C67.9041 56.3647 68.4268 56.7418 69.0223 57.0396L69.9168 55.2507ZM69.156 54.6898C68.9812 54.4515 68.8318 54.1728 68.7119 53.8475L66.8352 54.5389C67.014 55.0241 67.2486 55.4709 67.5432 55.8725L69.156 54.6898ZM68.7302 53.902C68.5987 53.47 68.5496 53.1457 68.5496 52.9132H66.5496C66.5496 53.4059 66.6497 53.935 66.8169 54.4843L68.7302 53.902ZM68.5496 52.9132C68.5496 51.6481 68.9374 50.7308 69.648 50.0525L68.2671 48.6058C67.1004 49.7195 66.5496 51.1916 66.5496 52.9132H68.5496ZM69.648 50.0525C70.4441 49.2926 71.4899 48.7253 72.826 48.3768L72.3211 46.4415C70.7132 46.861 69.3483 47.5737 68.2671 48.6058L69.648 50.0525ZM72.7676 48.3902C73.7526 48.1953 74.545 48.0007 75.1177 47.8018C75.4003 47.7036 75.672 47.5901 75.8973 47.4522C76.0729 47.3448 76.4527 47.0874 76.5798 46.6108L74.6473 46.0955C74.7318 45.7789 74.9528 45.6855 74.8538 45.7461C74.8045 45.7762 74.6854 45.8347 74.4614 45.9125C74.0208 46.0656 73.3358 46.239 72.3795 46.4282L72.7676 48.3902ZM76.5783 46.6163C76.6806 46.2413 76.7096 45.7288 76.7096 45.1692H74.7096C74.7096 45.7189 74.6745 45.9957 74.6488 46.09L76.5783 46.6163ZM76.7096 45.1692C76.7096 44.4449 76.5238 43.7191 75.978 43.1835C75.4358 42.6512 74.7071 42.4732 73.9816 42.4732V44.4732C74.4081 44.4732 74.5434 44.5777 74.5771 44.6108C74.6074 44.6406 74.7096 44.7628 74.7096 45.1692H76.7096ZM73.9816 42.4732C73.2522 42.4732 72.5894 42.7182 72.0294 43.1849L73.3097 44.7214C73.5177 44.5481 73.7296 44.4732 73.9816 44.4732V42.4732ZM72.0556 43.1638C71.4384 43.6439 71.0936 44.3143 71.0936 45.1052H73.0936C73.0936 44.9573 73.1327 44.8598 73.2835 44.7425L72.0556 43.1638ZM71.1234 45.3477L71.3154 46.1157L73.2557 45.6306L73.0637 44.8626L71.1234 45.3477ZM71.2924 45.7563C71.3017 45.6771 71.3335 45.5929 71.386 45.5219C71.4344 45.4565 71.4787 45.4317 71.4799 45.431C71.4807 45.4306 71.4731 45.4348 71.4544 45.4418C71.4358 45.4488 71.4086 45.4576 71.371 45.467C71.2947 45.4861 71.1882 45.5045 71.0457 45.517L71.2215 47.5093C71.6436 47.472 72.0818 47.3846 72.4512 47.1793C72.8597 46.9524 73.2119 46.5576 73.2787 45.99L71.2924 45.7563ZM71.043 45.5173L70.691 45.5493L70.8721 47.5411L71.2241 47.5091L71.043 45.5173ZM70.7816 45.5452C70.3086 45.5452 70.0446 45.4293 69.8857 45.2969L68.6054 46.8334C69.2146 47.341 69.9746 47.5452 70.7816 47.5452V45.5452ZM69.9072 45.3153C69.7832 45.206 69.7016 45.0646 69.7016 44.7852H67.7016C67.7016 45.5724 67.9825 46.2844 68.5839 46.815L69.9072 45.3153ZM69.7016 44.7852C69.7016 44.652 69.744 44.4396 69.9065 44.1309L68.1366 43.1994C67.8725 43.7013 67.7016 44.2356 67.7016 44.7852H69.7016ZM69.8978 44.1471C70.0737 43.8273 70.2728 43.6007 70.4856 43.4412L69.2856 41.8412C68.8156 42.1936 68.4388 42.6497 68.1453 43.1832L69.8978 44.1471ZM70.4856 43.4412C70.6788 43.2962 71.0604 43.1129 71.7167 42.9339L71.1904 41.0044C70.4388 41.2094 69.7749 41.4741 69.2856 41.8412L70.4856 43.4412ZM71.7357 42.9285C72.3823 42.7384 72.9803 42.6492 73.5336 42.6492V40.6492C72.7642 40.6492 71.9755 40.7733 71.1714 41.0098L71.7357 42.9285ZM73.5336 42.6492C74.1817 42.6492 74.648 42.6705 74.9527 42.7063L75.1864 40.72C74.7658 40.6705 74.2081 40.6492 73.5336 40.6492V42.6492ZM74.9527 42.7063C75.2411 42.7402 75.6752 42.8315 76.2756 42.9972L76.8075 41.0692C76.1706 40.8935 75.6234 40.7714 75.1864 40.72L74.9527 42.7063ZM76.3143 43.007C76.7743 43.1143 77.1114 43.3164 77.368 43.6001L78.8511 42.2582C78.2971 41.6459 77.5888 41.2507 76.7688 41.0593L76.3143 43.007ZM77.3854 43.6188C77.6812 43.9294 77.7732 44.1889 77.7824 44.4108L79.7807 44.3275C79.7473 43.5255 79.3912 42.8249 78.8337 42.2395L77.3854 43.6188ZM77.7853 44.4558C77.8242 44.9025 77.8456 45.5825 77.8456 46.5132H79.8456C79.8456 45.5664 79.8243 44.8172 79.7778 44.2825L77.7853 44.4558ZM90.5426 47.5372L89.5447 47.4715L89.5388 47.5613L89.549 47.6507L90.5426 47.5372ZM90.6706 48.6572H91.6706V48.6002L91.6641 48.5436L90.6706 48.6572ZM87.4066 46.3532L88.3632 46.6443L87.4066 46.3532ZM87.3106 44.1452L86.5179 44.7549L86.5298 44.7703L86.5423 44.7853L87.3106 44.1452ZM85.3266 44.1772L84.6194 43.4701V43.4701L85.3266 44.1772ZM84.8146 45.0412L85.7761 45.3159L85.7853 45.2836L85.7924 45.2507L84.8146 45.0412ZM84.6866 45.4892L83.725 45.2144L83.7131 45.2563L83.7048 45.2991L84.6866 45.4892ZM84.5586 52.4652L83.5597 52.5127L83.5597 52.5139L84.5586 52.4652ZM84.6866 54.2892L83.6942 54.4132L83.6953 54.4213L84.6866 54.2892ZM83.7586 56.1452L83.323 55.245L83.3114 55.2506L83.2999 55.2565L83.7586 56.1452ZM80.7826 56.2412L79.7953 56.0819L79.7826 56.161V56.2412H80.7826ZM80.9426 55.2492L81.9298 55.4084L81.9299 55.408L80.9426 55.2492ZM81.0706 41.9052H80.0706V42.0042L80.09 42.1013L81.0706 41.9052ZM84.0466 42.7052L85.0167 42.4626L84.9914 42.3615L84.9458 42.2677L84.0466 42.7052ZM84.5906 42.5452L83.9573 41.7712L84.5906 42.5452ZM88.8786 42.0332L89.2528 41.1058L89.2442 41.1024L88.8786 42.0332ZM90.7026 45.1052L91.7004 45.1708L91.7026 45.138V45.1052H90.7026ZM89.549 47.6507L89.677 48.7707L91.6641 48.5436L91.5361 47.4236L89.549 47.6507ZM89.6706 48.6572C89.6706 48.5942 89.6877 48.4927 89.7531 48.3892C89.8161 48.2893 89.8892 48.2428 89.9158 48.2288C89.9375 48.2173 89.924 48.2291 89.8493 48.2423C89.777 48.255 89.6694 48.2652 89.5186 48.2652V50.2652C89.9579 50.2652 90.4417 50.2127 90.8493 49.9975C91.068 49.8821 91.285 49.709 91.444 49.4572C91.6054 49.2016 91.6706 48.9228 91.6706 48.6572H89.6706ZM89.5186 48.2652C88.8368 48.2652 88.508 48.1317 88.3683 48.0265C88.282 47.9614 88.1826 47.8495 88.1826 47.5052H86.1826C86.1826 48.3341 86.4725 49.1022 87.1648 49.6238C87.8038 50.1053 88.643 50.2652 89.5186 50.2652V48.2652ZM88.1826 47.5052C88.1826 47.3773 88.2226 47.1063 88.3632 46.6443L86.4499 46.062C86.2918 46.5814 86.1826 47.0783 86.1826 47.5052H88.1826ZM88.3632 46.6443C88.5304 46.095 88.6306 45.5659 88.6306 45.0732H86.6306C86.6306 45.3057 86.5814 45.63 86.4499 46.062L88.3632 46.6443ZM88.6306 45.0732C88.6306 44.4987 88.4555 43.957 88.0788 43.505L86.5423 44.7853C86.5923 44.8453 86.6306 44.9223 86.6306 45.0732H88.6306ZM88.1032 43.5354C87.669 42.971 87.0427 42.7292 86.3826 42.7292V44.7292C86.4714 44.7292 86.5061 44.7442 86.5095 44.7457C86.5116 44.7466 86.511 44.7465 86.5098 44.7456C86.5088 44.7448 86.5117 44.7467 86.5179 44.7549L88.1032 43.5354ZM86.3826 42.7292C85.6998 42.7292 85.0969 42.9926 84.6194 43.4701L86.0337 44.8843C86.1536 44.7643 86.2546 44.7292 86.3826 44.7292V42.7292ZM84.6194 43.4701C84.2441 43.8454 83.9512 44.2977 83.8368 44.8316L85.7924 45.2507C85.8059 45.1873 85.8543 45.0636 86.0337 44.8843L84.6194 43.4701ZM83.853 44.7664L83.725 45.2144L85.6481 45.7639L85.7761 45.3159L83.853 44.7664ZM83.7048 45.2991C83.5569 46.0631 83.4946 47.257 83.4946 48.8172H85.4946C85.4946 47.2627 85.5602 46.2379 85.6683 45.6792L83.7048 45.2991ZM83.4946 48.8172C83.4946 50.3596 83.5159 51.5936 83.5597 52.5127L85.5574 52.4176C85.5159 51.5447 85.4946 50.3467 85.4946 48.8172H83.4946ZM83.5597 52.5139C83.6023 53.387 83.6463 54.0298 83.6943 54.4132L85.6788 54.1651C85.6414 53.8659 85.6001 53.2927 85.5574 52.4164L83.5597 52.5139ZM83.6953 54.4213C83.7162 54.5782 83.7312 54.698 83.7407 54.7836C83.7454 54.8265 83.7484 54.8567 83.75 54.8762C83.7522 54.9022 83.7506 54.8924 83.7506 54.8652H85.7506C85.7506 54.7175 85.7158 54.4424 85.6778 54.157L83.6953 54.4213ZM83.7506 54.8652C83.7506 54.9071 83.7434 54.9323 83.7121 54.9726C83.6691 55.0281 83.5623 55.1292 83.323 55.245L84.1941 57.0453C85.0491 56.6316 85.7506 55.9255 85.7506 54.8652H83.7506ZM83.2999 55.2565C82.7624 55.534 82.2572 55.6572 81.7746 55.6572V57.6572C82.6145 57.6572 83.432 57.439 84.2172 57.0338L83.2999 55.2565ZM81.7746 55.6572C81.6418 55.6572 81.5453 55.6501 81.479 55.6408C81.4094 55.6311 81.396 55.6221 81.4173 55.631C81.4378 55.6396 81.5338 55.6832 81.6274 55.8009C81.7332 55.934 81.7826 56.0952 81.7826 56.2412H79.7826C79.7826 56.5258 79.8733 56.8083 80.0617 57.0454C80.238 57.2671 80.458 57.3974 80.6438 57.4754C80.9953 57.6228 81.4042 57.6572 81.7746 57.6572V55.6572ZM81.7698 56.4004L81.9298 55.4084L79.9553 55.0899L79.7953 56.0819L81.7698 56.4004ZM81.9299 55.408C82.2404 53.4782 82.3906 50.998 82.3906 47.9852H80.3906C80.3906 50.9457 80.242 53.3081 79.9553 55.0903L81.9299 55.408ZM82.3906 47.9852C82.3906 45.0088 82.2867 42.8867 82.0511 41.709L80.09 42.1013C80.2811 43.0569 80.3906 44.9882 80.3906 47.9852H82.3906ZM82.0706 41.9052C82.0706 41.991 82.0503 42.1142 81.9763 42.241C81.9025 42.3675 81.8063 42.4445 81.7347 42.4854C81.6692 42.5228 81.627 42.5291 81.6357 42.5275C81.6425 42.5262 81.6753 42.5212 81.7426 42.5212V40.5212C81.4561 40.5212 81.0794 40.5563 80.7424 40.7489C80.3219 40.9892 80.0706 41.4148 80.0706 41.9052H82.0706ZM81.7426 42.5212C82.6532 42.5212 82.9848 42.8085 83.1473 43.1426L84.9458 42.2677C84.3403 41.0232 83.1359 40.5212 81.7426 40.5212V42.5212ZM83.0764 42.9477C83.1011 43.0464 83.1552 43.226 83.2866 43.4012C83.439 43.6045 83.7284 43.8332 84.1426 43.8332V41.8332C84.5141 41.8332 84.7661 42.0405 84.8866 42.2012C84.9859 42.3337 85.0133 42.4492 85.0167 42.4626L83.0764 42.9477ZM84.1426 43.8332C84.373 43.8332 84.5506 43.7569 84.6169 43.7271C84.7055 43.6872 84.7833 43.6409 84.8433 43.6023C84.9647 43.5243 85.0944 43.425 85.2238 43.3191L83.9573 41.7712C83.9069 41.8125 83.8648 41.8455 83.8306 41.8712C83.7956 41.8974 83.7733 41.9126 83.7618 41.92C83.7471 41.9294 83.761 41.9191 83.7962 41.9032C83.8147 41.8949 83.8504 41.8799 83.8998 41.866C83.9461 41.853 84.0315 41.8332 84.1426 41.8332V43.8332ZM85.2238 43.3191C85.7387 42.8978 86.3436 42.6812 87.0866 42.6812V40.6812C85.9095 40.6812 84.8504 41.0405 83.9573 41.7712L85.2238 43.3191ZM87.0866 42.6812C87.5497 42.6812 88.0233 42.7716 88.5129 42.9639L89.2442 41.1024C88.5391 40.8254 87.8181 40.6812 87.0866 40.6812V42.6812ZM88.5044 42.9605C88.9309 43.1326 89.2059 43.3753 89.3867 43.6797C89.5749 43.9966 89.7026 44.4522 89.7026 45.1052H91.7026C91.7026 44.2008 91.5262 43.3657 91.1064 42.6586C90.6792 41.939 90.0422 41.4244 89.2528 41.1058L88.5044 42.9605ZM89.7047 45.0395L89.5447 47.4715L91.5404 47.6028L91.7004 45.1708L89.7047 45.0395Z" fill="white"/>
<path d="M17.4808 20.6263V39.5585H20.8169V24.0004H38.5166V20.6263H17.4808Z" stroke="white" stroke-width="2"/>
<path d="M106.883 74.2676V55.3354H103.547V70.8935H85.8471V74.2676H106.883Z" stroke="white" stroke-width="2"/>
</g>
<defs>
<filter id="filter0_d_1_8839" x="0.859375" y="0.849609" width="128.956" height="93.1948" filterUnits="userSpaceOnUse" color-interpolation-filters="sRGB">
<feFlood flood-opacity="0" result="BackgroundImageFix"/>
<feColorMatrix in="SourceAlpha" type="matrix" values="0 0 0 0 0 0 0 0 0 0 0 0 0 0 0 0 0 0 127 0" result="hardAlpha"/>
<feOffset/>
<feGaussianBlur stdDeviation="2"/>
<feComposite in2="hardAlpha" operator="out"/>
<feColorMatrix type="matrix" values="0 0 0 0 0.701961 0 0 0 0 0.466667 0 0 0 0 1 0 0 0 1 0"/>
<feBlend mode="normal" in2="BackgroundImageFix" result="effect1_dropShadow_1_8839"/>
<feBlend mode="normal" in="SourceGraphic" in2="effect1_dropShadow_1_8839" result="shape"/>
</filter>
</defs>
</svg>
