<svg width="161" height="110" viewBox="0 0 161 110" fill="none" xmlns="http://www.w3.org/2000/svg">
<g filter="url(#filter0_d_1_8810)">
<path d="M5.02466 5.17755H127.534C142.998 5.17755 155.534 17.7136 155.534 33.1776V104.149H33.0247C17.5607 104.149 5.02466 91.6132 5.02466 76.1492V5.17755Z" fill="black" fill-opacity="0.3" stroke="#CEB7FF" stroke-width="2"/>
<path d="M42.6928 54.4474H41.6928V54.4579L41.6931 54.4685L42.6928 54.4474ZM41.7968 53.6474L41.8681 52.6499L41.8325 52.6474H41.7968V53.6474ZM39.2688 53.4874L38.2896 53.2848L38.2688 53.385V53.4874H39.2688ZM39.9408 52.0154L40.6907 52.677L40.7 52.6664L40.7091 52.6556L39.9408 52.0154ZM40.7408 51.3754L40.5994 50.3855L40.5719 50.3894L40.5447 50.3948L40.7408 51.3754ZM46.2448 51.2794L46.1825 52.2775L46.2136 52.2794H46.2448V51.2794ZM46.8848 51.3754L47.6657 50.7507L47.5864 50.6516L47.4848 50.5754L46.8848 51.3754ZM46.8848 54.4154L45.8861 54.3635L45.8856 54.376L46.8848 54.4154ZM46.9168 61.2314L45.9467 61.4739L45.9486 61.4815L45.9506 61.4891L46.9168 61.2314ZM46.1488 62.9594L46.6896 63.8006L46.7 63.7939L46.7103 63.7869L46.1488 62.9594ZM43.4288 63.9834L43.1903 63.0123L43.1863 63.0133L43.4288 63.9834ZM34.4048 62.4154L33.7117 63.1363L33.7198 63.1439L34.4048 62.4154ZM32.1008 58.9274L31.149 59.2339L31.1513 59.2412L31.1538 59.2484L32.1008 58.9274ZM43.6208 41.2634L43.3494 42.2259L43.3609 42.2291L43.3725 42.2321L43.6208 41.2634ZM45.7968 42.5754L45.0666 43.2586L45.0779 43.2707L45.0897 43.2825L45.7968 42.5754ZM46.4368 46.7034L45.5035 46.3444L45.4963 46.363L45.4899 46.3818L46.4368 46.7034ZM42.2128 47.8554L41.4858 48.542L41.5054 48.5628L41.5262 48.5824L42.2128 47.8554ZM42.0848 45.8074L42.3097 46.7818L42.456 46.748L42.5859 46.6728L42.0848 45.8074ZM42.0528 43.3114L41.4528 44.1114L41.4659 44.1212L41.4794 44.1306L42.0528 43.3114ZM38.1168 43.9514L38.8344 44.6479L38.8395 44.6427L38.8444 44.6374L38.1168 43.9514ZM36.5808 46.8314L35.6149 46.5727L35.6127 46.5808L35.6107 46.5889L36.5808 46.8314ZM38.4368 60.5914L39.0156 59.7759L39.0059 59.7691L38.9961 59.7624L38.4368 60.5914ZM42.6608 60.5594L43.646 60.7307L43.6525 60.6934L43.6562 60.6557L42.6608 60.5594ZM42.7568 57.4874H43.7568V57.4769L43.7566 57.4664L42.7568 57.4874ZM43.6928 54.4474C43.6928 53.9868 43.5436 53.4984 43.1348 53.1335C42.7565 52.7957 42.2829 52.6796 41.8681 52.6499L41.7256 54.6449C41.8097 54.6509 41.8512 54.6628 41.8625 54.6667C41.8718 54.6699 41.8435 54.6616 41.8028 54.6253C41.759 54.5862 41.7255 54.5364 41.7066 54.4883C41.6894 54.4448 41.6928 54.4252 41.6928 54.4474H43.6928ZM41.7968 52.6474H39.5248V54.6474H41.7968V52.6474ZM39.5248 52.6474C39.5312 52.6474 39.565 52.6476 39.6168 52.6584C39.6675 52.669 39.7591 52.6946 39.8628 52.7594C39.9732 52.8284 40.0867 52.9358 40.1672 53.0868C40.2463 53.2352 40.2688 53.3789 40.2688 53.4874H38.2688C38.2688 53.8606 38.4472 54.2332 38.8028 54.4554C39.0801 54.6287 39.3677 54.6474 39.5248 54.6474V52.6474ZM40.2481 53.69C40.3513 53.191 40.5158 52.8752 40.6907 52.677L39.191 51.3538C38.7259 51.8809 38.4423 52.5465 38.2896 53.2848L40.2481 53.69ZM40.7091 52.6556C40.8439 52.4938 40.9427 52.3986 41.0055 52.3483C41.0357 52.3242 41.0475 52.3185 41.0414 52.3218C41.0358 52.3248 40.9999 52.3434 40.9369 52.356L40.5447 50.3948C40.2168 50.4604 39.9502 50.6313 39.7561 50.7865C39.5523 50.9496 39.3578 51.153 39.1726 51.3752L40.7091 52.6556ZM40.8823 52.3654C41.4034 52.2909 42.323 52.2474 43.6848 52.2474V50.2474C42.316 50.2474 41.2729 50.2892 40.5994 50.3855L40.8823 52.3654ZM43.6848 52.2474C45.0618 52.2474 45.8793 52.2585 46.1825 52.2775L46.3072 50.2814C45.9277 50.2576 45.0385 50.2474 43.6848 50.2474V52.2474ZM46.2448 52.2794C46.3151 52.2794 46.3728 52.2811 46.4192 52.2837C46.4663 52.2865 46.4964 52.2899 46.5125 52.2923C46.5307 52.2951 46.52 52.2948 46.4908 52.2854C46.4752 52.2804 46.4491 52.2711 46.4161 52.2554C46.3835 52.2398 46.3371 52.2146 46.2848 52.1754L47.4848 50.5754C47.2318 50.3856 46.9445 50.3348 46.8092 50.3145C46.6337 50.2881 46.4401 50.2794 46.2448 50.2794V52.2794ZM46.104 52.0001C46.0739 51.9625 46.0486 51.917 46.0321 51.8676C46.0161 51.8194 46.0128 51.7808 46.0128 51.7594H48.0128C48.0128 51.4056 47.9064 51.0515 47.6657 50.7507L46.104 52.0001ZM46.0128 51.7594C46.0128 51.7567 46.0127 51.7693 46.0114 51.8093C46.0102 51.845 46.0083 51.8934 46.0057 51.9553C46.0005 52.079 45.9926 52.2507 45.982 52.4713C45.9607 52.9121 45.9288 53.5426 45.8862 54.3635L47.8835 54.4673C47.9675 52.8496 48.0128 51.9217 48.0128 51.7594H46.0128ZM45.8856 54.376C45.8212 56.0074 45.7888 57.4822 45.7888 58.7994H47.7888C47.7888 57.514 47.8204 56.0661 47.8841 54.4549L45.8856 54.376ZM45.7888 58.7994C45.7888 59.4482 45.7996 59.9902 45.8222 60.42C45.8437 60.8283 45.8785 61.2013 45.9467 61.4739L47.887 60.9889C47.8698 60.9202 47.8406 60.7171 47.8194 60.3148C47.7994 59.934 47.7888 59.4306 47.7888 58.7994H45.7888ZM45.9506 61.4891C45.991 61.6408 46.0181 61.7525 46.0343 61.8294C46.0424 61.8679 46.0462 61.8902 46.0476 61.9C46.05 61.9162 46.0448 61.8895 46.0448 61.8394H48.0448C48.0448 61.6815 48.0125 61.5178 47.9914 61.4174C47.9649 61.2917 47.9279 61.1421 47.8831 60.9737L45.9506 61.4891ZM46.0448 61.8394C46.0448 61.7073 46.1033 61.6715 46.04 61.7507C45.9764 61.8302 45.8408 61.9599 45.5873 62.1319L46.7103 63.7869C47.0542 63.5536 47.3666 63.294 47.6017 63.0001C47.837 62.706 48.0448 62.3128 48.0448 61.8394H46.0448ZM45.6081 62.1182C45.1487 62.4135 44.3678 62.7231 43.1903 63.0123L43.6674 64.9545C44.9218 64.6464 45.9543 64.2733 46.6896 63.8006L45.6081 62.1182ZM43.1863 63.0133C42.0835 63.289 40.8438 63.4314 39.4608 63.4314V65.4314C40.9792 65.4314 42.3848 65.2752 43.6714 64.9536L43.1863 63.0133ZM39.4608 63.4314C37.7771 63.4314 36.3359 62.8586 35.0899 61.6869L33.7198 63.1439C35.3324 64.6603 37.2619 65.4314 39.4608 65.4314V63.4314ZM35.0979 61.6946C34.0858 60.7213 33.4156 59.691 33.0479 58.6064L31.1538 59.2484C31.6394 60.6811 32.5052 61.9762 33.7117 63.1362L35.0979 61.6946ZM33.0527 58.6209C32.6942 57.5078 32.4928 55.8579 32.4928 53.6154H30.4928C30.4928 55.9382 30.6967 57.8297 31.149 59.2339L33.0527 58.6209ZM32.4928 53.6154C32.4928 49.4734 33.2571 46.548 34.6274 44.6786C35.9552 42.8671 37.9535 41.9114 40.8048 41.9114V39.9114C37.4481 39.9114 34.7905 41.073 33.0143 43.4962C31.2805 45.8615 30.4928 49.2881 30.4928 53.6154H32.4928ZM40.8048 41.9114C41.7768 41.9114 42.6219 42.0207 43.3494 42.2259L43.8923 40.301C42.9558 40.0368 41.9235 39.9114 40.8048 39.9114V41.9114ZM43.3725 42.2321C44.0097 42.3955 44.5706 42.7284 45.0666 43.2586L46.5271 41.8923C45.7857 41.0997 44.896 40.558 43.8692 40.2947L43.3725 42.2321ZM45.0897 43.2825C45.5169 43.7097 45.7568 44.2747 45.7568 45.0714H47.7568C47.7568 43.8202 47.3567 42.7211 46.5039 41.8683L45.0897 43.2825ZM45.7568 45.0714C45.7568 45.4688 45.6778 45.8913 45.5035 46.3444L47.3702 47.0624C47.6226 46.4062 47.7568 45.7407 47.7568 45.0714H45.7568ZM45.4899 46.3818C45.3568 46.7739 45.169 47.001 44.9565 47.1418C44.7353 47.2883 44.3985 47.3994 43.8768 47.3994V49.3994C44.6778 49.3994 45.429 49.2278 46.0611 48.8091C46.702 48.3845 47.1329 47.7636 47.3837 47.025L45.4899 46.3818ZM43.8768 47.3994C43.3103 47.3994 43.0378 47.2591 42.8995 47.1284L41.5262 48.5824C42.1558 49.1771 42.9927 49.3994 43.8768 49.3994V47.3994ZM42.9398 47.1688C42.7938 47.0142 42.6688 46.7608 42.6688 46.2874H40.6688C40.6688 47.1367 40.9065 47.9286 41.4858 48.542L42.9398 47.1688ZM42.6688 46.2874C42.6688 46.3474 42.6481 46.4924 42.5285 46.6303C42.4751 46.692 42.4194 46.731 42.3769 46.7539C42.3363 46.7758 42.3101 46.7817 42.3097 46.7818L41.86 44.833C41.5851 44.8964 41.2658 45.0336 41.0171 45.3205C40.7589 45.6184 40.6688 45.9714 40.6688 46.2874H42.6688ZM42.5859 46.6728C43.362 46.2235 43.6928 45.457 43.6928 44.6234H41.6928C41.6928 44.7808 41.6641 44.8536 41.6513 44.8786C41.6425 44.8956 41.6301 44.9152 41.5838 44.942L42.5859 46.6728ZM43.6928 44.6234C43.6928 43.7615 43.3517 43 42.6263 42.4922L41.4794 44.1306C41.6073 44.2202 41.6928 44.3334 41.6928 44.6234H43.6928ZM42.6528 42.5114C42.0777 42.0801 41.4235 41.8314 40.7088 41.8314V43.8314C40.9329 43.8314 41.1746 43.9027 41.4528 44.1114L42.6528 42.5114ZM40.7088 41.8314C39.4087 41.8314 38.2817 42.3188 37.3892 43.2654L38.8444 44.6374C39.3599 44.0907 39.9609 43.8314 40.7088 43.8314V41.8314ZM37.3992 43.2549C36.5527 44.1272 35.9692 45.2498 35.6149 46.5727L37.5468 47.0901C37.8324 46.0237 38.273 45.2263 38.8344 44.6479L37.3992 43.2549ZM35.6107 46.5889C35.0573 48.8022 34.7808 51.0597 34.7808 53.3594H36.7808C36.7808 51.2218 37.0376 49.1272 37.551 47.0739L35.6107 46.5889ZM34.7808 53.3594C34.7808 57.0863 35.6827 59.9395 37.8775 61.4204L38.9961 59.7624C37.6496 58.8539 36.7808 56.8859 36.7808 53.3594H34.7808ZM37.8581 61.4069C38.6677 61.9815 39.56 62.2954 40.5168 62.2954V60.2954C40.023 60.2954 39.5286 60.14 39.0156 59.7759L37.8581 61.4069ZM40.5168 62.2954C41.2273 62.2954 41.8723 62.2334 42.3855 62.0572C42.893 61.883 43.5122 61.5006 43.646 60.7307L41.6756 60.3881C41.7242 60.1089 41.9433 60.0945 41.7361 60.1656C41.5347 60.2348 41.1503 60.2954 40.5168 60.2954V62.2954ZM43.6562 60.6557C43.7251 59.9438 43.7568 58.8796 43.7568 57.4874H41.7568C41.7568 58.8686 41.7246 59.8524 41.6655 60.4631L43.6562 60.6557ZM43.7566 57.4664L43.6926 54.4264L41.6931 54.4685L41.7571 57.5085L43.7566 57.4664ZM51.8163 55.7274H50.8163V55.7474L50.8171 55.7674L51.8163 55.7274ZM51.8483 56.5274H52.8483V56.5074L52.8475 56.4874L51.8483 56.5274ZM52.1043 56.7194V57.7194H52.1511L52.1977 57.715L52.1043 56.7194ZM53.8963 56.2074L54.3726 57.0867L54.3865 57.0792L54.4002 57.0712L53.8963 56.2074ZM55.0483 55.2154L55.8653 55.7921L55.8766 55.7761L55.8873 55.7596L55.0483 55.2154ZM55.8803 53.1674L54.8837 53.0844L54.8831 53.0935L55.8803 53.1674ZM55.9123 52.7834L56.9089 52.8665L56.9123 52.825V52.7834H55.9123ZM52.8723 51.9514L53.6723 52.5514L53.6793 52.5421L53.6861 52.5326L52.8723 51.9514ZM58.2803 62.1274L57.4047 61.6443L57.3989 61.6552L58.2803 62.1274ZM57.1603 63.4714L57.725 64.2968L57.7338 64.2906L57.1603 63.4714ZM55.7203 64.1434L56.0103 65.1004L56.0144 65.0992L55.7203 64.1434ZM49.7363 62.4474L50.5805 61.9114L49.7363 62.4474ZM50.0243 51.7594L49.1889 51.2098L49.1839 51.2175L50.0243 51.7594ZM58.6963 51.3434L57.8048 51.7963L57.8107 51.8081L57.817 51.8197L58.6963 51.3434ZM59.0483 53.9034L60.0348 54.0678L60.0367 54.0555L59.0483 53.9034ZM57.5763 56.5274L56.8692 55.8203H56.8692L57.5763 56.5274ZM55.5603 57.7434L55.1742 56.821L55.5603 57.7434ZM52.3283 58.5114V59.5114H52.3799L52.4312 59.5061L52.3283 58.5114ZM52.2643 59.5994L51.3156 59.9156L51.3265 59.9483L51.3397 59.9802L52.2643 59.5994ZM52.7443 60.5274L51.9123 61.0821L51.9339 61.1146L51.958 61.1452L52.7443 60.5274ZM57.1603 60.5274L57.8427 61.2585L57.8443 61.2569L57.1603 60.5274ZM57.9923 59.3434L57.0979 58.8962L57.0896 58.9128L57.082 58.9296L57.9923 59.3434ZM58.6643 59.4394L59.6041 59.0977L58.6643 59.4394ZM50.8171 55.7674L50.8491 56.5674L52.8475 56.4874L52.8155 55.6874L50.8171 55.7674ZM50.8483 56.5274C50.8483 56.8354 50.9662 57.2118 51.3123 57.4714C51.6044 57.6905 51.9228 57.7194 52.1043 57.7194V55.7194C52.1152 55.7194 52.3056 55.7164 52.5123 55.8714C52.6253 55.9561 52.7184 56.0709 52.7781 56.2053C52.8353 56.3339 52.8483 56.4494 52.8483 56.5274H50.8483ZM52.1977 57.715C52.991 57.6407 53.723 57.4386 54.3726 57.0867L53.42 55.3281C53.0457 55.5309 52.583 55.6702 52.011 55.7238L52.1977 57.715ZM54.4002 57.0712C54.9965 56.7233 55.5039 56.304 55.8653 55.7921L54.2314 54.6387C54.0807 54.8521 53.8201 55.0942 53.3925 55.3436L54.4002 57.0712ZM55.8873 55.7596C56.4395 54.9083 56.817 54.0588 56.8776 53.2413L54.8831 53.0935C54.8583 53.428 54.6812 53.9438 54.2094 54.6712L55.8873 55.7596ZM56.8769 53.2505L56.9089 52.8665L54.9158 52.7004L54.8838 53.0844L56.8769 53.2505ZM56.9123 52.7834C56.9123 52.1014 56.781 51.405 56.3506 50.8645C55.8856 50.2805 55.2173 50.0554 54.5363 50.0554V52.0554C54.6627 52.0554 54.7271 52.0754 54.7522 52.0858C54.7712 52.0938 54.7776 52.0997 54.7861 52.1103C54.8143 52.1459 54.9123 52.3134 54.9123 52.7834H56.9123ZM54.5363 50.0554C53.5032 50.0554 52.6564 50.5332 52.0586 51.3702L53.6861 52.5326C53.9416 52.1749 54.2041 52.0554 54.5363 52.0554V50.0554ZM52.0723 51.3514C51.2002 52.5142 50.8163 54.0064 50.8163 55.7274H52.8163C52.8163 54.2911 53.1365 53.2659 53.6723 52.5514L52.0723 51.3514ZM57.7923 59.9834C57.7923 60.6503 57.6531 61.1942 57.4048 61.6443L59.1559 62.6105C59.5902 61.8233 59.7923 60.9379 59.7923 59.9834H57.7923ZM57.3989 61.6552C57.1314 62.1545 56.8523 62.4663 56.5869 62.6522L57.7338 64.2906C58.3217 63.8791 58.7893 63.295 59.1618 62.5996L57.3989 61.6552ZM56.5956 62.6461C56.2869 62.8573 55.9016 63.0414 55.4262 63.1876L56.0144 65.0992C56.6484 64.9041 57.2231 64.6401 57.725 64.2967L56.5956 62.6461ZM55.4303 63.1864C54.8066 63.3754 54.2327 63.4634 53.7043 63.4634V65.4634C54.456 65.4634 55.2261 65.3381 56.0103 65.1004L55.4303 63.1864ZM53.7043 63.4634C52.2037 63.4634 51.2247 62.926 50.5805 61.9114L48.8921 62.9834C49.9546 64.6568 51.6209 65.4634 53.7043 65.4634V63.4634ZM50.5805 61.9114C49.8553 60.7692 49.4563 59.2629 49.4563 57.3274H47.4563C47.4563 59.5306 47.9107 61.4377 48.8921 62.9834L50.5805 61.9114ZM49.4563 57.3274C49.4563 55.4122 49.9323 53.7475 50.8648 52.3013L49.1839 51.2175C48.0257 53.014 47.4563 55.0613 47.4563 57.3274H49.4563ZM50.8597 52.309C51.7229 50.997 52.9816 50.3274 54.7923 50.3274V48.3274C52.379 48.3274 50.4591 49.2791 49.1889 51.2098L50.8597 52.309ZM54.7923 50.3274C56.458 50.3274 57.3416 50.8845 57.8048 51.7963L59.5879 50.8905C58.6857 49.1143 56.9667 48.3274 54.7923 48.3274V50.3274ZM57.817 51.8197C58.0339 52.2201 58.1123 52.5478 58.1123 52.8154H60.1123C60.1123 52.1443 59.9134 51.4907 59.5756 50.8671L57.817 51.8197ZM58.1123 52.8154C58.1123 53.2387 58.0917 53.5449 58.06 53.7513L60.0367 54.0555C60.0903 53.7073 60.1123 53.2881 60.1123 52.8154H58.1123ZM58.0619 53.739C58.0446 53.8428 57.9526 54.126 57.6988 54.6547L59.5019 55.5201C59.7601 54.9821 59.9667 54.476 60.0347 54.0678L58.0619 53.739ZM57.6988 54.6547C57.4926 55.0842 57.2177 55.4718 56.8692 55.8203L58.2834 57.2345C58.7883 56.7296 59.196 56.1573 59.5019 55.5201L57.6988 54.6547ZM56.8692 55.8203C56.5751 56.1144 56.0393 56.4588 55.1742 56.821L55.9465 58.6658C56.916 58.26 57.7242 57.7938 58.2834 57.2345L56.8692 55.8203ZM55.1742 56.821C54.3666 57.159 53.3886 57.3964 52.2254 57.5167L52.4312 59.5061C53.7427 59.3704 54.9194 59.0958 55.9465 58.6658L55.1742 56.821ZM52.3283 57.5114C52.1192 57.5114 51.7756 57.5543 51.4778 57.8148C51.1545 58.0977 51.0723 58.4693 51.0723 58.7354H53.0723C53.0723 58.8522 53.0328 59.1118 52.7948 59.32C52.5824 59.5059 52.3668 59.5114 52.3283 59.5114V57.5114ZM51.0723 58.7354C51.0723 59.099 51.1827 59.5169 51.3156 59.9156L53.213 59.2832C53.1562 59.1127 53.1189 58.9792 53.0965 58.8785C53.0729 58.7721 53.0723 58.7306 53.0723 58.7354H51.0723ZM51.3397 59.9802C51.5076 60.388 51.6967 60.7588 51.9123 61.0821L53.5764 59.9727C53.4506 59.784 53.3197 59.5361 53.189 59.2187L51.3397 59.9802ZM51.958 61.1452C52.6568 62.0346 53.671 62.4234 54.8243 62.4234V60.4234C54.143 60.4234 53.7705 60.2149 53.5306 59.9096L51.958 61.1452ZM54.8243 62.4234C55.9816 62.4234 57.0079 62.0375 57.8426 61.2585L56.478 59.7964C56.0327 60.212 55.5017 60.4234 54.8243 60.4234V62.4234ZM57.8443 61.2569C58.2903 60.8388 58.6408 60.3334 58.9027 59.7572L57.082 58.9296C56.9172 59.2921 56.713 59.576 56.4764 59.7979L57.8443 61.2569ZM58.8868 59.7906C58.8862 59.7917 58.8784 59.8073 58.8603 59.8314C58.8421 59.8557 58.8103 59.8929 58.761 59.9323C58.6498 60.0212 58.4912 60.0874 58.3123 60.0874V58.0874C57.6347 58.0874 57.2596 58.5728 57.0979 58.8962L58.8868 59.7906ZM58.3123 60.0874C58.2146 60.0874 58.1124 60.0673 58.0156 60.0247C57.9208 59.983 57.8515 59.9288 57.8052 59.8825C57.7218 59.7991 57.7089 59.738 57.7245 59.7812L59.6041 59.0977C59.4837 58.7664 59.1294 58.0874 58.3123 58.0874V60.0874ZM57.7245 59.7812C57.758 59.8731 57.777 59.9383 57.7869 59.9804C57.7978 60.0268 57.7923 60.0227 57.7923 59.9834H59.7923C59.7923 59.6745 59.6988 59.3581 59.6041 59.0977L57.7245 59.7812ZM60.5576 64.0794L59.5712 63.915L59.5576 63.9966V64.0794H60.5576ZM60.8456 49.5194H59.8456V49.6184L59.865 49.7155L60.8456 49.5194ZM63.7576 50.2234L64.7063 49.9072L64.6931 49.8677L64.6767 49.8295L63.7576 50.2234ZM64.1096 50.2554L64.8167 50.9625L64.8223 50.9569L64.8278 50.9512L64.1096 50.2554ZM70.4776 50.2874L69.8219 51.0424L70.4776 50.2874ZM71.4696 56.8154L70.4745 56.7159L70.4738 56.7229L70.4732 56.73L71.4696 56.8154ZM72.1416 63.8874L71.3416 64.4874L71.351 64.4999L71.3607 64.5121L72.1416 63.8874ZM68.0136 57.3594L68.983 57.605L68.0136 57.3594ZM64.9416 51.7594L64.1963 51.0926L64.1863 51.1038L64.1767 51.1153L64.9416 51.7594ZM64.3656 53.1674L65.3621 53.2505L65.3624 53.2472L64.3656 53.1674ZM64.5256 61.9034L65.5215 61.8129L64.5256 61.9034ZM64.5896 62.6074H65.5896V62.562L65.5855 62.5169L64.5896 62.6074ZM63.4056 63.9834L63.0299 63.0567L63.0146 63.0629L62.9994 63.0696L63.4056 63.9834ZM61.544 64.2438C61.9397 61.8695 62.1336 59.0488 62.1336 55.7914H60.1336C60.1336 58.9767 59.9435 61.6814 59.5712 63.915L61.544 64.2438ZM62.1336 55.7914C62.1336 52.5938 62.0412 50.3987 61.8262 49.3233L59.865 49.7155C60.0339 50.5601 60.1336 52.5463 60.1336 55.7914H62.1336ZM61.8456 49.5194C61.8456 49.6572 61.8006 49.814 61.6982 49.9471C61.6063 50.0666 61.5094 50.1136 61.4832 50.125C61.4572 50.1362 61.4648 50.1283 61.5285 50.1191C61.589 50.1104 61.6793 50.1034 61.8056 50.1034V48.1034C61.444 48.1034 61.0384 48.138 60.688 48.2899C60.5017 48.3706 60.2849 48.5042 60.113 48.7277C59.9305 48.9649 59.8456 49.2429 59.8456 49.5194H61.8456ZM61.8056 50.1034C62.174 50.1034 62.3978 50.1738 62.5319 50.2508C62.6532 50.3204 62.7564 50.4258 62.8384 50.6173L64.6767 49.8295C64.4388 49.2743 64.0566 48.8198 63.5272 48.516C63.0107 48.2197 62.4185 48.1034 61.8056 48.1034V50.1034ZM62.8089 50.5396C62.8882 50.7774 63.0498 51.0033 63.2991 51.1529C63.5286 51.2906 63.7584 51.3194 63.9176 51.3194V49.3194C63.9914 49.3194 64.1519 49.3322 64.3281 49.4379C64.524 49.5555 64.6483 49.7334 64.7063 49.9072L62.8089 50.5396ZM63.9176 51.3194C64.1571 51.3194 64.5203 51.2589 64.8167 50.9625L63.4025 49.5483C63.6135 49.3373 63.8488 49.3194 63.9176 49.3194V51.3194ZM64.8278 50.9512C65.2288 50.5373 65.9409 50.2314 67.1816 50.2314V48.2314C65.6489 48.2314 64.313 48.6082 63.3913 49.5596L64.8278 50.9512ZM67.1816 50.2314C68.3992 50.2314 69.2409 50.5379 69.8219 51.0424L71.1333 49.5324C70.0929 48.6289 68.7373 48.2314 67.1816 48.2314V50.2314ZM69.8219 51.0424C70.3607 51.5103 70.6936 52.2263 70.6936 53.3594H72.6936C72.6936 51.8045 72.2158 50.4725 71.1333 49.5324L69.8219 51.0424ZM70.6936 53.3594C70.6936 54.1199 70.6228 55.2329 70.4745 56.7159L72.4646 56.9149C72.615 55.4112 72.6936 54.2202 72.6936 53.3594H70.6936ZM70.4732 56.73C70.3448 58.2285 70.2776 59.3732 70.2776 60.1434H72.2776C72.2776 59.463 72.3384 58.389 72.4659 56.9008L70.4732 56.73ZM70.2776 60.1434C70.2776 61.9355 70.5672 63.4549 71.3416 64.4874L72.9416 63.2874C72.564 62.7839 72.2776 61.8073 72.2776 60.1434H70.2776ZM71.3607 64.5121C71.3446 64.492 71.2696 64.385 71.2696 64.2074H73.2696C73.2696 63.8165 73.1092 63.4962 72.9224 63.2627L71.3607 64.5121ZM71.2696 64.2074C71.2696 64.0858 71.3063 63.9385 71.4013 63.8062C71.489 63.6839 71.5867 63.63 71.6245 63.6124C71.6602 63.5958 71.6641 63.6012 71.6126 63.6092C71.5642 63.6167 71.4868 63.6234 71.3736 63.6234V65.6234C71.7181 65.6234 72.1179 65.5884 72.4667 65.4264C72.6538 65.3395 72.8635 65.1989 73.0259 64.9726C73.1955 64.7363 73.2696 64.4677 73.2696 64.2074H71.2696ZM71.3736 63.6234C70.1775 63.6234 69.4673 63.3556 69.0612 62.9953C68.678 62.6554 68.4056 62.0895 68.4056 61.1034H66.4056C66.4056 62.464 66.7945 63.6581 67.734 64.4915C68.6506 65.3046 69.9243 65.6234 71.3736 65.6234V63.6234ZM68.4056 61.1034C68.4056 60.3325 68.584 59.1799 68.983 57.605L67.0442 57.1138C66.6325 58.7389 66.4056 60.0823 66.4056 61.1034H68.4056ZM68.983 57.605C69.3928 55.987 69.6216 54.6723 69.6216 53.7114H67.6216C67.6216 54.4145 67.445 55.5318 67.0442 57.1138L68.983 57.605ZM69.6216 53.7114C69.6216 52.7457 69.4263 51.8355 68.865 51.155C68.2732 50.4377 67.4238 50.1514 66.5096 50.1514V52.1514C67.0033 52.1514 67.21 52.2918 67.3222 52.4278C67.4648 52.6007 67.6216 52.9704 67.6216 53.7114H69.6216ZM66.5096 50.1514C65.6204 50.1514 64.7951 50.4234 64.1963 51.0926L65.6868 52.4262C65.8134 52.2848 66.0335 52.1514 66.5096 52.1514V50.1514ZM64.1767 51.1153C63.6997 51.6816 63.4279 52.3488 63.3688 53.0877L65.3624 53.2472C65.3886 52.9194 65.5008 52.6479 65.7065 52.4035L64.1767 51.1153ZM63.369 53.0844C63.3224 53.6441 63.3016 54.6658 63.3016 56.1114H65.3016C65.3016 54.6557 65.3234 53.7147 65.3621 53.2505L63.369 53.0844ZM63.3016 56.1114C63.3016 58.3507 63.3769 60.313 63.5297 61.9939L65.5215 61.8129C65.3756 60.2085 65.3016 58.3094 65.3016 56.1114H63.3016ZM63.5297 61.9939L63.5937 62.6979L65.5855 62.5169L65.5215 61.8129L63.5297 61.9939ZM63.5896 62.6074C63.5896 62.6633 63.579 62.6967 63.5356 62.7472C63.4756 62.8169 63.3336 62.9336 63.0299 63.0567L63.7813 64.9101C64.7577 64.5143 65.5896 63.7842 65.5896 62.6074H63.5896ZM62.9994 63.0696C62.3054 63.3781 61.7767 63.4954 61.3896 63.4954V65.4954C62.1544 65.4954 62.9698 65.2714 63.8117 64.8972L62.9994 63.0696ZM61.3896 63.4954C61.2899 63.4954 61.2258 63.489 61.19 63.483C61.1515 63.4766 61.1674 63.4743 61.2128 63.497C61.2621 63.5216 61.3591 63.583 61.4416 63.7067C61.5283 63.8367 61.5576 63.9738 61.5576 64.0794H59.5576C59.5576 64.3237 59.6215 64.5821 59.7775 64.8161C59.9294 65.0438 60.1304 65.1919 60.3184 65.2858C60.666 65.4597 61.0612 65.4954 61.3896 65.4954V63.4954ZM76.3788 55.7274H75.3788V55.7474L75.3796 55.7674L76.3788 55.7274ZM76.4108 56.5274H77.4108V56.5074L77.41 56.4874L76.4108 56.5274ZM76.6668 56.7194V57.7194H76.7136L76.7602 57.715L76.6668 56.7194ZM78.4588 56.2074L78.9351 57.0867L78.949 57.0792L78.9627 57.0712L78.4588 56.2074ZM79.6108 55.2154L80.4278 55.7921L80.4391 55.7761L80.4498 55.7596L79.6108 55.2154ZM80.4428 53.1674L79.4462 53.0844L79.4456 53.0935L80.4428 53.1674ZM80.4748 52.7834L81.4714 52.8665L81.4748 52.825V52.7834H80.4748ZM77.4348 51.9514L78.2348 52.5514L78.2418 52.5421L78.2486 52.5326L77.4348 51.9514ZM82.8428 62.1274L81.9672 61.6443L81.9613 61.6552L82.8428 62.1274ZM81.7228 63.4714L82.2875 64.2968L82.2963 64.2906L81.7228 63.4714ZM80.2828 64.1434L80.5728 65.1004L80.5769 65.0992L80.2828 64.1434ZM74.2988 62.4474L75.143 61.9114L74.2988 62.4474ZM74.5868 51.7594L73.7514 51.2098L73.7464 51.2175L74.5868 51.7594ZM83.2588 51.3434L82.3673 51.7963L82.3732 51.8081L82.3795 51.8197L83.2588 51.3434ZM83.6108 53.9034L84.5973 54.0678L84.5992 54.0555L83.6108 53.9034ZM82.1388 56.5274L81.4317 55.8203L82.1388 56.5274ZM80.1228 57.7434L79.7367 56.821H79.7367L80.1228 57.7434ZM76.8908 58.5114V59.5114H76.9424L76.9937 59.5061L76.8908 58.5114ZM76.8268 59.5994L75.8781 59.9156L75.889 59.9483L75.9022 59.9802L76.8268 59.5994ZM77.3068 60.5274L76.4748 61.0821L76.4964 61.1146L76.5205 61.1452L77.3068 60.5274ZM81.7228 60.5274L82.4052 61.2585L82.4068 61.2569L81.7228 60.5274ZM82.5548 59.3434L81.6604 58.8962L81.6521 58.9128L81.6445 58.9296L82.5548 59.3434ZM83.2268 59.4394L84.1666 59.0977L83.2268 59.4394ZM75.3796 55.7674L75.4116 56.5674L77.41 56.4874L77.378 55.6874L75.3796 55.7674ZM75.4108 56.5274C75.4108 56.8354 75.5287 57.2118 75.8748 57.4714C76.1669 57.6905 76.4853 57.7194 76.6668 57.7194V55.7194C76.6777 55.7194 76.8681 55.7164 77.0748 55.8714C77.1878 55.9561 77.2809 56.0709 77.3406 56.2053C77.3978 56.3339 77.4108 56.4494 77.4108 56.5274H75.4108ZM76.7602 57.715C77.5535 57.6407 78.2855 57.4386 78.9351 57.0867L77.9825 55.3281C77.6082 55.5309 77.1455 55.6702 76.5735 55.7238L76.7602 57.715ZM78.9627 57.0712C79.559 56.7233 80.0664 56.304 80.4278 55.7921L78.7939 54.6387C78.6432 54.8521 78.3826 55.0942 77.955 55.3436L78.9627 57.0712ZM80.4498 55.7596C81.002 54.9083 81.3795 54.0588 81.4401 53.2413L79.4456 53.0935C79.4208 53.428 79.2437 53.9438 78.7719 54.6712L80.4498 55.7596ZM81.4394 53.2505L81.4714 52.8665L79.4783 52.7004L79.4463 53.0844L81.4394 53.2505ZM81.4748 52.7834C81.4748 52.1014 81.3435 51.405 80.9131 50.8645C80.4481 50.2805 79.7798 50.0554 79.0988 50.0554V52.0554C79.2252 52.0554 79.2896 52.0754 79.3147 52.0858C79.3337 52.0938 79.3401 52.0997 79.3485 52.1103C79.3768 52.1459 79.4748 52.3134 79.4748 52.7834H81.4748ZM79.0988 50.0554C78.0657 50.0554 77.2189 50.5332 76.6211 51.3702L78.2486 52.5326C78.5041 52.1749 78.7666 52.0554 79.0988 52.0554V50.0554ZM76.6348 51.3514C75.7627 52.5142 75.3788 54.0064 75.3788 55.7274H77.3788C77.3788 54.2911 77.699 53.2659 78.2348 52.5514L76.6348 51.3514ZM82.3548 59.9834C82.3548 60.6503 82.2156 61.1942 81.9673 61.6443L83.7184 62.6105C84.1527 61.8233 84.3548 60.9379 84.3548 59.9834H82.3548ZM81.9613 61.6552C81.6939 62.1545 81.4148 62.4663 81.1494 62.6522L82.2963 64.2906C82.8842 63.8791 83.3518 63.295 83.7243 62.5996L81.9613 61.6552ZM81.1581 62.6461C80.8494 62.8573 80.4641 63.0414 79.9887 63.1876L80.5769 65.0992C81.2109 64.9041 81.7856 64.6401 82.2875 64.2967L81.1581 62.6461ZM79.9928 63.1864C79.3691 63.3754 78.7952 63.4634 78.2668 63.4634V65.4634C79.0185 65.4634 79.7886 65.3381 80.5728 65.1004L79.9928 63.1864ZM78.2668 63.4634C76.7662 63.4634 75.7872 62.926 75.143 61.9114L73.4546 62.9834C74.5171 64.6568 76.1834 65.4634 78.2668 65.4634V63.4634ZM75.143 61.9114C74.4178 60.7692 74.0188 59.2629 74.0188 57.3274H72.0188C72.0188 59.5306 72.4732 61.4377 73.4546 62.9834L75.143 61.9114ZM74.0188 57.3274C74.0188 55.4122 74.4948 53.7475 75.4273 52.3013L73.7464 51.2175C72.5882 53.014 72.0188 55.0613 72.0188 57.3274H74.0188ZM75.4222 52.309C76.2854 50.997 77.5441 50.3274 79.3548 50.3274V48.3274C76.9415 48.3274 75.0216 49.2791 73.7514 51.2098L75.4222 52.309ZM79.3548 50.3274C81.0205 50.3274 81.9041 50.8845 82.3673 51.7963L84.1504 50.8905C83.2482 49.1143 81.5292 48.3274 79.3548 48.3274V50.3274ZM82.3795 51.8197C82.5964 52.2201 82.6748 52.5478 82.6748 52.8154H84.6748C84.6748 52.1443 84.4759 51.4907 84.1381 50.8671L82.3795 51.8197ZM82.6748 52.8154C82.6748 53.2387 82.6542 53.5449 82.6225 53.7513L84.5992 54.0555C84.6528 53.7073 84.6748 53.2881 84.6748 52.8154H82.6748ZM82.6244 53.739C82.6071 53.8428 82.5151 54.126 82.2613 54.6547L84.0644 55.5201C84.3226 54.9821 84.5292 54.476 84.5972 54.0678L82.6244 53.739ZM82.2613 54.6547C82.0551 55.0842 81.7802 55.4718 81.4317 55.8203L82.8459 57.2345C83.3508 56.7296 83.7585 56.1573 84.0644 55.5201L82.2613 54.6547ZM81.4317 55.8203C81.1376 56.1144 80.6018 56.4588 79.7367 56.821L80.509 58.6658C81.4785 58.26 82.2867 57.7938 82.8459 57.2345L81.4317 55.8203ZM79.7367 56.821C78.9291 57.159 77.9511 57.3964 76.7879 57.5167L76.9937 59.5061C78.3052 59.3704 79.4819 59.0958 80.509 58.6658L79.7367 56.821ZM76.8908 57.5114C76.6817 57.5114 76.3381 57.5543 76.0403 57.8148C75.717 58.0977 75.6348 58.4693 75.6348 58.7354H77.6348C77.6348 58.8522 77.5953 59.1118 77.3573 59.32C77.1449 59.5059 76.9293 59.5114 76.8908 59.5114V57.5114ZM75.6348 58.7354C75.6348 59.099 75.7452 59.5169 75.8781 59.9156L77.7755 59.2832C77.7187 59.1127 77.6814 58.9792 77.659 58.8785C77.6354 58.7721 77.6348 58.7306 77.6348 58.7354H75.6348ZM75.9022 59.9802C76.0701 60.388 76.2592 60.7588 76.4748 61.0821L78.1389 59.9727C78.0131 59.784 77.8822 59.5361 77.7515 59.2187L75.9022 59.9802ZM76.5205 61.1452C77.2193 62.0346 78.2335 62.4234 79.3868 62.4234V60.4234C78.7055 60.4234 78.333 60.2149 78.0931 59.9096L76.5205 61.1452ZM79.3868 62.4234C80.5441 62.4234 81.5704 62.0375 82.4051 61.2585L81.0405 59.7964C80.5952 60.212 80.0642 60.4234 79.3868 60.4234V62.4234ZM82.4068 61.2569C82.8528 60.8388 83.2033 60.3334 83.4652 59.7572L81.6445 58.9296C81.4797 59.2921 81.2755 59.576 81.0389 59.7979L82.4068 61.2569ZM83.4493 59.7906C83.4487 59.7917 83.4409 59.8073 83.4228 59.8314C83.4046 59.8557 83.3728 59.8929 83.3235 59.9323C83.2123 60.0212 83.0537 60.0874 82.8748 60.0874V58.0874C82.1972 58.0874 81.8221 58.5728 81.6604 58.8962L83.4493 59.7906ZM82.8748 60.0874C82.7771 60.0874 82.6749 60.0673 82.5781 60.0247C82.4833 59.983 82.414 59.9288 82.3677 59.8825C82.2843 59.7991 82.2714 59.738 82.287 59.7812L84.1666 59.0977C84.0462 58.7664 83.6919 58.0874 82.8748 58.0874V60.0874ZM82.287 59.7812C82.3205 59.8731 82.3395 59.9383 82.3494 59.9804C82.3603 60.0268 82.3548 60.0227 82.3548 59.9834H84.3548C84.3548 59.6745 84.2613 59.3581 84.1666 59.0977L82.287 59.7812ZM94.5676 55.2794L93.5697 55.2138L93.5638 55.3036L93.5741 55.393L94.5676 55.2794ZM94.6956 56.3994H95.6956V56.3424L95.6891 56.2859L94.6956 56.3994ZM91.4316 54.0954L92.3883 54.3866L91.4316 54.0954ZM91.3356 51.8874L90.543 52.4971L90.5549 52.5126L90.5674 52.5276L91.3356 51.8874ZM89.3516 51.9194L88.6445 51.2123V51.2123L89.3516 51.9194ZM88.8396 52.7834L89.8011 53.0581L89.8103 53.0258L89.8174 52.9929L88.8396 52.7834ZM88.7116 53.2314L87.7501 52.9567L87.7381 52.9986L87.7298 53.0414L88.7116 53.2314ZM88.5836 60.2074L87.5847 60.255L87.5848 60.2561L88.5836 60.2074ZM88.7116 62.0314L87.7193 62.1554L87.7204 62.1636L88.7116 62.0314ZM87.7836 63.8874L87.348 62.9872L87.3364 62.9929L87.3249 62.9988L87.7836 63.8874ZM84.8076 63.9834L83.8203 63.8242L83.8076 63.9033V63.9834H84.8076ZM84.9676 62.9914L85.9548 63.1506L85.9549 63.1503L84.9676 62.9914ZM85.0956 49.6474H84.0956V49.7464L84.115 49.8435L85.0956 49.6474ZM88.0716 50.4474L89.0417 50.2049L89.0164 50.1037L88.9708 50.0099L88.0716 50.4474ZM88.6156 50.2874L87.9823 49.5134L88.6156 50.2874ZM92.9036 49.7754L93.2778 48.848L93.2692 48.8447L92.9036 49.7754ZM94.7276 52.8474L95.7254 52.9131L95.7276 52.8803V52.8474H94.7276ZM93.5741 55.393L93.702 56.513L95.6891 56.2859L95.5611 55.1659L93.5741 55.393ZM93.6956 56.3994C93.6956 56.3365 93.7127 56.2349 93.7781 56.1314C93.8411 56.0316 93.9142 55.9851 93.9408 55.971C93.9625 55.9596 93.949 55.9714 93.8743 55.9845C93.802 55.9972 93.6944 56.0074 93.5436 56.0074V58.0074C93.9829 58.0074 94.4667 57.9549 94.8743 57.7398C95.093 57.6244 95.31 57.4512 95.4691 57.1994C95.6305 56.9439 95.6956 56.665 95.6956 56.3994H93.6956ZM93.5436 56.0074C92.8618 56.0074 92.533 55.874 92.3933 55.7687C92.307 55.7037 92.2076 55.5918 92.2076 55.2474H90.2076C90.2076 56.0764 90.4975 56.8445 91.1898 57.3661C91.8288 57.8475 92.668 58.0074 93.5436 58.0074V56.0074ZM92.2076 55.2474C92.2076 55.1196 92.2477 54.8485 92.3883 54.3866L90.4749 53.8042C90.3168 54.3236 90.2076 54.8206 90.2076 55.2474H92.2076ZM92.3883 54.3866C92.5554 53.8373 92.6556 53.3082 92.6556 52.8154H90.6556C90.6556 53.048 90.6064 53.3722 90.4749 53.8042L92.3883 54.3866ZM92.6556 52.8154C92.6556 52.241 92.4805 51.6993 92.1038 51.2472L90.5674 52.5276C90.6173 52.5876 90.6556 52.6645 90.6556 52.8154H92.6556ZM92.1282 51.2777C91.694 50.7133 91.0677 50.4714 90.4076 50.4714V52.4714C90.4964 52.4714 90.5312 52.4864 90.5345 52.4879C90.5366 52.4889 90.536 52.4887 90.5348 52.4878C90.5338 52.487 90.5367 52.489 90.543 52.4971L92.1282 51.2777ZM90.4076 50.4714C89.7248 50.4714 89.1219 50.7349 88.6445 51.2123L90.0587 52.6265C90.1786 52.5066 90.2796 52.4714 90.4076 52.4714V50.4714ZM88.6445 51.2123C88.2692 51.5876 87.9762 52.0399 87.8618 52.5739L89.8174 52.9929C89.831 52.9295 89.8793 52.8059 90.0587 52.6265L88.6445 51.2123ZM87.8781 52.5087L87.7501 52.9567L89.6731 53.5061L89.8011 53.0581L87.8781 52.5087ZM87.7298 53.0414C87.5819 53.8054 87.5196 54.9992 87.5196 56.5594H89.5196C89.5196 55.0049 89.5852 53.9801 89.6934 53.4214L87.7298 53.0414ZM87.5196 56.5594C87.5196 58.1018 87.5409 59.3359 87.5847 60.255L89.5824 60.1598C89.5409 59.2869 89.5196 58.089 89.5196 56.5594H87.5196ZM87.5848 60.2561C87.6274 61.1292 87.6714 61.772 87.7193 62.1554L89.7039 61.9074C89.6665 61.6081 89.6251 61.0349 89.5824 60.1587L87.5848 60.2561ZM87.7204 62.1636C87.7413 62.3204 87.7562 62.4403 87.7657 62.5258C87.7705 62.5688 87.7734 62.5989 87.775 62.6185C87.7772 62.6445 87.7756 62.6346 87.7756 62.6074H89.7756C89.7756 62.4597 89.7409 62.1846 89.7028 61.8992L87.7204 62.1636ZM87.7756 62.6074C87.7756 62.6494 87.7684 62.6745 87.7372 62.7148C87.6941 62.7704 87.5874 62.8714 87.348 62.9872L88.2191 64.7876C89.0742 64.3738 89.7756 63.6678 89.7756 62.6074H87.7756ZM87.3249 62.9988C86.7874 63.2762 86.2823 63.3994 85.7996 63.3994V65.3994C86.6396 65.3994 87.4571 65.1813 88.2422 64.776L87.3249 62.9988ZM85.7996 63.3994C85.6668 63.3994 85.5703 63.3923 85.504 63.383C85.4344 63.3733 85.4211 63.3643 85.4423 63.3732C85.4628 63.3818 85.5588 63.4254 85.6524 63.5432C85.7582 63.6763 85.8076 63.8374 85.8076 63.9834H83.8076C83.8076 64.2681 83.8983 64.5506 84.0868 64.7877C84.263 65.0094 84.483 65.1397 84.6689 65.2176C85.0203 65.365 85.4292 65.3994 85.7996 65.3994V63.3994ZM85.7948 64.1426L85.9548 63.1506L83.9803 62.8322L83.8203 63.8242L85.7948 64.1426ZM85.9549 63.1503C86.2654 61.2205 86.4156 58.7402 86.4156 55.7274H84.4156C84.4156 58.6879 84.2671 61.0503 83.9803 62.8325L85.9549 63.1503ZM86.4156 55.7274C86.4156 52.751 86.3117 50.629 86.0762 49.4513L84.115 49.8435C84.3061 50.7992 84.4156 52.7304 84.4156 55.7274H86.4156ZM86.0956 49.6474C86.0956 49.7332 86.0754 49.8564 86.0014 49.9833C85.9276 50.1098 85.8314 50.1867 85.7597 50.2276C85.6942 50.2651 85.6521 50.2714 85.6607 50.2697C85.6675 50.2685 85.7003 50.2634 85.7676 50.2634V48.2634C85.4811 48.2634 85.1045 48.2986 84.7674 48.4912C84.3469 48.7315 84.0956 49.1571 84.0956 49.6474H86.0956ZM85.7676 50.2634C86.6783 50.2634 87.0098 50.5507 87.1723 50.8849L88.9708 50.0099C88.3654 48.7654 87.1609 48.2634 85.7676 48.2634V50.2634ZM87.1014 50.6899C87.1261 50.7887 87.1802 50.9682 87.3116 51.1434C87.4641 51.3467 87.7534 51.5754 88.1676 51.5754V49.5754C88.5391 49.5754 88.7911 49.7828 88.9116 49.9434C89.011 50.0759 89.0384 50.1915 89.0417 50.2049L87.1014 50.6899ZM88.1676 51.5754C88.3981 51.5754 88.5756 51.4992 88.6419 51.4693C88.7305 51.4295 88.8083 51.3832 88.8683 51.3446C88.9897 51.2666 89.1195 51.1672 89.2488 51.0614L87.9823 49.5134C87.9319 49.5547 87.8899 49.5877 87.8556 49.6134C87.8206 49.6396 87.7983 49.6548 87.7868 49.6622C87.7722 49.6716 87.786 49.6613 87.8212 49.6455C87.8397 49.6372 87.8755 49.6221 87.9248 49.6083C87.9711 49.5952 88.0565 49.5754 88.1676 49.5754V51.5754ZM89.2488 51.0614C89.7638 50.6401 90.3686 50.4234 91.1116 50.4234V48.4234C89.9345 48.4234 88.8754 48.7828 87.9823 49.5134L89.2488 51.0614ZM91.1116 50.4234C91.5747 50.4234 92.0483 50.5138 92.5379 50.7062L93.2692 48.8447C92.5642 48.5677 91.8431 48.4234 91.1116 48.4234V50.4234ZM92.5294 50.7028C92.9559 50.8749 93.231 51.1175 93.4117 51.4219C93.5999 51.7389 93.7276 52.1945 93.7276 52.8474H95.7276C95.7276 51.943 95.5513 51.108 95.1314 50.4009C94.7042 49.6813 94.0672 49.1666 93.2778 48.8481L92.5294 50.7028ZM93.7297 52.7818L93.5697 55.2138L95.5654 55.3451L95.7254 52.9131L93.7297 52.7818ZM106.121 54.2554L107.12 54.271L107.121 54.2632V54.2554H106.121ZM106.057 58.3514L105.057 58.3358L105.057 58.3436V58.3514H106.057ZM106.985 63.4714L107.692 62.7643L107.679 62.7517L107.666 62.7395L106.985 63.4714ZM102.857 63.0234L103.851 62.9187L103.85 62.913L102.857 63.0234ZM102.825 61.8394L101.825 61.8144L101.825 61.8269V61.8394H102.825ZM102.953 56.7194L103.952 56.7444L103.953 56.7319V56.7194H102.953ZM99.8166 57.3594L100.357 58.2006L99.8166 57.3594ZM98.8566 60.7514L99.6375 60.1267L98.8566 60.7514ZM100.713 61.0074L100.209 60.1436L100.192 60.1534L100.176 60.1637L100.713 61.0074ZM101.161 60.7514L101.277 59.7583L100.981 59.7233L100.713 59.857L101.161 60.7514ZM100.713 63.6314L101.255 64.4717L101.264 64.4656L101.273 64.4593L100.713 63.6314ZM96.7446 63.8874L96.2974 64.7818L96.3046 64.7854L96.3119 64.7889L96.7446 63.8874ZM95.6246 63.0234L96.431 62.432L95.6246 63.0234ZM95.0486 61.9354L94.0919 62.2266L94.1003 62.2541L94.1102 62.2811L95.0486 61.9354ZM96.2326 57.0714L95.5421 56.3481L96.2326 57.0714ZM99.8486 55.1514L99.6545 54.1704L99.6251 54.1762L99.5962 54.1838L99.8486 55.1514ZM102.889 54.0954L101.924 53.8323L101.922 53.8377L102.889 54.0954ZM99.9446 51.6954L100.559 52.4848L100.572 52.4744L100.585 52.4636L99.9446 51.6954ZM99.3686 52.8474H98.3686V52.9705L98.3984 53.0899L99.3686 52.8474ZM99.5606 53.6154L100.554 53.7322L100.575 53.5505L100.531 53.3729L99.5606 53.6154ZM98.4086 54.2554L98.3207 53.2593L98.318 53.2595L98.4086 54.2554ZM98.0566 54.2874V55.2874H98.1019L98.1471 55.2833L98.0566 54.2874ZM96.5206 53.8074L95.859 54.5572L95.8695 54.5666L95.8804 54.5756L96.5206 53.8074ZM96.2966 51.4074L95.4204 50.9255L95.4159 50.9335L95.4117 50.9417L96.2966 51.4074ZM97.1606 50.3834L96.5606 49.5834V49.5834L97.1606 50.3834ZM98.7286 49.7114L98.9917 50.6762L99.0013 50.6736L99.0107 50.6708L98.7286 49.7114ZM102.345 49.4554L102.228 50.4486L102.345 49.4554ZM103.817 49.7754L103.551 50.7394L103.57 50.7447L103.589 50.7492L103.817 49.7754ZM105.385 50.6714L104.643 51.3423L104.652 51.3518L104.66 51.3611L105.385 50.6714ZM106.057 52.1114L105.057 52.153L105.058 52.1756L105.06 52.198L106.057 52.1114ZM105.121 54.2398L105.057 58.3358L107.056 58.367L107.12 54.271L105.121 54.2398ZM105.057 58.3514C105.057 59.7974 105.135 61.0005 105.305 61.9378C105.464 62.819 105.739 63.678 106.303 64.2033L107.666 62.7395C107.612 62.6888 107.422 62.4065 107.273 61.5811C107.133 60.8117 107.057 59.7428 107.057 58.3514H105.057ZM106.277 64.1785C106.246 64.1471 106.202 64.0931 106.167 64.0135C106.13 63.9317 106.113 63.8438 106.113 63.7594H108.113C108.113 63.3518 107.938 63.0103 107.692 62.7643L106.277 64.1785ZM106.113 63.7594C106.113 63.4108 106.325 63.2084 106.413 63.1472C106.478 63.1021 106.491 63.1166 106.368 63.145C106.135 63.1987 105.707 63.2394 105.033 63.2394V65.2394C105.745 65.2394 106.357 65.2001 106.817 65.0938C107.041 65.0422 107.313 64.9567 107.552 64.7916C107.814 64.6104 108.113 64.268 108.113 63.7594H106.113ZM105.033 63.2394C104.423 63.2394 104.099 63.1445 103.952 63.0625C103.89 63.0278 103.875 63.0038 103.873 63.0007C103.871 62.9983 103.857 62.9793 103.851 62.9187L101.862 63.1281C101.94 63.864 102.337 64.4508 102.977 64.8084C103.555 65.1317 104.277 65.2394 105.033 65.2394V63.2394ZM103.85 62.913C103.836 62.7856 103.825 62.4473 103.825 61.8394H101.825C101.825 62.4262 101.834 62.8772 101.863 63.1338L103.85 62.913ZM103.824 61.8644L103.952 56.7444L101.953 56.6944L101.825 61.8144L103.824 61.8644ZM103.953 56.7194C103.953 56.4533 103.87 56.0817 103.547 55.7988C103.249 55.5383 102.906 55.4954 102.697 55.4954V57.4954C102.658 57.4954 102.443 57.4899 102.23 57.304C101.992 57.0958 101.953 56.8362 101.953 56.7194H103.953ZM102.697 55.4954C101.473 55.4954 100.326 55.8429 99.2758 56.5182L100.357 58.2006C101.099 57.7239 101.872 57.4954 102.697 57.4954V55.4954ZM99.2758 56.5182C98.1563 57.2379 97.4726 58.2628 97.4726 59.5674H99.4726C99.4726 59.0801 99.6849 58.6329 100.357 58.2006L99.2758 56.5182ZM97.4726 59.5674C97.4726 60.2291 97.6576 60.8535 98.0757 61.3761L99.6375 60.1267C99.5435 60.0093 99.4726 59.8444 99.4726 59.5674H97.4726ZM98.0757 61.3761C98.4936 61.8984 99.0761 62.2314 99.7846 62.2314V60.2314C99.7563 60.2314 99.7467 60.2267 99.74 60.2232C99.7298 60.2179 99.6932 60.1964 99.6375 60.1267L98.0757 61.3761ZM99.7846 62.2314C100.289 62.2314 100.804 62.1344 101.249 61.8511L100.176 60.1637C100.152 60.1791 100.048 60.2314 99.7846 60.2314V62.2314ZM101.216 61.8712C101.343 61.7971 101.442 61.7402 101.513 61.6996C101.548 61.6793 101.575 61.6642 101.594 61.6536C101.618 61.6406 101.618 61.6406 101.608 61.6458L100.713 59.857C100.634 59.8968 100.447 60.0048 100.209 60.1436L101.216 61.8712ZM101.044 61.7446C100.963 61.735 100.866 61.7009 100.781 61.6343C100.702 61.5722 100.671 61.5115 100.664 61.4984C100.659 61.488 100.672 61.5103 100.684 61.5847C100.696 61.6573 100.705 61.7615 100.705 61.9034H102.705C102.705 61.4835 102.656 61.0328 102.473 60.6444C102.263 60.2002 101.862 59.827 101.277 59.7583L101.044 61.7446ZM100.705 61.9034C100.705 62.2268 100.582 62.5123 100.152 62.8035L101.273 64.4593C102.166 63.8545 102.705 62.988 102.705 61.9034H100.705ZM100.17 62.7911C99.6564 63.1228 99.1492 63.2714 98.6326 63.2714V65.2714C99.5666 65.2714 100.446 64.9934 101.255 64.4717L100.17 62.7911ZM98.6326 63.2714C98.0238 63.2714 97.5486 63.1641 97.1773 62.9859L96.3119 64.7889C97.0073 65.1227 97.7906 65.2714 98.6326 65.2714V63.2714ZM97.1918 62.993C96.7634 62.7788 96.5394 62.5799 96.431 62.432L94.8182 63.6148C95.1791 64.1069 95.7018 64.4841 96.2974 64.7818L97.1918 62.993ZM96.431 62.432C96.2562 62.1937 96.1068 61.9151 95.9869 61.5897L94.1102 62.2811C94.289 62.7664 94.5236 63.2131 94.8182 63.6148L96.431 62.432ZM96.0053 61.6442C95.8738 61.2122 95.8246 60.888 95.8246 60.6554H93.8246C93.8246 61.1482 93.9247 61.6773 94.0919 62.2266L96.0053 61.6442ZM95.8246 60.6554C95.8246 59.3903 96.2124 58.4731 96.9231 57.7948L95.5421 56.3481C94.3754 57.4617 93.8246 58.9338 93.8246 60.6554H95.8246ZM96.9231 57.7948C97.7192 57.0348 98.7649 56.4676 100.101 56.119L99.5962 54.1838C97.9882 54.6033 96.6233 55.316 95.5421 56.3481L96.9231 57.7948ZM100.043 56.1324C101.028 55.9376 101.82 55.743 102.393 55.544C102.675 55.4459 102.947 55.3323 103.172 55.1945C103.348 55.0871 103.728 54.8297 103.855 54.3531L101.922 53.8377C102.007 53.5211 102.228 53.4277 102.129 53.4883C102.079 53.5185 101.96 53.577 101.736 53.6548C101.296 53.8078 100.611 53.9813 99.6545 54.1704L100.043 56.1324ZM103.853 54.3585C103.956 53.9836 103.985 53.471 103.985 52.9114H101.985C101.985 53.4611 101.95 53.7379 101.924 53.8323L103.853 54.3585ZM103.985 52.9114C103.985 52.1871 103.799 51.4613 103.253 50.9257C102.711 50.3935 101.982 50.2154 101.257 50.2154V52.2154C101.683 52.2154 101.818 52.32 101.852 52.3531C101.882 52.3828 101.985 52.505 101.985 52.9114H103.985ZM101.257 50.2154C100.527 50.2154 99.8644 50.4605 99.3044 50.9272L100.585 52.4636C100.793 52.2903 101.005 52.2154 101.257 52.2154V50.2154ZM99.3306 50.9061C98.7134 51.3861 98.3686 52.0566 98.3686 52.8474H100.369C100.369 52.6996 100.408 52.602 100.559 52.4848L99.3306 50.9061ZM98.3984 53.0899L98.5904 53.8579L100.531 53.3729L100.339 52.6049L98.3984 53.0899ZM98.5674 53.4986C98.5767 53.4194 98.6085 53.3351 98.661 53.2642C98.7095 53.1988 98.7538 53.1739 98.7549 53.1733C98.7557 53.1728 98.7481 53.1771 98.7295 53.1841C98.7108 53.1911 98.6836 53.1999 98.646 53.2093C98.5697 53.2283 98.4632 53.2467 98.3207 53.2593L98.4965 55.2515C98.9186 55.2143 99.3568 55.1268 99.7262 54.9216C100.135 54.6946 100.487 54.2998 100.554 53.7322L98.5674 53.4986ZM98.318 53.2595L97.966 53.2915L98.1471 55.2833L98.4991 55.2513L98.318 53.2595ZM98.0566 53.2874C97.5836 53.2874 97.3196 53.1715 97.1608 53.0392L95.8804 54.5756C96.4896 55.0833 97.2496 55.2874 98.0566 55.2874V53.2874ZM97.1822 53.0576C97.0583 52.9482 96.9766 52.8068 96.9766 52.5274H94.9766C94.9766 53.3146 95.2576 54.0266 95.859 54.5572L97.1822 53.0576ZM96.9766 52.5274C96.9766 52.3943 97.019 52.1819 97.1815 51.8732L95.4117 50.9417C95.1475 51.4436 94.9766 51.9779 94.9766 52.5274H96.9766ZM97.1728 51.8893C97.3487 51.5695 97.5479 51.3429 97.7606 51.1834L96.5606 49.5834C96.0906 49.9359 95.7138 50.3919 95.4204 50.9255L97.1728 51.8893ZM97.7606 51.1834C97.9539 51.0384 98.3354 50.8552 98.9917 50.6762L98.4655 48.7466C97.7138 48.9516 97.05 49.2164 96.5606 49.5834L97.7606 51.1834ZM99.0107 50.6708C99.6573 50.4806 100.255 50.3914 100.809 50.3914V48.3914C100.039 48.3914 99.2505 48.5155 98.4464 48.752L99.0107 50.6708ZM100.809 50.3914C101.457 50.3914 101.923 50.4127 102.228 50.4486L102.461 48.4623C102.041 48.4128 101.483 48.3914 100.809 48.3914V50.3914ZM102.228 50.4486C102.516 50.4825 102.95 50.5738 103.551 50.7394L104.083 48.8114C103.446 48.6357 102.898 48.5137 102.461 48.4623L102.228 50.4486ZM103.589 50.7492C104.049 50.8566 104.386 51.0586 104.643 51.3423L106.126 50.0005C105.572 49.3882 104.864 48.9929 104.044 48.8016L103.589 50.7492ZM104.66 51.3611C104.956 51.6716 105.048 51.9311 105.057 52.153L107.056 52.0698C107.022 51.2677 106.666 50.5672 106.109 49.9818L104.66 51.3611ZM105.06 52.198C105.099 52.6447 105.121 53.3248 105.121 54.2554H107.121C107.121 53.3087 107.099 52.5594 107.053 52.0248L105.06 52.198ZM107.578 51.3754L106.58 51.3006L106.571 51.4283L106.594 51.5543L107.578 51.3754ZM107.674 50.0954L106.68 49.985L106.678 50.0028L106.676 50.0206L107.674 50.0954ZM109.242 49.8074V50.8074H110.293L110.24 49.7575L109.242 49.8074ZM109.114 47.2474H108.114V47.2724L108.115 47.2973L109.114 47.2474ZM110.234 45.7114L109.719 44.8539V44.8539L110.234 45.7114ZM112.57 45.3274L113.559 45.474L113.57 45.4011V45.3274H112.57ZM112.314 49.7754L111.314 49.7397L111.277 50.7754H112.314V49.7754ZM114.394 51.0234L115.247 51.5449L115.253 51.5347L115.259 51.5244L114.394 51.0234ZM113.626 51.6314V52.6314H113.664L113.702 52.6285L113.626 51.6314ZM112.282 51.6314V50.6314H111.311L111.282 51.602L112.282 51.6314ZM112.282 59.5354L111.282 59.5546L111.282 59.5642L111.282 59.5738L112.282 59.5354ZM112.41 62.0634L111.412 62.1373L111.413 62.1401L112.41 62.0634ZM112.538 63.4074L111.545 63.5314L111.549 63.5617L111.555 63.5917L112.538 63.4074ZM112.666 64.1434L111.676 64.2848L111.685 64.3524L111.704 64.4181L112.666 64.1434ZM112.314 64.7834V65.7834H112.352L112.39 65.7805L112.314 64.7834ZM109.818 64.4314L109.54 65.392L109.546 65.3939L109.818 64.4314ZM108.602 63.2154L107.609 63.0914L107.602 63.1532V63.2154H108.602ZM109.274 51.6634H110.274V50.6634H109.274V51.6634ZM107.962 51.7274V52.7274H108.033L108.103 52.7174L107.962 51.7274ZM108.575 51.4502L108.671 50.1702L106.676 50.0206L106.58 51.3006L108.575 51.4502ZM108.667 50.2058C108.66 50.2773 108.635 50.3756 108.574 50.4792C108.511 50.5851 108.428 50.6657 108.342 50.7206C108.189 50.8193 108.076 50.8074 108.122 50.8074V48.8074C107.89 48.8074 107.564 48.8435 107.261 49.0382C106.908 49.2648 106.72 49.6197 106.68 49.985L108.667 50.2058ZM108.122 50.8074H109.242V48.8074H108.122V50.8074ZM110.24 49.7575L110.112 47.1975L108.115 47.2973L108.243 49.8573L110.24 49.7575ZM110.114 47.2474V47.1194H108.114V47.2474H110.114ZM110.114 47.1194C110.114 47.147 110.098 47.1201 110.176 47.0219C110.263 46.9131 110.435 46.7567 110.748 46.5689L109.719 44.8539C108.905 45.3425 108.114 46.0714 108.114 47.1194H110.114ZM110.748 46.5689C111.4 46.178 111.903 46.0394 112.282 46.0394V44.0394C111.422 44.0394 110.561 44.3488 109.719 44.8539L110.748 46.5689ZM112.282 46.0394C112.251 46.0394 112.04 46.0351 111.833 45.8508C111.603 45.6466 111.57 45.3967 111.57 45.2954H113.57C113.57 45.0234 113.488 44.6455 113.162 44.356C112.859 44.0864 112.505 44.0394 112.282 44.0394V46.0394ZM111.57 45.2954V45.3274H113.57V45.2954H111.57ZM111.58 45.1809C111.485 45.8247 111.399 47.3723 111.314 49.7397L113.313 49.8111C113.399 47.3999 113.484 45.9821 113.559 45.474L111.58 45.1809ZM112.314 50.7754C113.227 50.7754 113.915 50.7569 114.27 50.6978L113.941 48.725C113.784 48.7512 113.278 48.7754 112.314 48.7754V50.7754ZM114.27 50.6978C114.397 50.6767 114.491 50.6615 114.554 50.6518C114.586 50.6468 114.605 50.644 114.616 50.6426C114.621 50.6419 114.619 50.6422 114.613 50.6429C114.609 50.6433 114.601 50.6441 114.59 50.6449C114.582 50.6455 114.556 50.6474 114.522 50.6474V48.6474C114.461 48.6474 114.41 48.6532 114.403 48.6539C114.384 48.6559 114.366 48.6582 114.351 48.6602C114.322 48.6641 114.287 48.6693 114.25 48.675C114.174 48.6867 114.07 48.7035 113.941 48.725L114.27 50.6978ZM114.522 50.6474C114.413 50.6474 114.269 50.6228 114.123 50.5396C113.978 50.4563 113.882 50.344 113.826 50.2473C113.731 50.084 113.746 49.9679 113.746 50.0314H115.746C115.746 49.8389 115.723 49.5309 115.553 49.2395C115.335 48.8654 114.949 48.6474 114.522 48.6474V50.6474ZM113.746 50.0314C113.746 50.0119 113.749 50.0421 113.715 50.137C113.682 50.2291 113.624 50.3564 113.528 50.5224L115.259 51.5244C115.52 51.0744 115.746 50.5559 115.746 50.0314H113.746ZM113.54 50.502C113.503 50.563 113.471 50.6063 113.447 50.6359C113.422 50.6655 113.407 50.6775 113.405 50.6794C113.403 50.6808 113.415 50.6708 113.442 50.6594C113.471 50.6476 113.507 50.6376 113.549 50.6344L113.702 52.6285C114.458 52.5704 114.949 52.0318 115.247 51.5449L113.54 50.502ZM113.626 50.6314H112.282V52.6314H113.626V50.6314ZM111.282 51.602C111.26 52.3435 111.25 53.5833 111.25 55.3114H113.25C113.25 53.5836 113.26 52.37 113.281 51.6608L111.282 51.602ZM111.25 55.3114C111.25 57.0215 111.26 58.4365 111.282 59.5546L113.281 59.5162C113.26 58.4157 113.25 57.0147 113.25 55.3114H111.25ZM111.282 59.5738C111.325 60.6864 111.368 61.5432 111.412 62.1373L113.407 61.9895C113.366 61.4316 113.323 60.6031 113.281 59.497L111.282 59.5738ZM111.413 62.1401C111.456 62.7022 111.5 63.1678 111.545 63.5314L113.53 63.2834C113.49 62.9643 113.449 62.5339 113.407 61.9867L111.413 62.1401ZM111.555 63.5917C111.619 63.9322 111.658 64.1589 111.676 64.2848L113.656 64.002C113.631 63.8292 113.585 63.5652 113.52 63.2231L111.555 63.5917ZM111.704 64.4181C111.713 64.4496 111.72 64.4761 111.726 64.4978C111.732 64.5199 111.735 64.535 111.737 64.5443C111.738 64.5488 111.739 64.5509 111.739 64.5509C111.739 64.5509 111.739 64.5501 111.738 64.5486C111.738 64.5471 111.738 64.5447 111.737 64.5415C111.736 64.5355 111.735 64.5238 111.733 64.5077C111.732 64.4994 111.731 64.489 111.731 64.4768C111.73 64.4646 111.73 64.4493 111.73 64.4314H113.73C113.73 64.2905 113.701 64.1618 113.69 64.1105C113.673 64.0353 113.651 63.9529 113.627 63.8687L111.704 64.4181ZM111.73 64.4314C111.73 64.3767 111.739 64.2887 111.781 64.1867C111.826 64.0804 111.895 63.9873 111.98 63.916C112.136 63.784 112.27 63.7838 112.237 63.7864L112.39 65.7805C112.634 65.7617 112.977 65.6921 113.272 65.4428C113.605 65.1602 113.73 64.7754 113.73 64.4314H111.73ZM112.314 63.7834C111.577 63.7834 110.836 63.6797 110.089 63.469L109.546 65.3939C110.463 65.6525 111.386 65.7834 112.314 65.7834V63.7834ZM110.096 63.4708C109.781 63.3799 109.653 63.2844 109.613 63.2443C109.597 63.2286 109.598 63.2252 109.602 63.2336C109.605 63.242 109.602 63.2396 109.602 63.2154H107.602C107.602 63.7672 107.807 64.2673 108.198 64.6585C108.564 65.0237 109.043 65.2483 109.54 65.392L110.096 63.4708ZM109.594 63.3394C110.048 59.7091 110.274 55.8166 110.274 51.6634H108.274C108.274 55.7449 108.052 59.5537 107.609 63.0914L109.594 63.3394ZM109.274 50.6634C108.685 50.6634 108.19 50.6846 107.82 50.7375L108.103 52.7174C108.33 52.6849 108.711 52.6634 109.274 52.6634V50.6634ZM107.962 50.7274H107.93V52.7274H107.962V50.7274ZM107.93 50.7274C108.054 50.7274 108.246 50.7738 108.405 50.9323C108.473 51.0005 108.512 51.0681 108.534 51.1156C108.555 51.1616 108.561 51.1922 108.561 51.1965L106.594 51.5543C106.636 51.7879 106.738 52.0937 106.99 52.3465C107.266 52.6224 107.613 52.7274 107.93 52.7274V50.7274ZM117.941 55.7274H116.941V55.7474L116.942 55.7674L117.941 55.7274ZM117.973 56.5274H118.973V56.5074L118.973 56.4874L117.973 56.5274ZM118.229 56.7194V57.7194H118.276L118.323 57.715L118.229 56.7194ZM120.021 56.2074L120.498 57.0867L120.512 57.0792L120.525 57.0712L120.021 56.2074ZM121.173 55.2154L121.99 55.7921L122.002 55.7761L122.012 55.7596L121.173 55.2154ZM122.005 53.1674L121.009 53.0844L121.008 53.0935L122.005 53.1674ZM122.037 52.7834L123.034 52.8665L123.037 52.825V52.7834H122.037ZM118.997 51.9514L119.797 52.5514L119.804 52.5421L119.811 52.5326L118.997 51.9514ZM124.405 62.1274L123.53 61.6443L123.524 61.6552L124.405 62.1274ZM123.285 63.4714L123.85 64.2968L123.859 64.2906L123.285 63.4714ZM121.845 64.1434L122.135 65.1004L122.139 65.0992L121.845 64.1434ZM115.861 62.4474L116.706 61.9114L115.861 62.4474ZM116.149 51.7594L115.314 51.2098L115.309 51.2175L116.149 51.7594ZM124.821 51.3434L123.93 51.7963L123.936 51.8081L123.942 51.8197L124.821 51.3434ZM125.173 53.9034L126.16 54.0678L126.162 54.0555L125.173 53.9034ZM123.701 56.5274L122.994 55.8203L123.701 56.5274ZM121.685 57.7434L121.299 56.821L121.685 57.7434ZM118.453 58.5114V59.5114H118.505L118.556 59.5061L118.453 58.5114ZM118.389 59.5994L117.441 59.9156L117.452 59.9483L117.465 59.9802L118.389 59.5994ZM118.869 60.5274L118.037 61.0821L118.059 61.1146L118.083 61.1452L118.869 60.5274ZM123.285 60.5274L123.968 61.2585L123.969 61.2569L123.285 60.5274ZM124.117 59.3434L123.223 58.8962L123.215 58.9128L123.207 58.9296L124.117 59.3434ZM124.789 59.4394L125.729 59.0977L124.789 59.4394ZM116.942 55.7674L116.974 56.5674L118.973 56.4874L118.941 55.6874L116.942 55.7674ZM116.973 56.5274C116.973 56.8354 117.091 57.2118 117.437 57.4714C117.729 57.6905 118.048 57.7194 118.229 57.7194V55.7194C118.24 55.7194 118.431 55.7164 118.637 55.8714C118.75 55.9561 118.843 56.0709 118.903 56.2053C118.96 56.3339 118.973 56.4494 118.973 56.5274H116.973ZM118.323 57.715C119.116 57.6407 119.848 57.4386 120.498 57.0867L119.545 55.3281C119.171 55.5309 118.708 55.6702 118.136 55.7238L118.323 57.715ZM120.525 57.0712C121.122 56.7233 121.629 56.304 121.99 55.7921L120.356 54.6387C120.206 54.8521 119.945 55.0942 119.517 55.3436L120.525 57.0712ZM122.012 55.7596C122.564 54.9083 122.942 54.0588 123.003 53.2413L121.008 53.0935C120.983 53.428 120.806 53.9438 120.334 54.6712L122.012 55.7596ZM123.002 53.2505L123.034 52.8665L121.041 52.7004L121.009 53.0844L123.002 53.2505ZM123.037 52.7834C123.037 52.1014 122.906 51.405 122.476 50.8645C122.011 50.2805 121.342 50.0554 120.661 50.0554V52.0554C120.788 52.0554 120.852 52.0754 120.877 52.0858C120.896 52.0938 120.903 52.0997 120.911 52.1103C120.939 52.1459 121.037 52.3134 121.037 52.7834H123.037ZM120.661 50.0554C119.628 50.0554 118.781 50.5332 118.184 51.3702L119.811 52.5326C120.067 52.1749 120.329 52.0554 120.661 52.0554V50.0554ZM118.197 51.3514C117.325 52.5142 116.941 54.0064 116.941 55.7274H118.941C118.941 54.2911 119.261 53.2659 119.797 52.5514L118.197 51.3514ZM123.917 59.9834C123.917 60.6503 123.778 61.1942 123.53 61.6443L125.281 62.6105C125.715 61.8233 125.917 60.9379 125.917 59.9834H123.917ZM123.524 61.6552C123.256 62.1545 122.977 62.4663 122.712 62.6522L123.859 64.2906C124.447 63.8791 124.914 63.295 125.287 62.5996L123.524 61.6552ZM122.721 62.6461C122.412 62.8573 122.027 63.0414 121.551 63.1876L122.139 65.0992C122.773 64.9041 123.348 64.6401 123.85 64.2967L122.721 62.6461ZM121.555 63.1864C120.932 63.3754 120.358 63.4634 119.829 63.4634V65.4634C120.581 65.4634 121.351 65.3381 122.135 65.1004L121.555 63.1864ZM119.829 63.4634C118.329 63.4634 117.35 62.926 116.706 61.9114L115.017 62.9834C116.08 64.6568 117.746 65.4634 119.829 65.4634V63.4634ZM116.706 61.9114C115.98 60.7692 115.581 59.2629 115.581 57.3274H113.581C113.581 59.5306 114.036 61.4377 115.017 62.9834L116.706 61.9114ZM115.581 57.3274C115.581 55.4122 116.057 53.7475 116.99 52.3013L115.309 51.2175C114.151 53.014 113.581 55.0613 113.581 57.3274H115.581ZM116.985 52.309C117.848 50.997 119.107 50.3274 120.917 50.3274V48.3274C118.504 48.3274 116.584 49.2791 115.314 51.2098L116.985 52.309ZM120.917 50.3274C122.583 50.3274 123.467 50.8845 123.93 51.7963L125.713 50.8905C124.811 49.1143 123.092 48.3274 120.917 48.3274V50.3274ZM123.942 51.8197C124.159 52.2201 124.237 52.5478 124.237 52.8154H126.237C126.237 52.1443 126.038 51.4907 125.701 50.8671L123.942 51.8197ZM124.237 52.8154C124.237 53.2387 124.217 53.5449 124.185 53.7513L126.162 54.0555C126.215 53.7073 126.237 53.2881 126.237 52.8154H124.237ZM124.187 53.739C124.17 53.8428 124.078 54.126 123.824 54.6547L125.627 55.5201C125.885 54.9821 126.092 54.476 126.16 54.0678L124.187 53.739ZM123.824 54.6547C123.618 55.0842 123.343 55.4718 122.994 55.8203L124.408 57.2345C124.913 56.7296 125.321 56.1573 125.627 55.5201L123.824 54.6547ZM122.994 55.8203C122.7 56.1144 122.164 56.4588 121.299 56.821L122.071 58.6658C123.041 58.26 123.849 57.7938 124.408 57.2345L122.994 55.8203ZM121.299 56.821C120.492 57.159 119.514 57.3964 118.35 57.5167L118.556 59.5061C119.868 59.3704 121.044 59.0958 122.071 58.6658L121.299 56.821ZM118.453 57.5114C118.244 57.5114 117.901 57.5543 117.603 57.8148C117.28 58.0977 117.197 58.4693 117.197 58.7354H119.197C119.197 58.8522 119.158 59.1118 118.92 59.32C118.707 59.5059 118.492 59.5114 118.453 59.5114V57.5114ZM117.197 58.7354C117.197 59.099 117.308 59.5169 117.441 59.9156L119.338 59.2832C119.281 59.1127 119.244 58.9792 119.222 58.8785C119.198 58.7721 119.197 58.7306 119.197 58.7354H117.197ZM117.465 59.9802C117.633 60.388 117.822 60.7588 118.037 61.0821L119.701 59.9727C119.576 59.784 119.445 59.5361 119.314 59.2187L117.465 59.9802ZM118.083 61.1452C118.782 62.0346 119.796 62.4234 120.949 62.4234V60.4234C120.268 60.4234 119.896 60.2149 119.656 59.9096L118.083 61.1452ZM120.949 62.4234C122.107 62.4234 123.133 62.0375 123.968 61.2585L122.603 59.7964C122.158 60.212 121.627 60.4234 120.949 60.4234V62.4234ZM123.969 61.2569C124.415 60.8388 124.766 60.3334 125.028 59.7572L123.207 58.9296C123.042 59.2921 122.838 59.576 122.601 59.7979L123.969 61.2569ZM125.012 59.7906C125.011 59.7917 125.003 59.8073 124.985 59.8314C124.967 59.8557 124.935 59.8929 124.886 59.9323C124.775 60.0212 124.616 60.0874 124.437 60.0874V58.0874C123.76 58.0874 123.385 58.5728 123.223 58.8962L125.012 59.7906ZM124.437 60.0874C124.34 60.0874 124.237 60.0673 124.141 60.0247C124.046 59.983 123.976 59.9288 123.93 59.8825C123.847 59.7991 123.834 59.738 123.85 59.7812L125.729 59.0977C125.609 58.7664 125.254 58.0874 124.437 58.0874V60.0874ZM123.85 59.7812C123.883 59.8731 123.902 59.9383 123.912 59.9804C123.923 60.0268 123.917 60.0227 123.917 59.9834H125.917C125.917 59.6745 125.824 59.3581 125.729 59.0977L123.85 59.7812Z" fill="white"/>
<path d="M13.4907 13.6437V44.1455H18.6616V19.0797H46.0961V13.6437H13.4907Z" stroke="white" stroke-width="2"/>
<path d="M146.016 93.5795V63.0777H140.845V88.1436H113.411V93.5795H146.016Z" stroke="white" stroke-width="2"/>
</g>
<defs>
<filter id="filter0_d_1_8810" x="0.0246582" y="0.177551" width="160.509" height="108.972" filterUnits="userSpaceOnUse" color-interpolation-filters="sRGB">
<feFlood flood-opacity="0" result="BackgroundImageFix"/>
<feColorMatrix in="SourceAlpha" type="matrix" values="0 0 0 0 0 0 0 0 0 0 0 0 0 0 0 0 0 0 127 0" result="hardAlpha"/>
<feOffset/>
<feGaussianBlur stdDeviation="2"/>
<feComposite in2="hardAlpha" operator="out"/>
<feColorMatrix type="matrix" values="0 0 0 0 0.701961 0 0 0 0 0.466667 0 0 0 0 1 0 0 0 1 0"/>
<feBlend mode="normal" in2="BackgroundImageFix" result="effect1_dropShadow_1_8810"/>
<feBlend mode="normal" in="SourceGraphic" in2="effect1_dropShadow_1_8810" result="shape"/>
</filter>
</defs>
</svg>
