<svg width="76" height="123" viewBox="0 0 76 123" fill="none" xmlns="http://www.w3.org/2000/svg">
<g clip-path="url(#clip0_1_4586)">
<path d="M1.67125 5.25H8.15125C10.3379 5.25 11.9779 5.83667 13.0713 7.01C14.1646 8.18333 14.7113 9.90333 14.7113 12.17V14.93C14.7113 17.1967 14.1646 18.9167 13.0713 20.09C11.9779 21.2633 10.3379 21.85 8.15125 21.85H6.07125V33.25H1.67125V5.25ZM8.15125 17.85C8.87125 17.85 9.40458 17.65 9.75125 17.25C10.1246 16.85 10.3112 16.17 10.3112 15.21V11.89C10.3112 10.93 10.1246 10.25 9.75125 9.85C9.40458 9.45 8.87125 9.25 8.15125 9.25H6.07125V17.85H8.15125ZM17.1009 5.25H23.6209C25.8876 5.25 27.5409 5.78333 28.5809 6.85C29.6209 7.89 30.1409 9.50333 30.1409 11.69V13.41C30.1409 16.3167 29.1809 18.1567 27.2609 18.93V19.01C28.3276 19.33 29.0743 19.9833 29.5009 20.97C29.9543 21.9567 30.1809 23.2767 30.1809 24.93V29.85C30.1809 30.65 30.2076 31.3033 30.2609 31.81C30.3143 32.29 30.4476 32.77 30.6609 33.25H26.1809C26.0209 32.7967 25.9143 32.37 25.8609 31.97C25.8076 31.57 25.7809 30.85 25.7809 29.81V24.69C25.7809 23.41 25.5676 22.5167 25.1409 22.01C24.7409 21.5033 24.0343 21.25 23.0209 21.25H21.5009V33.25H17.1009V5.25ZM23.1009 17.25C23.9809 17.25 24.6343 17.0233 25.0609 16.57C25.5143 16.1167 25.7409 15.3567 25.7409 14.29V12.13C25.7409 11.1167 25.5543 10.3833 25.1809 9.93C24.8343 9.47667 24.2743 9.25 23.5009 9.25H21.5009V17.25H23.1009ZM33.2338 5.25H45.2338V9.25H37.6338V16.65H43.6738V20.65H37.6338V29.25H45.2338V33.25H33.2338V5.25ZM53.5631 33.65C51.4298 33.65 49.8165 33.05 48.7231 31.85C47.6298 30.6233 47.0831 28.8767 47.0831 26.61V25.01H51.2431V26.93C51.2431 28.7433 52.0031 29.65 53.5231 29.65C54.2698 29.65 54.8298 29.4367 55.2031 29.01C55.6031 28.5567 55.8031 27.8367 55.8031 26.85C55.8031 25.6767 55.5365 24.65 55.0031 23.77C54.4698 22.8633 53.4831 21.7833 52.0431 20.53C50.2298 18.93 48.9631 17.49 48.2431 16.21C47.5231 14.9033 47.1631 13.4367 47.1631 11.81C47.1631 9.59667 47.7231 7.89 48.8431 6.69C49.9631 5.46333 51.5898 4.85 53.7231 4.85C55.8298 4.85 57.4165 5.46333 58.4831 6.69C59.5765 7.89 60.1231 9.62333 60.1231 11.89V13.05H55.9631V11.61C55.9631 10.65 55.7765 9.95667 55.4031 9.53C55.0298 9.07667 54.4831 8.85 53.7631 8.85C52.2965 8.85 51.5631 9.74333 51.5631 11.53C51.5631 12.5433 51.8298 13.49 52.3631 14.37C52.9231 15.25 53.9231 16.3167 55.3631 17.57C57.2031 19.17 58.4698 20.6233 59.1631 21.93C59.8565 23.2367 60.2031 24.77 60.2031 26.53C60.2031 28.8233 59.6298 30.5833 58.4831 31.81C57.3631 33.0367 55.7231 33.65 53.5631 33.65ZM68.4459 33.65C66.3126 33.65 64.6993 33.05 63.6059 31.85C62.5126 30.6233 61.9659 28.8767 61.9659 26.61V25.01H66.1259V26.93C66.1259 28.7433 66.8859 29.65 68.4059 29.65C69.1526 29.65 69.7126 29.4367 70.0859 29.01C70.4859 28.5567 70.6859 27.8367 70.6859 26.85C70.6859 25.6767 70.4193 24.65 69.8859 23.77C69.3526 22.8633 68.3659 21.7833 66.9259 20.53C65.1126 18.93 63.8459 17.49 63.1259 16.21C62.4059 14.9033 62.0459 13.4367 62.0459 11.81C62.0459 9.59667 62.6059 7.89 63.7259 6.69C64.8459 5.46333 66.4726 4.85 68.6059 4.85C70.7126 4.85 72.2993 5.46333 73.3659 6.69C74.4593 7.89 75.0059 9.62333 75.0059 11.89V13.05H70.8459V11.61C70.8459 10.65 70.6593 9.95667 70.2859 9.53C69.9126 9.07667 69.3659 8.85 68.6459 8.85C67.1793 8.85 66.4459 9.74333 66.4459 11.53C66.4459 12.5433 66.7126 13.49 67.2459 14.37C67.8059 15.25 68.8059 16.3167 70.2459 17.57C72.0859 19.17 73.3526 20.6233 74.0459 21.93C74.7393 23.2367 75.0859 24.77 75.0859 26.53C75.0859 28.8233 74.5126 30.5833 73.3659 31.81C72.2459 33.0367 70.6059 33.65 68.4459 33.65Z" fill="white"/>
<mask id="mask0_1_4586" style="mask-type:luminance" maskUnits="userSpaceOnUse" x="-2" y="52" width="73" height="73">
<path d="M62.5 122.75C65.8137 122.75 68.5 120.064 68.5 116.75V60.25C68.5 56.9363 65.8137 54.25 62.5 54.25H40.25C36.9363 54.25 34.25 56.9363 34.25 60.25V75.65C34.25 78.9637 31.5637 81.65 28.25 81.65H6C2.68629 81.65 0 84.3363 0 87.65V116.75C0 120.064 2.68629 122.75 6 122.75H62.5Z" stroke="white" stroke-width="4" stroke-linecap="round" stroke-linejoin="round"/>
<path d="M29.1125 95.35L22.2625 102.2L29.1125 109.05" stroke="white" stroke-width="4" stroke-linecap="round" stroke-linejoin="round"/>
<path d="M51.375 86.7875V102.2H22.2625" stroke="white" stroke-width="4" stroke-linecap="round" stroke-linejoin="round"/>
</mask>
<g mask="url(#mask0_1_4586)">
<path d="M-6.85001 47.4H75.35V129.6H-6.85001V47.4Z" fill="white"/>
</g>
</g>
<defs>
<clipPath id="clip0_1_4586">
<rect width="76" height="122.5" fill="white" transform="translate(0 0.25)"/>
</clipPath>
</defs>
</svg>
