<svg width="90" height="127" viewBox="0 0 90 127" fill="none" xmlns="http://www.w3.org/2000/svg">
<g clip-path="url(#clip0_1_4595)">
<path d="M7.43813 33.9C5.30479 33.9 3.69146 33.3 2.59813 32.1C1.50479 30.8733 0.958125 29.1267 0.958125 26.86V25.26H5.11813V27.18C5.11813 28.9933 5.87813 29.9 7.39813 29.9C8.14479 29.9 8.70479 29.6867 9.07813 29.26C9.47813 28.8067 9.67813 28.0867 9.67813 27.1C9.67813 25.9267 9.41146 24.9 8.87813 24.02C8.34479 23.1133 7.35813 22.0333 5.91813 20.78C4.10479 19.18 2.83813 17.74 2.11813 16.46C1.39813 15.1533 1.03813 13.6867 1.03813 12.06C1.03813 9.84667 1.59813 8.14 2.71812 6.94C3.83813 5.71333 5.46479 5.1 7.59813 5.1C9.70479 5.1 11.2915 5.71333 12.3581 6.94C13.4515 8.14 13.9981 9.87333 13.9981 12.14V13.3H9.83813V11.86C9.83813 10.9 9.65146 10.2067 9.27813 9.78C8.90479 9.32667 8.35813 9.1 7.63813 9.1C6.17146 9.1 5.43813 9.99333 5.43813 11.78C5.43813 12.7933 5.70479 13.74 6.23813 14.62C6.79813 15.5 7.79813 16.5667 9.23813 17.82C11.0781 19.42 12.3448 20.8733 13.0381 22.18C13.7315 23.4867 14.0781 25.02 14.0781 26.78C14.0781 29.0733 13.5048 30.8333 12.3581 32.06C11.2381 33.2867 9.59813 33.9 7.43813 33.9ZM22.8009 33.9C20.6943 33.9 19.0809 33.3 17.9609 32.1C16.8676 30.9 16.3209 29.2067 16.3209 27.02V11.98C16.3209 9.79333 16.8676 8.1 17.9609 6.9C19.0809 5.7 20.6943 5.1 22.8009 5.1C24.9076 5.1 26.5076 5.7 27.6009 6.9C28.7209 8.1 29.2809 9.79333 29.2809 11.98V14.94H25.1209V11.7C25.1209 9.96667 24.3876 9.1 22.9209 9.1C21.4543 9.1 20.7209 9.96667 20.7209 11.7V27.34C20.7209 29.0467 21.4543 29.9 22.9209 29.9C24.3876 29.9 25.1209 29.0467 25.1209 27.34V23.06H29.2809V27.02C29.2809 29.2067 28.7209 30.9 27.6009 32.1C26.5076 33.3 24.9076 33.9 22.8009 33.9ZM31.9134 5.5H38.4334C40.7001 5.5 42.3534 6.03333 43.3934 7.1C44.4334 8.14 44.9534 9.75333 44.9534 11.94V13.66C44.9534 16.5667 43.9934 18.4067 42.0734 19.18V19.26C43.1401 19.58 43.8868 20.2333 44.3134 21.22C44.7668 22.2067 44.9934 23.5267 44.9934 25.18V30.1C44.9934 30.9 45.0201 31.5533 45.0734 32.06C45.1268 32.54 45.2601 33.02 45.4734 33.5H40.9934C40.8334 33.0467 40.7268 32.62 40.6734 32.22C40.6201 31.82 40.5934 31.1 40.5934 30.06V24.94C40.5934 23.66 40.3801 22.7667 39.9534 22.26C39.5534 21.7533 38.8468 21.5 37.8334 21.5H36.3134V33.5H31.9134V5.5ZM37.9134 17.5C38.7934 17.5 39.4468 17.2733 39.8734 16.82C40.3268 16.3667 40.5534 15.6067 40.5534 14.54V12.38C40.5534 11.3667 40.3668 10.6333 39.9934 10.18C39.6468 9.72667 39.0868 9.5 38.3134 9.5H36.3134V17.5H37.9134ZM54.4063 33.9C52.2463 33.9 50.5929 33.2867 49.4463 32.06C48.2996 30.8333 47.7262 29.1 47.7262 26.86V12.14C47.7262 9.9 48.2996 8.16667 49.4463 6.94C50.5929 5.71333 52.2463 5.1 54.4063 5.1C56.5663 5.1 58.2196 5.71333 59.3663 6.94C60.5129 8.16667 61.0863 9.9 61.0863 12.14V26.86C61.0863 29.1 60.5129 30.8333 59.3663 32.06C58.2196 33.2867 56.5663 33.9 54.4063 33.9ZM54.4063 29.9C55.9263 29.9 56.6862 28.98 56.6862 27.14V11.86C56.6862 10.02 55.9263 9.1 54.4063 9.1C52.8863 9.1 52.1263 10.02 52.1263 11.86V27.14C52.1263 28.98 52.8863 29.9 54.4063 29.9ZM64.0619 5.5H68.4619V29.5H75.7019V33.5H64.0619V5.5ZM77.8119 5.5H82.2119V29.5H89.4519V33.5H77.8119V5.5Z" fill="white"/>
<path d="M45 67.0581L46.7869 65.2833C46.3127 64.8129 45.6701 64.5487 45 64.5487C44.3299 64.5487 43.6873 64.8129 43.2131 65.2833L45 67.0581ZM45 93.8488L43.2131 95.6237C43.6873 96.0941 44.3299 96.3583 45 96.3583C45.6701 96.3583 46.3127 96.0941 46.7869 95.6237L45 93.8488ZM36.4703 71.9809C36.0236 72.4571 35.7805 73.0868 35.792 73.7375C35.8036 74.3882 36.069 75.009 36.5322 75.4692C36.9955 75.9293 37.6205 76.1929 38.2756 76.2044C38.9307 76.2159 39.5647 75.9744 40.044 75.5307L36.4703 71.9809ZM49.956 75.5307C50.1875 75.7775 50.4666 75.9754 50.7768 76.1127C51.087 76.2499 51.4218 76.3238 51.7613 76.3297C52.1008 76.3357 52.4381 76.2736 52.7529 76.1473C53.0678 76.021 53.3538 75.833 53.5939 75.5945C53.834 75.356 54.0233 75.0719 54.1505 74.7591C54.2776 74.4464 54.3401 74.1114 54.3341 73.7742C54.3281 73.4369 54.2538 73.1043 54.1156 72.7962C53.9774 72.4882 53.7781 72.2109 53.5297 71.9809L49.956 75.5307ZM40.044 85.3763C39.8125 85.1295 39.5334 84.9316 39.2232 84.7943C38.913 84.657 38.5782 84.5832 38.2387 84.5773C37.8992 84.5713 37.5619 84.6334 37.2471 84.7597C36.9322 84.886 36.6462 85.074 36.4061 85.3125C36.166 85.551 35.9767 85.8351 35.8495 86.1479C35.7224 86.4606 35.6599 86.7956 35.6659 87.1328C35.6719 87.4701 35.7462 87.8026 35.8844 88.1107C36.0226 88.4188 36.2219 88.6961 36.4703 88.926L40.044 85.3763ZM53.5297 88.926C53.7781 88.6961 53.9774 88.4188 54.1156 88.1107C54.2538 87.8026 54.3281 87.4701 54.3341 87.1328C54.3401 86.7956 54.2776 86.4606 54.1505 86.1479C54.0233 85.8351 53.834 85.551 53.5939 85.3125C53.3538 85.074 53.0678 84.886 52.7529 84.7597C52.4381 84.6334 52.1008 84.5713 51.7613 84.5773C51.4218 84.5832 51.087 84.657 50.7768 84.7943C50.4666 84.9316 50.1875 85.1295 49.956 85.3763L53.5297 88.926ZM15.5 83.8023V97.1977H20.5571V83.8023H15.5ZM74.5 97.1977V83.8023H69.4429V97.1977H74.5ZM42.4714 67.0581V93.8488H47.5286V67.0581H42.4714ZM43.2131 65.2833L36.4703 71.9809L40.044 75.5307L46.7869 68.833L43.2131 65.2833ZM43.2131 68.833L49.956 75.5307L53.5297 71.9809L46.7869 65.2833L43.2131 68.833ZM46.7869 92.074L40.044 85.3763L36.4703 88.926L43.2131 95.6237L46.7869 92.074ZM46.7869 95.6237L53.5297 88.926L49.956 85.3763L43.2131 92.074L46.7869 95.6237ZM74.5 83.8023C74.5 76.0309 71.392 68.5777 65.8597 63.0825C60.3273 57.5872 52.8239 54.5 45 54.5V59.5233C51.4826 59.5233 57.6998 62.0812 62.2837 66.6344C66.8676 71.1876 69.4429 77.3631 69.4429 83.8023H74.5ZM45 126.5C48.874 126.5 52.7101 125.742 56.2892 124.269C59.8683 122.797 63.1203 120.639 65.8597 117.918C68.599 115.197 70.7719 111.966 72.2544 108.411C73.737 104.856 74.5 101.046 74.5 97.1977H69.4429C69.4429 103.637 66.8676 109.812 62.2837 114.366C57.6998 118.919 51.4826 121.477 45 121.477V126.5ZM15.5 97.1977C15.5 104.969 18.608 112.422 24.1403 117.918C29.6727 123.413 37.1761 126.5 45 126.5V121.477C38.5174 121.477 32.3002 118.919 27.7163 114.366C23.1324 109.812 20.5571 103.637 20.5571 97.1977H15.5ZM20.5571 83.8023C20.5571 77.3631 23.1324 71.1876 27.7163 66.6344C32.3002 62.0812 38.5174 59.5233 45 59.5233V54.5C37.1761 54.5 29.6727 57.5872 24.1403 63.0825C18.608 68.5777 15.5 76.0309 15.5 83.8023H20.5571Z" fill="white"/>
</g>
<defs>
<clipPath id="clip0_1_4595">
<rect width="90" height="126" fill="white" transform="translate(0 0.5)"/>
</clipPath>
</defs>
</svg>
