<svg width="330" height="107" viewBox="0 0 330 107" fill="none" xmlns="http://www.w3.org/2000/svg">
<path style="mix-blend-mode:screen" d="M0.234745 94.7018C0.234745 94.7018 94.9724 11.8528 205.615 -65.7894L207.57 -67.1702C216.055 -73.24 221.577 -78.5044 228.882 -82.3591C229.687 -82.7907 230.521 -83.1934 231.384 -83.5961C240.013 -91.1619 254.393 -94.0386 262.388 -103.906C263.306 -104.652 264.266 -105.343 265.264 -105.977L268.14 -107.76L271.017 -109.544C274.525 -119.986 286.03 -122.863 295.981 -125.107L298.857 -126.775L304.408 -130.112L307.284 -131.752C311.914 -140.123 329.171 -125.74 329.171 -143C329.171 -131.493 314.79 -137.247 308.635 -129.825L306.709 -128.473L298.31 -122.719C297.678 -122.288 297.074 -121.827 296.412 -121.454C286.03 -122.863 277.401 -117.11 273.49 -104.941L271.966 -103.848L268.859 -101.633L266.76 -100.137C257.964 -91.8868 248.132 -84.8178 237.51 -79.1085L235.813 -77.8715C222.756 -79.7126 219.88 -65.3291 211.539 -60.1798C210.964 -59.7195 210.36 -59.288 209.756 -58.8565C138.89 -6.75946 54.1898 58.4841 5.09531 106.87C5.09531 106.87 -0.973203 105.72 0.234745 94.7018Z" fill="url(#paint0_linear_1_904)"/>
<defs>
<linearGradient id="paint0_linear_1_904" x1="0.0621812" y1="-18.0361" x2="329.171" y2="-18.0361" gradientUnits="userSpaceOnUse">
<stop stop-color="white"/>
<stop offset="0.12" stop-color="#D1D1D1"/>
<stop offset="0.3" stop-color="#929292"/>
<stop offset="0.48" stop-color="#5E5E5E"/>
<stop offset="0.64" stop-color="#353535"/>
<stop offset="0.78" stop-color="#181818"/>
<stop offset="0.91" stop-color="#060606"/>
<stop offset="1"/>
</linearGradient>
</defs>
</svg>
