<svg width="335" height="111" viewBox="0 0 335 111" fill="none" xmlns="http://www.w3.org/2000/svg">
<path d="M20.19 100.052C20.19 102.049 19.598 104.002 18.4887 105.662C17.3795 107.323 15.8028 108.617 13.9582 109.381C12.1135 110.145 10.0838 110.345 8.12555 109.956C6.16731 109.566 4.36855 108.604 2.95673 107.192C1.54492 105.78 0.583496 103.981 0.193978 102.022C-0.195539 100.064 0.00437053 98.0334 0.768437 96.1884C1.5325 94.3433 2.82637 92.7664 4.48649 91.6569C6.1466 90.5474 8.09843 89.9552 10.095 89.9552C12.7724 89.9552 15.3401 91.019 17.2332 92.9126C19.1264 94.8062 20.19 97.3745 20.19 100.052Z" fill="white"/>
<path style="mix-blend-mode:screen" d="M5.23475 94.7018C5.23475 94.7018 99.9724 11.8528 210.615 -65.7894L212.57 -67.1702C221.055 -73.24 226.577 -78.5044 233.882 -82.3591C234.687 -82.7907 235.521 -83.1934 236.384 -83.5961C245.013 -91.1619 259.393 -94.0386 267.388 -103.906C268.306 -104.652 269.266 -105.343 270.264 -105.977L273.14 -107.76L276.017 -109.544C279.525 -119.986 291.03 -122.863 300.981 -125.107L303.857 -126.775L309.408 -130.112L312.284 -131.752C316.914 -140.123 334.171 -125.74 334.171 -143C334.171 -131.493 319.79 -137.247 313.635 -129.825L311.709 -128.473L303.31 -122.719C302.678 -122.288 302.074 -121.827 301.412 -121.454C291.03 -122.863 282.401 -117.11 278.49 -104.941L276.966 -103.848L273.859 -101.633L271.76 -100.137C262.964 -91.8868 253.132 -84.8178 242.51 -79.1085L240.813 -77.8715C227.756 -79.7126 224.88 -65.3291 216.539 -60.1798C215.964 -59.7195 215.36 -59.288 214.756 -58.8565C143.89 -6.75946 59.1898 58.4841 10.0953 106.87C10.0953 106.87 4.0268 105.72 5.23475 94.7018Z" fill="url(#paint0_linear_21_28)"/>
<defs>
<linearGradient id="paint0_linear_21_28" x1="5.06218" y1="-18.0361" x2="334.171" y2="-18.0361" gradientUnits="userSpaceOnUse">
<stop stop-color="white"/>
<stop offset="0.12" stop-color="#D1D1D1"/>
<stop offset="0.3" stop-color="#929292"/>
<stop offset="0.48" stop-color="#5E5E5E"/>
<stop offset="0.64" stop-color="#353535"/>
<stop offset="0.78" stop-color="#181818"/>
<stop offset="0.91" stop-color="#060606"/>
<stop offset="1"/>
</linearGradient>
</defs>
</svg>
