<svg width="380" height="80" viewBox="0 0 380 80" fill="none" xmlns="http://www.w3.org/2000/svg">
<g filter="url(#filter0_d_214_8312)">
<path d="M10.924 63.362L11.2593 62.4199L10.924 63.362ZM5.994 60.636L5.12071 60.1488L4.75253 60.8087L5.28689 61.3431L5.994 60.636ZM9.068 55.126L9.73891 54.3845L8.807 53.5413L8.19471 54.6388L9.068 55.126ZM12.838 57.446L12.4073 58.3485L12.4195 58.3543L12.4319 58.3598L12.838 57.446ZM22.814 57.156L22.2216 56.3503L22.2158 56.3546L22.2101 56.3589L22.814 57.156ZM23.742 49.732L22.9305 50.3163L22.9305 50.3163L23.742 49.732ZM21.19 47.354L20.6428 48.191L20.6542 48.1985L20.6659 48.2057L21.19 47.354ZM16.898 44.976L17.3452 44.0815L17.3389 44.0784L16.898 44.976ZM12.374 42.54L11.8173 43.3707L11.8193 43.3721L12.374 42.54ZM10.402 23.69L11.0237 24.4733L11.0312 24.4672L10.402 23.69ZM29.774 24.154L30.6381 24.6573L31.0671 23.9208L30.4078 23.3805L29.774 24.154ZM26.7 29.432L25.975 30.1207L26.8932 31.0873L27.5641 29.9353L26.7 29.432ZM23.568 27.46L23.1644 28.3749L23.1804 28.382L23.1966 28.3885L23.568 27.46ZM14.752 27.924L15.3698 28.7103L15.3734 28.7075L14.752 27.924ZM14.172 35L13.3605 35.5843L13.3662 35.5922L13.372 35.6L14.172 35ZM16.782 37.436L16.2273 38.268L16.2342 38.2727L16.2412 38.2772L16.782 37.436ZM21.132 39.988L21.6176 39.1138L21.6161 39.113L21.132 39.988ZM25.134 42.308L24.604 43.156L24.6169 43.1641L24.6301 43.1718L25.134 42.308ZM27.744 44.28L27.0543 45.0041L27.0652 45.0145L27.0765 45.0246L27.744 44.28ZM30.47 47.876L31.3644 47.4288L31.3644 47.4288L30.47 47.876ZM29.716 59.07L28.8812 58.5194L28.8771 58.5257L28.8731 58.532L29.716 59.07ZM24.844 63.188L24.4379 62.2742L24.4315 62.277L24.844 63.188ZM17.826 63.58C15.6252 63.58 13.4378 63.1953 11.2593 62.4199L10.5887 64.3041C12.9729 65.1527 15.3868 65.58 17.826 65.58V63.58ZM11.2593 62.4199C9.03264 61.6273 7.55226 60.78 6.70111 59.9289L5.28689 61.3431C6.44641 62.5026 8.25269 63.4726 10.5887 64.3041L11.2593 62.4199ZM6.86729 61.1232L9.94129 55.6132L8.19471 54.6388L5.12071 60.1488L6.86729 61.1232ZM8.39709 55.8675C9.31448 56.6976 10.6718 57.5202 12.4073 58.3485L13.2687 56.5435C11.6015 55.7478 10.4455 55.0238 9.73891 54.3845L8.39709 55.8675ZM12.4319 58.3598C14.2745 59.1788 16.0755 59.606 17.826 59.606V57.606C16.4058 57.606 14.8815 57.2599 13.2441 56.5322L12.4319 58.3598ZM17.826 59.606C20.0318 59.606 21.9247 59.0843 23.4179 57.9531L22.2101 56.3589C21.1513 57.161 19.7189 57.606 17.826 57.606V59.606ZM23.4064 57.9617C24.9899 56.7973 25.786 55.1575 25.786 53.154H23.786C23.786 54.5532 23.2674 55.5814 22.2216 56.3503L23.4064 57.9617ZM25.786 53.154C25.786 51.6524 25.3848 50.3022 24.5535 49.1477L22.9305 50.3163C23.4912 51.0952 23.786 52.0262 23.786 53.154H25.786ZM24.5535 49.1477C23.781 48.0748 22.833 47.1909 21.7141 46.5023L20.6659 48.2057C21.5577 48.7544 22.311 49.4559 22.9305 50.3163L24.5535 49.1477ZM21.7373 46.517C20.6848 45.8289 19.2148 45.0164 17.3452 44.0816L16.4508 45.8704C18.2932 46.7916 19.6846 47.5645 20.6428 48.191L21.7373 46.517ZM17.3389 44.0784C15.1329 42.9948 13.6795 42.2085 12.9287 41.7079L11.8193 43.3721C12.6925 43.9542 14.2551 44.7919 16.4571 45.8736L17.3389 44.0784ZM12.9307 41.7093C9.45195 39.3782 7.748 36.207 7.748 32.1H5.748C5.748 36.8863 7.79472 40.6752 11.8173 43.3707L12.9307 41.7093ZM7.748 32.1C7.748 28.67 8.87124 26.1816 11.0237 24.4733L9.78034 22.9067C7.06076 25.0651 5.748 28.1833 5.748 32.1H7.748ZM11.0312 24.4672C13.2577 22.6648 16.097 21.732 19.624 21.732V19.732C15.727 19.732 12.4183 20.7712 9.7728 22.9128L11.0312 24.4672ZM19.624 21.732C23.4018 21.732 26.5542 22.8084 29.1402 24.9275L30.4078 23.3805C27.4258 20.9369 23.8115 19.732 19.624 19.732V21.732ZM28.9099 23.6507L25.8359 28.9287L27.5641 29.9353L30.6381 24.6573L28.9099 23.6507ZM27.425 28.7433C26.5618 27.8346 25.3803 27.1079 23.9394 26.5315L23.1966 28.3885C24.4624 28.8948 25.3689 29.4828 25.975 30.1207L27.425 28.7433ZM23.9716 26.5451C22.5235 25.9062 20.974 25.59 19.334 25.59V27.59C20.71 27.59 21.9831 27.8538 23.1644 28.3749L23.9716 26.5451ZM19.334 25.59C17.2538 25.59 15.4819 26.0688 14.1306 27.1405L15.3734 28.7075C16.2648 28.0005 17.5475 27.59 19.334 27.59V25.59ZM14.1342 27.1377C12.7537 28.2223 12.128 29.8236 12.128 31.752H14.128C14.128 30.2777 14.5849 29.327 15.3698 28.7103L14.1342 27.1377ZM12.128 31.752C12.128 33.159 12.5411 34.4463 13.3605 35.5843L14.9835 34.4157C14.4109 33.6204 14.128 32.7424 14.128 31.752H12.128ZM13.372 35.6C14.1414 36.6258 15.0967 37.5143 16.2273 38.268L17.3367 36.6039C16.3793 35.9657 15.5946 35.2302 14.972 34.4L13.372 35.6ZM16.2412 38.2772C17.3501 38.99 18.8215 39.8526 20.6479 40.863L21.6161 39.113C19.8079 38.1127 18.3792 37.274 17.3228 36.5948L16.2412 38.2772ZM20.6464 40.8622C22.3813 41.826 23.6978 42.5896 24.604 43.156L25.664 41.46C24.7142 40.8664 23.3627 40.0833 21.6176 39.1138L20.6464 40.8622ZM24.6301 43.1718C25.4881 43.6723 26.2962 44.2821 27.0543 45.0041L28.4337 43.5559C27.5678 42.7313 26.6359 42.0264 25.6379 41.4442L24.6301 43.1718ZM27.0765 45.0246C28.101 45.9431 28.9339 47.0399 29.5756 48.3232L31.3644 47.4288C30.6141 45.9281 29.6297 44.6275 28.4115 43.5354L27.0765 45.0246ZM29.5756 48.3232C30.1974 49.567 30.514 50.9397 30.514 52.458H32.514C32.514 50.651 32.1346 48.969 31.3644 47.4288L29.5756 48.3232ZM30.514 52.458C30.514 54.8907 29.953 56.8944 28.8812 58.5194L30.5508 59.6206C31.8763 57.6109 32.514 55.2066 32.514 52.458H30.514ZM28.8731 58.532C27.8251 60.1738 26.3578 61.4209 24.4379 62.2742L25.2501 64.1018C27.5062 63.0991 29.2869 61.6009 30.5589 59.608L28.8731 58.532ZM24.4315 62.277C22.5318 63.1373 20.3369 63.58 17.826 63.58V65.58C20.5738 65.58 23.0575 65.0947 25.2565 64.099L24.4315 62.277ZM38.4387 21.37V20.37H37.4387V21.37H38.4387ZM44.9347 21.37H45.9347V20.37H44.9347V21.37ZM44.9347 38.77H43.9347V39.77H44.9347V38.77ZM59.9567 38.77V39.77H60.9567V38.77H59.9567ZM59.9567 21.37V20.37H58.9567V21.37H59.9567ZM66.4527 21.37H67.4527V20.37H66.4527V21.37ZM66.4527 64V65H67.4527V64H66.4527ZM59.9567 64H58.9567V65H59.9567V64ZM59.9567 44.222H60.9567V43.222H59.9567V44.222ZM44.9347 44.222V43.222H43.9347V44.222H44.9347ZM44.9347 64V65H45.9347V64H44.9347ZM38.4387 64H37.4387V65H38.4387V64ZM38.4387 22.37H44.9347V20.37H38.4387V22.37ZM43.9347 21.37V38.77H45.9347V21.37H43.9347ZM44.9347 39.77H59.9567V37.77H44.9347V39.77ZM60.9567 38.77V21.37H58.9567V38.77H60.9567ZM59.9567 22.37H66.4527V20.37H59.9567V22.37ZM65.4527 21.37V64H67.4527V21.37H65.4527ZM66.4527 63H59.9567V65H66.4527V63ZM60.9567 64V44.222H58.9567V64H60.9567ZM59.9567 43.222H44.9347V45.222H59.9567V43.222ZM43.9347 44.222V64H45.9347V44.222H43.9347ZM44.9347 63H38.4387V65H44.9347V63ZM39.4387 64V21.37H37.4387V64H39.4387ZM84.3003 61.912L83.812 62.7848L83.8244 62.7915L84.3003 61.912ZM76.5283 54.198L77.3929 53.6954L77.3929 53.6954L76.5283 54.198ZM76.5283 30.998L77.3903 31.505L77.3929 31.5006L76.5283 30.998ZM84.3003 23.342L83.8244 22.4625L83.82 22.4649L84.3003 23.342ZM105.702 23.342L105.222 24.2191L105.226 24.2215L105.702 23.342ZM113.532 30.998L112.668 31.5006L112.67 31.505L113.532 30.998ZM113.532 54.198L112.668 53.6954L112.668 53.6954L113.532 54.198ZM105.702 61.912L106.183 62.7891L106.186 62.7871L105.702 61.912ZM102.338 56.866L102.828 57.7381L102.839 57.7314L102.338 56.866ZM107.558 51.356L106.678 50.8811L106.676 50.8862L107.558 51.356ZM107.558 33.956L106.673 34.42L106.677 34.4285L106.682 34.4368L107.558 33.956ZM102.338 28.446L101.842 29.3143L101.849 29.318L102.338 28.446ZM87.6643 28.446L87.1748 27.574L87.1748 27.574L87.6643 28.446ZM82.4443 33.956L83.3271 34.4259L83.3302 34.42L82.4443 33.956ZM82.5023 51.356L81.6223 51.8309L81.6255 51.8368L82.5023 51.356ZM87.7803 56.866L87.2793 57.7314L87.2882 57.7366L87.2973 57.7416L87.7803 56.866ZM95.0303 63.58C91.3239 63.58 87.9116 62.7293 84.7763 61.0325L83.8244 62.7915C87.2624 64.652 91.0035 65.58 95.0303 65.58V63.58ZM84.7886 61.0393C81.7023 59.3124 79.2393 56.8713 77.3929 53.6954L75.6638 54.7006C77.684 58.1753 80.4024 60.8769 83.8121 62.7847L84.7886 61.0393ZM77.3929 53.6954C75.5606 50.5438 74.6283 46.8556 74.6283 42.598H72.6283C72.6283 47.1564 73.6295 51.2015 75.6638 54.7006L77.3929 53.6954ZM74.6283 42.598C74.6283 38.2997 75.5614 34.6141 77.3903 31.505L75.6664 30.491C73.6286 33.9552 72.6283 38.003 72.6283 42.598H74.6283ZM77.3929 31.5006C79.2383 28.3264 81.6988 25.9068 84.7807 24.2191L83.82 22.4649C80.4059 24.3346 77.685 27.0189 75.6638 30.4954L77.3929 31.5006ZM84.7763 24.2215C87.9116 22.5247 91.3239 21.674 95.0303 21.674V19.674C91.0035 19.674 87.2624 20.602 83.8244 22.4625L84.7763 24.2215ZM95.0303 21.674C98.7368 21.674 102.128 22.5247 105.222 24.2191L106.183 22.4649C102.781 20.602 99.0572 19.674 95.0303 19.674V21.674ZM105.226 24.2215C108.346 25.91 110.824 28.3293 112.668 31.5006L114.397 30.4954C112.374 27.016 109.632 24.3314 106.178 22.4625L105.226 24.2215ZM112.67 31.505C114.499 34.6141 115.432 38.2997 115.432 42.598H117.432C117.432 38.003 116.432 33.9552 114.394 30.491L112.67 31.505ZM115.432 42.598C115.432 46.8556 114.5 50.5438 112.668 53.6954L114.397 54.7006C116.431 51.2015 117.432 47.1564 117.432 42.598H115.432ZM112.668 53.6954C110.823 56.8684 108.343 59.3092 105.218 61.0369L106.186 62.7871C109.635 60.8801 112.375 58.1783 114.397 54.7006L112.668 53.6954ZM105.222 61.0349C102.128 62.7293 98.7368 63.58 95.0303 63.58V65.58C99.0572 65.58 102.781 64.652 106.183 62.7891L105.222 61.0349ZM95.0303 59.722C97.8599 59.722 100.466 59.064 102.828 57.738L101.849 55.994C99.8027 57.1427 97.5368 57.722 95.0303 57.722V59.722ZM102.839 57.7314C105.216 56.3555 107.083 54.3767 108.441 51.8258L106.676 50.8862C105.481 53.13 103.869 54.8245 101.837 56.0006L102.839 57.7314ZM108.438 51.8309C109.847 49.2208 110.53 46.1504 110.53 42.656H108.53C108.53 45.8896 107.899 48.6192 106.678 50.8811L108.438 51.8309ZM110.53 42.656C110.53 39.1257 109.848 36.0517 108.435 33.4752L106.682 34.4368C107.898 36.655 108.53 39.3809 108.53 42.656H110.53ZM108.444 33.492C107.087 30.9002 105.216 28.9144 102.828 27.574L101.849 29.318C103.869 30.4522 105.478 32.1398 106.673 34.42L108.444 33.492ZM102.834 27.5778C100.505 26.2468 97.8957 25.59 95.0303 25.59V27.59C97.5783 27.59 99.8407 28.1705 101.842 29.3142L102.834 27.5778ZM95.0303 25.59C92.1648 25.59 89.5389 26.2468 87.1748 27.574L88.1539 29.318C90.1978 28.1705 92.4826 27.59 95.0303 27.59V25.59ZM87.1748 27.574C84.7872 28.9144 82.9161 30.9002 81.5585 33.492L83.3302 34.42C84.5246 32.1398 86.1335 30.4522 88.1539 29.318L87.1748 27.574ZM81.5616 33.4862C80.1915 36.0602 79.5303 39.1301 79.5303 42.656H81.5303C81.5303 39.3765 82.1451 36.6465 83.3271 34.4258L81.5616 33.4862ZM79.5303 42.656C79.5303 46.1504 80.2137 49.2208 81.6223 51.8309L83.3824 50.8811C82.1617 48.6192 81.5303 45.8896 81.5303 42.656H79.5303ZM81.6255 51.8368C83.0213 54.382 84.9056 56.3572 87.2793 57.7314L88.2814 56.0006C86.2471 54.8228 84.6127 53.1246 83.3792 50.8752L81.6255 51.8368ZM87.2973 57.7416C89.6896 59.0615 92.2727 59.722 95.0303 59.722V57.722C92.6066 57.722 90.3564 57.1452 88.2634 55.9904L87.2973 57.7416ZM132.558 61.912L132.07 62.7848L132.082 62.7915L132.558 61.912ZM124.786 54.198L125.651 53.6954L125.651 53.6954L124.786 54.198ZM124.786 30.998L125.648 31.505L125.651 31.5006L124.786 30.998ZM132.558 23.342L132.082 22.4625L132.078 22.4649L132.558 23.342ZM153.96 23.342L153.48 24.2191L153.484 24.2215L153.96 23.342ZM161.79 30.998L160.926 31.5006L160.928 31.505L161.79 30.998ZM161.79 54.198L160.926 53.6954L160.926 53.6954L161.79 54.198ZM153.96 61.912L154.44 62.7891L154.444 62.7871L153.96 61.912ZM150.596 56.866L151.086 57.7381L151.097 57.7314L150.596 56.866ZM155.816 51.356L154.936 50.8811L154.933 50.8862L155.816 51.356ZM155.816 33.956L154.93 34.42L154.935 34.4285L154.939 34.4368L155.816 33.956ZM150.596 28.446L150.1 29.3143L150.107 29.318L150.596 28.446ZM135.922 28.446L135.433 27.574L135.433 27.574L135.922 28.446ZM130.702 33.956L131.585 34.4259L131.588 34.42L130.702 33.956ZM130.76 51.356L129.88 51.8309L129.883 51.8368L130.76 51.356ZM136.038 56.866L135.537 57.7314L135.546 57.7366L135.555 57.7416L136.038 56.866ZM143.288 63.58C139.582 63.58 136.169 62.7293 133.034 61.0325L132.082 62.7915C135.52 64.652 139.261 65.58 143.288 65.58V63.58ZM133.046 61.0393C129.96 59.3124 127.497 56.8713 125.651 53.6954L123.922 54.7006C125.942 58.1753 128.66 60.8769 132.07 62.7847L133.046 61.0393ZM125.651 53.6954C123.818 50.5438 122.886 46.8556 122.886 42.598H120.886C120.886 47.1564 121.887 51.2015 123.922 54.7006L125.651 53.6954ZM122.886 42.598C122.886 38.2997 123.819 34.6141 125.648 31.505L123.924 30.491C121.886 33.9552 120.886 38.003 120.886 42.598H122.886ZM125.651 31.5006C127.496 28.3264 129.957 25.9068 133.038 24.2191L132.078 22.4649C128.664 24.3346 125.943 27.0189 123.922 30.4954L125.651 31.5006ZM133.034 24.2215C136.169 22.5247 139.582 21.674 143.288 21.674V19.674C139.261 19.674 135.52 20.602 132.082 22.4625L133.034 24.2215ZM143.288 21.674C146.995 21.674 150.386 22.5247 153.48 24.2191L154.44 22.4649C151.039 20.602 147.315 19.674 143.288 19.674V21.674ZM153.484 24.2215C156.604 25.91 159.082 28.3293 160.926 31.5006L162.655 30.4954C160.632 27.016 157.889 24.3314 154.436 22.4625L153.484 24.2215ZM160.928 31.505C162.757 34.6141 163.69 38.2997 163.69 42.598H165.69C165.69 38.003 164.69 33.9552 162.652 30.491L160.928 31.505ZM163.69 42.598C163.69 46.8556 162.758 50.5438 160.926 53.6954L162.655 54.7006C164.689 51.2015 165.69 47.1564 165.69 42.598H163.69ZM160.926 53.6954C159.081 56.8684 156.601 59.3092 153.476 61.0369L154.444 62.7871C157.893 60.8801 160.633 58.1783 162.655 54.7006L160.926 53.6954ZM153.48 61.0349C150.386 62.7293 146.995 63.58 143.288 63.58V65.58C147.315 65.58 151.039 64.652 154.44 62.7891L153.48 61.0349ZM143.288 59.722C146.118 59.722 148.724 59.064 151.086 57.738L150.107 55.994C148.061 57.1427 145.795 57.722 143.288 57.722V59.722ZM151.097 57.7314C153.474 56.3555 155.341 54.3767 156.699 51.8258L154.933 50.8862C153.739 53.13 152.127 54.8245 150.095 56.0006L151.097 57.7314ZM156.696 51.8309C158.105 49.2208 158.788 46.1504 158.788 42.656H156.788C156.788 45.8896 156.157 48.6192 154.936 50.8811L156.696 51.8309ZM158.788 42.656C158.788 39.1257 158.106 36.0517 156.693 33.4752L154.939 34.4368C156.156 36.655 156.788 39.3809 156.788 42.656H158.788ZM156.702 33.492C155.344 30.9002 153.473 28.9144 151.086 27.574L150.107 29.318C152.127 30.4522 153.736 32.1398 154.93 34.42L156.702 33.492ZM151.092 27.5778C148.763 26.2468 146.154 25.59 143.288 25.59V27.59C145.836 27.59 148.099 28.1705 150.1 29.3142L151.092 27.5778ZM143.288 25.59C140.423 25.59 137.797 26.2468 135.433 27.574L136.412 29.318C138.456 28.1705 140.74 27.59 143.288 27.59V25.59ZM135.433 27.574C133.045 28.9144 131.174 30.9002 129.816 33.492L131.588 34.42C132.782 32.1398 134.391 30.4522 136.412 29.318L135.433 27.574ZM129.819 33.4862C128.449 36.0602 127.788 39.1301 127.788 42.656H129.788C129.788 39.3765 130.403 36.6465 131.585 34.4258L129.819 33.4862ZM127.788 42.656C127.788 46.1504 128.471 49.2208 129.88 51.8309L131.64 50.8811C130.42 48.6192 129.788 45.8896 129.788 42.656H127.788ZM129.883 51.8368C131.279 54.382 133.163 56.3572 135.537 57.7314L136.539 56.0006C134.505 54.8228 132.871 53.1246 131.637 50.8752L129.883 51.8368ZM135.555 57.7416C137.947 59.0615 140.531 59.722 143.288 59.722V57.722C140.864 57.722 138.614 57.1452 136.521 55.9904L135.555 57.7416ZM177.74 27.054H178.74V26.054H177.74V27.054ZM166.836 27.054H165.836V28.054H166.836V27.054ZM166.836 21.37V20.37H165.836V21.37H166.836ZM195.198 21.37H196.198V20.37H195.198V21.37ZM195.198 27.054V28.054H196.198V27.054H195.198ZM184.178 27.054V26.054H183.178V27.054H184.178ZM184.178 64V65H185.178V64H184.178ZM177.74 64H176.74V65H177.74V64ZM177.74 26.054H166.836V28.054H177.74V26.054ZM167.836 27.054V21.37H165.836V27.054H167.836ZM166.836 22.37H195.198V20.37H166.836V22.37ZM194.198 21.37V27.054H196.198V21.37H194.198ZM195.198 26.054H184.178V28.054H195.198V26.054ZM183.178 27.054V64H185.178V27.054H183.178ZM184.178 63H177.74V65H184.178V63ZM178.74 64V27.054H176.74V64H178.74ZM231.271 21.312L232.172 20.8785L231.899 20.312H231.271V21.312ZM251.803 64V65H253.393L252.704 63.5666L251.803 64ZM244.321 64L243.404 64.4008L243.667 65H244.321V64ZM240.667 55.648L241.583 55.2472L241.321 54.648H240.667V55.648ZM221.121 55.648V54.648H220.467L220.204 55.2472L221.121 55.648ZM217.467 64V65H218.121L218.383 64.4008L217.467 64ZM210.217 64L209.314 63.5685L208.63 65H210.217V64ZM230.633 21.312V20.312H230.002L229.73 20.8805L230.633 21.312ZM228.371 39.466L229.283 39.876L229.286 39.8687L228.371 39.466ZM223.731 49.79L222.818 49.3801L222.185 50.79H223.731V49.79ZM238.115 49.79V50.79H239.656L239.028 49.3824L238.115 49.79ZM233.533 39.524L232.612 39.9157L232.616 39.9237L232.619 39.9316L233.533 39.524ZM231.039 33.666L231.959 33.2743L231.7 32.666H231.039V33.666ZM230.923 33.666V32.666H230.27L230.007 33.2633L230.923 33.666ZM230.369 21.7454L250.901 64.4334L252.704 63.5666L232.172 20.8785L230.369 21.7454ZM251.803 63H244.321V65H251.803V63ZM245.237 63.5992L241.583 55.2472L239.75 56.0488L243.404 64.4008L245.237 63.5992ZM240.667 54.648H221.121V56.648H240.667V54.648ZM220.204 55.2472L216.55 63.5992L218.383 64.4008L222.037 56.0488L220.204 55.2472ZM217.467 63H210.217V65H217.467V63ZM211.119 64.4315L231.535 21.7435L229.73 20.8805L209.314 63.5685L211.119 64.4315ZM230.633 22.312H231.271V20.312H230.633V22.312ZM227.458 39.0561L222.818 49.3801L224.643 50.1999L229.283 39.8759L227.458 39.0561ZM223.731 50.79H238.115V48.79H223.731V50.79ZM239.028 49.3824L234.446 39.1164L232.619 39.9316L237.201 50.1976L239.028 49.3824ZM234.453 39.1323L231.959 33.2743L230.118 34.0577L232.612 39.9157L234.453 39.1323ZM231.039 32.666H230.923V34.666H231.039V32.666ZM230.007 33.2633L227.455 39.0633L229.286 39.8687L231.838 34.0687L230.007 33.2633ZM288.329 48.804L287.407 49.1923L288.387 51.5163L289.266 49.1527L288.329 48.804ZM298.537 21.37V20.37H297.842L297.6 21.0213L298.537 21.37ZM305.439 21.37L306.371 21.7326L306.901 20.37H305.439V21.37ZM288.851 64V65H289.535L289.783 64.3626L288.851 64ZM288.039 64L287.117 64.3874L287.374 65H288.039V64ZM276.439 36.392L277.361 36.0046L276.438 33.8073L275.517 36.0056L276.439 36.392ZM264.897 63.942V64.942H265.562L265.819 64.3284L264.897 63.942ZM264.085 63.942L263.153 64.3051L263.401 64.942H264.085V63.942ZM247.497 21.37V20.37H246.034L246.565 21.7331L247.497 21.37ZM254.399 21.37L255.336 21.0213L255.094 20.37H254.399V21.37ZM264.607 48.804L263.67 49.1527L264.547 51.5102L265.528 49.194L264.607 48.804ZM276.323 21.138V20.138H275.66L275.402 20.748L276.323 21.138ZM276.671 21.138L277.592 20.7497L277.335 20.138H276.671V21.138ZM289.266 49.1527L299.474 21.7187L297.6 21.0213L287.392 48.4553L289.266 49.1527ZM298.537 22.37H305.439V20.37H298.537V22.37ZM304.507 21.0074L287.919 63.6374L289.783 64.3626L306.371 21.7326L304.507 21.0074ZM288.851 63H288.039V65H288.851V63ZM288.961 63.6126L277.361 36.0046L275.517 36.7794L287.117 64.3874L288.961 63.6126ZM275.517 36.0056L263.975 63.5556L265.819 64.3284L277.361 36.7784L275.517 36.0056ZM264.897 62.942H264.085V64.942H264.897V62.942ZM265.017 63.5789L248.429 21.0069L246.565 21.7331L263.153 64.3051L265.017 63.5789ZM247.497 22.37H254.399V20.37H247.497V22.37ZM253.462 21.7187L263.67 49.1527L265.544 48.4553L255.336 21.0213L253.462 21.7187ZM265.528 49.194L277.244 21.528L275.402 20.748L263.686 48.414L265.528 49.194ZM276.323 22.138H276.671V20.138H276.323V22.138ZM275.749 21.5263L287.407 49.1923L289.25 48.4157L277.592 20.7497L275.749 21.5263ZM322.235 21.312L323.137 20.8785L322.864 20.312H322.235V21.312ZM342.767 64V65H344.358L343.669 63.5666L342.767 64ZM335.285 64L334.369 64.4008L334.631 65H335.285V64ZM331.631 55.648L332.548 55.2472L332.285 54.648H331.631V55.648ZM312.085 55.648V54.648H311.431L311.169 55.2472L312.085 55.648ZM308.431 64V65H309.085L309.348 64.4008L308.431 64ZM301.181 64L300.279 63.5685L299.595 65H301.181V64ZM321.597 21.312V20.312H320.967L320.695 20.8805L321.597 21.312ZM319.335 39.466L320.248 39.876L320.251 39.8687L319.335 39.466ZM314.695 49.79L313.783 49.3801L313.15 50.79H314.695V49.79ZM329.079 49.79V50.79H330.621L329.993 49.3824L329.079 49.79ZM324.497 39.524L323.577 39.9157L323.581 39.9237L323.584 39.9316L324.497 39.524ZM322.003 33.666L322.923 33.2743L322.664 32.666H322.003V33.666ZM321.887 33.666V32.666H321.235L320.972 33.2633L321.887 33.666ZM321.334 21.7454L341.866 64.4334L343.669 63.5666L323.137 20.8785L321.334 21.7454ZM342.767 63H335.285V65H342.767V63ZM336.202 63.5992L332.548 55.2472L330.715 56.0488L334.369 64.4008L336.202 63.5992ZM331.631 54.648H312.085V56.648H331.631V54.648ZM311.169 55.2472L307.515 63.5992L309.348 64.4008L313.002 56.0488L311.169 55.2472ZM308.431 63H301.181V65H308.431V63ZM302.084 64.4315L322.5 21.7435L320.695 20.8805L300.279 63.5685L302.084 64.4315ZM321.597 22.312H322.235V20.312H321.597V22.312ZM318.423 39.0561L313.783 49.3801L315.607 50.1999L320.247 39.8759L318.423 39.0561ZM314.695 50.79H329.079V48.79H314.695V50.79ZM329.993 49.3824L325.411 39.1164L323.584 39.9316L328.166 50.1976L329.993 49.3824ZM325.417 39.1323L322.923 33.2743L321.083 34.0577L323.577 39.9157L325.417 39.1323ZM322.003 32.666H321.887V34.666H322.003V32.666ZM320.972 33.2633L318.42 39.0633L320.251 39.8687L322.803 34.0687L320.972 33.2633ZM352.788 44.106H353.788V43.8094L353.626 43.5607L352.788 44.106ZM337.998 21.37V20.37H336.154L337.16 21.9153L337.998 21.37ZM345.77 21.37L346.623 20.849L346.331 20.37H345.77V21.37ZM356.036 38.19L355.182 38.711L356.036 40.1095L356.889 38.711L356.036 38.19ZM366.302 21.37V20.37H365.741L365.448 20.849L366.302 21.37ZM374.016 21.37L374.856 21.9118L375.85 20.37H374.016V21.37ZM359.284 44.222L358.443 43.6802L358.284 43.9276V44.222H359.284ZM359.284 64V65H360.284V64H359.284ZM352.788 64H351.788V65H352.788V64ZM353.626 43.5607L338.836 20.8247L337.16 21.9153L351.95 44.6513L353.626 43.5607ZM337.998 22.37H345.77V20.37H337.998V22.37ZM344.916 21.891L355.182 38.711L356.889 37.669L346.623 20.849L344.916 21.891ZM356.889 38.711L367.155 21.891L365.448 20.849L355.182 37.669L356.889 38.711ZM366.302 22.37H374.016V20.37H366.302V22.37ZM373.175 20.8282L358.443 43.6802L360.124 44.7638L374.856 21.9118L373.175 20.8282ZM358.284 44.222V64H360.284V44.222H358.284ZM359.284 63H352.788V65H359.284V63ZM353.788 64V44.106H351.788V64H353.788Z" fill="#CEB7FF"/>
</g>
<defs>
<filter id="filter0_d_214_8312" x="0.993896" y="15.674" width="378.022" height="53.906" filterUnits="userSpaceOnUse" color-interpolation-filters="sRGB">
<feFlood flood-opacity="0" result="BackgroundImageFix"/>
<feColorMatrix in="SourceAlpha" type="matrix" values="0 0 0 0 0 0 0 0 0 0 0 0 0 0 0 0 0 0 127 0" result="hardAlpha"/>
<feOffset/>
<feGaussianBlur stdDeviation="2.5"/>
<feComposite in2="hardAlpha" operator="out"/>
<feColorMatrix type="matrix" values="0 0 0 0 0.701961 0 0 0 0 0.466667 0 0 0 0 1 0 0 0 1 0"/>
<feBlend mode="normal" in2="BackgroundImageFix" result="effect1_dropShadow_214_8312"/>
<feBlend mode="normal" in="SourceGraphic" in2="effect1_dropShadow_214_8312" result="shape"/>
</filter>
</defs>
</svg>
