<svg width="335" height="261" viewBox="0 0 335 261" fill="none" xmlns="http://www.w3.org/2000/svg">
<path d="M303.512 257.033C304.075 257.096 304.612 257.305 305.07 257.637C305.529 257.97 305.894 258.416 306.129 258.932C306.173 259.063 306.173 259.204 306.129 259.335C306.129 259.536 305.841 259.651 305.64 259.737C304.489 260.198 302.994 260.629 302.131 259.737C301.971 259.526 301.865 259.28 301.821 259.019C301.777 258.758 301.797 258.491 301.879 258.239C301.961 257.988 302.102 257.76 302.292 257.575C302.481 257.39 302.712 257.253 302.965 257.177L303.742 257.867L303.512 257.033Z" fill="#43E0F7"/>
<path d="M20.19 243.052C20.19 245.049 19.598 247.002 18.4887 248.662C17.3795 250.323 15.8028 251.617 13.9582 252.381C12.1135 253.145 10.0838 253.345 8.12555 252.956C6.16731 252.566 4.36855 251.604 2.95673 250.192C1.54492 248.78 0.583496 246.981 0.193978 245.022C-0.195539 243.064 0.00437053 241.033 0.768437 239.188C1.5325 237.343 2.82637 235.766 4.48649 234.657C6.1466 233.547 8.09843 232.955 10.095 232.955C12.7724 232.955 15.3401 234.019 17.2332 235.913C19.1264 237.806 20.19 240.374 20.19 243.052Z" fill="white"/>
<path style="mix-blend-mode:screen" d="M5.23475 237.702C5.23475 237.702 99.9724 154.853 210.615 77.2106L212.57 75.8298C221.055 69.76 226.577 64.4956 233.882 60.6408C234.687 60.2093 235.522 59.8066 236.384 59.4039C245.013 51.8381 259.393 48.9614 267.388 39.0943C268.306 38.3482 269.266 37.6566 270.264 37.0231L273.14 35.2396L276.017 33.456C279.525 23.0136 291.03 20.1369 300.981 17.8931L303.857 16.2246L309.408 12.8876L312.284 11.2479C316.914 2.8767 334.171 17.2602 334.171 0C334.171 11.5068 319.79 5.75341 313.635 13.1753L311.709 14.5273L303.31 20.2807C302.678 20.7122 302.074 21.1725 301.412 21.5465C291.03 20.1369 282.401 25.8903 278.49 38.0588L276.966 39.1519L273.859 41.3669L271.76 42.8628C262.964 51.1132 253.132 58.1822 242.51 63.8915L240.813 65.1285C227.756 63.2874 224.88 77.6709 216.539 82.8202C215.964 83.2805 215.36 83.712 214.756 84.1435C143.89 136.241 59.1898 201.484 10.0953 249.87C10.0953 249.87 4.0268 248.72 5.23475 237.702Z" fill="url(#paint0_linear_214_7767)"/>
<defs>
<linearGradient id="paint0_linear_214_7767" x1="5.06218" y1="124.964" x2="334.171" y2="124.964" gradientUnits="userSpaceOnUse">
<stop stop-color="white"/>
<stop offset="0.12" stop-color="#D1D1D1"/>
<stop offset="0.3" stop-color="#929292"/>
<stop offset="0.48" stop-color="#5E5E5E"/>
<stop offset="0.64" stop-color="#353535"/>
<stop offset="0.78" stop-color="#181818"/>
<stop offset="0.91" stop-color="#060606"/>
<stop offset="1"/>
</linearGradient>
</defs>
</svg>
